<?xml version="1.0" standalone="no"?>
<!DOCTYPE svg PUBLIC "-//W3C//DTD SVG 20010904//EN"
 "http://www.w3.org/TR/2001/REC-SVG-20010904/DTD/svg10.dtd">
<svg version="1.0" xmlns="http://www.w3.org/2000/svg"
 width="500.000000pt" height="575.000000pt" viewBox="0 0 500.000000 575.000000"
 preserveAspectRatio="xMidYMid meet">
<metadata>
Created by potrace 1.16, written by Peter Selinger 2001-2019
</metadata>
<g transform="translate(0.000000,575.000000) scale(0.100000,-0.100000)"
fill="#000000" stroke="none">
<path d="M4570 5233 c-13 -3 -43 -18 -66 -34 -24 -16 -47 -29 -52 -29 -6 0
-12 -6 -15 -12 -2 -7 -47 -39 -98 -72 -52 -32 -114 -72 -138 -89 -33 -23 -45
-27 -51 -17 -7 11 -17 11 -57 0 -114 -31 -93 -31 302 -10 94 5 193 7 221 4
l50 -6 -15 -33 c-14 -30 -21 -33 -66 -37 -27 -2 -53 0 -56 4 -3 5 -81 3 -174
-3 -152 -11 -170 -15 -190 -35 -13 -12 -39 -26 -59 -30 -26 -4 -36 -11 -32
-20 3 -8 1 -14 -5 -14 -11 0 -69 39 -84 57 -8 9 -25 9 -75 -3 -36 -9 -91 -18
-124 -21 -46 -4 -60 -10 -63 -24 -6 -20 -23 -26 -23 -9 0 19 -42 10 -47 -10
-3 -11 -9 -17 -14 -14 -5 3 -44 0 -86 -7 -43 -6 -93 -11 -110 -10 -18 0 -33
-4 -33 -9 0 -6 -11 -10 -24 -10 -21 0 -24 4 -23 27 2 23 10 30 51 44 83 30 78
37 -24 39 -104 1 -124 0 -131 -12 -4 -6 -19 -12 -33 -13 -27 -3 -76 -30 -76
-41 0 -3 33 -3 73 1 39 4 70 5 67 2 -7 -8 -177 -54 -226 -62 -23 -3 -44 -2
-47 2 -7 11 -177 -17 -177 -28 0 -20 57 -20 525 1 121 5 228 16 295 29 184 37
399 62 594 68 142 5 187 3 182 -5 -13 -22 65 -13 108 12 23 13 57 27 76 30 95
19 111 41 88 123 -13 45 -15 48 -45 45 -17 -2 -33 1 -36 5 -3 5 7 60 23 121
l28 112 -42 -1 c-22 -1 -52 -4 -66 -6z"/>
<path d="M1113 5163 c-29 -2 -53 -9 -53 -14 0 -6 -4 -8 -9 -4 -6 3 -15 -4 -21
-15 -13 -25 -29 -26 -46 -2 -12 16 -13 16 -14 0 0 -9 5 -20 10 -23 16 -10 0
-26 -20 -20 -17 5 -37 -21 -25 -33 3 -3 5 0 5 8 0 9 3 10 14 1 7 -6 22 -8 32
-4 16 6 15 4 -3 -16 -14 -15 -28 -21 -38 -17 -9 3 -13 2 -10 -4 3 -6 18 -10
32 -10 24 0 25 -1 10 -22 -8 -13 -23 -22 -33 -21 -10 1 -22 -4 -26 -10 -5 -7
-8 -1 -8 16 l0 27 -75 0 c-72 0 -81 -4 -76 -32 0 -5 -5 -8 -12 -8 -11 0 -41
-36 -42 -52 0 -4 -21 -31 -47 -62 -27 -30 -48 -59 -48 -65 0 -6 10 -16 22 -22
19 -10 25 -8 53 22 30 33 32 34 103 31 54 -3 72 -7 72 -18 0 -8 5 -14 10 -14
6 0 10 6 10 14 0 8 5 18 12 22 18 11 161 5 169 -7 3 -6 12 -35 18 -65 7 -30
16 -54 20 -54 5 0 0 30 -10 67 -11 37 -19 71 -19 74 0 4 68 5 151 4 179 -4
189 -8 189 -89 0 -28 -9 -80 -21 -116 -14 -46 -22 -102 -26 -190 -2 -69 -6
-126 -8 -128 -1 -2 -52 24 -111 57 -60 34 -104 61 -99 61 6 1 -3 7 -20 15
l-30 13 33 1 c35 1 37 3 22 32 -13 23 -32 26 -23 3 5 -15 1 -16 -33 -10 -81
14 -144 31 -144 38 0 3 -13 13 -29 21 -23 12 -32 12 -52 1 -21 -11 -22 -13 -6
-19 28 -12 20 -22 -30 -36 l-48 -13 65 -6 c59 -5 120 -30 120 -49 0 -4 15 -14
33 -23 104 -50 145 -72 173 -93 40 -31 200 -125 212 -125 9 0 7 70 -4 110 -6
24 -6 24 9 5 14 -18 15 -16 13 28 -1 26 3 47 9 47 5 0 5 4 -2 8 -6 4 -9 19 -6
34 4 23 8 26 23 18 24 -13 33 -13 25 0 -3 6 0 10 7 10 9 0 9 3 -2 10 -13 8
-13 10 2 10 9 0 19 8 21 18 3 9 6 -3 7 -28 3 -54 3 -43 -5 -111 -7 -55 -6 -57
26 -79 l32 -24 -7 25 c-5 13 -8 32 -7 42 1 55 5 73 15 80 7 4 8 10 1 15 -5 4
-17 16 -25 27 -14 19 -14 19 3 6 17 -13 23 -7 18 22 -1 4 10 5 23 1 13 -3 27
-1 30 4 3 5 0 10 -7 9 -40 -1 -48 3 -42 24 5 14 2 25 -6 30 -10 6 -8 9 9 9 19
0 21 3 12 19 -8 17 -6 22 17 33 20 9 29 22 31 43 1 17 -1 25 -5 19 -12 -16
-84 -25 -100 -12 -21 17 -15 31 10 24 29 -7 79 6 85 22 2 7 -6 12 -20 12 -12
0 -29 4 -37 9 -10 6 -6 11 15 19 16 6 22 11 13 11 -14 1 -15 9 -8 54 5 28 10
65 11 80 2 26 18 51 18 28 0 -5 8 -12 18 -14 15 -4 15 -5 -2 -6 -15 -1 -16 -4
-6 -16 7 -8 8 -15 3 -15 -15 0 -11 -29 5 -35 19 -7 32 3 32 26 0 27 27 35 49
15 10 -9 27 -16 39 -16 20 0 21 2 10 20 -7 11 -19 20 -27 20 -11 0 -11 3 0 16
11 14 10 18 -5 29 -10 8 -15 19 -10 26 4 7 3 10 -3 6 -12 -7 -23 14 -23 42 0
16 -58 46 -69 35 -9 -9 16 -39 31 -36 8 1 6 -3 -4 -11 -14 -11 -15 -17 -5 -28
7 -7 2 -5 -10 5 -17 14 -23 15 -23 6 0 -11 -3 -11 -12 -2 -7 7 -20 12 -29 12
-10 0 -20 6 -22 13 -3 7 -6 5 -6 -5 -1 -10 -5 -18 -11 -18 -5 0 -9 11 -8 25 1
14 8 25 15 25 7 0 13 5 13 11 0 5 4 8 9 5 5 -3 11 4 14 15 4 15 11 20 22 15 9
-3 13 -2 10 4 -3 6 -13 10 -21 10 -19 0 -50 34 -69 75 l-14 30 -13 -32 c-7
-19 -20 -33 -33 -35 -16 -2 -21 -12 -23 -45 l-3 -43 -68 0 c-65 0 -69 1 -75
25 -8 30 -32 33 -39 5 -7 -26 -23 -26 -30 1 -5 20 -6 20 -24 2 -18 -17 -17
-18 24 -31 25 -7 43 -19 43 -27 0 -19 -2 -19 -48 1 -20 8 -50 17 -65 19 -24 3
-26 1 -16 -11 6 -8 17 -14 23 -14 7 0 23 -11 36 -25 22 -23 22 -25 4 -31 -10
-4 -22 -9 -26 -11 -4 -2 -5 2 -2 10 6 17 -12 32 -21 17 -6 -10 -54 -3 -97 14
l-27 12 29 49 c20 34 38 52 62 60 18 6 32 16 31 23 -2 7 -4 17 -5 23 -3 13 51
19 58 7 7 -12 54 -10 54 2 0 6 -9 10 -20 10 -11 0 -20 5 -20 10 0 6 -6 9 -12
8 -7 -1 -37 -3 -65 -5z"/>
<path d="M2355 5126 c4 -20 1 -32 -12 -43 -10 -8 -13 -12 -7 -9 6 3 17 -4 25
-16 8 -11 19 -26 26 -33 7 -7 9 -16 5 -19 -3 -4 -14 3 -24 16 -13 17 -18 19
-18 8 0 -9 15 -24 33 -35 17 -10 35 -24 39 -31 5 -7 17 -10 29 -7 18 5 20 3
15 -14 -4 -13 3 -32 23 -56 l29 -37 5 33 c2 17 1 33 -2 35 -4 1 -5 18 -3 37 3
28 1 35 -13 35 -15 0 -15 1 -1 16 9 8 16 18 17 22 0 4 2 15 4 25 2 12 -7 22
-31 32 -20 8 -38 25 -44 40 -5 14 -15 25 -22 25 -10 0 -10 -2 -1 -8 8 -5 3
-15 -17 -31 -29 -22 -29 -23 -12 -47 19 -26 37 -32 28 -9 -3 8 0 15 7 15 19 0
80 -40 73 -48 -4 -3 -10 -2 -14 4 -4 6 -17 14 -29 18 -30 9 -31 -13 -2 -37 11
-10 18 -21 14 -25 -3 -4 -11 1 -16 11 -7 11 -17 16 -28 12 -14 -4 -23 3 -35
30 -9 19 -21 35 -27 35 -5 0 -7 11 -3 24 3 14 1 33 -6 43 -10 15 -10 14 -5
-11z"/>
<path d="M1636 4655 c-7 -18 -8 -17 329 -245 149 -101 325 -221 393 -266 71
-48 134 -84 148 -84 22 0 24 4 24 45 0 25 -4 45 -9 45 -19 0 -121 66 -121 78
0 7 -5 10 -10 7 -13 -8 -126 59 -165 98 -16 16 -40 33 -54 38 -13 5 -21 12
-18 16 3 3 22 -4 42 -16 32 -18 46 -20 101 -15 57 6 64 5 58 -10 -3 -9 -13
-16 -21 -16 -8 0 -11 -4 -8 -10 8 -13 65 -13 65 -1 0 6 -5 13 -10 16 -15 9 -2
25 21 25 11 0 17 -4 14 -10 -4 -6 14 -10 47 -10 49 1 51 2 34 15 -11 8 -24 15
-29 15 -4 0 -5 5 -2 11 5 7 13 5 24 -5 34 -31 40 -20 38 67 l-2 82 -90 2 c-49
1 -132 3 -183 5 -83 2 -95 1 -108 -17 -9 -13 -11 -22 -4 -29 19 -19 10 -24
-42 -23 -31 1 -53 -4 -56 -11 -2 -7 -11 -5 -25 8 -11 11 -28 20 -38 20 -9 0
-81 38 -159 85 -188 113 -177 107 -184 90z"/>
<path d="M11 4506 c-1 -6 -5 -82 -8 -169 l-4 -159 33 7 c33 7 150 106 156 134
2 7 19 27 38 43 30 27 48 58 25 43 -5 -3 -12 -1 -16 5 -4 6 7 10 26 10 38 0
70 25 62 48 -4 10 -2 13 5 8 7 -4 12 -2 12 3 0 16 -11 13 -33 -6 -14 -13 -21
-14 -24 -6 -2 7 -10 10 -16 8 -7 -2 -24 -6 -39 -9 -16 -4 -27 -11 -25 -17 1
-7 -4 -14 -12 -17 -9 -3 -12 0 -8 10 4 11 -3 16 -26 17 -18 1 -46 3 -64 4 -17
1 -35 6 -40 11 -5 5 -3 6 5 2 6 -4 12 -2 12 3 0 16 -11 14 -32 -6 -21 -19 -25
-1 -3 20 12 13 12 15 -4 20 -10 2 -19 -1 -20 -7z"/>
<path d="M392 4003 c-5 -10 -8 -126 -7 -258 1 -221 0 -241 -17 -255 -12 -10
-20 -35 -24 -77 -6 -57 -5 -63 20 -88 14 -14 24 -30 21 -35 -7 -12 6 -70 16
-70 5 0 9 24 9 53 0 29 7 60 15 71 16 21 11 86 -8 98 -6 4 -8 8 -3 8 6 0 1 7
-10 15 -10 8 -13 14 -6 13 10 -2 13 52 15 251 l2 255 225 -2 c124 -2 255 -5
291 -8 l66 -6 -3 -207 c-3 -204 -4 -221 -19 -294 -5 -26 -3 -42 6 -53 15 -19
20 -44 12 -58 -11 -18 -14 -108 -3 -101 6 4 10 -12 10 -39 0 -30 -4 -46 -12
-47 -15 0 -295 3 -450 5 -59 1 -110 5 -114 8 -3 4 -14 -1 -25 -10 -14 -12 -19
-30 -19 -63 0 -39 3 -48 21 -52 12 -3 18 -10 15 -16 -4 -5 -2 -12 4 -16 18
-11 11 -25 -13 -25 -16 0 -31 14 -55 55 -18 30 -38 55 -44 55 -5 0 0 -15 12
-32 58 -88 80 -151 80 -229 0 -95 -19 -119 -94 -119 -43 0 -47 -2 -44 -22 2
-14 16 -30 38 -40 29 -15 34 -23 32 -45 -2 -14 -19 -41 -38 -58 -19 -18 -34
-39 -34 -47 0 -18 -17 -33 -45 -40 -16 -4 -20 0 -20 24 0 18 5 28 15 29 10 0
8 3 -5 9 -11 5 -17 9 -12 9 4 1 1 14 -7 30 -11 20 -12 31 -4 39 7 7 0 22 -25
49 -48 51 -98 77 -133 69 -26 -7 -27 -8 -22 -77 3 -39 11 -76 17 -82 16 -16
14 -37 -4 -37 -8 0 -15 -7 -15 -15 0 -16 26 -21 32 -6 2 5 19 11 38 13 31 3
35 0 38 -23 3 -25 2 -26 -42 -19 -45 7 -46 6 -40 -19 3 -14 15 -38 25 -53 20
-28 13 -38 -9 -16 -9 9 -12 2 -12 -35 0 -29 4 -47 11 -47 21 0 38 -35 39 -78
0 -24 5 -52 11 -64 6 -11 8 -22 5 -25 -3 -3 -15 14 -26 38 l-20 44 6 -60 c3
-33 10 -76 15 -95 14 -56 11 -110 -6 -117 -22 -8 -27 0 -32 52 -4 29 -10 45
-19 45 -11 0 -14 -28 -14 -140 l0 -140 47 0 c53 0 50 -11 -14 -41 l-38 -17 78
-1 c70 -1 77 1 77 18 0 11 -8 21 -18 23 -16 3 -16 4 1 11 14 5 19 0 24 -23 5
-27 10 -30 42 -30 l36 0 -3 242 -2 241 26 45 c15 25 44 64 64 86 40 45 155
194 183 239 10 16 17 38 17 50 -5 61 21 65 50 8 17 -35 20 -60 20 -203 1 -160
-11 -350 -30 -498 -5 -41 -9 -105 -7 -142 l2 -68 127 0 c112 0 127 2 131 18 4
16 5 16 6 0 1 -16 14 -18 121 -18 l120 0 0 83 c0 50 -5 90 -13 102 -7 11 -14
43 -16 71 -3 57 14 84 54 84 31 0 36 10 25 50 -8 27 -6 35 8 46 9 7 20 10 24
8 12 -8 9 -54 -3 -54 -7 0 -8 -16 -3 -45 5 -39 4 -45 -12 -45 -9 0 -14 -3 -10
-7 4 -5 11 -8 15 -8 21 0 40 -38 47 -94 6 -58 8 -60 31 -55 23 6 24 5 21 -32
-4 -33 -8 -39 -26 -37 -23 3 -26 -6 -16 -45 7 -23 7 -23 169 -21 156 2 162 3
157 22 -4 17 -1 18 29 12 19 -4 38 -14 42 -21 6 -10 25 -14 63 -13 52 2 66 10
42 25 -7 5 -4 10 10 15 27 10 29 29 3 29 -33 0 -51 11 -68 43 -15 30 -15 31
13 56 16 13 28 30 26 38 -2 7 3 12 10 11 9 -2 12 7 11 27 -1 17 5 63 13 104 8
40 14 88 14 107 0 19 4 34 9 34 5 0 11 9 14 19 4 17 9 19 38 11 19 -5 68 -10
109 -12 l75 -3 3 55 c2 30 -2 101 -9 157 -12 99 -13 101 -38 99 -14 -2 -27 -8
-29 -15 -2 -6 -8 -11 -13 -11 -5 0 -2 12 7 26 13 19 19 22 26 12 5 -8 6 -1 2
17 -9 41 -14 47 -30 41 -8 -3 -14 -1 -14 4 0 6 -7 10 -16 10 -13 0 -15 -7 -11
-30 7 -31 0 -63 -12 -56 -4 3 -13 1 -21 -4 -22 -13 2 -54 49 -85 22 -15 42
-33 45 -41 8 -21 -12 -27 -37 -12 -14 9 -35 12 -57 8 -37 -6 -70 4 -83 26 -4
7 -23 18 -43 24 l-36 12 26 27 c28 29 33 50 15 68 -8 8 -6 24 6 58 14 42 14
50 1 70 -24 36 -118 94 -137 84 -9 -4 -32 -6 -51 -3 -28 5 -40 1 -66 -22 -30
-28 -31 -31 -27 -100 2 -40 8 -80 13 -91 8 -15 5 -24 -15 -43 -21 -20 -34 -24
-79 -22 -30 1 -62 -2 -72 -7 -9 -6 -50 -42 -91 -80 -41 -39 -78 -71 -82 -71
-13 0 -17 78 -9 200 11 163 32 281 63 355 23 57 24 65 16 175 -5 63 -18 156
-30 207 -13 58 -20 111 -16 139 4 42 2 47 -40 89 -32 32 -45 53 -45 75 -1 16
-5 27 -10 24 -4 -3 -8 2 -8 11 0 9 5 13 10 10 6 -3 10 -2 10 4 0 5 -4 13 -10
16 -14 9 -12 68 3 84 10 11 9 12 -3 6 -12 -7 -13 -6 -3 6 12 15 17 221 7 261
-4 14 -26 16 -184 18 -141 0 -180 -2 -180 -12 0 -9 -3 -9 -11 2 -8 11 -12 12
-16 3 -6 -17 -28 -16 -43 2 -9 11 -34 15 -101 15 -74 0 -90 -3 -97 -17z m627
-996 c-16 -26 -29 -56 -29 -67 0 -22 -26 -90 -34 -90 -2 0 -11 3 -20 6 -13 5
-12 9 4 27 11 11 21 27 21 34 2 22 4 28 13 42 6 10 5 12 -2 7 -8 -4 -16 3 -22
19 -5 14 -14 24 -19 21 -9 -6 -31 36 -31 61 0 21 -38 62 -59 65 -9 1 29 4 84
7 l100 6 2 45 c4 117 7 116 13 -5 l7 -130 -28 -48z m-279 134 c29 -6 36 -9 18
-10 -43 -2 -78 -52 -78 -112 0 -35 -4 -49 -14 -49 -22 0 -28 -31 -11 -56 8
-13 15 -30 15 -39 0 -8 5 -15 10 -15 6 0 10 -11 10 -25 0 -14 -5 -25 -11 -25
-18 0 -69 57 -69 78 0 11 -22 40 -49 64 -50 46 -51 48 -66 156 l-5 42 102 -1
c57 0 123 -4 148 -8z"/>
<path d="M4295 3923 c-20 -5 -101 -68 -141 -109 -11 -12 -30 -25 -41 -28 -29
-9 -70 -74 -77 -123 -5 -36 -3 -43 14 -48 11 -3 20 -13 20 -21 0 -9 11 -14 30
-14 17 0 30 -5 30 -11 0 -6 9 -22 20 -36 12 -16 20 -41 20 -65 0 -25 5 -41 15
-44 8 -4 15 -12 15 -20 0 -7 9 -18 19 -23 10 -6 28 -28 38 -48 11 -21 31 -45
46 -53 23 -13 30 -12 63 3 35 17 36 17 29 0 -4 -10 -8 -28 -10 -41 -1 -13 -8
-29 -15 -35 -10 -9 -11 -9 -5 3 6 10 5 12 -3 5 -14 -13 -57 -129 -66 -178 -4
-20 -27 -79 -51 -130 -26 -52 -47 -113 -51 -142 -9 -77 -8 -76 -48 -60 -20 8
-49 15 -66 15 -39 0 -120 -22 -120 -32 0 -5 -25 -8 -55 -7 -65 2 -82 -7 -32
-16 23 -5 37 -14 40 -27 5 -18 2 -20 -36 -14 -23 3 -55 2 -72 -2 -29 -9 -29
-9 17 -16 25 -4 52 -14 58 -21 7 -8 23 -15 37 -15 14 0 39 -14 59 -34 34 -33
35 -34 24 -82 -6 -27 -10 -71 -9 -99 3 -43 9 -56 43 -94 42 -45 109 -83 132
-74 7 2 18 -5 24 -17 11 -20 9 -52 -6 -133 l-6 -27 219 1 c120 0 229 3 242 6
l24 6 -29 15 -29 15 30 13 c33 14 25 20 -35 28 -19 2 1 3 45 2 74 -3 77 0 20
19 l-20 7 20 8 c19 9 19 9 -3 16 -23 7 -26 33 -8 62 7 11 4 12 -11 4 -11 -6
-25 -7 -33 -2 -8 5 -18 6 -22 4 -4 -3 -8 0 -8 6 0 13 92 9 124 -5 17 -7 18 -6
11 11 -4 10 -10 43 -13 73 -4 47 -3 53 11 48 9 -3 19 -2 22 3 4 7 13 6 26 0
10 -6 19 -7 19 -2 0 5 23 7 50 4 28 -2 50 -1 50 4 0 13 -49 34 -78 34 -35 0
-13 24 36 38 38 12 64 42 60 72 -2 8 1 34 6 57 7 37 4 47 -18 75 -14 19 -46
49 -71 68 -26 20 -48 45 -51 60 -3 14 -10 33 -16 44 -12 22 6 39 34 32 10 -2
21 0 24 5 3 6 11 5 20 -2 17 -14 19 -64 2 -53 -8 5 -9 2 -5 -9 3 -10 2 -17 -3
-17 -22 0 -8 -29 30 -59 l40 -32 -7 33 c-7 38 -13 49 -13 24 0 -9 -4 -14 -10
-11 -13 8 -13 51 2 91 10 30 9 37 -17 76 -15 24 -34 46 -41 51 -7 4 -15 21
-19 37 -9 39 -25 48 -25 14 0 -44 -13 -19 -16 33 -2 27 -6 74 -9 106 -7 66 9
78 24 20 6 -21 17 -64 26 -96 9 -32 30 -85 48 -119 60 -112 57 -110 57 -45 0
31 -4 57 -9 57 -5 0 -12 24 -16 53 -10 72 -19 92 -73 164 -39 52 -52 62 -78
63 -36 0 -72 36 -81 80 -5 25 -2 31 21 40 15 5 39 10 52 10 16 0 24 5 21 13
-4 12 -10 14 -61 16 -24 1 -27 3 -16 16 19 23 -1 18 -28 -7 l-25 -23 12 22 c6
12 16 25 21 28 6 4 8 11 4 17 -4 5 -19 -2 -37 -19 l-31 -28 21 36 c16 28 18
40 10 48 -9 9 -16 6 -29 -11 -16 -23 -17 -22 -12 22 l5 45 -21 -51 c-11 -29
-28 -54 -38 -57 -9 -3 -24 -8 -33 -11 -14 -6 -16 -2 -9 36 9 45 -3 73 -26 64
-14 -5 -39 47 -36 77 0 11 6 25 12 31 16 15 40 -19 40 -56 0 -15 3 -28 8 -28
19 1 31 18 30 45 -1 17 2 39 5 50 9 29 -7 49 -33 42 -17 -4 -19 -3 -10 8 15
18 70 25 70 8 0 -17 30 -17 31 0 0 6 7 -5 15 -26 11 -31 11 -44 2 -60 -15 -27
-17 -56 -6 -63 4 -3 8 0 8 6 0 7 6 10 14 7 9 -4 16 3 20 16 3 12 2 23 -3 25
-5 2 -7 11 -4 21 3 11 -2 30 -11 44 -9 13 -16 37 -15 53 4 58 -26 101 -38 54
-6 -24 -19 -26 -27 -5 -3 8 -9 15 -13 14 -24 -4 -33 4 -33 28 l0 26 23 -21
c25 -23 62 -33 39 -10 -18 18 -15 31 5 24 13 -5 10 1 -7 20 -31 32 -58 43
-115 46 -24 0 -46 6 -49 13 -2 7 5 11 17 10 12 -1 29 0 37 4 35 12 -69 25
-115 14z"/>
<path d="M620 3519 c-8 -5 -36 -18 -62 -29 l-48 -19 0 -54 c0 -53 1 -55 31
-61 17 -3 60 -6 95 -6 75 0 75 2 38 85 -14 32 -23 64 -20 71 6 16 -15 24 -34
13z"/>
<path d="M4818 3223 c27 -32 68 -97 91 -145 43 -91 58 -145 18 -68 -12 25 -27
44 -33 43 -7 -1 -14 16 -18 38 -4 22 -10 37 -15 34 -11 -6 -42 36 -61 83 -16
42 -30 50 -30 18 0 -17 18 -45 50 -81 37 -40 50 -63 50 -85 0 -17 4 -30 8 -30
8 0 28 -64 37 -120 17 -115 24 -152 28 -157 21 -20 20 265 0 302 -6 11 -24 47
-39 80 -30 64 -97 145 -121 145 -8 0 6 -24 35 -57z"/>
<path d="M3892 1740 c2 -6 57 -35 123 -64 66 -29 144 -65 174 -79 30 -15 67
-27 82 -27 15 0 31 -4 34 -10 4 -7 -88 -11 -267 -12 l-273 -2 225 -7 c124 -3
227 -8 230 -9 3 -1 -53 -13 -125 -26 -88 -15 -109 -21 -65 -18 36 3 89 9 119
15 84 14 148 11 170 -8 11 -9 18 -20 16 -24 -3 -4 7 -10 21 -13 34 -9 26 -25
-20 -41 -43 -15 -54 -27 -63 -68 -3 -16 -16 -33 -29 -39 -12 -6 -24 -18 -27
-28 -3 -11 -19 -20 -41 -24 -39 -8 -46 -19 -18 -35 9 -6 11 -11 5 -11 -18 0
-16 -20 1 -20 21 0 24 -42 4 -62 -9 -9 -36 -21 -60 -26 l-43 -10 53 -1 c28 -1
52 -5 52 -11 0 -5 -8 -10 -17 -11 -12 -1 -10 -4 7 -9 22 -7 23 -8 4 -9 -12 -1
-41 -4 -66 -7 -43 -6 -46 -5 -55 22 -12 35 -7 55 12 48 11 -5 13 2 8 29 -3 23
0 47 11 68 9 17 16 40 16 50 0 15 -4 16 -32 7 -18 -5 -52 -12 -76 -13 -54 -5
-58 -7 -87 -63 -30 -57 -42 -72 -77 -95 -16 -10 -28 -26 -28 -37 0 -10 -9 -25
-20 -33 -11 -8 -17 -16 -14 -20 3 -3 -11 -8 -32 -12 -104 -16 -146 -29 -161
-51 -13 -21 -83 -44 -131 -44 -10 0 -33 25 -54 58 -21 31 -49 69 -63 84 -31
34 -31 43 0 64 22 15 28 15 43 2 9 -8 41 -24 69 -36 l53 -21 -16 24 c-14 22
-14 25 6 45 12 12 37 24 56 27 35 6 48 23 17 23 -12 0 -14 3 -6 8 6 4 -45 8
-114 10 -106 2 -128 5 -139 20 -13 16 -13 16 -14 0 0 -15 -4 -16 -25 -6 -19 8
-28 8 -40 -2 -8 -7 -18 -10 -22 -7 -3 3 -18 0 -34 -9 -26 -13 -29 -13 -29 1 0
8 -4 15 -10 15 -5 0 -7 -7 -4 -15 5 -11 -1 -15 -25 -15 -18 0 -32 5 -32 13 -1
6 -2 19 -3 27 0 8 -8 15 -16 15 -8 0 -18 4 -21 8 -10 14 -59 -34 -59 -59 0
-13 -4 -24 -9 -24 -18 0 -8 51 12 65 17 12 18 15 5 15 -8 0 -23 12 -33 26 -13
20 -14 28 -4 40 8 10 15 12 23 4 5 -5 13 -10 18 -10 11 0 -3 32 -29 63 -13 16
-23 34 -24 40 0 7 -21 26 -47 42 -42 27 -47 34 -44 63 3 26 -2 37 -22 53 -21
17 -23 23 -15 52 5 17 9 38 9 45 0 25 -24 6 -35 -29 -11 -32 -15 -34 -73 -42
-43 -6 -62 -13 -62 -23 0 -18 -14 -18 -51 2 -50 25 -57 10 -11 -22 99 -66 144
-119 103 -119 -16 0 -63 -122 -51 -130 10 -6 39 35 68 97 9 21 24 37 32 37 22
-1 182 -184 196 -224 11 -33 10 -34 -15 -38 -23 -3 -22 -4 7 -6 17 0 32 -6 32
-12 0 -8 18 -10 58 -6 36 3 48 2 32 -3 -21 -7 -22 -8 -5 -9 17 -1 18 -3 4 -11
-9 -5 -31 -12 -49 -15 -45 -8 -53 -14 -47 -36 3 -10 1 -22 -4 -25 -5 -3 -9 0
-9 5 0 19 -28 12 -44 -11 l-15 -22 -26 28 c-13 14 -29 35 -35 46 -6 11 -17 20
-25 20 -10 0 -14 11 -13 35 2 42 -11 58 -43 53 -16 -2 -26 -13 -33 -35 -5 -18
-15 -33 -23 -33 -8 0 -12 -4 -9 -9 3 -5 16 -7 28 -3 14 3 19 2 14 -6 -10 -17
-26 -15 -48 5 -21 19 -103 19 -125 1 -7 -6 -13 -31 -12 -57 0 -25 3 -39 6 -31
11 28 28 35 81 35 35 0 52 -4 52 -12 0 -7 -5 -12 -12 -10 -7 1 -16 -17 -22
-43 -5 -25 -11 -47 -12 -49 -7 -9 -34 23 -34 40 0 10 -4 20 -9 23 -16 10 -42
-6 -39 -23 1 -9 -10 -29 -25 -45 -34 -36 -34 -53 0 -88 24 -25 25 -30 13 -53
-9 -17 -21 -25 -34 -23 -20 3 -21 12 -26 128 -4 93 -2 130 7 145 7 11 13 34
13 52 0 43 -31 54 -65 21 -29 -27 -31 -37 -9 -52 13 -10 11 -15 -17 -35 -18
-14 -39 -24 -46 -24 -8 0 -12 -6 -9 -14 3 -7 -1 -13 -9 -13 -8 0 -14 -5 -12
-11 3 -13 -18 -25 -58 -35 -16 -3 -24 -9 -17 -11 6 -3 12 -11 12 -19 0 -8 4
-14 10 -14 5 0 7 7 4 15 -4 9 0 15 9 15 9 0 14 -7 12 -17 -14 -72 -16 -75 -29
-64 -10 9 -15 8 -20 -4 -3 -9 -10 -13 -16 -10 -5 3 -10 2 -10 -4 0 -5 5 -13
11 -16 6 -4 9 -26 8 -49 -1 -22 3 -51 9 -62 6 -12 9 -24 5 -27 -3 -4 0 -13 7
-22 10 -12 9 -15 -6 -15 -11 0 -15 -4 -9 -8 15 -10 18 -42 4 -42 -8 0 -10 -13
-6 -43 4 -28 2 -48 -5 -55 -9 -9 -6 -12 13 -12 37 0 53 14 34 30 -20 17 -19
48 4 96 10 21 25 67 31 102 7 35 16 60 20 55 4 -4 22 -47 39 -94 32 -89 40
-154 19 -162 -7 -3 6 -2 29 0 36 5 49 1 78 -21 34 -27 35 -27 35 -5 0 21 3 21
97 17 63 -3 98 -8 101 -16 5 -17 54 -15 88 3 16 8 48 15 70 15 25 0 47 6 54
15 15 18 31 19 54 2 16 -12 17 -16 5 -35 -7 -12 -11 -23 -9 -25 3 -3 58 -7
123 -10 88 -4 123 -9 136 -21 23 -21 35 -20 27 0 -5 14 0 15 41 9 30 -4 44 -3
38 3 -16 14 -91 30 -187 37 -87 7 -108 17 -66 31 19 6 19 7 5 16 -20 11 -21
48 -4 163 11 73 14 80 34 77 28 -4 36 11 22 41 -7 16 -8 31 -2 42 18 32 46
-86 39 -163 -12 -127 -12 -127 3 -124 7 1 19 -3 27 -9 11 -9 14 -6 14 17 0 44
26 131 44 149 18 18 19 24 20 110 l1 60 63 3 c54 3 62 1 62 -15 0 -29 16 -47
35 -39 16 6 16 8 1 30 -20 32 -13 34 94 29 120 -7 270 10 286 32 14 19 27 6
13 -15 -14 -24 -10 -50 9 -51 13 0 11 -3 -6 -10 -28 -11 -52 -34 -52 -49 0 -7
6 -10 14 -7 12 5 13 1 4 -24 -7 -20 -6 -53 1 -106 7 -43 13 -87 14 -97 1 -11
7 -21 14 -23 8 -3 10 16 6 71 -4 51 -2 76 5 76 14 0 19 -20 27 -102 4 -38 11
-68 17 -68 6 0 8 11 4 25 -4 14 -3 31 0 37 4 7 6 35 5 64 -1 29 2 55 8 59 12
7 12 8 14 -94 2 -74 2 -74 37 -94 22 -12 36 -15 38 -8 2 6 13 11 25 12 19 1
19 2 -6 12 -24 10 -27 15 -22 39 9 37 22 178 28 289 2 31 5 36 27 37 14 0 70
3 125 7 310 20 360 23 363 20 2 -2 -15 -16 -37 -31 -44 -28 -52 -44 -23 -44
36 0 83 20 128 54 40 31 55 36 99 36 29 0 81 3 116 7 l64 8 -50 5 c-43 5 -35
7 58 14 97 8 107 10 107 28 0 19 -6 20 -110 16 -61 -1 -110 0 -110 3 0 4 48
10 108 15 l107 9 3 126 c2 104 0 128 -13 139 -13 10 -20 11 -39 1 -13 -7 -32
-11 -42 -9 -16 3 -13 7 13 21 37 20 50 51 32 74 -11 12 -27 14 -81 10 -49 -4
-76 -2 -95 9 -16 7 -37 14 -48 13 -15 0 -13 -3 10 -13 l30 -13 -28 -14 c-26
-12 -27 -14 -12 -25 25 -18 3 -26 -82 -32 -69 -4 -75 -3 -80 17 -4 18 -13 21
-54 21 -36 0 -51 4 -56 15 -8 23 -3 25 71 32 61 5 66 8 66 29 0 17 -9 28 -32
38 -18 8 -42 21 -53 30 -18 15 -7 16 155 11 96 -2 213 -7 260 -9 63 -4 73 -3
40 3 -25 5 -115 12 -200 16 -85 4 -159 11 -164 16 -6 5 -2 9 11 9 37 0 377 30
388 35 23 8 -100 3 -235 -10 -171 -17 -276 -19 -285 -5 -3 6 -37 10 -75 10
-61 0 -83 6 -185 50 -195 85 -330 131 -323 110z m-628 -580 c-22 -9 -36 -32
-38 -65 -1 -10 -12 -25 -24 -31 -17 -8 -20 -13 -10 -17 7 -3 3 -6 -10 -6 -15
-1 -26 -10 -33 -28 -10 -24 -13 -42 -19 -98 0 -5 -7 5 -15 24 -8 18 -15 62
-15 97 0 57 2 64 20 64 35 0 22 14 -33 37 l-52 21 79 1 c43 0 81 2 84 5 3 4
24 6 46 5 33 0 37 -2 20 -9z m-553 -490 c5 0 9 -36 9 -80 l0 -81 -60 7 c-42 5
-60 3 -60 -5 0 -14 -56 -15 -65 -1 -3 6 2 10 12 11 10 0 13 3 6 5 -14 6 -6 34
11 34 6 0 34 27 61 60 29 34 56 58 63 55 8 -3 18 -5 23 -5z"/>
<path d="M1256 1538 c-10 -84 -14 -133 -9 -120 7 18 43 -41 43 -68 0 -11 5
-29 12 -40 7 -10 9 -23 4 -27 -4 -4 -12 0 -18 11 -5 10 -19 25 -29 34 -10 9
-19 26 -20 37 -1 36 -8 4 -54 -265 -34 -197 -52 -277 -70 -313 -14 -27 -25
-56 -25 -65 0 -10 -9 -28 -20 -42 -23 -30 -26 -52 -5 -44 8 4 15 2 15 -4 0 -5
-8 -13 -17 -16 -10 -3 -29 -13 -42 -21 -18 -10 -30 -11 -44 -4 -29 16 -33 3
-14 -47 9 -24 13 -52 10 -60 -5 -13 0 -15 31 -11 29 4 35 2 26 -8 -6 -7 -21
-11 -33 -8 -16 3 -18 2 -8 -5 17 -13 0 -47 -43 -84 -27 -23 -29 -27 -14 -33
13 -5 27 2 47 24 36 39 51 39 51 1 0 -28 3 -30 35 -30 19 0 35 4 35 8 0 5 7
58 15 118 9 60 18 154 21 208 3 55 8 104 10 108 3 5 7 30 10 56 7 72 53 365
59 370 3 3 24 -10 48 -29 39 -32 47 -34 117 -35 48 0 89 -6 112 -17 38 -17 88
-23 88 -9 -1 19 -20 31 -79 46 -36 9 -70 21 -77 27 -15 12 -25 49 -13 49 5 0
9 6 9 13 0 22 67 19 90 -5 28 -31 33 -18 17 45 -19 72 -48 111 -112 152 -28
18 -75 59 -103 89 l-51 56 -5 -42z"/>
<path d="M1410 656 c-60 -10 -62 -11 -26 -14 l39 -3 -28 -15 c-37 -19 -58 -18
-73 6 -15 24 -35 26 -53 3 -11 -13 -11 -17 -1 -20 18 -7 15 -43 -5 -50 -10 -4
-22 -11 -26 -17 -5 -6 -5 -1 -2 12 5 18 2 22 -14 22 -23 0 -28 -15 -9 -26 8
-5 4 -10 -10 -15 -27 -10 -19 -46 14 -61 17 -8 24 -19 23 -37 0 -24 -1 -24 -9
-6 -8 19 -9 19 -9 -2 -1 -12 -6 -25 -11 -28 -6 -4 -8 -11 -5 -16 9 -14 -5 -49
-20 -49 -17 0 -24 -20 -14 -45 4 -11 8 -32 8 -47 1 -25 -3 -28 -31 -28 -27 0
-30 -2 -16 -12 37 -30 15 -83 -30 -71 -13 3 -63 0 -110 -7 -74 -10 -95 -10
-142 3 -74 20 -170 30 -170 17 0 -5 5 -10 10 -10 6 0 10 -6 10 -13 0 -7 7 -22
15 -33 14 -18 15 -17 9 10 -6 27 -5 28 22 23 16 -3 50 -9 77 -12 49 -6 60 -18
30 -30 -17 -6 -17 -7 0 -16 9 -6 15 -14 12 -20 -4 -5 -1 -9 5 -9 6 0 8 -5 4
-11 -3 -6 -16 -8 -28 -5 -11 2 -30 -2 -41 -11 -19 -14 -18 -15 20 -9 75 13
135 37 135 54 0 13 -9 17 -32 17 -17 0 -33 6 -35 13 -3 8 5 12 24 12 15 0 60
7 100 17 68 15 73 15 99 -2 26 -17 27 -18 7 -29 -11 -6 -18 -17 -15 -24 2 -7
-6 -24 -18 -37 l-23 -25 291 0 292 0 0 29 c0 25 3 28 23 23 19 -5 18 -2 -9 21
-36 30 -49 34 -40 12 7 -19 -8 -20 -22 -2 -9 10 -2 18 33 35 37 18 45 19 55 7
9 -11 17 -12 30 -5 10 6 21 10 23 10 7 0 27 -59 27 -77 0 -17 -24 -12 -26 5
-1 7 -2 15 -3 19 -1 10 -61 -56 -61 -68 0 -5 38 -9 84 -9 l84 0 8 88 c4 48 7
99 5 114 -3 36 13 36 28 1 10 -24 9 -138 -1 -184 -2 -7 5 -15 15 -17 22 -4 68
39 49 46 -16 5 -15 47 2 94 9 24 10 40 3 47 -5 5 -8 43 -5 85 3 74 -4 99 -16
54 -3 -13 -6 -38 -6 -55 0 -26 -4 -33 -19 -33 -32 0 -43 25 -40 97 1 37 -2 68
-7 68 -5 0 -10 -26 -12 -57 -2 -32 -7 -58 -12 -58 -11 0 -130 100 -130 110 0
9 -42 22 -49 15 -2 -3 5 -15 16 -28 13 -13 29 -59 42 -115 26 -114 26 -112 1
-112 -11 0 -20 4 -20 9 0 5 -8 7 -18 4 -16 -4 -22 7 -37 64 -10 37 -22 72 -26
78 -12 12 -11 8 6 -49 17 -55 20 -101 6 -76 -5 8 -12 34 -16 57 -4 24 -11 43
-17 43 -7 0 -8 -12 -4 -32 20 -95 20 -98 -5 -99 -57 -3 -68 7 -69 61 -1 32 -2
33 -11 11 -8 -20 -11 -22 -26 -10 -14 12 -14 10 2 -14 20 -31 15 -46 -8 -22
-9 8 -20 15 -25 15 -6 0 -13 23 -17 50 -4 28 -11 50 -16 50 -5 0 -9 -4 -9 -10
0 -5 -7 -7 -15 -4 -8 4 -15 15 -15 26 0 18 2 19 17 7 15 -12 16 -12 9 6 -4 11
-10 46 -12 78 -2 33 -10 69 -16 80 -6 12 -12 32 -13 45 0 13 -7 27 -15 32 -10
6 -11 12 -5 19 17 16 51 17 70 1 17 -14 18 -13 12 11 -5 20 -1 28 22 42 16 9
37 17 46 17 9 0 13 5 10 10 -7 11 -7 11 -95 -4z"/>
<path d="M725 558 c3 -13 -1 -43 -10 -67 -18 -53 -18 -51 -1 -51 14 0 26 -21
26 -47 0 -10 -6 -14 -20 -10 -13 3 -20 0 -20 -10 0 -8 4 -12 9 -9 5 3 11 -3
14 -14 3 -11 1 -18 -3 -15 -5 3 -11 1 -14 -4 -3 -5 1 -11 9 -15 8 -3 15 -14
15 -24 0 -29 10 -32 38 -14 14 9 42 17 61 18 20 1 42 3 49 3 22 2 2 21 -21 21
-28 0 -52 27 -52 60 0 20 -5 25 -22 23 -13 -2 -23 2 -23 9 0 6 3 9 6 5 4 -3
13 1 22 10 11 10 27 14 53 10 32 -4 38 -1 48 19 7 16 19 24 38 25 26 1 26 1
-7 11 -24 7 -40 6 -52 -1 -10 -6 -23 -11 -30 -10 -7 0 -4 4 7 9 18 7 16 9 -12
15 -21 5 -30 12 -26 21 3 8 0 14 -6 14 -6 0 -11 -6 -11 -12 0 -8 -7 -5 -15 6
-15 20 -15 20 -15 0 0 -10 -5 -26 -11 -34 -8 -11 -9 -6 -7 23 2 20 0 37 -5 37
-4 0 -5 5 -2 10 3 6 1 10 -5 10 -6 0 -8 -10 -5 -22z"/>
<path d="M50 531 c0 -16 -2 -36 -5 -43 -3 -8 4 -24 16 -37 20 -21 24 -22 34
-8 9 13 14 11 38 -14 23 -25 34 -29 78 -29 36 0 49 4 47 13 -3 6 -16 14 -29
17 -16 3 -24 12 -24 25 0 12 -8 21 -20 23 -11 2 -28 11 -38 20 -9 8 -26 20
-36 26 -10 6 -28 17 -40 24 -20 12 -21 11 -21 -17z"/>
<path d="M330 255 c0 -9 -7 -18 -16 -22 -15 -6 -15 -8 2 -21 18 -14 18 -14 -1
-7 -11 5 -34 10 -52 13 -25 3 -32 0 -38 -17 -3 -12 -13 -21 -20 -21 -16 0 -30
-18 -21 -27 3 -3 12 0 20 6 10 9 16 9 21 1 8 -13 -22 -39 -45 -40 -8 0 -21 -9
-28 -20 -7 -12 -16 -19 -20 -17 -4 3 -16 1 -27 -4 -18 -7 -17 -8 6 -8 14 -1
34 6 45 14 10 8 27 15 36 15 9 0 18 4 20 9 5 14 100 -6 118 -25 14 -15 13 -15
-7 -5 -30 15 -59 14 -77 -4 -8 -8 -19 -15 -25 -15 -5 0 -13 -5 -16 -11 -5 -7
5 -8 32 -3 21 3 43 7 48 8 6 0 9 -6 7 -15 -2 -13 5 -16 26 -14 16 1 34 5 40 9
10 6 8 49 -4 67 -2 4 0 10 6 14 6 4 8 10 5 15 -3 4 3 7 13 6 12 -1 17 6 16 22
0 15 5 22 18 22 10 0 18 5 18 10 0 7 7 7 21 0 11 -7 28 -8 37 -4 9 4 26 8 37
8 11 1 30 7 43 14 12 7 27 10 32 7 6 -3 10 1 10 9 0 20 -58 25 -87 8 -18 -11
-23 -11 -35 6 -7 10 -25 18 -40 18 -30 0 -36 -14 -16 -34 9 -9 9 -12 0 -12 -7
0 -21 13 -30 30 -21 37 -35 39 -22 4 15 -40 13 -53 -10 -47 -19 5 -20 6 -3 19
10 7 13 14 7 14 -7 0 -14 9 -17 20 -6 23 -27 27 -27 5z"/>
</g>
</svg>
