<?xml version="1.0" standalone="no"?>
<!DOCTYPE svg PUBLIC "-//W3C//DTD SVG 20010904//EN"
 "http://www.w3.org/TR/2001/REC-SVG-20010904/DTD/svg10.dtd">
<svg version="1.0" xmlns="http://www.w3.org/2000/svg"
 width="420.000000pt" height="557.000000pt" viewBox="0 0 420.000000 557.000000"
 preserveAspectRatio="xMidYMid meet">
<metadata>
Created by potrace 1.16, written by Peter Selinger 2001-2019
</metadata>
<g transform="translate(0.000000,557.000000) scale(0.100000,-0.100000)"
fill="#000000" stroke="none">
<path d="M0 2785 l0 -2785 2100 0 2100 0 0 2785 0 2785 -2100 0 -2100 0 0
-2785z m4145 4 l0 -2724 -755 -3 c-710 -2 -756 -1 -769 15 -13 17 -13 17 -8 1
6 -17 -59 -18 -1278 -18 l-1285 0 0 195 0 195 28 0 c54 0 379 31 472 45 208
31 365 75 443 124 53 34 58 30 22 -23 -13 -20 -20 -36 -16 -36 19 0 231 242
231 264 0 3 -23 -12 -52 -35 -29 -22 -102 -65 -163 -95 -60 -29 -108 -54 -105
-54 3 0 28 7 55 15 44 13 48 13 31 0 -52 -40 -220 -85 -401 -109 -95 -12 -432
-35 -527 -36 -15 0 -18 9 -18 55 0 30 5 55 10 55 6 0 10 14 10 30 0 17 -4 30
-10 30 -13 0 -13 77 0 82 7 2 10 794 10 2335 0 1282 3 2351 6 2375 l6 43 2032
-1 2031 -1 0 -2724z"/>
<path d="M3157 4173 c-123 -161 -245 -377 -310 -553 -52 -138 -76 -269 -87
-475 -6 -99 -15 -254 -20 -345 -9 -165 -25 -248 -55 -285 -16 -19 -16 -18 -11
15 l6 35 -26 -30 c-26 -31 -28 -24 -9 30 4 13 1 12 -9 -5 -8 -14 -15 -34 -16
-45 0 -10 -17 -36 -37 -57 -20 -21 -33 -38 -28 -38 6 1 48 11 94 24 64 17 79
24 62 29 l-23 6 25 33 c23 30 47 102 61 188 3 19 13 139 21 265 16 247 29 355
50 450 54 232 208 510 389 703 l49 53 -34 29 c-19 16 -37 29 -41 30 -4 0 -27
-26 -51 -57z"/>
<path d="M2910 3070 l0 -210 315 0 315 0 0 210 0 210 -315 0 -315 0 0 -210z
m600 5 l0 -175 -285 0 -285 0 0 168 c0 93 3 172 7 175 3 4 132 7 285 7 l278 0
0 -175z"/>
<path d="M2276 2877 c-17 -13 -16 -18 27 -98 26 -46 53 -102 62 -124 l17 -40
-38 35 c-30 28 -35 30 -22 10 52 -86 108 -189 108 -200 0 -7 3 -11 6 -7 3 3 0
65 -7 139 -10 106 -14 126 -21 98 -4 -19 -5 -41 -3 -47 2 -7 1 -13 -3 -13 -4
0 -20 37 -36 82 -16 45 -39 104 -50 130 -20 44 -23 47 -40 35z"/>
<path d="M2190 2801 c0 -6 -23 -62 -51 -124 -28 -62 -57 -128 -66 -147 l-15
-35 36 34 36 35 -9 -30 c-5 -16 -38 -110 -74 -209 -219 -600 -486 -1123 -661
-1294 -51 -51 -54 -56 -40 -72 9 -10 22 -34 28 -54 l13 -37 73 99 c157 213
277 450 456 905 70 177 213 592 230 668 7 33 8 32 20 -35 6 -38 12 -59 13 -45
0 14 6 97 11 184 6 87 8 161 5 164 -3 3 -5 0 -5 -7z"/>
<path d="M690 1370 l0 -210 335 0 335 0 0 210 0 210 -335 0 -335 0 0 -210z
m635 0 l0 -175 -302 -3 -303 -2 0 173 c0 96 3 177 7 180 4 4 140 6 302 5 l296
-3 0 -175z"/>
<path d="M2581 1433 c-1 -7 -8 -10 -16 -7 -22 9 -41 -11 -70 -74 -14 -31 -32
-63 -39 -72 -24 -27 -37 -81 -25 -97 9 -10 9 -20 0 -40 -6 -14 -10 -27 -8 -30
2 -2 10 11 17 28 10 22 10 36 3 48 -11 18 0 65 23 91 6 8 25 42 41 75 29 60
29 60 68 57 22 -2 41 -5 42 -6 1 -1 -2 -27 -6 -57 -6 -32 -6 -58 0 -63 14 -16
11 -42 -12 -80 -22 -37 -21 -87 3 -149 8 -22 7 -36 -7 -67 -12 -26 -15 -50
-11 -73 5 -26 1 -40 -15 -61 -25 -32 -38 -22 -39 29 l0 30 -51 -53 c-28 -29
-55 -50 -60 -47 -5 4 -9 -5 -9 -18 0 -14 -7 -27 -15 -31 -8 -3 -15 -11 -15
-17 0 -7 9 -4 21 7 20 18 21 18 34 -1 8 -11 23 -29 33 -40 21 -21 46 -65 40
-69 -2 -2 -18 -8 -37 -15 -43 -14 -52 -6 -68 57 l-12 47 6 -45 c8 -67 17 -79
58 -77 19 1 35 5 35 10 0 19 26 2 71 -47 27 -30 73 -71 102 -91 29 -19 37 -23
18 -8 -87 70 -141 128 -161 171 -12 25 -40 67 -61 92 l-38 45 46 47 47 48 13
-31 c11 -26 16 -29 28 -19 12 10 22 8 52 -10 21 -12 29 -14 18 -5 -11 9 -26
20 -34 24 -10 6 -11 13 -3 28 6 11 9 36 6 55 -4 22 0 46 9 65 15 29 19 103 5
103 -3 0 -9 18 -13 39 -6 39 14 101 34 101 10 0 3 39 -9 55 -5 6 -4 34 1 64 9
58 6 71 -16 71 -7 0 -16 6 -18 13 -4 9 -6 9 -6 0z"/>
</g>
</svg>
