<?xml version="1.0" standalone="no"?>
<!DOCTYPE svg PUBLIC "-//W3C//DTD SVG 20010904//EN"
 "http://www.w3.org/TR/2001/REC-SVG-20010904/DTD/svg10.dtd">
<svg version="1.0" xmlns="http://www.w3.org/2000/svg"
 width="500.000000pt" height="654.000000pt" viewBox="0 0 500.000000 654.000000"
 preserveAspectRatio="xMidYMid meet">
<metadata>
Created by potrace 1.16, written by Peter Selinger 2001-2019
</metadata>
<g transform="translate(0.000000,654.000000) scale(0.100000,-0.100000)"
fill="#000000" stroke="none">
<path d="M2465 6149 c-11 -4 -46 -8 -77 -8 -31 -1 -76 -9 -100 -19 -24 -11
-60 -22 -82 -25 -21 -3 -56 -18 -76 -32 -21 -14 -49 -27 -63 -29 -13 -1 -44
-21 -68 -43 -57 -54 -95 -83 -106 -83 -6 0 -15 -11 -21 -24 -12 -26 -66 -69
-75 -59 -3 3 -14 -12 -24 -33 -21 -45 -28 -55 -65 -95 -15 -17 -28 -33 -29
-37 -5 -24 -17 -43 -56 -91 -54 -66 -68 -94 -77 -146 -4 -22 -14 -54 -23 -71
-19 -37 -12 -64 16 -64 11 0 22 -4 25 -9 3 -4 -6 -6 -19 -3 -21 4 -25 1 -24
-19 0 -13 3 -18 6 -11 2 6 9 10 14 6 5 -3 9 0 9 6 0 6 4 9 9 6 4 -3 16 3 26
14 10 11 24 20 31 20 7 0 15 4 18 9 4 5 -4 7 -16 3 -14 -3 -19 -2 -14 6 4 7
16 12 27 12 11 0 18 4 15 9 -3 5 -15 7 -26 4 -26 -7 -27 22 -2 36 15 9 15 10
1 11 -22 0 -39 -20 -39 -47 0 -4 -5 -2 -12 5 -9 9 -7 17 8 33 14 17 16 23 6
27 -9 2 0 13 23 29 20 13 41 23 48 20 21 -7 39 22 35 53 -3 17 -1 30 4 30 4 0
8 -8 8 -17 0 -13 6 -9 20 12 11 17 18 39 15 50 -3 11 -2 14 1 7 8 -18 44 14
44 38 0 18 21 32 58 39 4 1 1 5 -7 10 -9 6 5 17 49 39 57 29 66 31 107 21 25
-5 54 -7 64 -4 16 5 17 10 7 28 -11 21 -11 21 13 5 13 -9 23 -21 22 -26 -1 -6
7 -8 18 -5 18 5 19 6 2 20 -16 13 -16 14 -1 9 9 -2 22 2 29 10 11 14 13 14 21
0 13 -24 41 -20 35 4 -6 24 3 32 23 20 15 -9 40 -3 40 11 0 5 -10 9 -22 9 -24
1 -58 21 -58 35 0 4 7 2 15 -5 8 -6 19 -9 24 -6 5 4 12 2 16 -4 4 -6 11 -8 16
-5 5 4 17 -1 26 -10 12 -13 13 -19 4 -25 -10 -5 -9 -9 3 -13 9 -4 16 -3 16 1
0 4 12 12 26 19 22 10 25 10 20 -3 -7 -19 3 -18 26 3 12 11 18 12 18 3 0 -6 6
-10 14 -7 8 3 17 3 21 -1 4 -4 33 -7 65 -8 45 -1 57 2 53 12 -4 11 3 11 41 0
40 -12 48 -12 60 0 8 8 20 14 27 14 7 0 3 -9 -9 -20 -20 -19 -27 -30 -19 -30
2 0 15 9 27 20 29 25 50 22 61 -7 6 -16 5 -22 -4 -20 -13 2 -11 -34 2 -43 5
-3 7 -16 6 -30 -3 -29 5 -47 14 -32 8 13 51 -4 51 -20 0 -10 -2 -10 -9 1 -5 8
-16 11 -30 6 -12 -3 -18 -11 -15 -17 4 -7 9 -6 14 2 5 9 9 9 14 1 4 -6 3 -11
-3 -11 -6 0 -13 -11 -17 -25 -3 -14 -10 -22 -15 -19 -5 3 -6 10 -3 16 4 6 2 8
-3 5 -6 -4 -13 -16 -16 -27 -3 -11 -1 -18 4 -14 5 3 9 -4 9 -15 0 -14 14 -28
43 -42 27 -14 37 -24 28 -27 -8 -3 -17 0 -19 7 -2 6 -9 11 -15 11 -7 -1 -2 -9
11 -19 22 -19 31 -38 12 -26 -5 3 -10 -1 -10 -10 0 -8 11 -20 25 -25 14 -5 25
-12 25 -16 0 -3 -7 -4 -15 0 -12 4 -13 2 -3 -14 7 -11 15 -16 18 -12 7 9 50
10 44 1 -2 -4 6 -15 18 -24 23 -16 23 -16 3 -31 -17 -13 -18 -16 -5 -24 9 -6
10 -10 3 -10 -18 0 -26 19 -14 33 6 8 6 18 1 27 -8 12 -10 10 -10 -7 0 -13 -5
-23 -10 -23 -6 0 -3 -11 6 -25 18 -28 40 -28 37 0 -1 18 18 45 32 45 4 0 5 -9
2 -19 -2 -10 -1 -25 4 -32 4 -8 3 -16 -3 -20 -6 -4 -2 -10 11 -14 25 -7 27
-20 6 -29 -8 -3 -15 0 -15 7 0 23 -22 37 -42 26 -12 -6 -18 -6 -18 0 0 6 -8
15 -18 20 -16 9 -19 6 -18 -22 1 -18 5 -38 10 -45 11 -17 5 -22 -33 -27 -22
-3 -31 0 -31 10 0 8 -7 15 -16 15 -12 0 -14 -3 -6 -12 8 -10 4 -13 -14 -14
-13 -1 -24 3 -24 8 0 6 -11 8 -25 6 -14 -3 -28 -1 -31 3 -3 5 -12 2 -21 -7
-17 -17 -10 -29 22 -37 11 -3 4 -4 -15 -2 -19 1 -43 6 -52 10 -10 4 -26 4 -35
0 -10 -5 -26 -7 -37 -6 -29 4 -67 -9 -65 -22 3 -25 -1 -50 -8 -44 -3 4 -12 -1
-19 -11 -12 -16 -13 -15 -14 4 0 12 7 24 15 28 17 6 21 36 5 36 -5 0 -10 -7
-10 -16 0 -8 -4 -13 -9 -10 -11 7 -34 -91 -25 -105 3 -5 0 -9 -5 -9 -6 0 -11
6 -11 13 0 9 -3 8 -9 -2 -7 -11 -11 -9 -21 9 -6 12 -14 19 -17 17 -2 -3 3 -16
11 -29 9 -14 14 -27 12 -29 -3 -3 3 -5 14 -5 10 0 17 3 14 7 -2 4 3 9 11 13 8
3 15 16 16 28 0 22 1 22 9 3 8 -18 9 -18 9 -2 1 11 5 15 13 11 8 -5 9 -2 5 9
-3 9 -2 19 3 22 17 10 11 -37 -7 -57 -18 -20 -12 -35 8 -22 18 11 62 12 75 3
6 -5 33 7 64 28 49 33 60 36 127 37 40 1 69 0 63 -2 -5 -2 -10 -8 -10 -13 0
-6 4 -8 9 -5 5 3 14 -1 21 -9 7 -8 15 -13 19 -11 3 2 17 -2 31 -10 14 -7 19
-13 13 -14 -16 0 -18 -20 -3 -20 6 0 23 -11 37 -24 32 -30 26 -56 -11 -49 -19
4 -25 11 -23 27 1 16 -3 21 -21 20 -17 0 -21 4 -17 17 6 17 3 17 -25 8 -25 -9
-33 -8 -43 4 -10 13 -21 14 -67 6 -30 -5 -73 -12 -95 -15 -22 -3 -43 -11 -47
-17 -5 -9 -12 -9 -25 -1 -14 8 -22 6 -35 -7 -9 -10 -13 -20 -10 -24 4 -4 -1
-11 -11 -16 -9 -6 -15 -14 -12 -20 4 -5 0 -9 -8 -9 -8 0 -18 -7 -21 -16 -3 -8
-2 -12 4 -9 15 9 12 -8 -6 -33 -17 -25 -39 -30 -31 -7 4 8 2 17 -3 20 -6 4
-10 0 -10 -7 0 -10 -3 -9 -9 2 -6 8 -7 19 -3 25 4 5 7 12 8 15 0 3 4 13 8 23
5 9 6 24 2 32 -6 17 -36 21 -36 4 0 -5 4 -8 9 -4 22 13 21 -17 -1 -34 -16 -14
-25 -16 -30 -8 -6 9 -8 8 -8 -1 0 -9 -7 -11 -20 -7 -23 7 -25 2 -7 -26 10 -17
9 -22 -6 -34 -12 -8 -14 -15 -7 -20 5 -3 7 -11 4 -17 -4 -6 -10 -5 -15 3 -7
11 -9 10 -9 -3 0 -9 5 -20 10 -23 6 -3 10 -15 10 -26 0 -10 5 -19 11 -19 6 0
9 7 5 15 -3 8 -1 15 5 15 6 0 8 -13 5 -32 -3 -17 -1 -39 4 -48 6 -11 1 -22
-16 -39 -29 -28 -26 -35 7 -22 13 5 18 10 10 10 -8 1 -12 3 -9 6 7 8 38 -5 38
-16 0 -5 -10 -9 -21 -9 -17 0 -19 -3 -10 -14 7 -9 8 -17 2 -20 -12 -8 -2 -46
13 -46 8 0 8 -2 0 -8 -15 -10 -29 -72 -16 -72 6 0 13 6 16 13 3 6 3 2 0 -10
-4 -18 -2 -22 10 -17 9 3 16 13 16 21 0 8 4 12 8 9 5 -3 9 10 10 29 1 19 -3
35 -9 35 -7 0 -4 11 5 25 10 14 14 34 11 45 -3 10 -1 21 5 25 7 4 10 1 9 -6
-5 -22 10 -69 22 -69 15 0 60 36 53 43 -3 3 0 16 7 29 7 12 12 26 11 31 -3 10
10 9 27 -2 15 -10 42 8 34 23 -3 4 -9 2 -13 -5 -6 -9 -12 -9 -24 4 -9 8 -16
21 -16 27 0 6 -7 21 -15 34 -14 21 -14 24 1 30 9 4 27 -1 40 -9 18 -12 24 -12
24 -3 0 18 -20 47 -20 30 0 -8 -5 -10 -12 -5 -7 4 -20 6 -30 5 -9 -2 -19 2
-23 8 -3 5 -11 10 -16 10 -6 0 -7 -4 -4 -10 3 -5 2 -10 -4 -10 -20 0 -21 19
-2 29 26 14 31 14 31 -4 0 -18 12 -19 28 -3 8 8 12 9 12 1 0 -6 9 -9 20 -6 11
3 20 0 20 -6 0 -6 5 -11 11 -11 6 0 9 7 5 15 -6 18 22 48 40 41 7 -3 15 0 18
7 2 7 5 7 5 2 1 -13 71 -7 71 6 0 5 5 9 10 9 6 0 10 -6 10 -14 0 -9 8 -12 25
-8 17 3 25 0 25 -9 0 -11 2 -11 10 1 5 8 13 11 17 6 4 -4 -1 -14 -11 -22 -20
-14 -20 -14 0 -14 11 0 26 6 33 13 11 10 13 7 9 -16 -4 -18 -1 -26 6 -24 6 2
10 11 8 21 -3 19 -2 19 33 6 17 -7 33 -7 45 0 24 13 44 -11 37 -46 -3 -16 0
-27 9 -31 8 -3 11 -9 8 -14 -3 -5 1 -6 9 -3 9 3 16 -3 20 -15 6 -23 3 -25 -21
-12 -14 7 -17 4 -18 -15 -2 -20 1 -23 12 -13 9 7 14 7 14 1 0 -14 -28 -23 -35
-11 -4 5 -11 7 -16 3 -6 -4 -1 -16 13 -31 13 -13 22 -28 21 -31 -1 -4 8 -12
20 -19 12 -7 18 -13 12 -13 -5 0 -4 -4 3 -9 7 -4 14 -17 15 -29 0 -11 4 -19 8
-16 12 7 30 -23 23 -40 -3 -9 -1 -23 6 -31 7 -8 8 -15 2 -15 -5 0 -15 7 -22
15 -7 9 -15 13 -18 11 -2 -3 10 -17 27 -31 17 -15 31 -35 31 -45 0 -11 8 -25
18 -32 14 -10 17 -26 16 -70 0 -44 2 -55 11 -48 12 10 19 -10 27 -67 1 -6 8
-9 16 -6 9 4 10 8 3 13 -6 3 -13 15 -15 26 -2 10 -7 32 -12 48 -6 25 -5 28 10
23 10 -4 15 -3 11 3 -3 6 -13 10 -21 10 -8 0 -14 4 -14 8 0 5 7 9 15 9 8 0 15
-4 15 -9 0 -4 7 -8 15 -8 19 0 19 -19 0 -26 -8 -4 -12 -11 -9 -16 4 -6 10 -5
15 3 10 17 39 -47 39 -86 0 -14 5 -25 10 -25 6 0 10 -5 10 -11 0 -5 -4 -7 -10
-4 -5 3 -10 -1 -10 -9 0 -8 6 -14 13 -12 6 1 9 1 5 -1 -5 -3 -8 -13 -8 -23 0
-10 -4 -21 -10 -25 -5 -3 -7 -12 -4 -19 3 -8 -4 -21 -16 -29 -13 -9 -17 -17
-11 -22 16 -9 13 -25 -4 -25 -13 0 -14 -4 -5 -20 6 -11 7 -20 2 -20 -8 0 -33
-48 -38 -70 -5 -26 -19 -38 -43 -36 -23 2 -27 -1 -23 -20 3 -15 -5 -32 -21
-48 -20 -19 -22 -26 -10 -30 8 -3 12 -10 8 -15 -3 -6 -12 -8 -19 -5 -21 8 -48
-25 -40 -50 5 -16 4 -18 -6 -9 -7 6 -20 9 -29 6 -14 -4 -14 -3 -1 6 8 6 11 11
6 11 -5 0 -3 6 3 14 10 12 8 14 -11 9 -13 -3 -19 -1 -13 4 6 4 16 22 23 38 10
21 10 27 2 18 -10 -9 -15 -9 -25 0 -13 12 -10 32 10 57 6 8 10 21 9 28 -1 6
-2 20 -3 30 -2 16 -2 16 -12 -1 -5 -9 -8 -21 -5 -26 3 -5 0 -11 -8 -14 -7 -3
-16 -19 -19 -36 -4 -19 -13 -31 -22 -31 -9 0 -13 -4 -10 -10 3 -5 2 -10 -3
-10 -5 0 -7 -12 -5 -27 4 -27 4 -27 -11 -9 -16 19 -16 19 -16 -2 0 -41 -33
-23 -62 34 -18 36 -9 60 18 50 13 -4 11 0 -6 14 -14 11 -32 20 -40 20 -13 0
-13 1 0 10 10 6 20 4 31 -6 19 -17 42 -19 36 -1 -2 6 -10 11 -16 9 -6 -1 -11
2 -11 8 0 5 4 10 10 10 5 0 7 7 4 15 -4 8 -10 13 -14 10 -5 -3 -6 4 -3 15 5
19 3 20 -20 9 -15 -7 -24 -16 -20 -22 4 -6 1 -7 -7 -2 -11 7 -9 12 8 23 29 19
28 32 -1 32 -13 0 -33 -11 -45 -25 -23 -26 -17 -35 8 -12 12 10 12 9 2 -4 -12
-16 -7 -49 7 -49 4 0 8 -7 8 -15 0 -8 -14 -1 -36 20 -39 38 -51 43 -51 20 0
-8 5 -15 10 -15 6 0 10 -9 10 -21 0 -19 -1 -19 -16 -5 -20 21 -34 20 -34 -1 0
-14 2 -15 9 -4 7 11 11 10 20 -7 13 -24 -1 -39 -32 -34 -10 2 -16 -2 -15 -10
2 -7 -4 -12 -14 -10 -12 2 -15 -3 -11 -18 4 -16 1 -20 -20 -20 -14 0 -27 -5
-29 -10 -2 -7 -14 -7 -36 -1 -30 9 -32 8 -27 -9 6 -17 3 -19 -24 -14 -17 4
-31 3 -31 -2 0 -5 10 -10 23 -10 38 -3 51 -8 74 -31 15 -15 23 -19 27 -10 3 8
10 6 20 -7 9 -11 16 -15 16 -9 0 7 -5 15 -10 18 -6 4 -8 11 -5 16 8 13 34 -13
28 -28 -3 -7 2 -13 11 -13 10 0 13 6 10 15 -4 8 -1 15 5 15 6 0 11 -5 11 -10
0 -6 6 -5 14 2 8 7 12 16 10 20 -6 9 66 49 77 42 6 -3 8 -13 7 -22 -2 -10 8
-29 22 -43 26 -25 26 -27 8 -38 -10 -6 -16 -16 -13 -21 3 -5 1 -11 -5 -15 -5
-3 -17 -21 -26 -40 -10 -22 -21 -32 -30 -28 -10 4 -19 -5 -26 -25 -12 -31 -44
-52 -86 -58 -18 -2 -22 1 -18 13 6 14 4 14 -16 1 -35 -22 -58 -29 -55 -16 3
16 -54 18 -60 2 -2 -6 -24 -12 -49 -12 -33 -1 -43 2 -37 11 4 7 -5 4 -20 -6
-20 -13 -25 -13 -21 -3 3 8 1 17 -5 21 -6 3 -11 -1 -11 -9 0 -22 -23 -20 -70
4 -22 11 -40 17 -40 13 0 -12 -35 31 -48 60 -9 22 -17 27 -32 22 -14 -4 -20
-2 -20 8 0 8 -7 21 -17 28 -15 13 -15 12 -4 -9 17 -32 8 -37 -25 -15 -16 10
-31 17 -34 17 -15 -4 -30 10 -30 28 0 10 -4 16 -10 13 -6 -4 -7 1 -3 11 4 10
2 15 -3 11 -7 -4 -9 7 -6 26 4 33 46 87 67 87 19 0 42 32 52 70 11 38 7 63 -8
54 -5 -3 -9 2 -9 10 0 20 44 5 46 -15 1 -8 3 -18 4 -24 1 -5 2 -14 1 -18 -1
-5 18 -6 41 -3 24 3 48 5 53 6 6 0 3 5 -5 11 -12 8 -11 9 5 7 15 -3 19 -11 18
-33 -2 -22 0 -26 7 -15 15 24 12 41 -13 64 -21 20 -23 20 -39 4 -12 -12 -13
-18 -5 -21 7 -2 10 -7 7 -10 -3 -3 -12 -2 -20 3 -12 8 -13 13 -2 30 20 33 15
43 -23 38 -35 -4 -49 12 -23 28 6 4 8 3 5 -3 -4 -6 3 -8 18 -5 14 2 25 10 25
17 0 19 18 22 75 13 29 -4 72 -6 96 -4 89 8 149 19 149 28 0 5 -4 6 -10 3 -5
-3 -10 -1 -10 4 0 13 17 15 24 3 3 -5 21 -8 40 -7 19 2 53 -1 75 -5 25 -4 41
-4 41 3 0 5 7 3 16 -4 9 -8 30 -14 46 -15 25 -1 27 0 16 14 -11 13 -10 15 4 9
10 -3 20 -2 24 4 3 6 13 8 23 5 12 -5 11 -2 -3 9 -11 8 -14 15 -7 15 7 0 9 5
6 10 -3 6 4 10 17 10 l22 0 -22 16 -22 15 27 27 c15 15 33 26 40 24 7 -2 13 6
13 17 0 11 4 22 8 25 5 3 7 19 4 36 -2 16 1 36 7 44 9 11 8 18 -5 31 -9 9 -22
14 -29 11 -7 -2 -24 7 -39 21 -27 24 -27 25 -33 5 -3 -15 -9 -18 -17 -11 -6 5
-22 19 -36 30 -24 20 -24 21 -6 35 11 7 17 16 14 19 -2 3 -18 -6 -34 -20 -16
-14 -23 -25 -15 -25 14 0 40 -28 41 -42 0 -5 -4 -8 -10 -8 -5 0 -10 7 -10 16
0 10 -6 14 -14 11 -9 -4 -17 2 -21 14 -7 21 -49 27 -61 7 -4 -6 -3 -8 3 -5 6
4 14 0 17 -9 5 -12 2 -15 -10 -10 -8 3 -18 6 -20 6 -2 0 -4 8 -4 17 0 9 -7 24
-16 34 -15 16 -14 17 4 12 12 -3 22 1 25 11 4 10 1 16 -8 16 -8 0 -15 4 -15
10 0 5 -7 7 -15 4 -8 -4 1 10 20 29 24 24 35 44 35 63 0 23 -2 26 -10 14 -13
-19 -13 -8 0 24 8 22 5 30 -18 54 -15 15 -20 19 -11 7 30 -37 34 -49 16 -42
-10 4 -18 1 -19 -6 -5 -41 -2 -67 7 -67 5 0 -3 -9 -20 -20 -16 -11 -40 -20
-53 -20 -28 0 -84 -28 -95 -47 -5 -8 -29 -27 -55 -43 -35 -22 -50 -26 -64 -19
-10 6 -24 7 -30 3 -7 -5 -8 -3 -3 6 5 8 3 11 -6 8 -8 -3 -13 -12 -11 -22 4
-20 -24 -21 -58 0 l-25 15 30 -5 30 -5 -32 14 c-17 8 -37 22 -45 32 -7 10 -26
18 -43 18 -16 1 -40 4 -51 8 -35 12 -24 -30 16 -63 19 -16 29 -30 23 -30 -9 0
-10 -7 -2 -27 8 -21 6 -30 -9 -47 -11 -12 -17 -27 -14 -35 3 -8 -1 -12 -9 -9
-8 3 -13 13 -13 22 2 16 1 16 -17 0 -18 -16 -19 -16 -19 5 0 15 -4 20 -12 15
-7 -4 -5 2 6 12 12 12 20 15 23 8 6 -19 43 -4 43 17 0 11 -4 19 -10 19 -5 0
-10 -7 -10 -16 0 -24 -25 -11 -28 15 -4 25 -28 23 -26 -3 2 -24 -5 -19 -18 12
l-11 27 -8 -29 c-5 -17 -6 -32 -4 -35 3 -2 -3 -10 -13 -18 -16 -12 -16 -13 0
-7 16 6 16 4 1 -26 -13 -27 -13 -34 -2 -41 9 -6 10 -9 2 -9 -7 0 -16 7 -21 16
-7 13 -11 14 -17 4 -4 -7 -2 -16 5 -20 8 -5 4 -9 -12 -13 -14 -4 -25 -13 -25
-21 0 -8 4 -13 9 -10 4 3 8 0 8 -6 0 -6 4 -9 8 -6 5 3 8 -7 7 -23 -1 -24 2
-28 24 -27 17 1 26 -5 27 -14 2 -32 5 -39 20 -54 8 -9 11 -16 5 -16 -6 0 -11
-5 -11 -11 0 -5 5 -7 10 -4 9 6 14 -11 12 -44 -1 -20 20 -38 38 -33 9 2 6 -2
-5 -11 -18 -14 -22 -14 -37 -1 -9 9 -19 26 -22 39 -5 19 -13 23 -36 23 -25 -1
-27 -3 -13 -13 12 -9 13 -16 5 -30 -7 -14 -6 -22 4 -33 15 -14 10 -32 -8 -32
-5 0 -8 6 -5 14 3 8 -2 16 -13 19 -13 3 -17 0 -13 -9 4 -10 0 -12 -11 -8 -9 3
-13 10 -10 15 3 5 -2 16 -10 25 -9 9 -14 19 -11 24 3 4 -4 10 -15 13 -11 3
-20 1 -20 -5 0 -5 -4 -7 -8 -4 -4 2 -14 1 -22 -4 -13 -8 -12 -12 5 -24 11 -8
23 -12 27 -10 5 3 8 0 8 -5 0 -6 -4 -11 -10 -11 -5 0 -10 -4 -10 -10 0 -16 30
1 31 19 0 11 2 12 6 3 3 -7 -3 -22 -13 -33 -16 -18 -16 -20 1 -39 14 -16 15
-22 5 -35 -7 -8 -16 -13 -20 -10 -5 3 -11 -3 -13 -12 -4 -14 -5 -13 -6 5 0 12
4 22 11 22 6 0 8 3 5 6 -4 4 -13 1 -22 -6 -16 -13 -18 -9 -15 27 1 15 -3 21
-12 18 -7 -3 -19 4 -26 16 -8 12 -9 18 -3 14 19 -11 12 14 -10 34 -23 22 -35
106 -17 117 6 4 8 2 5 -3 -4 -6 1 -17 10 -24 12 -10 14 -10 9 -1 -4 6 -3 12 1
12 5 0 13 -10 18 -22 6 -14 21 -24 38 -26 31 -4 35 12 12 42 -8 11 -15 30 -15
43 0 13 -5 22 -11 21 -6 -2 -16 6 -22 17 -7 11 -20 32 -30 47 -16 24 -16 28
-3 28 9 0 16 7 16 15 0 8 -4 15 -10 15 -6 0 -6 9 1 26 7 20 6 32 -6 50 -8 13
-15 32 -15 44 0 11 -5 20 -10 20 -6 0 -8 11 -4 27 6 23 5 25 -15 20 -20 -5
-22 -3 -17 18 3 13 2 26 -3 29 -16 10 29 144 52 154 4 2 7 9 7 15 0 6 10 21
22 34 12 13 17 23 11 23 -6 0 -13 -4 -15 -10 -2 -6 -8 -6 -18 0 -12 8 -13 12
-2 19 11 6 10 10 -4 15 -13 5 -15 9 -6 18 7 7 12 17 12 23 -1 5 -12 -3 -26
-20 l-25 -30 19 45 c16 39 23 45 52 48 18 2 54 -6 81 -17 55 -24 59 -25 59
-11 0 6 -8 10 -17 10 -10 0 -24 4 -32 9 -10 7 5 12 50 17 63 8 63 9 24 15 -22
3 -32 7 -22 8 10 0 17 9 17 21 0 14 7 21 25 22 52 3 81 7 105 13 16 3 19 3 8
-2 -10 -5 -14 -13 -10 -19 8 -13 49 -25 55 -15 2 3 2 0 0 -8 -2 -8 2 -11 12
-7 10 4 15 -1 15 -15 0 -11 -7 -22 -16 -26 -8 -3 -13 -12 -10 -19 3 -7 -3 -19
-13 -26 -15 -11 -16 -15 -5 -26 11 -10 16 -6 30 20 25 48 39 59 54 45 10 -9
11 -7 6 10 -4 14 2 40 19 75 30 62 38 146 15 172 -21 27 -23 57 -3 72 10 7 13
14 6 14 -6 0 -9 8 -6 19 3 10 0 22 -6 25 -7 4 -11 -1 -11 -13 0 -11 -5 -23
-11 -27 -7 -4 -9 -22 -6 -43 3 -20 3 -30 0 -23 -2 6 -9 10 -14 6 -8 -4 -11 3
-11 26 -1 3 2 18 6 33 4 19 3 26 -4 22 -5 -3 -10 -15 -10 -26 0 -10 -4 -19
-10 -19 -5 0 -7 -7 -4 -15 13 -32 -5 -13 -25 27 -19 40 -20 69 -1 38 8 -13 10
-12 10 3 0 9 -4 17 -10 17 -5 0 -7 7 -4 15 9 23 -13 18 -30 -6 l-15 -22 -23
27 c-23 27 -23 27 -67 11 -51 -18 -81 -19 -81 -4 0 5 -5 7 -10 4 -6 -4 -8 -11
-4 -16 3 -6 -4 -5 -15 3 -15 9 -24 10 -29 2 -4 -6 -22 -18 -39 -27 -26 -12
-33 -13 -33 -2 0 7 5 15 11 17 7 2 7 12 0 31 -6 15 -6 27 -2 27 5 0 11 -6 14
-12 2 -7 8 -10 12 -6 4 4 2 14 -4 22 -7 9 -8 17 -2 20 5 3 12 0 14 -6 4 -10 6
-10 6 0 1 7 5 11 10 8 5 -3 8 2 7 11 0 10 5 18 12 18 14 0 17 20 2 20 -6 0
-15 7 -21 15 -8 11 -12 12 -16 3 -9 -24 -20 -13 -15 17 l4 31 -45 -24 c-44
-24 -48 -21 -32 16 6 13 11 15 21 6 15 -12 37 -3 28 13 -4 7 -9 6 -14 -2 -6
-9 -11 -6 -20 10 -7 13 -8 20 -2 16 6 -3 14 -1 18 6 4 7 4 10 -1 6 -4 -4 -14
-3 -21 3 -17 14 -50 -4 -59 -31 -3 -11 -10 -20 -15 -20 -4 0 -10 -9 -13 -20
-4 -14 8 -6 33 22 22 24 39 37 40 31 0 -7 -9 -22 -21 -34 -21 -21 -35 -94 -18
-104 5 -3 7 -48 5 -99 -3 -52 -1 -110 4 -130 5 -25 4 -36 -4 -36 -6 0 -3 -5 7
-11 14 -8 16 -19 12 -52 -3 -23 -8 -112 -11 -197 -3 -85 -7 -180 -9 -210 -2
-30 -4 -141 -4 -246 -1 -229 12 -297 89 -447 75 -148 155 -243 292 -347 49
-37 68 -66 68 -103 0 -43 56 -142 105 -185 45 -40 195 -137 195 -127 0 2 -22
20 -50 38 -27 19 -47 37 -42 42 4 4 -1 5 -10 2 -21 -7 -132 89 -121 106 3 6 1
7 -5 3 -8 -5 -10 -1 -6 11 4 13 3 15 -4 5 -8 -11 -10 -11 -15 1 -9 23 21 14
39 -12 9 -12 21 -20 27 -18 12 4 37 -16 37 -30 0 -4 9 -19 19 -32 16 -22 21
-23 33 -10 8 8 18 21 21 29 4 9 6 4 4 -10 -2 -19 1 -26 13 -26 9 0 17 6 17 13
0 7 -4 13 -9 13 -4 0 -8 6 -8 14 0 8 -7 17 -16 20 -9 4 -14 9 -11 12 3 4 25
-3 49 -14 24 -11 54 -23 68 -27 22 -6 22 -4 -7 17 -32 22 -41 37 -25 39 41 4
69 3 65 -3 -2 -5 3 -8 12 -8 10 0 13 5 9 13 -6 9 -4 9 7 1 8 -6 22 -14 33 -18
14 -5 17 -2 12 9 -4 12 -2 14 11 6 11 -6 26 -5 42 1 15 5 43 10 64 10 23 -1
40 5 43 13 3 8 11 12 17 9 18 -6 72 32 58 41 -7 4 -22 0 -34 -8 -29 -19 -77
-30 -77 -18 0 5 10 11 23 13 12 2 21 9 20 15 -3 15 33 27 49 17 8 -5 9 -2 5
10 -5 14 -3 17 8 12 8 -3 15 0 15 7 0 8 4 6 10 -3 8 -13 10 -12 10 3 0 14 5
17 21 12 19 -6 21 -4 16 16 -6 23 -5 23 8 5 12 -16 12 -20 0 -33 -8 -8 -20
-11 -26 -7 -7 4 -10 1 -7 -7 7 -20 38 -24 38 -5 0 21 10 20 26 -1 19 -25 17
-38 -3 -22 -13 11 -17 11 -20 1 -3 -6 -9 -10 -14 -6 -5 3 -9 -2 -9 -10 0 -10
6 -13 15 -10 21 8 19 -13 -2 -25 -10 -6 -14 -11 -10 -11 10 0 82 40 138 77 23
15 47 31 53 35 47 32 116 66 116 58 0 -6 -4 -10 -9 -10 -5 0 -13 -9 -16 -20
-4 -11 -11 -17 -17 -14 -6 4 -8 2 -5 -4 8 -11 47 -5 47 8 0 4 9 10 20 13 11 3
20 10 20 17 0 6 -4 8 -10 5 -5 -3 -10 -1 -10 4 0 6 4 11 9 11 5 0 19 11 32 25
13 13 31 25 39 25 13 0 13 -1 0 -10 -13 -9 -13 -11 0 -20 13 -8 12 -10 -2 -10
-13 0 -18 -8 -18 -27 0 -26 1 -26 14 -7 16 21 20 19 30 -12 5 -15 -1 -29 -20
-47 -37 -37 -16 -34 24 3 19 17 30 35 26 42 -4 6 -3 8 3 5 13 -8 65 48 90 96
19 36 21 90 11 272 -6 102 -4 131 13 195 11 41 25 136 31 211 11 132 12 135
33 131 30 -5 78 21 92 50 6 12 20 84 31 158 12 74 28 158 35 185 14 49 6 74
-14 44 -8 -12 -10 -12 -18 0 -12 19 -24 129 -15 143 5 8 2 9 -9 5 -11 -4 -17
-1 -17 8 0 8 4 15 9 15 5 0 11 14 15 32 6 32 6 32 21 11 9 -12 15 -26 14 -30
-1 -4 3 -19 9 -33 11 -23 12 -22 6 10 -4 19 -13 48 -21 63 -7 15 -11 31 -9 36
12 18 -16 70 -44 83 -24 10 -27 16 -19 35 4 12 4 25 0 28 -8 4 -14 27 -27 95
-2 8 -4 41 -6 75 -2 33 -7 63 -12 66 -4 4 -3 16 3 27 8 15 7 21 -2 25 -10 4
-12 30 -9 106 3 83 0 114 -17 166 -12 35 -21 70 -21 78 0 8 -12 23 -26 33 -15
10 -34 28 -43 38 -9 10 -24 26 -33 35 -10 8 -18 20 -18 25 0 5 -22 33 -49 61
-46 48 -51 51 -66 36 -16 -15 -17 -14 -10 7 5 18 2 22 -14 22 -11 0 -22 9 -26
21 -5 15 -13 20 -30 16 -15 -2 -26 1 -29 10 -7 18 -79 48 -190 78 -50 14 -103
32 -117 40 -18 10 -44 13 -74 10 -43 -4 -51 -1 -79 28 -17 17 -35 30 -40 29
-5 -2 -21 1 -35 6 -14 5 -35 6 -46 1z m801 -1024 c3 -19 11 -35 18 -35 6 0 3
-5 -6 -11 -24 -14 -24 -33 0 -20 12 6 23 6 33 0 12 -8 12 -10 -1 -8 -31 3 -39
-1 -37 -21 1 -22 23 -27 30 -7 2 7 8 8 13 3 5 -5 4 -11 -3 -13 -17 -6 -16 -25
3 -49 15 -19 15 -18 11 4 -3 12 -1 20 4 16 5 -3 9 -11 9 -19 0 -8 9 -20 20
-28 21 -14 21 -15 -6 -21 -21 -6 -24 -10 -14 -16 11 -7 11 -11 1 -24 -13 -16
-36 -12 -26 4 3 5 1 11 -5 15 -6 4 -8 10 -5 15 7 12 -23 85 -32 77 -3 -4 0
-13 6 -21 11 -12 15 -31 20 -83 0 -7 11 -21 23 -33 19 -17 19 -20 5 -20 -14 0
-16 -6 -11 -25 5 -21 3 -25 -15 -25 -14 0 -21 6 -21 20 0 12 -5 17 -14 14 -8
-3 -17 -1 -21 5 -3 6 -1 11 6 11 9 0 9 4 -1 15 -6 8 -8 20 -4 26 4 7 3 9 -3 6
-6 -4 -13 0 -17 8 -3 8 -1 15 3 15 19 0 -2 38 -26 49 -19 9 -24 17 -20 32 3
12 2 32 -3 45 -6 14 -6 24 -1 24 5 0 13 -17 18 -37 6 -25 15 -39 28 -42 17 -3
17 -2 2 13 -20 21 -11 49 13 41 17 -5 17 -3 5 32 -12 34 -12 40 3 52 12 10 14
15 5 18 -15 5 -18 33 -3 33 5 0 12 -16 16 -35z m231 -527 c3 -15 9 -28 14 -28
5 0 9 -10 9 -22 -1 -13 2 -38 6 -55 7 -35 1 -40 -45 -45 -21 -3 -26 4 -40 54
-9 31 -19 60 -23 64 -9 9 -11 48 -2 56 3 3 21 6 40 5 30 -1 36 -5 41 -29z
m-1196 -439 c9 -17 8 -23 -2 -30 -10 -6 -7 -8 9 -6 13 1 21 6 18 14 -3 7 1 10
9 6 8 -3 13 -9 10 -13 -3 -5 0 -12 6 -16 7 -4 9 -3 6 3 -9 15 51 25 74 12 15
-7 23 -6 35 6 20 20 41 20 24 0 -11 -13 -10 -14 6 -8 10 3 30 15 45 25 15 11
32 16 42 12 17 -6 17 -8 1 -25 -9 -10 -30 -21 -48 -24 -17 -3 -40 -10 -51 -14
-28 -12 -95 -30 -127 -35 -15 -3 -32 -7 -37 -10 -15 -10 -71 5 -64 17 3 6 -4
3 -17 -6 -15 -11 -29 -13 -40 -7 -9 5 -28 7 -43 6 -14 -2 -24 1 -21 5 3 5 11
9 19 9 8 0 23 10 35 22 12 14 20 17 20 8 0 -9 6 -8 22 6 21 19 21 19 15 -1 -7
-20 -7 -20 8 -1 9 12 12 28 9 40 -6 19 -5 20 11 6 17 -14 18 -13 12 3 -9 24 0
21 14 -4z m338 -70 c29 -10 32 -15 27 -40 -3 -16 -1 -29 4 -29 6 0 10 14 10
31 0 32 2 32 66 9 20 -8 30 -40 12 -40 -5 0 -7 -4 -4 -8 2 -4 -4 -14 -16 -21
-19 -12 -19 -11 -13 18 4 20 3 31 -4 31 -6 0 -11 -15 -11 -34 0 -31 -4 -36
-35 -46 -28 -9 -39 -9 -51 1 -13 10 -17 10 -25 -2 -5 -8 -9 -16 -9 -19 0 -9
-59 -27 -109 -35 -32 -5 -46 -4 -52 6 -7 11 -9 10 -9 -3 0 -12 -8 -18 -25 -18
-14 0 -25 5 -25 10 0 6 -4 10 -10 10 -5 0 -7 -7 -4 -15 6 -14 -22 -21 -66 -17
-8 1 -31 4 -50 6 -19 2 -41 4 -48 5 -7 1 -12 7 -11 14 4 34 -2 42 -17 22 -8
-11 -28 -20 -45 -21 -35 -2 -50 24 -42 70 4 20 2 27 -5 22 -8 -5 -10 -2 -6 8
7 19 42 25 169 30 71 2 134 13 215 34 130 35 144 37 189 21z m217 -635 c-3 -9
-6 -20 -6 -25 0 -5 -12 -9 -26 -9 -20 0 -25 -4 -20 -16 3 -9 2 -12 -4 -9 -6 4
-22 -8 -37 -25 -14 -18 -36 -36 -49 -40 -13 -5 -28 -19 -34 -31 -8 -15 -9 -19
-1 -15 6 4 11 2 11 -3 0 -6 -10 -11 -22 -11 -12 0 -32 -9 -44 -21 -14 -13 -41
-22 -78 -26 -31 -3 -56 -11 -56 -17 0 -6 -4 -5 -9 3 -8 12 -11 12 -24 0 -8 -8
-27 -15 -43 -14 -16 0 -31 -3 -34 -6 -7 -10 -61 1 -55 11 3 5 -4 6 -15 3 -38
-10 -22 -28 22 -24 17 2 34 -16 24 -26 -3 -3 -11 -1 -18 5 -14 11 -17 12 -50
12 -12 0 -18 3 -15 6 3 4 2 15 -4 26 -10 19 -11 19 -24 1 -7 -10 -17 -15 -21
-10 -4 4 -2 7 4 7 18 0 14 38 -4 48 -15 8 -15 10 0 15 9 4 15 2 13 -5 -1 -6 4
-13 11 -15 6 -3 12 0 12 6 0 6 7 7 17 4 12 -5 14 -3 8 7 -6 10 -4 11 11 5 24
-11 164 -14 184 -4 24 12 145 49 159 49 8 0 11 -6 7 -15 -3 -8 -1 -15 5 -15 7
0 9 10 5 25 -5 19 -1 27 16 36 23 12 86 59 122 92 11 9 26 17 33 17 7 0 13 5
13 10 0 6 5 10 11 10 6 0 8 -7 5 -16z"/>
<path d="M3393 3375 c31 -102 47 -178 47 -220 -1 -120 -37 -268 -105 -420 -31
-70 -56 -151 -114 -365 -134 -499 -222 -858 -306 -1240 -90 -412 -130 -580
-137 -580 -5 0 -8 36 -8 80 0 62 -3 80 -14 80 -8 0 -16 -5 -18 -12 -5 -14 -38
-4 -38 12 0 5 8 10 18 10 13 1 12 4 -7 14 -13 7 -32 11 -42 9 -11 -3 -19 2
-24 17 -6 18 -9 19 -22 8 -9 -7 -24 -12 -33 -10 -9 1 -23 -4 -30 -13 -19 -22
-40 -18 -39 8 0 20 1 20 8 3 7 -18 8 -18 30 5 19 21 20 25 6 35 -8 6 -15 20
-15 31 0 30 -26 49 -45 33 -16 -14 -5 -45 24 -67 9 -7 11 -12 4 -13 -14 0 -53
48 -53 66 0 8 -4 14 -10 14 -5 0 -8 -13 -6 -30 4 -37 -9 -40 -19 -3 -4 19 -2
31 9 39 24 17 19 25 -9 12 -14 -6 -25 -18 -25 -27 0 -14 -2 -14 -10 -1 -7 11
-5 19 10 29 14 9 20 24 19 50 l0 36 -16 -33 c-9 -17 -24 -32 -32 -32 -13 1
-12 3 3 15 11 8 17 15 13 15 -4 0 0 15 8 33 l16 32 -21 -27 c-12 -16 -26 -28
-32 -28 -6 0 -3 10 8 21 l19 21 -39 -21 c-21 -12 -41 -20 -44 -17 -3 3 -11 1
-19 -5 -15 -13 -17 -1 -4 20 5 7 14 10 21 6 6 -4 23 -2 36 6 27 14 33 32 7 22
-12 -5 -14 -3 -8 8 5 8 -1 5 -13 -5 -22 -19 -23 -19 -40 0 -10 11 -17 25 -14
32 2 6 -3 12 -12 12 -9 0 -16 7 -16 15 0 8 -9 15 -20 15 -22 0 -27 19 -9 37 6
6 12 19 13 29 2 11 14 25 27 31 l24 13 -23 0 c-13 0 -20 4 -17 10 3 5 1 18 -5
27 -9 15 -10 12 -6 -14 4 -29 1 -33 -26 -38 -36 -8 -47 0 -19 15 24 13 28 30
6 30 -8 0 -15 6 -16 13 0 6 -4 3 -9 -8 -9 -19 -9 -19 -16 3 -7 24 -33 29 -52
10 -7 -7 -12 -8 -12 -4 0 15 34 35 58 36 35 0 21 24 -16 28 -18 2 -32 -1 -32
-7 0 -6 -7 -8 -15 -5 -10 4 -15 0 -15 -12 -1 -18 -1 -18 -11 -1 -12 21 -13 20
25 32 38 13 55 40 37 57 -12 11 -13 10 -8 -4 7 -20 -8 -34 -45 -40 -32 -6 -36
3 -11 23 14 12 16 12 8 0 -5 -9 -4 -12 3 -8 5 4 9 15 7 25 -2 9 -4 24 -4 32
-1 12 -3 12 -16 -1 -9 -9 -23 -59 -32 -116 l-16 -102 53 -58 c158 -170 557
-549 574 -545 6 2 7 0 3 -4 -4 -4 20 -36 54 -70 37 -37 59 -67 54 -74 -7 -12
-142 116 -531 506 l-211 211 -17 -136 c-15 -122 -15 -136 -1 -144 8 -4 12 -13
9 -19 -4 -6 -3 -8 3 -5 5 3 45 -30 89 -75 43 -44 88 -84 99 -88 18 -7 18 -8
-6 -31 -31 -28 -49 -74 -28 -67 8 2 20 19 28 36 17 37 36 43 27 8 -4 -16 0
-29 14 -41 15 -14 19 -26 15 -49 -6 -28 1 -39 79 -118 47 -49 90 -88 96 -88
14 0 13 17 -2 23 -10 4 -10 6 0 6 6 1 12 9 12 19 0 14 -2 14 -9 3 -5 -8 -16
-11 -25 -8 -18 7 -22 37 -5 37 5 0 7 4 4 10 -3 5 -18 7 -33 4 -21 -4 -33 1
-52 22 l-25 27 30 -7 c17 -4 37 -7 45 -8 8 0 24 -8 34 -17 18 -15 18 -15 8 4
-16 30 -55 61 -60 47 -2 -7 -8 -10 -13 -7 -5 3 -17 1 -28 -5 -14 -7 -22 -7
-27 2 -4 6 -2 14 4 16 7 2 17 13 23 23 8 16 6 24 -13 39 -13 11 -28 19 -34 20
-7 0 -14 12 -17 26 -4 20 17 5 103 -78 59 -57 106 -109 104 -116 -2 -7 0 -11
5 -8 5 3 29 -16 54 -43 25 -27 49 -46 53 -42 4 3 4 0 0 -7 -5 -8 1 -16 16 -21
16 -7 18 -10 6 -10 -9 -1 -30 11 -47 25 -24 20 -34 23 -48 15 -17 -10 -16 -10
3 -11 11 0 31 -11 44 -25 20 -21 22 -28 12 -50 -9 -20 -9 -25 2 -25 7 0 21 -9
31 -20 16 -18 20 -19 27 -6 5 9 8 19 8 22 -1 4 4 11 12 15 10 7 10 9 1 9 -7 0
-13 5 -13 12 0 7 18 -6 40 -27 40 -39 49 -55 30 -55 -6 0 -19 15 -30 33 -11
17 -20 25 -20 16 0 -8 6 -21 13 -28 10 -11 9 -13 -6 -7 -10 3 -27 0 -38 -7
-17 -13 -16 -15 20 -51 l38 -37 -2 47 c-1 41 0 44 11 29 8 -11 11 -29 7 -44
-4 -14 -6 -34 -5 -43 1 -24 -7 -22 -30 7 -16 21 -23 23 -40 14 -19 -10 -20 -9
-15 13 5 19 0 31 -18 48 -25 24 -34 47 -13 34 7 -4 8 -3 4 5 -4 6 -12 9 -17 5
-5 -3 -16 0 -24 6 -11 9 -15 9 -15 1 0 -6 -4 -11 -10 -11 -5 0 -7 7 -3 16 8
20 -114 145 -134 137 -8 -3 -20 2 -27 12 -10 14 -17 15 -34 6 -28 -15 -33 -14
-67 16 l-30 26 37 -21 c29 -16 39 -18 47 -8 6 7 7 16 3 21 -11 12 40 -15 63
-33 11 -9 -15 20 -59 65 -55 57 -76 85 -70 94 23 37 9 68 -22 51 -14 -8 -14
-10 0 -21 22 -18 20 -34 -1 -23 -22 11 -51 -16 -47 -42 2 -12 -1 -14 -10 -7
-7 6 -10 25 -7 48 4 26 6 31 9 15 4 -25 17 -29 25 -8 3 7 -13 32 -35 56 -31
32 -43 39 -49 28 -5 -7 -9 -16 -9 -20 0 -15 -20 -8 -20 6 0 8 -6 17 -12 20 -7
3 -3 3 9 1 43 -11 33 17 -28 75 -35 33 -64 58 -65 57 0 -1 -4 -29 -7 -63 -6
-56 -4 -63 18 -84 14 -13 29 -19 36 -15 7 5 10 4 6 -2 -4 -6 0 -19 8 -29 13
-17 16 -17 26 -4 9 13 10 12 5 -4 -8 -25 92 -125 105 -104 6 10 9 10 9 1 0
-14 40 -18 56 -5 5 4 1 -1 -10 -11 -11 -10 -25 -16 -33 -13 -28 11 -10 -13 77
-99 50 -49 90 -84 90 -77 0 7 -6 15 -14 18 -17 7 -10 34 9 34 7 0 12 -14 13
-32 0 -17 7 -35 14 -39 7 -5 9 -9 4 -9 -5 0 -3 -7 4 -15 7 -8 16 -12 22 -9 5
3 5 11 -2 19 -8 9 -6 14 6 19 9 4 19 4 22 1 3 -3 0 -5 -6 -5 -7 0 -12 -4 -12
-10 0 -5 9 -10 19 -10 11 0 23 -5 27 -12 5 -8 0 -9 -14 -6 -24 7 -37 -5 -26
-23 4 -8 9 -7 16 2 7 11 8 9 4 -4 -4 -13 10 -35 49 -75 30 -31 55 -51 55 -44
0 6 5 12 11 12 6 0 8 -9 4 -20 -6 -20 -2 -20 1224 -20 l1231 0 0 1434 0 1434
-27 6 c-56 10 -112 16 -258 26 -222 16 -598 69 -800 113 -116 25 -171 52 -266
127 -28 22 -55 40 -59 40 -5 0 -29 30 -53 68 -45 69 -71 96 -121 128 -28 18
-29 18 -23 -1z m1356 -2389 c35 -19 85 -75 110 -124 20 -39 45 -137 55 -213
l7 -45 -113 -19 c-86 -13 -191 -19 -436 -22 l-322 -5 9 24 c24 60 83 167 110
202 17 21 31 43 31 47 0 29 107 -28 159 -85 27 -29 51 -34 51 -12 0 24 19 29
45 12 23 -15 24 -15 60 52 38 67 63 103 122 167 35 39 66 44 112 21z"/>
<path d="M1969 3070 c-21 -31 -97 -160 -101 -169 -2 -4 -34 -26 -73 -48 -66
-39 -303 -126 -820 -303 -203 -69 -437 -173 -575 -255 -36 -21 -85 -49 -110
-63 -161 -88 -188 -122 -233 -290 -29 -110 -31 -129 -34 -327 -1 -115 -3 -214
-3 -220 0 -5 -5 -3 -10 5 -6 10 -10 -150 -10 -462 0 -409 2 -477 14 -472 12 5
14 -6 11 -58 -2 -35 -8 -76 -14 -91 -6 -16 -11 -92 -11 -173 l0 -144 1033 0
c573 0 1026 4 1018 9 -9 6 -10 11 -2 15 18 11 14 39 -5 32 -12 -4 -14 -1 -9
14 4 14 2 20 -7 18 -8 -2 -12 4 -10 15 2 9 1 17 -1 17 -3 0 -21 7 -42 16 -20
8 -34 11 -31 5 4 -5 2 -12 -3 -15 -5 -4 -12 2 -14 11 -3 11 -5 6 -6 -11 0 -16
-3 -27 -5 -25 -10 10 -56 369 -66 519 -6 90 -14 168 -17 172 -2 5 -6 163 -9
351 -5 462 -5 464 1 527 12 118 14 149 19 268 3 67 9 130 14 140 5 9 9 57 10
105 1 48 6 105 12 125 5 21 12 64 14 97 2 33 9 98 16 145 6 48 10 90 9 95 -5
17 12 106 26 139 45 107 46 111 43 211 -3 96 -4 99 -19 75z"/>
<path d="M2620 2745 c0 -4 10 -16 22 -26 21 -19 21 -19 1 -19 -11 0 -26 7 -33
15 -15 18 -65 21 -54 4 5 -9 -1 -10 -22 -5 -18 4 -24 3 -16 -2 11 -8 11 -10
-1 -15 -8 -3 -20 0 -28 6 -7 7 -5 0 4 -15 14 -22 14 -26 2 -22 -8 3 -24 -1
-37 -10 -18 -13 -19 -16 -5 -16 18 0 24 -19 7 -21 -5 -1 -14 -2 -19 -3 -5 0
-13 -5 -18 -10 -5 -6 -2 -6 6 -1 11 7 13 4 5 -11 -4 -10 -10 -62 -12 -115 -3
-92 -5 -98 -33 -125 -16 -15 -29 -38 -29 -50 0 -27 -17 -41 -22 -18 -4 25 -67
-54 -111 -141 -44 -87 -53 -115 -35 -115 18 0 81 -78 73 -90 -3 -5 0 -7 7 -5
8 3 30 -13 50 -37 20 -24 60 -67 87 -97 55 -58 59 -66 36 -75 -20 -7 -19 -46
1 -46 10 0 14 5 10 15 -3 9 1 18 9 22 9 3 13 12 10 23 -3 10 2 23 12 31 15 12
16 12 10 -4 -6 -15 -3 -17 16 -11 12 4 25 12 29 18 4 6 8 8 8 3 0 -4 16 0 36
8 20 8 50 13 68 10 l31 -5 -27 22 c-15 13 -49 40 -76 60 -46 35 -49 36 -60 17
-14 -21 -37 -25 -48 -7 -4 6 -3 8 4 4 21 -13 22 13 1 27 -15 11 -19 21 -14 36
4 12 2 21 -4 21 -7 0 -7 8 -2 23 10 26 -9 58 -76 127 -24 24 -43 48 -43 52 0
21 -22 3 -46 -37 -22 -39 -29 -44 -42 -33 -13 11 -14 9 -8 -12 5 -20 5 -21 -3
-8 -8 12 -6 27 10 60 18 39 22 28 4 -14 -14 -34 14 -18 31 17 9 19 20 35 24
35 4 0 11 15 15 33 l7 32 8 -35 c9 -38 55 -84 73 -74 7 4 9 4 5 -1 -4 -4 6
-25 23 -46 17 -22 53 -73 80 -114 34 -53 64 -85 101 -110 66 -43 75 -51 116
-98 l32 -38 0 33 c0 60 -29 222 -49 277 -23 62 -36 80 -26 36 4 -17 8 -32 7
-35 0 -26 -4 -39 -17 -56 -14 -18 -14 -17 -5 9 10 29 4 77 -9 77 -4 0 -15 26
-24 58 -9 31 -19 65 -22 75 -6 13 -3 16 9 11 15 -6 15 -3 -1 24 -10 17 -20 29
-24 26 -4 -2 -6 2 -6 9 1 6 -4 31 -11 54 -12 40 -11 45 18 91 16 27 30 54 30
60 0 6 28 40 63 76 l63 65 -55 54 c-65 62 -91 83 -91 72z m69 -158 c-62 -39
-199 -158 -199 -173 0 -3 7 -4 15 0 16 6 65 -30 65 -48 0 -6 -5 -5 -12 2 -19
19 -30 14 -17 -9 6 -12 8 -31 5 -42 -3 -14 2 -30 16 -44 22 -23 27 -36 31 -80
1 -13 5 -23 9 -23 3 0 4 -10 0 -22 -3 -11 -1 -19 4 -16 5 4 9 -10 9 -30 0 -26
-5 -38 -17 -40 -19 -4 -37 20 -20 26 7 2 12 8 12 13 0 4 -7 6 -15 3 -8 -4 -15
-12 -15 -20 0 -8 -4 -14 -9 -14 -5 0 -7 10 -3 22 3 14 1 19 -6 14 -8 -5 -10
-2 -6 9 4 9 -1 24 -11 35 -10 11 -15 26 -11 35 3 9 2 14 -2 12 -4 -3 -13 1
-20 9 -11 12 -8 14 15 14 22 0 25 2 13 10 -8 5 -26 10 -40 10 -22 1 -23 2 -7
11 9 6 27 7 40 3 19 -6 20 -5 8 10 -9 10 -22 14 -35 11 -21 -6 -21 -6 -1 12
21 19 27 75 10 92 -7 6 -11 -4 -12 -30 0 -22 -6 -46 -13 -54 -6 -8 -9 -19 -5
-25 3 -5 1 -10 -5 -10 -15 0 -24 28 -13 43 5 6 9 27 7 45 -1 18 2 35 7 37 4 3
6 12 3 20 -4 8 9 27 30 46 20 17 33 36 29 42 -3 6 -1 7 5 3 6 -4 29 10 52 30
48 43 139 102 160 103 8 0 -15 -19 -51 -42z"/>
<path d="M2141 1905 c-19 -68 -14 -87 35 -138 25 -26 50 -45 55 -42 5 3 6 0 3
-8 -3 -8 2 -19 9 -26 12 -9 18 -8 31 4 9 9 16 12 16 6 0 -5 -6 -14 -14 -18
-21 -12 120 -163 154 -164 19 -1 20 -2 6 -6 -15 -4 -7 -17 49 -73 37 -38 73
-66 80 -63 7 2 16 0 20 -6 4 -7 -1 -9 -12 -5 -10 3 16 -26 57 -64 41 -39 79
-68 84 -65 5 4 7 2 4 -3 -3 -5 7 -25 23 -44 l29 -34 0 71 0 72 -70 62 c-74 66
-77 76 -47 137 9 20 8 25 -6 33 -9 6 -17 15 -17 20 0 20 105 -83 106 -104 1
-12 7 -23 13 -25 6 -2 9 -8 5 -13 -3 -5 0 -9 5 -9 7 0 11 37 12 100 2 189 1
210 -8 210 -5 0 -7 -28 -6 -62 l1 -63 -7 50 c-5 28 -7 59 -5 71 2 13 -7 30
-24 46 -29 27 -73 43 -69 25 1 -6 -7 -13 -18 -15 -18 -4 -18 -3 -5 14 14 18
14 18 -3 5 -17 -13 -17 -15 1 -35 11 -12 17 -27 15 -34 -3 -9 3 -7 16 4 13 11
17 22 11 29 -6 7 -2 11 13 12 17 2 19 0 7 -7 -12 -8 -13 -10 -1 -10 8 0 11 -3
8 -6 -3 -4 -2 -14 3 -23 6 -13 4 -17 -10 -17 -10 0 -16 4 -14 8 10 15 -7 8
-29 -13 -14 -13 -16 -18 -6 -14 10 4 19 0 22 -9 4 -9 2 -16 -3 -16 -5 0 -6 -7
-3 -17 4 -11 3 -14 -6 -9 -7 5 -10 14 -7 22 3 8 1 14 -4 14 -6 0 -10 -7 -10
-16 0 -10 -6 -14 -14 -11 -11 4 -14 -1 -13 -21 1 -15 -2 -27 -8 -27 -5 0 -16
-4 -23 -9 -7 -4 -16 -5 -19 -2 -3 3 6 11 21 17 33 15 33 25 0 33 -30 8 -33 6
-38 -20 -2 -11 -6 -25 -8 -33 -2 -9 6 -15 22 -16 61 -3 71 -6 66 -14 -4 -5 0
-12 6 -14 10 -4 9 -8 -2 -16 -8 -6 -10 -11 -4 -11 6 0 10 -13 10 -30 0 -16 -2
-30 -6 -30 -3 0 -30 27 -59 60 -29 33 -57 57 -62 54 -5 -3 -8 -1 -7 4 2 6 -35
50 -82 99 -85 89 -200 216 -238 263 l-20 24 -11 -39z"/>
<path d="M2116 1769 c-20 -97 -21 -96 35 -157 29 -31 176 -180 327 -330 151
-150 273 -275 270 -277 -9 -9 -344 314 -498 480 -102 110 -156 161 -158 150
-2 -9 26 -50 65 -93 85 -96 389 -399 510 -510 l91 -82 -2 97 -2 98 -70 65
c-123 116 -394 394 -501 514 -57 64 -62 68 -67 45z"/>
<path d="M1940 515 l0 -70 163 -171 c89 -93 183 -193 209 -221 l47 -51 76 -1
77 -1 -118 122 c-66 68 -194 200 -286 293 l-168 170 0 -70z"/>
<path d="M1940 399 c0 -14 56 -80 158 -188 87 -91 167 -176 178 -188 10 -13
30 -23 43 -23 22 0 13 12 -65 93 -49 50 -140 145 -202 209 -84 88 -112 113
-112 97z"/>
</g>
</svg>
