<?xml version="1.0" standalone="no"?>
<!DOCTYPE svg PUBLIC "-//W3C//DTD SVG 20010904//EN"
 "http://www.w3.org/TR/2001/REC-SVG-20010904/DTD/svg10.dtd">
<svg version="1.0" xmlns="http://www.w3.org/2000/svg"
 width="500.000000pt" height="281.000000pt" viewBox="0 0 500.000000 281.000000"
 preserveAspectRatio="xMidYMid meet">
<metadata>
Created by potrace 1.16, written by Peter Selinger 2001-2019
</metadata>
<g transform="translate(0.000000,281.000000) scale(0.100000,-0.100000)"
fill="#000000" stroke="none">
<path d="M2398 2663 c-10 -2 -18 -9 -18 -14 0 -6 -4 -8 -9 -4 -10 6 -41 -20
-135 -108 -28 -26 -63 -54 -77 -62 -14 -7 -40 -31 -58 -52 -18 -21 -51 -53
-74 -71 -23 -19 -71 -61 -107 -96 -36 -34 -74 -68 -86 -76 -18 -13 -98 -86
-256 -232 -22 -21 -37 -42 -34 -47 4 -5 1 -13 -5 -17 -8 -4 -9 -3 -5 4 4 7 2
12 -4 12 -19 0 -131 -114 -126 -127 3 -7 -1 -10 -10 -6 -15 5 -114 -88 -114
-107 0 -5 -6 -7 -14 -4 -9 3 -22 -6 -33 -23 -10 -15 -31 -39 -48 -53 -16 -14
-40 -35 -52 -46 -12 -12 -24 -19 -27 -17 -9 9 -36 -19 -29 -30 3 -5 2 -7 -4
-4 -5 3 -23 -12 -39 -33 -16 -22 -32 -40 -35 -40 -6 0 -96 -80 -182 -162 -22
-21 -41 -38 -44 -38 -2 0 -27 -24 -56 -53 -29 -29 -75 -72 -104 -96 -29 -24
-49 -49 -46 -54 3 -6 2 -7 -4 -4 -11 7 -93 -77 -93 -96 0 -8 -4 -7 -10 3 -8
13 -10 12 -10 -4 0 -11 -3 -16 -7 -13 -10 10 -32 -13 -27 -27 4 -10 -2 -12
-19 -9 -25 5 -43 -19 -30 -39 3 -7 1 -8 -5 -4 -15 9 -100 -51 -108 -76 -3 -10
-11 -15 -17 -12 -8 5 -8 2 1 -7 14 -16 16 -39 2 -39 -5 0 -7 7 -3 16 4 12 2
15 -8 12 -8 -3 -13 -11 -11 -18 1 -6 -3 -10 -10 -8 -14 5 -37 -19 -38 -39 0
-6 8 -9 19 -6 16 4 19 1 14 -17 -4 -14 -8 -18 -13 -10 -4 7 -10 -2 -14 -21 -8
-41 -5 -44 22 -19 23 22 67 27 78 8 4 -7 3 -8 -4 -4 -8 5 -10 2 -6 -8 3 -9 13
-16 21 -16 8 0 11 5 7 12 -4 7 -3 8 5 4 6 -4 9 -12 6 -17 -10 -15 7 -10 29 8
20 17 20 17 7 1 -8 -11 -9 -18 -3 -18 6 0 16 9 21 19 12 22 -9 37 -28 18 -6
-6 -11 -7 -11 -1 0 12 40 37 48 30 3 -3 -1 -6 -9 -6 -10 -1 -9 -3 4 -11 9 -5
17 -19 17 -30 0 -12 4 -17 11 -14 6 4 8 9 5 12 -3 3 -1 14 4 24 7 12 7 20 0
24 -5 3 -10 12 -10 18 0 7 9 -1 19 -17 11 -16 17 -35 14 -42 -3 -8 0 -14 7
-14 6 0 9 4 6 9 -3 5 4 20 15 35 19 24 19 26 2 27 -10 1 -24 0 -32 -1 -11 -1
-10 2 3 15 19 19 21 35 4 35 -6 0 -9 2 -6 5 3 3 17 -1 31 -8 15 -8 24 -17 20
-20 -3 -4 8 -7 25 -7 18 0 32 -5 32 -11 0 -6 -7 -9 -15 -5 -11 4 -15 -2 -15
-20 0 -20 4 -25 16 -20 8 3 12 2 9 -4 -3 -6 1 -10 10 -10 11 0 15 -5 11 -16
-3 -8 -2 -13 3 -9 5 3 11 -1 14 -7 2 -7 3 4 2 26 -1 21 -7 41 -12 45 -15 10
-27 64 -12 55 9 -5 10 -2 6 10 -4 10 -3 15 4 11 6 -4 8 2 6 17 -2 12 -2 17 0
10 4 -10 8 -10 18 -2 18 15 35 4 35 -21 0 -10 4 -19 10 -19 5 0 6 7 3 17 -4
11 -3 14 5 9 17 -10 15 -26 -5 -48 -34 -37 -26 -49 29 -45 51 4 82 27 57 43
-8 5 -9 3 -4 -6 6 -10 4 -12 -9 -7 -9 4 -15 3 -12 -2 3 -5 -4 -11 -17 -15 -35
-9 -47 -7 -47 9 0 17 16 21 22 5 2 -6 8 -6 18 0 13 8 12 10 -2 10 -10 0 -18 4
-18 9 0 4 12 6 26 3 16 -3 25 -1 21 5 -8 13 25 13 42 -1 11 -8 13 -8 7 2 -4 7
-1 12 8 12 19 0 20 10 4 33 -11 14 -19 15 -45 8 -23 -7 -33 -6 -36 3 -3 8 5
12 22 11 34 -2 46 5 30 17 -11 7 -11 9 1 7 36 -4 41 1 21 22 -11 12 -26 19
-33 16 -8 -2 -25 1 -39 9 -23 13 -23 13 -2 14 12 0 23 -6 26 -12 3 -8 9 -3 14
11 10 24 10 24 32 -13 22 -35 41 -47 41 -26 0 6 -5 10 -11 10 -7 0 -8 7 -4 17
12 32 14 52 4 58 -5 4 -9 1 -9 -5 0 -6 -11 -8 -26 -6 -19 4 -27 0 -34 -17 -5
-12 -9 -17 -9 -12 -2 20 -43 15 -48 -6 -3 -10 -14 -19 -24 -19 -20 0 -44 -35
-34 -50 3 -6 1 -10 -5 -10 -8 0 -10 9 -6 26 4 16 3 23 -3 19 -6 -3 -19 -1 -30
4 -14 8 -20 8 -23 -1 -3 -7 -5 6 -6 30 -1 23 1 42 4 42 3 0 19 -7 36 -16 24
-12 30 -13 26 -2 -3 7 0 19 8 25 10 10 14 9 19 -7 4 -11 13 -20 21 -20 13 0
13 2 0 16 -22 22 -20 25 10 14 15 -6 23 -6 19 -1 -3 5 -1 12 5 16 5 3 10 2 10
-4 0 -5 25 -7 60 -4 44 3 60 1 58 -8 -2 -6 3 -14 10 -16 6 -3 12 1 12 7 0 14
-26 41 -32 34 -3 -3 -3 7 0 22 5 25 6 26 18 9 10 -13 17 -15 26 -7 9 7 18 6
32 -4 19 -13 18 -14 -15 -14 l-34 0 29 -15 c16 -9 31 -13 34 -11 2 3 16 -3 30
-14 13 -11 29 -17 35 -13 6 3 7 1 3 -5 -4 -6 -13 -9 -20 -6 -9 3 -17 -3 -21
-15 -3 -12 -11 -21 -16 -21 -6 0 -6 7 0 19 8 14 7 22 -4 31 -15 13 -20 5 -16
-27 1 -6 -6 -13 -16 -15 -14 -2 -11 -7 11 -22 16 -10 25 -13 22 -7 -9 14 4 14
24 1 8 -5 10 -10 5 -10 -6 0 -11 -9 -11 -20 0 -11 4 -20 8 -20 11 0 6 -23 -7
-33 -5 -5 2 -6 18 -3 23 5 27 3 27 -15 0 -22 0 -22 20 -4 l21 19 -23 12 c-12
7 -26 10 -29 8 -12 -7 -20 28 -9 41 8 9 6 17 -4 28 -15 15 -12 27 9 27 6 0 11
-10 12 -22 2 -27 22 -39 44 -27 25 13 29 12 29 -13 0 -34 14 -11 17 28 2 32
-6 40 -38 36 -4 -1 -17 10 -29 23 -13 14 -31 25 -41 25 -22 0 -41 24 -33 43 4
11 -2 17 -18 20 -21 4 -21 4 -2 6 12 0 27 8 35 17 15 18 19 66 4 60 -5 -2 -9
-9 -7 -15 1 -6 -5 -11 -13 -11 -21 0 -19 13 4 29 21 15 17 45 -5 37 -16 -6
-19 10 -5 19 12 7 41 -22 41 -41 0 -8 5 -14 12 -14 9 0 9 -3 0 -12 -7 -7 -8
-17 -2 -29 8 -14 6 -19 -10 -24 -11 -3 -20 -10 -20 -14 0 -13 24 -31 42 -31
10 0 18 -4 18 -9 0 -11 -43 -8 -53 4 -5 6 -7 4 -4 -5 2 -10 15 -15 36 -14 22
1 30 -3 27 -12 -3 -7 1 -15 8 -17 10 -4 12 1 9 14 -3 11 0 19 7 19 17 0 8 43
-10 47 -11 3 -11 2 -3 -4 8 -6 9 -14 3 -23 -7 -10 -10 -11 -10 -2 0 6 -11 12
-25 12 -14 0 -25 5 -25 11 0 6 7 9 15 5 14 -5 53 24 56 42 4 20 12 31 21 26 5
-3 5 -11 -2 -19 -8 -9 -7 -14 4 -18 11 -4 13 -1 9 10 -4 10 -2 14 5 9 6 -3 14
-2 17 4 5 8 11 7 21 -1 12 -9 14 -8 11 7 -1 11 -6 25 -10 32 -7 11 10 17 36
13 4 0 7 5 7 11 0 9 3 9 9 -1 8 -12 12 -12 25 -2 12 10 19 8 37 -10 16 -16 18
-23 9 -29 -9 -6 -9 -9 1 -13 11 -4 11 -6 -1 -6 -8 -1 -28 10 -44 24 -16 14
-31 23 -34 20 -6 -6 28 -45 37 -42 3 0 16 -4 27 -11 12 -6 24 -8 28 -5 3 3 6
2 6 -4 0 -5 7 -10 15 -10 10 0 13 6 9 19 -4 14 -1 17 17 15 13 -2 25 -10 27
-17 3 -7 0 -10 -6 -6 -6 3 -13 2 -17 -4 -3 -5 1 -10 9 -10 8 0 20 9 26 19 6
13 17 17 30 14 17 -5 18 -7 4 -20 -13 -13 -12 -17 10 -34 41 -32 61 -21 30 17
-13 16 -15 16 -10 2 7 -22 -10 -24 -18 -3 -3 8 0 16 7 16 7 1 19 2 27 3 8 1
21 -3 28 -8 7 -5 15 -6 19 -2 3 3 1 6 -6 6 -7 0 -10 4 -6 9 6 11 -34 37 -49
33 -5 -2 -4 3 2 11 10 12 7 17 -18 27 -24 10 -28 15 -19 26 8 10 16 11 31 3
12 -7 24 -7 31 -1 20 16 61 26 53 13 -4 -6 0 -11 8 -11 18 0 20 8 7 29 -5 7
-14 10 -20 7 -16 -10 -14 19 2 33 8 6 17 8 20 4 4 -3 7 5 6 18 0 13 -3 18 -6
12 -2 -7 -10 -13 -17 -13 -8 0 -25 -9 -40 -21 -14 -11 -26 -16 -26 -10 0 6 -9
11 -20 11 -11 0 -25 12 -33 26 -9 17 -17 23 -21 15 -4 -6 -2 -11 4 -11 6 0 9
-4 5 -9 -3 -5 -1 -12 5 -16 12 -7 14 -26 3 -23 -5 1 -21 -4 -36 -10 -19 -8
-34 -9 -45 -2 -18 10 -15 11 33 13 31 2 42 26 16 35 -8 3 -11 0 -7 -6 3 -5 0
-12 -8 -15 -14 -6 -31 18 -18 26 4 2 1 2 -5 1 -8 -2 -13 8 -13 26 0 20 5 30
15 30 8 0 15 -4 15 -10 0 -5 -5 -10 -11 -10 -5 0 -7 -4 -4 -10 7 -12 36 -14
33 -2 -2 4 0 8 5 10 20 6 35 0 45 -22 12 -27 57 -40 72 -21 8 9 6 14 -5 19 -9
3 -13 2 -10 -4 3 -6 -4 -10 -16 -10 -19 0 -20 2 -8 16 12 15 11 16 -9 10 -15
-5 -22 -3 -22 6 0 7 13 14 30 15 17 1 30 -2 30 -8 0 -6 5 -7 10 -4 6 3 13 -1
16 -9 7 -19 26 -21 23 -3 -3 23 1 40 8 34 3 -4 12 -2 20 5 11 9 12 7 7 -7 -5
-13 -4 -16 4 -11 7 4 12 1 12 -8 0 -9 -4 -16 -9 -16 -5 0 -11 -12 -14 -26 -3
-20 0 -28 13 -31 11 -3 16 -11 13 -19 -6 -17 -2 -17 31 -4 14 5 26 14 26 19 0
6 -6 8 -14 5 -9 -4 -13 3 -13 20 0 14 2 26 6 26 9 0 35 -43 36 -60 0 -8 10
-16 23 -18 12 -2 22 -10 22 -19 0 -12 -3 -13 -15 -3 -8 6 -19 9 -25 5 -5 -3
-10 -1 -10 5 0 8 -13 10 -40 5 -33 -6 -40 -4 -40 10 0 9 -4 14 -8 11 -5 -3 -7
-21 -6 -41 3 -29 0 -35 -9 -27 -14 12 -31 4 -40 -18 -4 -8 -4 -1 -1 16 4 24 1
31 -11 31 -9 0 -14 -6 -11 -13 4 -10 -1 -11 -21 -3 -39 14 -41 1 -3 -15 28
-11 30 -15 14 -18 -16 -4 -15 -6 8 -12 16 -5 29 -17 32 -32 4 -13 13 -24 21
-24 9 0 12 -6 8 -17 -4 -9 -2 -14 3 -11 5 3 17 -5 27 -18 10 -13 14 -24 10
-24 -13 1 -53 37 -53 49 0 6 -5 11 -11 11 -5 0 -8 -4 -4 -9 3 -5 -2 -16 -10
-25 -12 -12 -14 -20 -5 -36 7 -13 7 -20 0 -20 -5 0 -10 5 -10 10 0 6 -14 10
-31 10 -17 0 -28 4 -24 10 4 6 -7 10 -24 10 -17 0 -31 -4 -31 -10 0 -5 10 -10
22 -10 12 0 19 -3 15 -6 -12 -12 -77 7 -77 22 0 8 6 14 13 13 22 -4 67 13 61
23 -4 6 -10 6 -17 -1 -16 -16 -47 -13 -47 3 0 23 -17 28 -34 10 -20 -19 -20
-34 -1 -34 9 0 12 6 9 15 -4 8 -1 15 5 15 13 0 15 -27 1 -35 -13 -8 -61 5 -55
15 3 5 -1 11 -7 14 -7 3 -3 3 10 0 12 -3 22 -1 22 5 0 11 -13 15 -39 12 -7 -2
-10 2 -6 8 9 16 -1 13 -19 -5 -18 -17 -22 -39 -6 -29 6 4 18 1 26 -6 13 -11
13 -14 -7 -25 -13 -6 -29 -10 -36 -7 -8 3 -13 2 -12 -3 4 -24 -2 -45 -12 -38
-7 4 -10 -1 -7 -11 4 -21 26 -32 25 -13 -1 32 4 46 19 52 8 3 13 2 9 -3 -8
-13 5 -42 16 -35 5 3 7 10 4 15 -5 8 15 14 37 10 4 0 5 6 2 14 -5 13 -2 13 30
0 19 -8 52 -15 72 -15 21 0 34 -3 31 -7 -4 -3 -2 -12 3 -18 7 -9 6 -16 -4 -24
-12 -10 -13 -9 -9 8 6 24 10 23 -80 25 -63 1 -85 -8 -52 -20 8 -4 15 -14 16
-23 0 -11 3 -9 9 7 12 27 26 28 33 2 3 -14 0 -21 -11 -22 -10 -1 -24 -2 -32
-4 -8 -1 -21 -2 -27 -3 -7 -1 -13 -5 -13 -10 0 -5 18 -8 39 -7 22 0 34 4 28 8
-9 6 -9 8 0 8 21 0 26 -21 6 -26 -23 -6 -25 -43 -3 -69 14 -17 13 -17 -7 -6
-13 6 -34 9 -49 7 -17 -3 -33 2 -47 14 -13 13 -16 20 -8 20 11 0 11 3 1 15 -9
10 -9 15 -1 15 6 0 11 -4 11 -10 0 -5 9 -10 19 -10 11 0 23 -4 26 -10 3 -5 12
-10 18 -9 9 0 9 2 0 6 -7 2 -13 9 -13 14 0 4 7 5 17 2 11 -4 14 -3 9 5 -4 7
-18 12 -30 12 -15 0 -26 7 -29 20 -6 23 -37 27 -37 5 0 -7 -8 -18 -17 -24 -17
-9 -17 -10 -1 -16 10 -4 15 -11 12 -16 -9 -15 -21 -10 -27 11 -5 20 -27 28
-27 11 0 -6 -8 -8 -18 -7 -30 6 -52 -7 -42 -24 9 -13 11 -13 19 -1 8 12 12 12
25 -2 21 -20 20 -37 0 -37 -14 0 -14 -3 -4 -15 7 -8 19 -15 26 -15 8 0 11 -7
7 -17 -5 -15 -3 -14 10 2 9 11 12 21 7 23 -5 2 -6 10 -3 19 5 12 3 14 -7 8 -8
-5 -11 -3 -8 5 7 22 45 31 59 14 10 -12 9 -13 -3 -9 -19 8 -28 -14 -23 -57 4
-25 2 -29 -6 -18 -9 13 -10 13 -6 0 2 -8 14 -17 26 -18 17 -3 21 0 15 10 -6 9
-3 9 12 -2 10 -8 16 -11 12 -6 -4 5 0 15 8 24 12 11 18 12 27 3 9 -10 9 -12
-2 -9 -8 2 -14 -6 -16 -20 -1 -13 -8 -28 -16 -33 -9 -7 -4 -7 16 -3 17 4 32
11 33 16 2 4 15 8 28 8 14 0 22 -4 19 -10 -3 -5 2 -10 12 -10 15 1 15 3 -6 21
-22 18 -26 18 -47 4 -15 -10 -24 -11 -24 -4 0 6 9 13 20 16 24 6 25 12 3 28
-14 11 -11 12 20 9 25 -3 37 0 37 8 0 7 7 2 16 -10 11 -16 13 -27 6 -35 -7 -8
-5 -16 4 -25 12 -11 14 -10 15 5 1 10 1 22 0 27 -1 5 5 6 13 3 8 -3 17 -1 19
6 2 7 3 4 2 -6 -2 -9 3 -17 11 -17 8 0 11 -6 7 -16 -6 -16 12 -34 35 -34 6 0
12 7 12 15 0 8 5 15 11 15 6 0 9 -7 5 -15 -3 -8 -3 -15 0 -15 2 0 9 10 14 22
l9 23 0 -22 c1 -20 3 -21 26 -11 14 6 25 15 25 20 0 5 -4 6 -10 3 -5 -3 -10 0
-10 7 0 9 -3 9 -10 -2 -8 -12 -10 -11 -10 7 0 19 -5 21 -29 18 -24 -3 -29 0
-24 12 5 12 3 14 -8 8 -8 -5 -5 1 5 13 23 26 11 29 -18 5 -12 -10 -15 -11 -8
-3 20 23 14 32 -12 15 -23 -15 -25 -15 -36 4 -6 13 -7 21 -1 21 5 0 12 8 14
17 4 15 5 16 6 2 1 -11 14 -19 36 -23 37 -7 55 -24 37 -35 -7 -4 -8 -12 -2
-21 9 -15 11 -12 26 38 2 7 -6 17 -19 22 -12 5 -18 9 -13 9 15 2 -16 31 -33
31 -14 0 -14 -2 -1 -10 8 -5 11 -12 8 -15 -10 -11 -30 6 -24 20 2 7 -2 24 -9
39 -8 14 -10 26 -6 26 4 0 14 -11 21 -25 15 -28 30 -33 30 -10 0 7 -8 18 -17
24 -10 5 -15 13 -11 17 4 4 17 -4 29 -17 15 -17 19 -19 15 -7 -3 11 0 18 7 18
26 0 -19 20 -46 20 -17 0 -26 4 -22 10 4 6 11 8 16 4 5 -3 17 0 25 7 8 6 17 9
21 5 3 -3 1 -6 -6 -6 -7 0 -9 -5 -6 -11 5 -7 12 -5 23 4 15 13 19 13 32 -1 13
-14 12 -15 -3 -9 -9 3 -17 2 -17 -2 0 -5 6 -12 13 -14 7 -3 4 -6 -7 -6 -11 -1
-16 -6 -13 -15 3 -8 -1 -20 -9 -26 -8 -7 -14 -18 -14 -24 0 -6 7 -2 15 8 12
16 18 17 27 8 9 -9 9 -15 -1 -24 -10 -11 -11 -9 -6 7 6 16 5 17 -4 5 -7 -10
-6 -19 4 -30 7 -8 11 -26 9 -40 -7 -35 28 -57 52 -33 15 16 17 16 29 0 7 -9
16 -17 21 -17 5 0 14 -10 19 -22 11 -24 37 -38 33 -17 -2 8 7 15 20 17 26 4
30 -14 5 -21 -17 -4 -17 -5 0 -6 19 -1 23 -16 7 -26 -5 -3 -10 -15 -10 -25 0
-10 -6 -21 -12 -24 -7 -3 -4 -5 7 -3 12 1 20 10 20 22 0 13 8 21 24 23 15 2
21 0 17 -7 -4 -6 -3 -11 3 -11 5 0 13 5 17 11 4 8 9 7 15 -2 6 -10 9 -11 9 -1
0 6 5 12 11 12 6 0 8 -7 4 -17 -4 -13 -3 -15 5 -7 6 6 8 18 4 27 -6 17 -24 24
-24 9 0 -5 -7 -9 -15 -9 -10 0 -14 6 -10 14 3 8 5 16 5 17 0 2 11 1 24 -1 19
-4 26 1 35 24 8 19 10 21 7 6 -4 -23 5 -24 59 -8 6 1 11 -19 12 -51 1 -30 -3
-54 -8 -54 -5 0 -9 -4 -9 -9 0 -6 12 -3 28 5 41 21 62 18 62 -10 0 -19 4 -22
25 -18 27 5 35 22 10 22 -8 0 -15 5 -15 10 0 6 5 10 12 10 6 0 26 11 44 25 37
28 83 37 48 9 -18 -14 -15 -15 31 -9 28 4 54 10 59 13 17 10 -29 20 -48 10
-14 -8 -17 -7 -14 4 5 13 32 14 98 3 32 -5 33 -4 10 6 -14 6 -38 15 -55 19
l-30 8 29 1 c20 1 27 5 23 15 -7 18 14 27 43 19 13 -4 26 0 32 8 8 11 9 10 4
-3 -3 -11 -1 -15 8 -12 8 3 17 1 20 -5 5 -7 -10 -9 -44 -5 -32 4 -50 2 -50 -5
0 -6 10 -11 23 -11 13 0 29 -6 36 -13 11 -9 13 -9 7 1 -5 8 1 12 18 12 14 0
28 0 31 0 3 0 14 9 25 20 12 12 25 18 30 15 13 -8 13 6 0 25 -8 13 -11 12 -24
-5 -14 -17 -17 -18 -26 -5 -6 10 -10 11 -10 3 0 -7 -8 -13 -17 -13 -15 0 -16
2 -3 10 12 8 9 10 -12 10 -14 0 -28 -4 -30 -9 -1 -5 -9 -3 -16 5 -11 12 -10
14 4 14 13 0 14 3 4 15 -7 8 -10 15 -6 15 18 0 -37 40 -56 41 -22 1 -22 1 1 8
14 4 26 13 29 21 3 13 2 13 -7 0 -6 -8 -11 -13 -12 -10 0 3 -2 15 -5 28 -5 27
1 28 28 2 26 -24 34 -20 18 9 -9 17 -8 21 5 21 8 0 15 5 15 10 0 6 4 9 9 8 5
-2 17 6 25 17 15 19 15 19 16 -11 0 -28 -3 -31 -27 -30 -14 0 -28 -4 -30 -10
-2 -7 11 -11 37 -10 22 0 40 5 40 10 0 4 7 3 16 -5 13 -10 17 -10 26 2 8 12 9
12 5 -1 -4 -16 -8 -17 -76 -19 -37 -1 -42 -3 -31 -16 7 -8 18 -15 24 -15 6 0
4 5 -4 10 -13 8 -13 10 1 10 9 0 19 -7 23 -15 4 -11 -2 -15 -20 -15 -14 0 -22
-4 -19 -10 3 -5 0 -7 -9 -4 -8 3 -13 11 -10 18 3 7 -2 13 -11 13 -20 0 -20
-33 1 -41 8 -3 12 -10 9 -16 -9 -15 37 -30 53 -18 8 7 12 6 12 -3 0 -11 2 -11
10 1 6 9 5 17 -3 23 -7 5 -3 6 11 2 23 -7 31 8 10 21 -6 4 -20 -4 -33 -20 -20
-25 -23 -26 -36 -10 -12 16 -12 17 5 11 14 -6 17 -4 12 8 -3 9 0 15 8 15 8 0
21 3 29 6 8 3 21 -2 30 -11 18 -17 24 -11 21 23 -1 16 4 22 20 22 19 -1 20 -2
4 -14 -22 -16 -12 -29 12 -16 9 5 33 10 53 12 20 1 33 6 31 10 -3 4 -16 5 -30
2 -14 -4 -24 -2 -24 5 0 6 -3 10 -7 10 -25 -4 -53 2 -48 11 4 7 13 7 26 0 12
-7 19 -7 19 -1 0 6 18 9 40 8 22 -1 40 -6 40 -12 0 -5 5 -3 11 5 8 11 12 12
16 3 2 -7 19 -13 36 -12 21 0 26 3 16 7 -9 4 -15 17 -14 29 1 21 -26 41 -47
35 -5 -1 -8 2 -8 8 0 5 -8 10 -17 9 -11 0 -13 -3 -5 -6 6 -2 12 -8 12 -13 0
-4 -6 -7 -12 -6 -7 0 -14 -3 -15 -9 -2 -5 11 -10 27 -10 39 1 39 -11 0 -17
-16 -3 -30 -1 -30 3 0 4 -7 10 -16 13 -8 3 -12 2 -9 -4 3 -6 -1 -10 -10 -10
-11 0 -15 5 -11 15 3 8 0 15 -7 16 -44 2 -83 11 -92 20 -7 8 -3 9 15 4 14 -5
36 -9 50 -10 14 -1 30 -3 35 -5 19 -5 45 0 45 9 0 4 -10 8 -22 8 -63 -1 -83 3
-68 13 13 8 12 10 -3 10 -10 0 -15 5 -12 10 3 6 1 10 -5 10 -6 0 -18 7 -26 15
-19 19 -5 20 21 2 28 -19 57 -29 50 -17 -3 6 1 10 9 10 9 0 16 -4 16 -10 0 -5
8 -11 18 -11 9 -1 1 -5 -18 -9 -31 -7 -29 -7 18 -7 46 1 51 3 36 14 -10 7 -23
13 -30 13 -6 0 -11 8 -10 17 0 9 -10 23 -24 30 -14 7 -19 13 -12 13 6 0 12 4
12 10 0 5 -8 6 -17 3 -13 -5 -15 -2 -10 11 6 15 3 17 -15 13 -27 -7 -53 6 -44
22 5 7 -2 12 -16 12 -71 5 -91 8 -101 18 -14 14 -27 14 -27 0 0 -5 4 -8 10 -4
5 3 16 -8 25 -25 12 -23 21 -29 35 -25 22 7 36 -11 14 -19 -10 -4 -13 -13 -9
-25 4 -15 0 -20 -26 -23 -19 -3 -33 0 -36 8 -2 7 -11 10 -19 7 -10 -4 -12 -9
-4 -18 8 -9 7 -14 -3 -18 -10 -4 -14 2 -14 18 0 24 38 45 45 25 2 -6 16 -10
30 -10 19 0 23 3 13 9 -9 6 -10 11 -2 15 7 5 1 16 -18 32 -31 26 -47 31 -35
12 5 -7 2 -9 -9 -5 -12 4 -14 2 -10 -11 6 -15 4 -15 -14 1 -14 12 -23 15 -28
8 -3 -6 -2 -11 4 -11 6 0 8 -7 5 -15 -4 -8 -10 -15 -16 -15 -5 0 -6 4 -3 10 3
5 2 10 -3 10 -6 0 -12 -7 -16 -15 -3 -8 -9 -15 -15 -15 -13 0 -22 42 -10 56 6
7 4 15 -6 24 -18 15 -10 30 17 30 17 0 18 -2 8 -15 -8 -9 -8 -15 -2 -15 6 0
13 6 15 13 4 10 6 10 6 0 1 -15 61 -18 61 -3 0 5 -7 6 -17 3 -9 -4 -14 -2 -10
4 3 5 -4 9 -16 9 -18 -1 -21 4 -19 26 3 24 -1 27 -30 30 -33 4 -33 4 -8 15 17
7 29 7 38 1 9 -8 12 -6 12 6 0 9 -6 16 -12 16 -7 0 -24 3 -37 7 -14 4 -22 2
-18 -3 8 -14 -10 -40 -20 -30 -4 5 -3 11 3 13 7 2 8 20 3 55 -5 28 -6 55 -3
60 3 4 -2 8 -10 8 -8 0 -18 4 -21 10 -4 6 2 7 17 1 15 -6 22 -16 21 -30 -3
-25 5 -27 21 -6 8 10 15 12 26 5 13 -8 12 -10 -2 -10 -13 0 -18 -8 -18 -30 0
-16 5 -30 11 -30 7 0 9 9 6 21 -4 15 -2 19 8 15 8 -3 16 0 19 7 4 7 4 2 2 -10
-2 -12 2 -24 10 -27 8 -3 11 0 7 10 -6 17 8 19 25 2 9 -9 12 -9 12 0 0 7 -7
15 -15 18 -17 7 -20 24 -5 24 6 0 19 9 31 21 22 22 46 21 41 -4 -1 -8 3 -19 9
-23 9 -5 10 -2 6 9 -4 11 -1 17 8 17 20 0 28 17 15 37 -9 15 -10 15 -5 -5 6
-20 4 -23 -12 -20 -10 2 -17 9 -16 14 1 6 -7 15 -18 22 -11 7 -19 8 -19 2 0
-5 5 -10 11 -10 5 0 7 -4 4 -10 -3 -5 -15 -10 -26 -10 -10 0 -19 -7 -19 -15 0
-8 -7 -15 -15 -15 -8 0 -15 5 -15 10 0 6 5 10 10 10 7 0 7 7 2 18 -9 19 -9 46
2 79 4 13 4 28 -1 35 -10 17 -11 58 -1 52 4 -3 8 0 8 5 0 6 -7 11 -15 11 -12
0 -11 4 5 20 10 10 28 17 40 15 11 -2 20 0 20 6 0 5 -9 9 -19 9 -11 0 -23 4
-26 10 -4 6 1 7 11 3 13 -5 15 -2 10 13 -5 15 -1 20 15 21 30 3 34 10 18 30
-8 9 -9 14 -3 10 6 -3 11 1 11 9 0 9 -6 13 -14 9 -8 -3 -17 -5 -19 -5 -3 0 -3
-3 -1 -7 6 -9 -19 -34 -30 -32 -5 1 -14 -12 -22 -30 -8 -17 -18 -31 -23 -31
-4 0 -4 8 2 18 5 9 14 33 19 52 5 19 10 27 10 18 1 -19 31 -14 31 4 0 6 8 17
17 24 10 7 14 16 10 20 -4 5 -12 2 -17 -6 -6 -9 -10 -10 -10 -3 0 6 4 14 9 17
13 8 42 -4 35 -15 -3 -5 0 -9 5 -9 18 0 12 18 -11 34 -12 9 -19 17 -15 17 27
5 33 2 45 -16 10 -15 12 -16 8 -2 -3 9 -2 17 2 17 4 0 8 8 9 19 1 14 -3 18
-20 13 -12 -3 -19 -1 -15 3 4 5 2 15 -5 23 -10 13 -9 14 2 8 9 -6 12 -5 9 5
-3 8 -1 22 4 32 6 12 5 17 -4 17 -8 0 -6 5 5 11 12 7 23 6 38 -4 15 -11 17
-16 7 -20 -11 -4 -11 -6 0 -6 8 -1 16 8 19 20 5 16 8 18 15 7 7 -9 8 -8 4 5
-3 10 -6 24 -7 30 0 7 -5 1 -11 -13 -6 -15 -12 -20 -15 -12 -3 6 -14 12 -25
12 -16 0 -18 3 -9 13 7 10 7 17 0 24 -8 8 -7 13 2 18 7 5 10 4 7 -1 -3 -5 0
-15 8 -22 11 -10 13 -7 7 19 -4 23 -3 30 5 25 8 -4 10 -2 6 7 -3 8 -1 18 5 22
6 3 11 -1 11 -10 0 -12 5 -15 18 -10 9 4 25 10 35 12 9 3 17 10 17 15 0 6 -7
7 -15 4 -8 -3 -22 -9 -32 -13 -10 -4 -14 -2 -10 4 8 13 -20 26 -36 16 -8 -4
-7 -1 1 9 16 20 72 30 65 11 -3 -7 -10 -10 -16 -6 -6 3 -7 1 -3 -5 9 -15 33
-5 39 18 3 12 -2 20 -14 23 -11 3 -19 1 -19 -3 0 -5 -12 -7 -27 -6 -16 2 -32
-2 -36 -8 -6 -7 -7 -6 -4 4 2 8 9 15 16 15 14 0 32 26 25 37 -3 4 0 8 5 8 6 0
11 -8 11 -17 0 -13 3 -14 12 -5 9 9 9 15 0 24 -18 18 -14 32 5 17 15 -12 16
-12 8 1 -5 8 -10 22 -12 30 -1 8 -7 16 -12 18 -17 6 -13 22 5 22 8 0 12 5 8
11 -3 6 0 15 7 20 11 7 9 9 -6 9 -17 1 -16 3 5 11 21 9 28 6 48 -18 21 -24 22
-25 12 -4 -11 21 -10 23 4 18 10 -4 14 -3 11 2 -3 5 -1 12 5 16 5 3 10 1 10
-6 0 -7 3 -9 6 -6 4 4 1 13 -6 22 -9 11 -9 15 -1 15 7 0 9 5 6 10 -3 6 1 10 9
10 9 0 16 5 16 11 0 5 -4 8 -9 5 -5 -4 -8 4 -7 17 2 20 -1 22 -34 19 -21 -2
-41 1 -45 7 -4 8 5 10 34 5 30 -5 41 -3 41 6 0 10 3 10 15 0 9 -7 15 -8 15 -2
0 14 -24 22 -40 12 -8 -5 -21 -5 -31 0 -9 5 -19 6 -23 2 -4 -3 -4 2 0 13 4 10
9 14 11 8 5 -15 57 0 79 21 8 9 13 16 9 16 -3 0 -1 8 4 19 13 23 3 35 -16 20
-16 -14 -18 -33 -2 -23 8 4 8 0 0 -15 -7 -11 -14 -21 -17 -21 -3 0 -3 4 0 9 3
5 -3 11 -15 14 -16 4 -18 3 -9 -8 14 -17 -13 -28 -29 -12 -14 14 -15 40 -1 32
6 -3 10 -1 10 6 0 8 4 8 15 -1 12 -10 18 -8 34 11 19 24 19 24 -5 27 -23 3
-51 38 -40 50 3 3 6 -1 6 -9 0 -11 2 -11 10 1 9 13 10 13 11 0 1 -8 1 -19 0
-24 -1 -5 7 -6 19 -3 11 3 20 1 20 -4 0 -5 8 -9 18 -8 10 0 12 3 5 6 -7 2 -13
12 -12 21 0 11 2 12 6 5 2 -7 9 -13 14 -13 6 0 8 4 5 9 -7 11 28 43 37 34 4
-3 7 -1 7 5 0 11 -5 13 -42 16 -7 1 -12 -4 -11 -11 2 -6 -6 -11 -17 -10 -13 1
-16 5 -10 13 6 6 7 13 4 17 -9 9 6 48 17 42 14 -9 11 9 -5 31 -12 15 -17 17
-27 7 -18 -18 -32 -16 -25 3 4 9 2 22 -4 29 -7 9 -5 16 7 26 16 12 17 12 6 -1
-9 -12 -8 -19 1 -32 7 -10 16 -15 19 -11 4 3 2 12 -4 19 -6 8 -7 14 0 18 13 8
3 36 -13 35 -6 -1 -19 -3 -28 -6z m-743 -916 c-25 -35 -26 -42 -14 -73 14 -33
19 -75 8 -68 -4 2 -16 -7 -27 -21 -20 -26 -51 -30 -102 -16 -17 5 -29 2 -37
-8 -11 -15 -12 -14 -13 0 0 9 3 19 8 23 4 4 7 20 8 34 0 18 5 26 15 24 11 -3
11 -1 2 9 -15 15 -6 39 16 39 13 0 13 2 2 9 -7 5 -21 6 -31 4 -11 -3 -19 2
-23 16 -3 12 -1 21 4 21 5 0 9 -5 9 -11 0 -15 42 -7 58 11 12 13 13 12 7 -5
-17 -51 -15 -64 12 -83 16 -10 34 -21 41 -23 10 -3 9 -9 -3 -24 -14 -19 -16
-19 -26 -2 -5 9 -15 15 -21 11 -6 -4 -8 1 -4 13 4 13 0 25 -9 33 -21 17 -29 7
-15 -19 8 -17 8 -21 -2 -19 -7 2 -14 -7 -16 -19 -4 -25 8 -29 39 -13 15 8 19
7 19 -5 0 -18 4 -19 33 -2 29 16 38 29 32 46 -4 9 0 11 10 7 8 -3 15 -1 15 4
0 5 -9 12 -20 15 -11 3 -20 11 -20 16 0 6 5 7 10 4 6 -3 10 -1 10 4 0 6 -9 11
-21 11 -11 0 -17 -4 -14 -10 7 -11 -8 -14 -18 -4 -10 10 17 32 33 26 13 -5 13
-3 1 11 -16 21 -31 22 -31 3 0 -7 -7 -19 -15 -26 -12 -10 -15 -10 -15 4 0 9 5
16 11 16 5 0 8 4 4 9 -7 12 26 45 34 33 10 -16 44 -9 49 10 2 10 9 15 14 12 5
-3 2 -15 -7 -27z m-589 -491 c8 -8 14 -19 14 -24 0 -5 8 -16 18 -25 14 -12 19
-13 29 -2 9 10 9 15 0 24 -9 9 -8 11 6 5 12 -4 16 -13 12 -25 -4 -11 -2 -19 6
-19 8 0 9 -3 0 -13 -6 -8 -7 -18 -3 -22 4 -5 2 -5 -5 -1 -7 4 -10 14 -7 24 4
11 -2 8 -15 -8 -27 -32 -26 -37 5 -44 17 -5 24 -12 20 -21 -3 -8 -1 -15 3 -15
12 0 23 29 15 41 -3 5 -1 9 5 9 5 0 13 -5 16 -10 9 -14 25 -2 25 18 0 15 -2
15 -10 2 -5 -8 -10 -10 -10 -4 0 6 6 17 14 23 21 17 29 -25 8 -45 -15 -15 -14
-18 3 -30 10 -8 27 -14 37 -14 10 0 18 -4 18 -10 0 -5 9 -18 21 -29 15 -14 17
-21 8 -26 -7 -5 -10 -4 -5 3 3 6 -3 13 -14 17 -11 3 -20 13 -20 21 0 16 -18
18 -39 5 -12 -8 -13 -12 -1 -25 7 -9 10 -20 6 -24 -4 -4 -15 3 -25 14 -13 16
-26 21 -56 18 -70 -5 -125 -13 -146 -19 -11 -4 -19 -2 -19 4 0 6 -4 11 -10 11
-15 0 -12 -37 4 -43 12 -5 12 -11 3 -31 -14 -30 -32 -35 -24 -7 3 11 -2 29
-10 40 -8 12 -10 21 -4 21 6 0 11 7 11 15 0 8 9 19 20 25 16 9 20 8 20 -5 0
-9 9 -15 25 -15 26 0 30 6 16 29 -7 11 -11 10 -21 -5 -10 -17 -11 -17 -6 -1 6
19 -13 57 -28 57 -4 0 -3 -7 4 -15 7 -9 11 -16 9 -18 -44 -25 -48 -26 -55 -14
-4 6 -4 9 1 5 20 -19 43 58 22 78 -3 3 -3 12 -1 19 3 8 -8 17 -28 25 -18 7
-27 14 -21 17 7 2 25 -4 41 -15 28 -20 95 -32 108 -19 4 4 1 7 -6 7 -9 0 -8 4
4 13 16 12 17 16 5 35 -8 12 -20 20 -26 17 -7 -2 -13 0 -13 5 0 15 29 12 46
-4z"/>
<path d="M2653 2563 c11 -3 16 -11 13 -18 -3 -8 0 -13 7 -11 7 1 9 1 4 -1 -4
-3 -5 -9 -2 -14 4 -5 -1 -6 -9 -3 -9 3 -16 1 -16 -5 0 -6 5 -11 11 -11 6 0 3
-7 -5 -16 -9 -8 -16 -18 -16 -22 0 -3 5 -1 11 5 8 8 20 7 45 -3 19 -8 51 -21
71 -30 l38 -15 -40 -18 c-59 -26 -105 -34 -105 -17 0 8 6 16 14 19 22 9 12 42
-12 42 -11 0 -24 3 -28 8 -21 20 -23 3 -5 -29 12 -20 19 -39 16 -42 -3 -4 -10
0 -14 7 -6 9 -10 10 -16 2 -4 -7 5 -16 24 -22 17 -6 28 -15 25 -20 -3 -5 0 -9
5 -9 6 0 11 7 11 15 0 15 23 19 85 16 23 -1 26 1 15 9 -9 6 -10 10 -3 10 6 0
19 3 28 6 9 4 15 3 14 -2 -1 -5 0 -11 1 -14 6 -16 5 -50 -2 -50 -15 0 -23 5
-20 13 1 4 -3 7 -9 7 -6 0 -9 -7 -6 -14 4 -10 1 -13 -9 -9 -7 3 -14 0 -14 -6
0 -6 3 -10 8 -10 20 3 43 -2 38 -9 -2 -4 4 -9 15 -10 10 -1 28 -3 39 -4 11 -1
22 -8 25 -16 3 -10 -1 -11 -16 -7 -13 4 -19 3 -16 -2 4 -6 -4 -8 -19 -5 -19 3
-22 7 -12 13 9 6 5 8 -12 7 -16 -2 -24 2 -22 10 1 6 -4 12 -12 12 -8 0 -23 3
-33 7 -16 6 -16 5 -4 -10 7 -9 17 -14 22 -11 5 3 9 -2 9 -11 0 -13 -4 -14 -20
-5 -11 6 -20 8 -20 4 0 -3 -7 -1 -15 6 -17 14 -49 5 -39 -11 4 -7 1 -10 -7 -7
-8 3 -20 -1 -27 -9 -8 -7 -18 -10 -24 -7 -6 4 -5 -2 1 -15 7 -11 17 -21 24
-20 9 0 9 2 0 6 -7 2 -13 9 -13 14 0 6 5 7 11 4 5 -4 19 1 30 11 18 16 69 27
69 14 0 -3 9 -11 20 -17 16 -11 18 -10 13 3 -4 12 -1 15 13 12 11 -2 18 -11
18 -22 -2 -16 0 -16 15 -2 16 15 20 14 44 -14 15 -16 34 -30 43 -30 13 0 14
-3 4 -15 -10 -11 -9 -18 3 -30 20 -19 33 -20 17 0 -7 8 -9 23 -6 32 6 15 9 15
17 3 9 -12 10 -12 5 3 -4 12 0 17 14 17 10 0 22 -4 25 -10 3 -5 11 -10 16 -10
6 0 8 4 5 9 -4 5 0 11 6 14 10 3 10 8 -1 18 -9 9 -11 9 -7 2 7 -13 -3 -17 -39
-13 -22 2 -47 28 -39 41 3 5 -2 6 -10 3 -9 -3 -16 -10 -16 -16 0 -5 4 -7 8 -4
4 2 13 -4 20 -15 15 -24 -3 -26 -36 -3 -27 19 -28 31 -3 39 13 4 18 12 14 22
-5 13 -3 13 14 5 11 -6 24 -8 28 -4 5 4 5 1 1 -6 -4 -6 0 -19 8 -28 9 -8 16
-11 16 -5 0 6 6 8 14 5 10 -4 13 0 11 13 -2 10 -4 24 -4 32 -1 7 -7 11 -15 8
-10 -4 -13 -1 -9 9 7 20 -14 18 -26 -3 -9 -17 -11 -16 -30 4 -25 27 -26 33 -5
33 8 0 13 -4 10 -8 -2 -4 -1 -14 3 -20 6 -10 11 -10 20 2 10 12 6 18 -27 35
-22 11 -42 24 -44 29 -9 24 -100 91 -116 86 -14 -5 -15 -4 -2 5 12 8 6 18 -35
55 -27 26 -56 45 -65 45 -10 -1 -9 -3 3 -6z"/>
<path d="M3040 779 c0 -6 -5 -7 -12 -3 -8 5 -9 2 -5 -9 4 -11 1 -17 -8 -17 -8
0 -15 6 -15 13 -1 6 -10 1 -22 -13 -14 -16 -19 -19 -15 -7 7 18 -8 24 -18 7
-4 -6 -10 -8 -15 -5 -4 3 -6 -4 -3 -14 5 -21 -28 -38 -48 -25 -8 4 -9 3 -5 -4
4 -6 -3 -21 -14 -32 -11 -11 -18 -26 -14 -32 5 -7 3 -8 -6 -3 -10 6 -12 4 -7
-9 4 -10 2 -26 -3 -36 -9 -17 -7 -19 20 -17 16 1 30 6 30 11 0 5 9 1 21 -10
13 -11 19 -13 17 -5 -2 7 5 15 14 16 15 3 17 -2 12 -23 -6 -25 -5 -26 8 -8 10
13 17 15 22 8 8 -14 -1 -32 -15 -32 -6 0 -17 -6 -25 -14 -12 -13 -12 -15 5
-13 11 0 18 4 15 8 -10 16 66 14 88 -3 13 -10 32 -17 43 -17 14 0 11 4 -12 14
-39 16 -42 22 -10 20 12 -1 25 3 29 9 5 8 8 7 8 -1 0 -7 5 -13 12 -13 9 0 9 3
0 12 -14 14 -82 21 -82 10 0 -4 -9 -8 -20 -9 -25 -2 -27 14 -2 20 13 4 11 5
-5 6 -25 1 -31 16 -10 25 8 3 6 9 -7 20 -18 14 -18 16 -3 16 10 0 20 -7 23
-15 4 -8 14 -15 23 -15 14 0 14 2 1 10 -13 8 -12 10 3 10 9 0 17 -7 17 -15 0
-8 6 -16 13 -17 6 0 17 -2 23 -2 6 -1 19 -9 29 -19 10 -10 24 -16 31 -13 8 3
14 1 14 -4 0 -6 -7 -10 -15 -10 -8 0 -15 -4 -15 -9 0 -5 13 -9 30 -9 23 1 27
4 21 17 -5 9 -6 22 -4 29 4 10 -14 17 -38 14 -4 -1 -9 12 -11 28 -5 36 7 40
16 6 5 -22 8 -23 40 -14 25 8 33 15 28 26 -4 11 -7 12 -10 4 -2 -7 -13 -11
-25 -11 -17 1 -18 2 -4 6 9 2 15 9 12 14 -4 5 -1 9 5 9 7 0 10 7 6 15 -3 8 -1
15 3 15 22 0 16 25 -6 26 -29 2 -28 2 -38 33 -5 16 -3 22 5 19 6 -2 11 -8 11
-13 0 -6 14 -15 32 -22 41 -15 50 -15 42 -3 -4 7 2 9 19 4 29 -7 33 0 11 22
-8 9 -15 11 -15 6 0 -5 -12 -12 -27 -15 -32 -6 -56 9 -35 22 10 6 10 10 -2 20
-12 10 -21 9 -45 -3 -28 -15 -31 -15 -40 1 -5 10 -13 15 -16 11 -4 -4 -18 -3
-31 2 -16 6 -24 6 -24 -1z"/>
<path d="M2591 723 c-1 -9 -18 -11 -61 -7 -44 5 -60 3 -60 -6 0 -7 8 -10 20
-7 27 7 25 -5 -2 -22 -16 -10 -23 -11 -26 -2 -3 9 -7 9 -18 0 -11 -9 -18 -9
-26 -1 -17 17 -38 15 -38 -3 0 -8 -5 -15 -11 -15 -5 0 -7 4 -4 10 3 6 -1 7 -9
4 -33 -13 -14 -25 34 -23 27 2 53 0 56 -4 7 -7 -26 -11 -53 -8 -7 1 -13 -3
-13 -9 0 -5 -5 -10 -11 -10 -5 0 -7 5 -4 10 4 6 -8 10 -29 10 -20 0 -36 -5
-36 -11 0 -5 4 -8 10 -4 5 3 18 0 28 -6 11 -7 27 -9 38 -4 11 4 33 9 49 11 23
3 27 2 15 -7 -12 -8 -10 -9 8 -4 21 6 23 4 17 -15 -5 -17 -4 -21 6 -15 10 6
11 5 4 -3 -5 -5 -19 -12 -30 -15 -11 -3 -2 -5 20 -4 41 1 93 21 78 30 -4 2
-20 3 -35 1 -19 -2 -28 2 -28 11 0 9 6 12 17 8 11 -4 14 -3 9 5 -4 7 -1 12 8
12 9 0 16 -4 16 -10 0 -5 6 -10 14 -10 12 0 12 5 3 30 -7 19 -18 30 -30 30
-16 0 -17 3 -7 15 7 8 20 15 29 15 12 0 13 -2 3 -9 -11 -7 -10 -10 3 -15 23
-8 25 -8 21 7 -1 6 -1 9 1 5 2 -3 17 -2 34 4 16 5 26 14 23 19 -3 5 -9 7 -14
4 -4 -3 -11 1 -13 7 -4 10 -6 10 -6 1z"/>
<path d="M3814 523 c1 -14 -5 -28 -13 -31 -8 -3 -11 0 -7 7 11 17 -20 13 -34
-4 -10 -12 -10 -15 4 -15 9 0 16 -4 16 -9 0 -19 -39 2 -43 23 -4 21 -4 21 -6
-1 -1 -17 -7 -23 -23 -23 -18 0 -20 2 -8 10 8 5 11 13 6 17 -4 4 -13 0 -21
-10 -11 -15 -13 -15 -18 -2 -4 9 -15 13 -29 11 -13 -3 -26 -5 -30 -5 -4 -1 -4
-8 -1 -18 4 -11 3 -14 -6 -9 -18 12 -64 15 -53 4 8 -8 88 -20 152 -22 14 -1
31 -8 38 -16 8 -8 11 -9 7 -2 -5 10 0 11 21 6 16 -4 25 -3 21 2 -3 6 18 10 50
10 37 1 50 -2 41 -8 -9 -7 -7 -8 7 -2 11 4 28 7 38 8 9 0 16 5 14 11 -2 5 -12
9 -22 7 -10 -2 -14 1 -10 7 3 6 -1 11 -9 11 -9 0 -16 5 -16 11 0 5 -10 9 -22
7 -19 -2 -24 2 -26 25 -4 35 -18 35 -18 0z"/>
<path d="M575 520 c-4 -6 -3 -10 2 -10 4 0 1 -5 -8 -10 -9 -5 -26 -8 -38 -5
-12 2 -19 1 -17 -4 3 -4 1 -13 -5 -21 -7 -13 -9 -12 -9 3 0 9 -4 17 -9 17 -5
0 -8 -12 -5 -27 2 -16 1 -23 -3 -18 -5 6 -24 10 -43 10 -19 -1 -43 4 -54 11
-10 7 -26 10 -35 6 -12 -5 -8 -8 14 -13 l30 -7 -35 -1 c-27 -1 -31 -4 -20 -11
12 -8 12 -10 1 -10 -8 0 -12 -2 -9 -5 3 -3 17 -1 30 4 19 7 31 6 47 -5 13 -10
21 -11 21 -4 0 6 4 9 9 6 5 -4 20 -2 33 3 15 6 32 5 44 -1 19 -9 19 -9 0 6
-17 14 -17 16 -3 22 9 3 14 10 11 15 -3 5 0 9 6 9 7 0 10 -6 7 -14 -10 -25 17
-36 72 -31 40 4 53 1 57 -10 9 -22 23 -18 17 4 -3 10 0 28 6 38 16 30 -4 43
-58 37 -30 -4 -41 -2 -33 4 11 7 11 10 -2 15 -8 3 -18 2 -21 -3z"/>
<path d="M4490 377 c0 -9 5 -17 11 -17 6 0 -1 -12 -17 -27 -18 -18 -32 -24
-37 -18 -5 6 -7 4 -5 -5 3 -9 20 -15 49 -17 108 -5 215 -12 229 -14 8 -1 26
-1 40 0 18 1 21 4 11 10 -11 7 -9 10 7 16 21 6 21 6 2 27 -11 12 -17 26 -14
32 3 6 -1 3 -9 -7 -13 -16 -15 -16 -21 -1 -4 10 -13 14 -26 11 -11 -3 -20 -2
-20 3 0 4 -18 10 -40 14 -30 5 -47 1 -71 -13 -18 -11 -36 -18 -41 -15 -4 3 -8
0 -8 -6 0 -7 8 -9 19 -5 16 5 19 1 18 -15 -1 -20 -17 -29 -17 -10 0 14 -28 12
-32 -2 -3 -7 -7 -6 -11 5 -3 9 -2 17 3 17 6 0 10 6 10 14 0 8 3 16 8 19 4 2 2
3 -4 1 -6 -1 -17 3 -23 9 -8 8 -11 7 -11 -6z"/>
<path d="M4175 123 c-4 -18 -12 -33 -17 -33 -5 0 -7 4 -4 9 8 12 -18 21 -42
14 -13 -3 -18 -11 -15 -19 8 -21 -6 -17 -25 7 -22 26 -56 16 -46 -13 6 -19 5
-19 -20 -3 -31 21 -33 12 -6 -22 30 -39 24 -50 -10 -18 -31 30 -42 25 -13 -7
25 -28 12 -30 -50 -9 -32 10 -57 16 -58 12 0 -3 -2 -13 -4 -23 -3 -14 20 -16
238 -17 186 -1 242 1 249 11 6 10 8 10 8 1 0 -7 9 -13 20 -13 11 0 20 5 20 11
0 5 -4 8 -9 4 -5 -3 -12 -1 -15 4 -4 5 -2 12 4 16 5 3 15 -3 22 -15 8 -12 23
-20 39 -20 26 0 27 2 18 37 -4 21 -6 39 -4 42 3 2 8 -10 11 -27 8 -38 32 -33
26 6 -3 22 -9 27 -34 29 -28 2 -29 1 -23 -28 7 -30 7 -31 -12 -13 -11 11 -18
23 -15 28 3 5 0 6 -7 2 -9 -6 -8 -13 6 -29 11 -14 12 -17 2 -10 -8 7 -25 10
-37 6 -14 -3 -22 -1 -22 7 0 7 7 10 15 6 9 -3 15 0 15 8 0 21 -12 26 -27 11
-8 -8 -24 -15 -35 -15 -12 0 -19 3 -15 6 3 4 -1 13 -10 22 -14 14 -17 13 -35
-11 -11 -15 -26 -27 -34 -27 -17 0 -17 5 -5 48 6 20 6 32 0 32 -5 0 -9 -4 -9
-10 0 -20 -19 -10 -23 13 -3 19 -5 18 -12 -10z"/>
<path d="M4892 113 c-6 -2 -10 -8 -8 -11 2 -4 -17 -7 -42 -7 -39 0 -47 -3 -46
-17 1 -10 -2 -15 -7 -12 -5 3 -9 12 -9 20 0 12 -10 13 -52 8 -29 -4 -61 -11
-72 -16 -12 -7 -22 -6 -29 1 -6 6 -16 11 -21 11 -6 0 -4 -5 4 -10 14 -9 12
-10 -15 -10 -3 0 -5 3 -4 8 0 4 -10 10 -23 13 -19 4 -24 0 -29 -20 l-7 -26 -1
27 c-1 18 -5 26 -14 22 -8 -3 -11 -17 -9 -39 3 -27 1 -35 -12 -35 -9 0 -16 -4
-16 -8 0 -5 19 -9 42 -10 36 -2 40 0 24 11 -16 12 -16 13 1 29 23 20 87 13 79
-9 -4 -9 -1 -13 6 -11 7 3 13 11 13 19 0 18 26 38 42 32 13 -5 0 -52 -18 -64
-5 -3 10 -6 35 -7 42 -2 44 -1 42 22 -1 14 -9 33 -17 43 -13 16 -12 17 3 5 13
-10 17 -10 21 0 2 7 4 0 4 -15 1 -40 12 -47 83 -53 53 -4 61 -2 51 9 -9 12 -6
14 15 11 15 -1 31 -8 35 -15 9 -15 11 -13 27 16 8 16 6 24 -14 42 -14 13 -22
28 -18 35 4 7 3 8 -4 4 -7 -4 -12 -2 -12 3 0 12 -7 13 -28 4z"/>
</g>
</svg>
