<?xml version="1.0" standalone="no"?>
<!DOCTYPE svg PUBLIC "-//W3C//DTD SVG 20010904//EN"
 "http://www.w3.org/TR/2001/REC-SVG-20010904/DTD/svg10.dtd">
<svg version="1.0" xmlns="http://www.w3.org/2000/svg"
 width="500.000000pt" height="414.000000pt" viewBox="0 0 500.000000 414.000000"
 preserveAspectRatio="xMidYMid meet">
<metadata>
Created by potrace 1.16, written by Peter Selinger 2001-2019
</metadata>
<g transform="translate(0.000000,414.000000) scale(0.100000,-0.100000)"
fill="#000000" stroke="none">
<path d="M1220 4138 c-4 -22 -1 -183 4 -212 3 -21 5 -80 5 -130 0 -150 0 -156
1 -168 2 -22 -11 -222 -16 -236 -2 -8 -9 -10 -16 -6 -9 5 -8 2 1 -9 17 -21 16
-176 -2 -214 -8 -19 -17 -24 -36 -20 -15 2 -60 10 -101 17 -41 7 -83 16 -92
21 -11 5 -27 4 -45 -5 -15 -8 -64 -27 -108 -44 -44 -16 -117 -43 -161 -60 -89
-34 -159 -47 -169 -32 -3 6 -13 10 -21 10 -9 0 -12 -5 -8 -11 5 -8 -1 -10 -18
-6 -18 5 -28 2 -32 -8 -7 -20 -26 -19 -26 1 0 8 4 12 10 9 6 -3 10 -1 10 5 0
6 -6 13 -14 16 -7 3 -13 16 -13 29 0 21 3 24 23 19 18 -5 24 -2 24 10 0 9 7
16 15 16 18 0 20 16 4 26 -6 3 -15 1 -19 -6 -5 -9 -9 -8 -13 3 -3 8 -1 19 5
25 7 7 5 17 -6 33 -21 31 -20 39 3 39 23 0 36 16 21 25 -5 3 -7 17 -4 30 7 28
-4 54 -16 35 -5 -8 -9 -4 -13 10 -4 16 -1 24 14 27 10 3 16 9 13 14 -3 5 3 24
14 42 28 47 35 82 17 97 -12 10 -15 10 -15 -3 0 -8 -7 -27 -14 -43 -8 -15 -13
-31 -10 -35 2 -5 -7 -16 -20 -25 -25 -15 -27 -15 -68 20 -23 20 -49 36 -59 36
-10 0 -26 11 -37 25 -20 25 -60 37 -46 13 5 -7 2 -9 -9 -5 -25 9 -44 -20 -28
-45 16 -25 9 -33 -18 -19 -23 13 -40 -4 -22 -22 6 -6 11 -22 11 -34 0 -13 9
-43 21 -66 12 -23 22 -63 23 -89 2 -25 11 -59 20 -74 21 -31 46 -140 46 -199
l0 -41 -92 -34 c-51 -18 -103 -37 -116 -42 -26 -9 -31 -33 -4 -25 9 4 58 21
109 39 104 37 114 35 116 -30 1 -25 6 -38 14 -35 14 6 63 -65 63 -91 0 -11 -7
-27 -16 -37 -8 -9 -15 -27 -15 -40 0 -13 1 -34 1 -46 0 -25 16 -31 23 -10 3 9
7 9 20 -2 10 -8 27 -11 42 -7 22 6 26 3 31 -24 4 -16 13 -35 20 -41 8 -6 14
-18 14 -26 0 -7 6 -16 14 -19 8 -3 12 -14 8 -27 -7 -31 -42 -78 -52 -72 -5 3
-13 -3 -19 -12 -15 -28 -45 -4 -47 37 -1 20 -10 39 -20 47 -16 12 -20 10 -34
-16 -8 -17 -19 -31 -25 -33 -5 -2 -10 -11 -9 -21 0 -11 -5 -16 -12 -13 -9 3
-11 -1 -7 -11 4 -10 2 -14 -4 -10 -6 4 -18 1 -25 -7 -12 -12 -17 -11 -35 3
-12 9 -23 25 -26 36 -4 16 -5 14 -6 -6 -1 -16 5 -29 15 -33 14 -5 14 -8 1 -21
-16 -15 -13 -41 10 -85 8 -15 9 -26 3 -28 -15 -5 -12 -16 9 -41 20 -23 36 -15
25 13 -4 11 0 16 14 16 11 0 23 -7 26 -16 9 -23 8 -27 -9 -20 -10 3 -15 -1
-15 -14 0 -10 -4 -22 -10 -25 -5 -3 -10 -10 -10 -16 0 -5 5 -9 10 -9 6 0 10 6
10 13 0 8 11 19 25 25 17 8 23 16 18 28 -4 12 -2 15 8 12 8 -3 13 -12 11 -22
-2 -9 4 -16 13 -16 9 0 13 4 10 10 -3 5 4 10 17 10 13 0 34 1 48 3 14 2 30 -2
36 -8 19 -18 21 -59 4 -73 -13 -12 -13 -13 2 -8 12 4 15 1 11 -11 -4 -11 -2
-14 5 -9 7 4 12 2 12 -3 0 -10 -14 -15 -32 -12 -8 1 -12 -15 -9 -31 2 -17 -39
-7 -52 13 -9 13 -17 16 -22 10 -3 -6 -1 -11 5 -11 6 0 8 -4 5 -10 -3 -5 -10
-10 -15 -10 -13 0 -71 86 -63 94 4 3 1 6 -5 6 -6 0 -14 -4 -17 -10 -3 -5 -2
-10 3 -10 5 0 13 -15 19 -34 9 -29 8 -36 -5 -41 -14 -5 -14 -8 2 -23 15 -15
18 -15 26 -2 9 14 11 13 14 -9 0 -5 4 -13 8 -17 5 -4 8 -19 8 -33 0 -14 6 -37
13 -51 12 -23 12 -25 -10 -26 -16 -1 -23 4 -23 16 0 26 -10 50 -22 50 -16 0
-40 -30 -35 -44 4 -10 -5 -12 -41 -8 -56 6 -58 7 -43 25 16 20 4 46 -20 44
-22 -1 -24 -10 -8 -38 14 -27 -13 -71 -38 -62 -13 5 -15 2 -9 -20 5 -22 3 -27
-13 -27 -23 0 -31 -31 -28 -102 1 -27 -1 -48 -5 -48 -5 0 -8 -6 -8 -13 0 -15
39 -54 47 -49 3 2 7 1 11 -2 3 -3 -6 -6 -20 -6 -15 0 -28 6 -30 12 -3 7 -7 2
-10 -10 -5 -18 -2 -22 20 -23 16 -1 20 -3 10 -6 -9 -2 -15 -10 -12 -17 3 -8
-4 -16 -15 -19 -25 -6 -28 -37 -3 -37 25 0 46 16 38 29 -4 6 1 14 10 18 10 4
19 2 22 -5 2 -8 8 -8 18 2 18 19 18 35 -3 58 -10 12 -12 18 -4 18 8 0 10 7 6
20 -6 18 -2 19 43 17 28 -1 48 1 45 6 -2 4 11 6 29 5 18 -1 40 0 48 3 19 5 26
-37 9 -57 -12 -14 -14 -14 -26 2 -12 16 -13 14 -13 -19 0 -25 -5 -40 -16 -44
-15 -6 -34 -40 -40 -75 -6 -31 14 -67 41 -74 17 -4 24 -11 21 -20 -3 -8 1 -14
10 -14 11 0 15 6 11 19 -2 10 0 25 5 32 8 11 9 10 4 -4 -4 -12 0 -17 13 -17
10 0 21 8 25 17 3 10 11 25 17 34 10 13 10 20 -2 30 -18 18 -55 23 -64 9 -3
-6 -11 -8 -16 -5 -5 3 -6 0 -3 -8 8 -21 -20 -41 -35 -23 -12 14 1 30 43 51 11
6 22 21 24 33 2 12 8 20 13 16 5 -3 6 -10 3 -16 -4 -7 -2 -8 4 -4 7 4 12 2 12
-3 0 -6 5 -11 10 -11 6 0 5 10 -4 23 -7 12 -14 47 -15 79 -2 55 -1 56 28 63
16 3 46 19 67 35 35 25 39 26 50 12 10 -14 11 -12 7 11 -4 22 -1 28 21 37 14
5 26 15 26 22 0 8 3 9 8 3 4 -6 20 -16 36 -23 24 -11 27 -15 15 -23 -11 -8
-11 -12 -1 -16 6 -2 12 -8 12 -12 0 -13 107 -121 119 -121 16 0 14 6 -14 36
-25 27 -34 74 -15 74 5 0 15 -9 22 -20 7 -11 21 -20 32 -20 15 0 16 -3 7 -14
-9 -11 -9 -16 0 -21 8 -6 7 -10 -2 -16 -10 -6 -11 -9 -2 -9 15 0 53 36 53 50
0 12 50 13 68 1 10 -6 8 -10 -10 -16 -12 -4 -31 -6 -40 -5 -26 2 -22 -13 11
-38 38 -28 71 -25 71 5 0 13 -4 23 -10 23 -5 0 -10 -4 -10 -10 0 -5 -10 -10
-21 -10 -17 0 -19 3 -10 14 13 15 64 29 55 15 -3 -5 0 -9 5 -9 6 0 11 9 11 19
0 11 4 22 9 25 11 7 21 56 12 56 -4 0 -12 -5 -19 -12 -9 -9 -12 -9 -12 0 0 15
36 52 50 52 6 0 10 -4 10 -10 0 -5 4 -10 10 -10 12 0 8 27 -9 58 -11 21 -11
23 4 20 9 -1 16 -6 16 -10 0 -9 43 -58 47 -53 2 2 -1 12 -7 23 -14 26 -2 36
20 16 17 -15 19 -15 25 -1 3 9 12 13 20 10 9 -3 13 -12 10 -20 -3 -8 -1 -11 5
-8 20 13 38 -15 32 -51 -5 -27 -2 -34 11 -34 18 0 90 69 81 78 -7 7 15 32 29
32 6 0 2 -8 -9 -17 -18 -14 -18 -15 -2 -9 10 3 23 6 28 6 4 0 6 7 3 15 -4 8
-12 15 -20 15 -10 0 -13 7 -9 23 3 12 -3 39 -14 61 -19 37 -19 40 -3 52 16 12
16 14 -2 31 -10 10 -16 12 -12 6 10 -18 -19 -16 -34 2 -6 8 -9 19 -5 25 4 6 3
16 -2 23 -5 7 -9 34 -8 61 1 53 24 78 51 56 11 -10 14 -9 14 4 0 24 30 33 42
13 5 -10 18 -17 29 -17 11 0 17 -5 14 -10 -4 -6 -2 -17 5 -25 8 -10 8 -25 1
-52 -25 -95 -31 -153 -25 -235 l7 -87 -39 -38 c-21 -21 -37 -46 -36 -55 2 -9
-7 -22 -20 -29 -24 -14 -29 -15 -65 -17 -15 -1 -23 -9 -23 -19 -1 -17 -1 -17
-14 0 -19 25 -39 22 -30 -5 3 -13 11 -24 15 -26 5 -2 9 -8 9 -14 0 -5 7 -16
15 -25 9 -8 13 -18 10 -21 -3 -3 -15 5 -26 17 -13 14 -29 21 -40 18 -10 -3
-28 4 -42 17 -26 24 -41 73 -24 79 6 2 7 9 2 17 -6 10 -10 10 -20 -4 -11 -14
-14 -14 -18 -2 -7 17 16 28 38 20 26 -10 16 12 -10 24 -23 11 -27 9 -37 -13
-6 -14 -15 -25 -20 -25 -13 0 -10 -64 4 -78 19 -19 9 -92 -15 -123 -12 -14
-28 -35 -34 -45 -11 -16 -11 -15 -3 9 16 46 -6 66 -26 23 -12 -27 -7 -86 8
-86 7 0 7 -4 0 -13 -6 -6 -9 -36 -7 -65 3 -37 0 -52 -9 -52 -17 0 -56 -72 -56
-104 0 -15 7 -43 15 -63 11 -25 13 -51 9 -85 -5 -33 -3 -48 5 -48 13 0 14 -10
1 -30 -7 -12 -13 -9 -35 14 -22 23 -29 26 -36 15 -9 -15 -5 -82 6 -111 5 -13
0 -20 -20 -28 -20 -8 -25 -15 -20 -28 17 -40 16 -52 -9 -94 -24 -42 -34 -88
-20 -88 4 0 19 13 35 29 24 26 29 28 40 15 7 -8 13 -38 14 -66 1 -27 7 -53 13
-57 6 -3 10 -15 9 -25 -1 -10 4 -21 12 -24 10 -3 12 0 8 12 -12 31 20 16 72
-34 29 -27 55 -50 59 -50 3 0 -1 7 -10 17 -16 15 -15 17 8 35 13 11 28 17 33
14 5 -3 14 1 21 9 7 8 19 15 27 15 8 0 12 4 9 9 -3 5 -23 0 -43 -10 -21 -10
-46 -16 -56 -13 -11 4 -23 0 -28 -7 -7 -12 -10 -12 -21 0 -10 10 -10 15 -1 18
18 7 4 32 -15 26 -13 -4 -14 -3 -3 5 10 7 12 25 6 73 -15 143 -17 232 -6 225
6 -4 11 -13 11 -20 0 -8 7 -20 16 -27 14 -11 18 -11 29 4 15 21 25 22 25 1 0
-10 6 -14 15 -10 8 3 15 0 15 -7 0 -7 12 -25 27 -42 15 -16 26 -37 25 -47 -2
-10 4 -21 12 -24 9 -3 13 -10 10 -15 -3 -5 0 -9 7 -9 10 0 10 -3 2 -11 -8 -8
-17 -7 -34 1 -20 10 -22 10 -11 -1 6 -7 12 -26 12 -42 0 -16 7 -36 16 -45 15
-15 16 -14 10 5 -5 16 0 26 23 43 l31 21 -7 -33 c-5 -27 -4 -31 8 -23 8 6 30
10 49 10 34 0 35 -1 35 -38 0 -21 -3 -41 -8 -44 -4 -3 0 -11 10 -18 17 -13 17
-14 1 -20 -10 -4 -15 -12 -12 -17 4 -6 -9 -23 -27 -39 -19 -16 -30 -29 -26
-29 4 0 3 -9 -3 -20 -9 -16 -8 -22 5 -27 11 -4 15 -13 11 -28 -5 -18 0 -25 22
-33 15 -6 36 -12 47 -14 13 -2 31 -24 51 -63 l30 -60 82 -2 c71 -1 82 1 87 17
3 10 15 20 26 23 12 3 18 3 15 0 -3 -4 1 -15 11 -25 15 -17 82 -18 1760 -18
l1743 0 0 873 c0 666 -3 876 -12 885 -9 9 -9 12 0 12 16 0 17 412 1 442 -8 15
-8 19 0 14 8 -5 11 41 11 160 l0 167 -27 -24 c-16 -13 -29 -27 -31 -31 -2 -5
-9 -8 -15 -8 -6 0 8 19 31 43 l42 42 -1 133 c0 92 -3 132 -12 132 -8 0 -8 3 1
12 14 14 17 754 4 776 -5 7 -16 10 -27 6 -13 -5 -16 -3 -13 7 3 8 15 14 27 13
15 0 21 5 21 22 0 12 -6 25 -12 27 -10 4 -10 6 0 6 9 1 12 51 12 216 l0 215
-1349 0 -1349 0 -8 -42 c-9 -51 -7 -66 12 -86 20 -19 31 -6 16 18 -10 16 -9
18 3 14 8 -4 15 -10 15 -16 0 -5 5 -6 10 -3 6 3 10 -1 10 -9 0 -9 5 -16 10
-16 6 0 10 5 10 11 0 8 5 8 15 -1 11 -9 15 -9 15 -1 0 8 9 7 29 -4 27 -13 31
-13 45 1 15 14 16 14 16 -1 0 -9 -9 -28 -20 -42 -11 -14 -20 -23 -20 -20 0 3
-17 0 -37 -7 -27 -9 -37 -19 -40 -38 -3 -20 2 -27 19 -31 13 -2 32 -8 43 -12
14 -5 16 -4 7 3 -10 7 -6 9 15 8 29 -1 30 -4 20 -83 -4 -31 -27 -54 -47 -48
-19 6 -34 -9 -43 -42 -4 -20 -3 -21 14 -12 25 13 24 -2 -2 -35 -13 -17 -30
-26 -43 -25 -25 2 -52 -8 -88 -35 -37 -26 -35 -36 5 -36 30 -1 31 -1 12 -16
-11 -8 -25 -12 -31 -10 -7 3 -20 -2 -31 -9 -24 -19 -43 -19 -43 0 0 11 -15 14
-74 12 -41 -1 -72 2 -69 6 7 11 -50 -3 -62 -16 -7 -6 -6 -11 3 -14 6 -3 12
-15 12 -28 0 -34 18 -41 26 -10 7 26 24 35 24 11 0 -11 8 -12 35 -6 19 4 35 6
35 3 0 -2 10 3 22 11 30 21 45 20 26 -1 -17 -20 -29 -81 -17 -89 5 -2 6 -12 3
-22 -5 -14 -4 -15 5 -2 7 11 29 15 75 15 35 0 60 -3 54 -6 -6 -4 -8 -11 -4
-17 3 -5 -4 -12 -16 -15 -12 -4 -25 -1 -29 5 -11 18 -28 0 -35 -37 -3 -19 -10
-32 -15 -29 -5 3 -6 -2 -3 -10 11 -27 -41 -60 -96 -60 -48 -1 -62 -9 -73 -40
-2 -6 -24 -9 -50 -8 -43 3 -47 1 -52 -25 -12 -53 -23 -71 -47 -72 -30 -2 -128
-3 -150 -1 -10 1 -28 -6 -40 -15 -21 -15 -21 -16 -3 -13 17 3 20 -3 23 -41 4
-56 -4 -91 -22 -91 -12 0 -12 -4 -1 -27 30 -60 -2 -195 -50 -213 -26 -10 -35
-29 -35 -71 0 -16 -10 -43 -21 -58 -21 -29 -39 -96 -31 -119 9 -27 24 -10 21
26 -3 63 -1 72 24 72 21 0 23 4 22 56 0 40 5 60 17 71 21 19 48 10 48 -16 0
-11 5 -23 10 -26 14 -9 12 15 -4 45 -12 22 -11 27 10 55 20 26 24 46 28 116 2
46 5 92 5 102 1 10 5 16 10 12 17 -10 22 12 9 42 -18 42 -16 46 20 48 17 1 32
-3 32 -8 0 -6 5 -6 13 0 6 6 22 9 35 8 12 -1 22 2 22 6 0 5 7 6 15 3 9 -4 15
-1 15 8 0 7 9 19 20 26 18 11 20 10 21 -10 1 -13 1 -26 0 -30 0 -5 6 -8 14 -8
8 0 15 7 15 16 0 9 -5 12 -12 8 -8 -5 -9 -2 -5 10 16 41 19 66 8 66 -6 0 -11
-7 -11 -16 0 -8 -4 -12 -10 -9 -5 3 -10 15 -10 27 0 17 5 20 30 16 17 -3 30
-1 30 4 0 5 8 7 19 3 12 -3 21 0 25 10 3 8 12 15 21 15 8 0 15 5 15 10 0 6 12
10 27 10 30 0 21 -16 -12 -22 -12 -2 -21 -13 -23 -27 -3 -19 0 -22 16 -17 19
6 38 -16 33 -37 -1 -5 8 -6 19 -2 16 5 20 2 20 -16 0 -12 -8 -32 -17 -43 -17
-20 -17 -20 1 -6 16 13 20 12 36 -8 24 -29 43 -29 34 1 -3 12 -3 19 1 15 4 -4
18 5 31 20 13 15 24 22 24 15 0 -6 -7 -18 -15 -27 -8 -8 -15 -22 -15 -31 0 -8
-7 -18 -15 -20 -8 -3 -23 -8 -32 -12 -10 -3 -21 -5 -25 -5 -5 1 -8 -3 -8 -9 0
-5 10 -9 23 -7 20 3 22 -1 21 -35 -1 -23 3 -36 10 -34 6 2 10 15 9 28 -2 13 3
31 10 39 13 16 98 63 103 57 6 -5 -21 -71 -38 -97 l-18 -24 0 29 c0 27 -1 28
-15 9 -8 -10 -15 -31 -15 -45 0 -20 -8 -30 -31 -39 -19 -8 -26 -16 -19 -20 9
-6 9 -13 0 -31 -13 -24 -13 -24 9 -5 11 11 24 17 27 13 7 -7 -14 -47 -26 -48
-6 -1 -15 -2 -21 -3 -12 -1 -39 -35 -39 -48 0 -4 10 -8 23 -9 20 -1 19 -2 -5
-11 -37 -13 -36 -28 2 -23 17 2 30 0 30 -5 0 -5 6 -7 14 -4 9 4 16 -3 19 -18
4 -21 4 -20 6 5 1 32 16 36 24 5 7 -26 15 -21 21 13 2 13 5 25 5 26 1 1 12 -9
26 -22 30 -31 43 -31 47 -2 l3 22 7 -24 c5 -18 2 -24 -13 -28 -16 -5 -19 -11
-14 -34 5 -23 3 -29 -10 -29 -19 0 -16 -21 5 -28 8 -3 10 0 5 9 -5 8 0 6 12
-3 11 -10 25 -18 31 -18 7 0 12 -6 13 -12 0 -7 4 -4 8 7 5 12 4 23 -3 27 -6 4
4 8 23 8 32 0 33 -1 18 -18 -20 -22 -22 -49 -4 -55 6 -2 9 -8 5 -12 -4 -4 -14
0 -23 9 -9 9 -25 16 -35 16 -10 0 -22 5 -25 10 -15 24 -49 6 -60 -30 -7 -24
-7 -24 9 -5 8 11 16 14 16 8 0 -7 10 -14 23 -14 16 -1 18 -2 5 -6 -10 -2 -18
-9 -18 -14 0 -12 7 -11 31 1 13 8 19 7 19 0 0 -6 10 -8 25 -4 25 6 82 -3 73
-12 -3 -2 -42 -7 -88 -9 -45 -3 -86 -8 -91 -11 -29 -18 17 -94 56 -94 8 0 15
-6 15 -14 0 -7 11 -16 25 -19 25 -4 25 -3 10 19 -9 14 -11 25 -5 29 6 3 10 1
10 -5 0 -6 7 -18 15 -26 19 -19 71 -24 67 -6 -3 15 10 16 24 2 8 -8 15 -6 24
5 19 23 28 18 22 -11 -3 -19 -7 -22 -13 -12 -7 10 -9 9 -9 -4 0 -9 -10 -24
-22 -33 -15 -11 -19 -19 -11 -22 20 -8 3 -34 -18 -28 -12 4 -18 2 -17 -5 2 -6
-7 -19 -19 -27 -21 -14 -23 -14 -23 1 0 9 -8 17 -17 17 -10 1 -30 3 -45 5 -16
1 -28 -1 -28 -7 0 -5 14 -9 31 -9 17 0 28 -4 24 -10 -10 -17 -57 -7 -67 15 -8
18 -18 20 -93 20 -72 0 -85 -2 -85 -16 0 -9 -11 -20 -24 -23 -14 -3 -28 -15
-31 -26 -9 -28 -33 -25 -41 5 -7 27 -24 34 -24 10 0 -8 -4 -15 -9 -15 -6 0 -4
-12 4 -27 10 -19 11 -32 3 -46 -8 -16 -12 -17 -19 -6 -6 11 -13 11 -27 3 -14
-9 -35 -7 -92 7 -86 22 -116 20 -44 -3 41 -13 59 -26 39 -29 -2 0 -18 -4 -35
-9 -24 -7 -32 -5 -42 9 -15 20 -45 41 -34 23 4 -6 2 -21 -4 -32 l-11 -21 -20
22 c-15 17 -19 19 -19 6 0 -9 5 -19 10 -22 6 -4 8 -10 5 -14 -2 -5 9 -11 25
-15 27 -5 29 -8 20 -30 -11 -29 9 -51 39 -43 11 3 22 0 25 -7 2 -6 5 2 5 18
l1 29 19 -21 c10 -12 21 -19 25 -15 3 4 -3 16 -14 28 -19 20 -18 71 1 60 4 -3
6 -12 3 -19 -3 -7 2 -16 11 -20 24 -9 32 24 9 42 -18 13 -17 14 9 10 22 -4 25
-3 16 8 -9 11 -8 14 6 14 25 0 74 -56 68 -78 -2 -10 3 -24 12 -32 13 -11 15
-10 9 6 -5 16 -4 16 5 4 6 -8 14 -36 17 -63 4 -26 11 -50 15 -53 14 -8 10 -40
-6 -54 -16 -14 -17 -11 -18 63 0 27 -3 35 -9 25 -7 -10 -13 -8 -26 12 -9 13
-25 31 -34 39 -22 19 -24 43 -3 35 8 -4 15 -1 15 4 0 16 -18 24 -25 12 -3 -5
-15 -10 -26 -10 -12 0 -19 -7 -19 -20 0 -21 -42 -45 -69 -41 -10 2 -12 -5 -9
-24 4 -16 1 -24 -6 -22 -6 2 -19 0 -28 -5 -12 -6 -18 -5 -18 3 0 15 -61 4 -71
-13 -6 -9 -10 -6 -14 7 -19 58 -29 75 -41 75 -8 0 -19 11 -23 24 -11 27 -37
40 -45 23 -4 -7 -4 22 -1 63 3 41 10 79 15 84 4 4 6 15 3 22 -7 18 15 18 33 0
9 -9 10 -17 4 -21 -15 -9 -12 -35 5 -35 9 0 12 -6 8 -16 -4 -12 2 -10 21 7
l26 23 -22 13 -23 12 23 1 c12 0 39 -7 59 -15 41 -17 43 -18 43 -7 0 4 -41 20
-90 36 -70 22 -90 33 -88 45 2 9 -3 21 -12 28 -13 10 -11 15 13 37 15 14 27
29 27 35 0 5 2 16 6 24 3 9 -5 18 -24 26 -31 13 -48 55 -35 88 5 12 1 11 -15
-5 -27 -27 -34 -27 -52 -2 -14 19 -14 19 -29 -3 -27 -38 -51 -121 -38 -129 8
-5 7 -8 -4 -8 -9 0 -19 -9 -22 -20 -5 -21 -27 -28 -27 -9 0 5 -4 7 -10 4 -5
-3 -19 3 -31 14 -22 20 -22 21 -4 66 13 34 14 50 6 58 -16 16 -13 32 3 18 11
-9 19 -9 35 1 23 14 24 17 12 37 -7 11 -13 10 -34 -4 -24 -15 -28 -15 -49 -1
-16 12 -18 16 -7 16 9 0 24 9 34 20 10 11 21 18 25 15 4 -2 7 9 8 25 1 43 19
68 49 72 21 2 29 10 36 35 5 18 7 39 3 49 -5 14 -9 13 -26 -9 -11 -14 -17 -32
-14 -41 4 -11 1 -16 -10 -16 -9 0 -24 -16 -33 -35 -20 -41 -38 -47 -80 -22
-24 13 -37 16 -50 8 -12 -6 -25 -6 -34 0 -7 5 -10 9 -6 9 4 0 3 9 -3 20 -15
28 -59 337 -54 384 4 46 25 106 36 106 5 0 13 11 18 25 5 14 14 25 19 25 5 0
8 16 6 34 -5 49 4 77 24 74 10 -2 14 2 12 12 -3 8 -6 34 -9 58 -3 34 -1 42 13
42 15 0 15 1 1 16 -9 8 -13 21 -9 27 4 7 6 22 5 34 -2 12 7 31 20 44 13 12 18
19 13 16 -20 -10 -38 9 -30 33 5 17 12 20 31 16 19 -5 24 -2 24 13 0 11 5 23
10 26 6 3 10 1 10 -4 0 -6 9 -11 21 -11 11 0 18 4 14 10 -7 11 12 46 43 76 12
12 22 26 22 33 0 6 4 11 8 11 5 0 19 9 32 20 13 11 32 20 43 20 14 0 17 5 13
16 -5 14 -4 15 8 4 14 -11 14 -14 0 -27 -21 -22 -3 -39 25 -24 16 9 27 9 44 0
12 -6 19 -8 15 -4 -5 5 2 15 13 23 17 12 23 12 29 2 4 -7 13 -9 20 -5 6 4 19
0 29 -9 17 -16 19 -15 25 9 4 14 11 23 15 20 16 -9 41 6 41 25 0 19 -19 30
-52 30 -24 0 -16 13 9 16 9 2 20 10 25 18 5 9 20 16 33 16 14 0 25 5 25 10 0
6 -10 10 -22 10 -19 0 -20 2 -8 11 13 9 13 10 0 7 -8 -3 -19 -14 -25 -26 -12
-27 -21 -28 -28 -3 -3 13 1 21 12 24 9 3 4 5 -11 6 -27 1 -51 21 -26 21 14 0
43 39 35 46 -4 5 -181 -117 -218 -149 -8 -7 -23 -16 -32 -20 -9 -3 -17 -11
-17 -17 0 -16 -57 -62 -100 -81 -20 -9 -52 -30 -72 -48 -51 -44 -59 -41 -58
27 1 31 -3 116 -9 187 -6 82 -6 131 0 133 5 2 9 13 8 25 0 21 -1 21 -9 2 -6
-13 -9 7 -9 62 -1 84 -7 113 -22 113 -5 0 -9 -1 -9 -2z m1199 -707 c19 -27 29
-52 15 -38 -4 3 -13 0 -20 -8 -19 -19 -18 -31 1 -15 33 28 51 -41 25 -90 l-12
-22 -19 21 c-23 24 -30 26 -48 9 -11 -10 -14 -10 -18 0 -3 6 -9 12 -15 12 -6
0 -8 -7 -4 -15 3 -8 1 -15 -4 -15 -6 0 -10 5 -10 11 0 5 -4 7 -10 4 -11 -7 -3
19 16 50 6 11 17 43 23 70 10 43 16 51 36 53 16 1 30 -7 44 -27z m-1395 -287
c9 -3 16 -13 16 -21 0 -11 7 -13 23 -9 12 3 35 -1 50 -9 15 -8 25 -10 22 -5
-4 6 -2 10 3 10 6 0 13 -7 16 -16 7 -19 -1 -54 -14 -54 -4 0 -11 -30 -14 -67
-5 -49 0 -117 18 -243 31 -211 32 -230 6 -263 -24 -30 -25 -41 -5 -33 11 4 8
-4 -7 -24 -25 -35 -33 -39 -18 -9 22 40 3 28 -50 -31 -49 -55 -72 -72 -69 -52
4 22 -3 32 -23 32 -13 1 -34 7 -48 15 -27 14 -50 5 -50 -21 0 -16 -16 -19 -25
-5 -3 5 0 13 6 17 8 5 8 9 -1 14 -9 5 -9 9 -1 14 6 4 11 2 11 -4 0 -6 5 -8 10
-5 8 5 8 11 0 20 -6 7 -13 37 -16 66 -3 30 -14 73 -25 96 -21 47 -24 79 -9 88
14 9 12 21 -7 40 -15 16 -17 16 -26 -1 -7 -13 -7 -19 1 -22 9 -3 9 -9 1 -23
-8 -16 -6 -30 10 -63 38 -78 18 -129 -27 -71 -11 14 -25 25 -31 25 -15 0 -14
17 2 23 7 3 5 6 -5 6 -10 1 -18 -4 -18 -10 0 -19 -30 11 -30 30 -1 21 -26 54
-37 48 -5 -3 -13 6 -20 19 -11 23 -1 35 12 14 8 -13 25 -13 25 1 0 6 -9 13
-19 16 -11 3 -21 17 -25 35 -8 42 -22 24 -25 -31 -1 -13 -3 -13 -13 -2 -10 11
-10 14 -1 18 17 6 -1 40 -25 47 -10 3 -26 20 -36 38 -15 24 -16 30 -4 26 12
-5 13 2 4 43 -6 28 -15 49 -23 49 -7 0 -13 5 -13 11 0 5 -5 7 -10 4 -13 -8
-40 19 -40 40 0 8 12 20 28 25 15 6 36 15 47 20 11 5 43 18 71 28 l52 19 13
-41 c7 -23 16 -46 21 -52 5 -6 5 -20 1 -29 -5 -15 -3 -17 12 -11 18 7 18 6 1
-13 -20 -21 -16 -71 5 -71 7 0 9 9 6 21 -8 31 2 52 19 38 17 -14 45 -5 42 13
-2 7 7 14 20 16 12 2 22 8 22 13 0 5 7 9 15 9 12 0 12 5 0 40 -8 22 -12 40
-10 40 2 0 -3 16 -11 35 -7 19 -14 36 -14 38 0 3 21 10 48 17 26 7 52 17 57
21 6 4 22 6 37 5 15 -2 32 1 40 5 16 10 31 11 52 3z m1296 -1019 c0 -7 14 -16
31 -20 23 -5 45 1 95 26 63 31 66 31 78 13 14 -20 16 -41 4 -36 -5 1 -8 -5 -8
-14 0 -14 -7 -15 -40 -10 -32 5 -40 3 -40 -9 0 -13 -4 -14 -20 -5 -11 6 -20 9
-20 6 0 -3 -12 -1 -27 3 -25 7 -28 5 -29 -15 -2 -25 10 -32 21 -14 8 13 25 13
25 0 0 -8 -22 -22 -56 -35 -1 0 -5 -11 -9 -24 -5 -16 -4 -21 4 -17 7 5 9 1 5
-9 -4 -9 -9 -14 -12 -11 -2 3 -13 -5 -23 -18 -20 -25 -25 -41 -11 -32 5 3 8
-8 7 -24 -1 -19 3 -30 12 -30 7 0 13 -7 13 -15 0 -19 14 -19 34 0 13 14 16 13
26 -5 9 -16 8 -18 -5 -14 -8 4 -15 1 -15 -5 0 -6 -7 -8 -15 -5 -8 4 -15 2 -15
-4 0 -14 69 -54 81 -47 5 4 9 2 9 -4 0 -15 36 -31 78 -35 54 -5 107 27 132 81
23 49 24 59 8 69 -6 4 -8 3 -5 -3 4 -6 -3 -13 -14 -16 -14 -4 -29 2 -44 19
-21 23 -23 23 -18 5 4 -15 1 -21 -10 -21 -8 0 -18 -6 -20 -12 -4 -10 -8 -10
-15 1 -6 8 -15 10 -23 6 -9 -6 -11 -4 -6 8 3 9 0 23 -8 31 -8 7 -12 16 -8 19
3 3 15 -6 27 -20 16 -18 25 -23 30 -15 4 7 2 12 -3 12 -6 0 -11 4 -11 8 0 14
49 8 68 -9 22 -19 58 -7 65 22 3 11 10 19 17 19 15 0 5 -107 -12 -128 -9 -10
-8 -16 2 -22 12 -7 11 -12 -4 -29 -10 -11 -22 -18 -26 -16 -12 7 -71 -26 -65
-36 4 -5 -8 -9 -24 -9 -17 0 -31 4 -31 9 0 8 -94 27 -112 23 -5 -1 -8 4 -8 11
0 8 -8 22 -19 31 -15 14 -19 14 -24 3 -3 -8 0 -20 6 -27 9 -10 9 -11 0 -6 -7
4 -13 3 -13 -2 0 -6 8 -13 18 -17 16 -7 15 -8 -3 -15 -11 -5 -15 -9 -8 -9 6
-1 27 -17 46 -36 19 -19 43 -35 52 -35 9 0 23 -6 31 -14 12 -13 11 -15 -6 -21
-12 -4 -26 0 -36 10 -9 9 -19 13 -22 10 -7 -7 29 -34 47 -35 8 0 22 -7 32 -16
16 -15 19 -14 31 5 16 27 42 27 69 0 19 -19 21 -20 33 -3 7 9 18 14 24 10 7
-4 12 -2 12 5 0 8 4 8 15 -1 10 -9 15 -9 15 -1 0 6 -1 11 -3 11 -1 0 -17 4
-35 9 -18 6 -30 6 -27 1 3 -5 1 -11 -4 -14 -5 -4 -13 -1 -16 5 -4 5 -14 8 -22
5 -8 -3 -12 -2 -9 3 3 4 -1 17 -9 27 -20 26 -20 51 -1 35 12 -10 20 -9 40 4
29 19 35 12 11 -11 -23 -23 -18 -31 20 -36 34 -4 50 7 19 14 -14 2 -13 6 5 22
20 18 21 19 15 2 -5 -14 -3 -17 7 -14 8 3 14 13 14 24 0 17 9 19 74 21 40 2
80 8 87 14 9 8 14 8 14 1 0 -7 25 -9 74 -6 70 6 74 5 81 -18 4 -12 7 -26 6
-30 0 -4 6 -5 15 -1 14 5 15 3 6 -14 -7 -12 -7 -25 -1 -34 15 -24 10 -29 -26
-29 -19 0 -35 -5 -35 -11 0 -6 -7 -9 -15 -5 -11 4 -15 -1 -15 -19 0 -18 -4
-23 -15 -19 -8 4 -15 1 -15 -6 0 -7 10 -10 28 -6 15 4 38 8 51 11 37 7 38 15
0 15 l-34 0 29 15 c30 16 101 11 90 -6 -3 -5 2 -9 10 -9 9 0 16 -4 16 -10 0
-16 -40 -12 -46 5 -4 8 -10 12 -16 9 -5 -3 0 -13 12 -21 l22 -16 -32 -13 c-38
-16 -64 -18 -55 -4 3 6 1 10 -5 10 -6 0 -13 -7 -16 -15 -4 -8 -16 -15 -28 -15
-17 0 -18 -2 -6 -10 8 -5 10 -10 4 -10 -5 0 -21 10 -34 22 -18 17 -22 18 -17
5 6 -15 -2 -17 -61 -18 -37 -1 -71 0 -77 1 -5 1 -27 3 -47 4 -21 1 -40 5 -44
8 -3 4 -12 4 -20 1 -15 -5 -67 6 -158 34 -36 12 -45 18 -35 25 10 7 9 8 -5 4
-12 -4 -41 4 -75 21 -64 32 -83 47 -73 58 4 5 1 5 -6 1 -7 -4 -26 2 -42 14
-24 17 -28 25 -20 35 6 8 21 15 33 17 12 2 21 6 20 11 -2 4 -6 7 -10 6 -3 0
-11 7 -16 17 -7 13 -6 20 7 29 21 16 20 28 -4 43 -12 7 -18 17 -15 21 3 5 -4
7 -15 4 -12 -3 -20 0 -20 7 0 9 -3 10 -13 1 -8 -6 -16 -8 -20 -5 -3 3 -22 1
-42 -6 -29 -10 -39 -10 -48 0 -9 10 -9 14 0 17 16 6 6 54 -15 69 -16 12 -9 34
12 34 21 0 56 36 56 58 0 22 -22 36 -36 22 -5 -5 -24 5 -42 21 l-34 30 47 46
c41 41 55 48 117 60 38 7 74 10 79 7 5 -3 9 0 9 6 0 8 6 8 20 0 11 -6 20 -17
20 -25z m-1936 -175 c9 0 16 -7 16 -15 0 -12 6 -11 35 5 19 10 37 15 40 10 3
-4 -1 -11 -7 -13 -7 -3 -4 -6 6 -6 15 -1 17 -4 8 -13 -8 -8 -15 -8 -27 2 -15
12 -22 0 -7 -14 4 -4 7 -11 8 -14 0 -4 3 -14 7 -22 12 -32 14 -70 3 -70 -8 0
-8 -2 0 -8 17 -11 10 -50 -12 -72 -17 -17 -22 -18 -44 -6 -14 7 -24 18 -23 24
4 16 -14 15 -20 0 -2 -7 -7 -10 -11 -6 -4 3 9 23 28 43 37 38 39 61 5 52 -25
-7 -29 2 -16 33 19 46 17 66 -3 30 -10 -19 -20 -33 -21 -30 0 3 -2 32 -4 65
-3 51 -1 57 9 42 7 -9 21 -17 30 -17z m3805 -164 c-2 -3 -40 -14 -84 -26 -44
-12 -84 -25 -90 -29 -5 -4 -26 -8 -45 -10 -19 -1 -48 -6 -65 -11 -16 -5 -61
-17 -100 -26 -77 -18 -268 -91 -273 -105 -2 -5 -16 -9 -30 -9 -15 -1 -79 -21
-142 -45 -63 -24 -116 -42 -119 -40 -7 7 -5 8 114 54 171 66 187 73 231 92 22
11 49 19 60 19 11 0 24 4 30 9 5 5 83 27 174 50 91 23 197 51 235 61 67 18
113 25 104 16z m-1798 -305 c142 -66 239 -86 414 -85 145 0 153 2 258 37 59
20 115 38 125 39 9 2 21 8 25 13 5 6 7 4 5 -4 -3 -8 -17 -19 -34 -24 -16 -5
-31 -11 -32 -13 -2 -1 14 -26 35 -56 22 -29 49 -69 61 -90 23 -37 46 -53 64
-42 5 3 4 -3 -4 -15 -16 -26 -41 -23 -47 4 -2 11 -17 40 -34 65 -17 25 -40 59
-51 77 -26 39 -52 50 -74 30 -9 -9 -55 -22 -102 -31 -97 -18 -307 -28 -315
-16 -3 5 -18 8 -33 8 -36 -1 -127 19 -172 39 -128 54 -133 56 -160 81 -34 30
-26 28 71 -17z m-1141 -90 c-6 -12 -15 -21 -20 -21 -5 0 -7 -6 -4 -14 3 -8
-13 -47 -35 -87 -29 -53 -45 -74 -60 -74 -10 0 -23 -3 -27 -7 -4 -5 -23 -8
-42 -8 -28 0 -32 3 -23 14 6 7 9 22 5 32 -5 18 -5 18 6 1 11 -16 12 -16 35 0
12 10 21 21 19 24 -2 4 4 6 14 5 9 0 17 6 17 14 0 8 5 18 10 23 6 4 3 11 -7
18 -22 13 -23 29 -2 29 10 0 14 6 10 15 -4 10 1 15 16 15 25 0 88 37 89 53 0
9 2 9 5 0 3 -7 0 -21 -6 -32z m735 -483 c4 4 5 -6 1 -21 -8 -32 1 -70 14 -62
5 3 14 -3 20 -12 9 -15 10 -14 4 7 -10 39 -10 42 4 47 8 3 16 -4 19 -16 7 -26
14 -26 40 -2 21 20 21 20 26 0 3 -10 1 -19 -4 -19 -5 0 -9 -5 -9 -11 0 -5 4
-8 9 -5 5 3 28 -8 52 -26 39 -28 41 -32 24 -44 -10 -7 -22 -15 -26 -16 -5 -2
-10 -14 -12 -28 -5 -33 -34 -38 -46 -8 -6 13 -10 17 -10 11 -1 -15 -57 -18
-66 -3 -13 21 7 31 26 14 27 -25 23 1 -5 29 -12 13 -26 30 -29 38 -3 8 -6 2
-6 -13 -2 -54 -41 -26 -48 33 -2 24 -9 56 -15 71 -12 32 -3 54 16 39 7 -6 16
-7 21 -3z m-573 -294 c3 -21 9 -48 11 -59 3 -11 6 -22 6 -25 1 -3 11 10 23 29
20 32 22 32 35 15 9 -11 12 -31 9 -48 -3 -16 -6 -36 -6 -45 0 -24 -46 -43 -61
-25 -6 7 -21 12 -32 11 -13 -1 -22 4 -22 13 0 8 -14 20 -32 25 -26 9 -30 13
-21 28 5 10 7 29 4 43 -4 14 -2 24 4 24 5 0 10 12 10 26 0 19 4 25 15 21 8 -4
17 -2 21 4 12 20 29 2 36 -37z"/>
<path d="M2133 4098 c-2 -5 -14 -8 -26 -8 -12 0 -33 -12 -46 -25 -22 -24 -22
-27 -8 -63 8 -20 12 -44 10 -52 -3 -10 0 -9 7 3 17 26 30 20 30 -13 0 -27 2
-30 25 -24 16 4 25 2 25 -5 0 -7 -7 -11 -16 -9 -11 2 -18 -5 -20 -22 -1 -14 0
-19 2 -12 3 6 11 12 18 12 15 0 46 32 46 46 0 5 -14 18 -31 28 -33 20 -34 39
-2 44 12 2 23 12 26 22 4 16 1 17 -19 10 -21 -8 -24 -7 -23 13 0 12 5 31 10
42 8 17 8 15 4 -7 -3 -16 -1 -28 5 -28 5 0 10 7 10 15 0 9 7 18 15 21 8 4 15
9 15 13 0 9 -51 8 -57 -1z"/>
</g>
</svg>
