<?xml version="1.0" standalone="no"?>
<!DOCTYPE svg PUBLIC "-//W3C//DTD SVG 20010904//EN"
 "http://www.w3.org/TR/2001/REC-SVG-20010904/DTD/svg10.dtd">
<svg version="1.0" xmlns="http://www.w3.org/2000/svg"
 width="300.000000pt" height="379.000000pt" viewBox="0 0 300.000000 379.000000"
 preserveAspectRatio="xMidYMid meet">
<metadata>
Created by potrace 1.16, written by Peter Selinger 2001-2019
</metadata>
<g transform="translate(0.000000,379.000000) scale(0.100000,-0.100000)"
fill="#000000" stroke="none">
<path d="M0 1895 l0 -1895 1500 0 1500 0 0 1895 0 1895 -1500 0 -1500 0 0
-1895z m1443 1711 c14 -21 14 -26 2 -36 -8 -7 -15 -16 -15 -21 0 -8 153 -59
178 -59 8 0 34 -16 58 -35 23 -19 47 -35 53 -35 30 0 41 -96 16 -140 -8 -14
-14 -37 -15 -51 0 -15 -7 -43 -15 -62 -8 -20 -14 -45 -12 -56 3 -24 1 -24 -70
-15 -37 4 -63 3 -75 -5 -14 -8 -23 -8 -37 1 -16 10 -23 9 -39 -5 -10 -9 -30
-17 -43 -17 -14 0 -30 -5 -36 -11 -8 -8 -27 -6 -70 6 -58 18 -143 21 -153 6
-3 -4 -19 -14 -37 -21 -17 -8 -36 -25 -42 -37 -14 -30 -22 -29 -56 7 -18 19
-31 26 -36 19 -10 -16 41 -89 63 -89 9 0 24 -12 32 -27 17 -34 66 -81 66 -65
0 7 -4 12 -8 12 -12 0 -42 55 -42 77 0 10 13 34 30 53 16 19 29 41 30 48 0 6
7 12 15 12 27 0 15 -37 -21 -65 -25 -19 -32 -31 -25 -38 7 -7 14 -7 23 0 18
14 134 37 153 30 8 -4 15 -16 15 -27 0 -11 5 -20 10 -20 6 0 10 15 10 34 0 26
5 36 20 41 29 9 60 -3 60 -25 0 -44 58 -110 97 -110 12 0 5 8 -19 22 -29 17
-38 28 -38 49 0 42 76 89 95 59 3 -5 17 -10 31 -10 13 0 24 -4 24 -9 0 -5 9
-13 20 -16 30 -9 24 -40 -12 -71 l-33 -27 34 6 c19 4 35 8 36 10 1 1 9 27 17
57 11 42 19 55 34 55 27 0 29 -30 3 -66 -16 -23 -19 -33 -10 -42 15 -15 14
-60 -4 -105 -11 -26 -13 -46 -7 -62 5 -14 5 -39 0 -60 -15 -60 -87 -195 -131
-245 l-42 -47 -98 -5 c-105 -5 -118 -1 -169 50 -13 13 -31 28 -39 33 -31 18
-127 181 -138 233 -11 51 -29 87 -62 126 -9 11 -26 36 -37 56 -11 20 -26 46
-33 57 -19 31 -4 38 27 13 30 -23 44 -27 44 -10 0 19 -44 48 -66 43 -33 -8
-70 80 -66 155 2 19 6 23 27 19 20 -4 25 -1 25 14 0 34 31 172 46 202 8 16 14
35 14 43 0 7 8 13 19 13 10 0 24 7 31 15 7 8 17 15 22 15 19 0 108 63 108 76
0 16 -53 0 -71 -22 -13 -16 -39 -19 -39 -5 0 17 97 81 122 81 13 0 29 5 36 12
6 6 36 12 66 12 30 1 61 7 68 14 21 21 64 14 81 -12z m-209 -1215 c19 -27 61
-67 93 -89 58 -40 59 -40 138 -36 102 5 133 16 176 60 19 20 49 43 68 51 32
14 36 13 48 -3 8 -10 11 -32 7 -53 -3 -20 -6 -54 -8 -76 -3 -43 -23 -100 -27
-75 -1 8 -1 21 0 28 2 10 -2 10 -18 0 -18 -11 -19 -14 -6 -28 8 -9 15 -26 15
-38 0 -11 5 -24 10 -27 6 -3 10 -15 10 -26 0 -10 -4 -19 -10 -19 -5 0 -10 -7
-10 -15 0 -8 9 -15 20 -15 11 0 27 -11 36 -26 24 -35 40 -15 20 24 -15 28 -22
72 -12 72 2 0 12 -3 21 -6 14 -6 14 -8 -1 -25 -16 -18 -16 -19 -1 -19 10 0 17
-7 17 -16 0 -10 6 -14 15 -10 9 3 15 0 15 -8 0 -8 10 -16 21 -19 18 -5 21 -11
15 -41 -8 -43 6 -54 35 -25 15 15 18 24 10 32 -6 6 -10 25 -10 42 1 16 3 22 6
13 5 -21 23 -24 23 -4 0 21 -23 25 -43 8 -19 -17 -37 -8 -19 10 18 18 -5 40
-28 28 -14 -7 -19 -5 -23 10 -6 23 9 36 26 22 8 -6 24 -4 45 4 30 13 44 34 22
34 -5 0 -10 5 -10 12 0 6 9 3 20 -7 11 -10 21 -16 23 -14 21 36 24 48 16 56
-6 6 -4 14 6 23 13 10 15 9 15 -9 0 -11 5 -21 10 -21 6 0 10 -6 8 -14 -2 -8 6
-21 17 -29 17 -13 18 -17 5 -33 -13 -16 -13 -17 2 -11 13 5 19 0 24 -19 4 -14
9 -22 12 -19 3 3 12 -9 19 -27 13 -30 12 -34 -9 -50 -13 -10 -45 -29 -73 -42
-27 -13 -61 -33 -74 -45 -31 -27 -55 -23 -59 9 -2 14 -12 33 -23 43 -21 20
-36 23 -21 5 17 -21 22 -88 7 -88 -15 0 -29 -35 -21 -49 3 -5 -1 -14 -9 -21
-11 -9 -12 -16 -5 -25 13 -16 2 -45 -17 -45 -8 0 -12 4 -9 9 3 5 -1 14 -9 21
-10 8 -15 9 -15 1 0 -6 -12 -14 -27 -17 -32 -8 -53 -27 -53 -46 0 -15 -19 -38
-32 -38 -12 0 -10 35 4 65 13 29 2 49 -13 22 -13 -23 -29 -13 -29 19 0 13 -3
24 -7 24 -14 0 -43 -34 -43 -50 0 -9 -13 -29 -30 -43 -23 -21 -30 -36 -30 -65
0 -21 -3 -41 -6 -45 -3 -3 -7 -26 -9 -51 -1 -26 -7 -52 -13 -59 -6 -6 -13 -34
-17 -60 -5 -31 -13 -51 -24 -54 -9 -3 -25 -13 -35 -22 -18 -15 -19 -15 -12 12
5 20 3 27 -8 27 -9 0 -12 -7 -9 -20 4 -14 -2 -22 -21 -30 -14 -5 -32 -7 -41
-4 -16 6 -75 -16 -75 -28 0 -5 -7 -8 -15 -8 -8 0 -15 4 -15 9 0 5 -3 17 -7 27
-4 12 -3 15 5 10 8 -5 10 -2 6 8 -4 11 0 16 14 16 11 0 22 -6 25 -12 3 -8 7
-6 12 7 3 11 11 28 16 37 5 10 9 22 9 27 0 13 28 72 50 106 11 17 23 38 26 48
4 9 10 17 15 17 5 0 9 14 9 31 0 22 5 32 20 36 11 3 20 13 20 23 0 24 30 80
54 100 19 17 16 58 -3 46 -14 -9 -93 -10 -118 -2 -19 6 -23 4 -23 -13 0 -25
-4 -26 -34 -5 -18 11 -26 28 -31 67 -4 28 -12 59 -18 69 -9 14 -7 21 8 32 11
9 28 16 38 16 9 0 17 5 17 10 0 6 8 10 18 11 10 0 12 3 5 6 -15 5 -18 33 -4
33 4 0 20 -9 34 -20 21 -16 26 -29 24 -60 0 -21 -5 -36 -9 -34 -15 9 -8 -25
13 -66 22 -42 34 -53 24 -21 -3 12 0 21 10 25 8 3 15 17 15 31 0 14 5 25 10
25 17 0 11 28 -15 80 -18 35 -23 58 -19 79 4 17 3 42 0 56 -5 21 -10 24 -26
15 -10 -5 -23 -10 -29 -10 -16 0 -13 46 4 60 18 15 20 41 2 34 -7 -2 -21 -17
-30 -33 -23 -39 -69 -170 -63 -179 6 -10 -34 -56 -56 -65 -14 -5 -16 -2 -8 17
9 26 7 89 -9 236 -10 95 -15 240 -7 240 2 0 20 -22 40 -49z m-64 -322 c0 -14
-3 -29 -7 -32 -8 -8 -11 -82 -17 -392 -3 -159 -8 -231 -15 -233 -7 -2 -27 3
-46 12 -35 17 -54 36 -36 36 6 0 11 15 12 33 0 17 3 26 6 20 2 -7 11 -13 19
-13 11 0 13 9 8 38 -3 20 -8 55 -9 77 -2 22 -7 52 -10 68 -6 20 -4 27 8 27 8
0 19 6 25 13 15 17 21 79 10 100 -5 10 -4 25 2 38 9 16 8 24 -5 39 -15 17 -15
20 0 44 10 14 20 26 24 26 3 0 7 24 7 53 3 102 3 103 14 87 5 -8 10 -27 10
-41z m-270 -244 c0 -7 14 -12 37 -11 47 1 56 -21 14 -37 -33 -12 -41 -27 -16
-27 12 0 14 -4 5 -19 -7 -13 -7 -22 0 -26 6 -3 8 -16 5 -28 -3 -12 1 -31 9
-42 12 -17 12 -21 -1 -30 -12 -9 -12 -14 0 -37 8 -15 11 -42 8 -65 -3 -24 -6
-31 -9 -18 -2 11 -8 23 -13 26 -6 3 -11 29 -12 57 -1 32 -7 52 -14 52 -19 0
-23 15 -13 49 11 41 -12 101 -39 101 -18 0 -35 23 -25 33 3 3 19 -2 35 -10 41
-20 48 -9 15 22 -15 14 -24 30 -21 36 8 12 35 -7 35 -26z m346 -90 c-3 -9 1
-15 9 -15 10 0 15 -11 15 -33 0 -19 5 -59 11 -91 11 -54 6 -84 -10 -58 -4 7
-15 10 -23 7 -12 -5 -15 -18 -12 -61 2 -32 0 -54 -6 -54 -16 0 -11 -32 7 -46
16 -11 16 -13 -10 -25 -36 -16 -43 -7 -30 42 6 21 7 42 2 44 -11 8 -5 183 8
196 7 7 12 3 17 -15 8 -33 26 -34 26 -1 0 18 -7 28 -25 35 -20 8 -25 16 -25
45 0 19 5 35 10 35 6 0 10 12 10 27 l0 27 16 -22 c9 -13 13 -29 10 -37z m-376
-115 c11 0 20 -4 20 -10 0 -5 -4 -10 -10 -10 -14 0 -12 -38 4 -84 8 -24 16
-34 21 -26 5 8 10 9 18 1 7 -7 6 -15 -2 -25 -7 -8 -10 -24 -6 -36 3 -11 2 -20
-4 -20 -5 0 -8 -11 -5 -24 3 -20 -1 -25 -18 -28 -21 -3 -23 -8 -20 -47 3 -50
18 -75 39 -66 8 3 22 -3 31 -12 16 -16 16 -16 -2 -10 -12 5 -22 3 -27 -5 -7
-10 -12 -11 -28 -1 -19 12 -20 11 -14 -20 3 -17 10 -35 15 -38 6 -3 3 -9 -6
-12 -9 -4 -16 -1 -16 4 0 7 -11 9 -25 7 -17 -4 -25 -1 -25 8 0 8 9 14 20 14
21 0 28 24 10 35 -5 3 -10 21 -10 40 0 19 -4 37 -10 40 -5 3 -10 23 -10 43 0
20 -5 55 -10 77 -6 27 -5 44 3 53 9 11 8 17 -4 26 -22 16 -15 89 13 126 18 25
24 28 31 15 4 -8 17 -15 27 -15z m1442 -205 c58 -1 76 -15 61 -48 -19 -42 -96
-71 -200 -75 l-93 -4 0 30 c0 17 4 41 9 54 5 13 12 31 15 42 6 17 13 18 84 11
42 -5 98 -9 124 -10z m-1368 -716 c66 -35 68 -35 131 -54 38 -11 71 -28 92
-48 71 -71 89 -87 101 -87 7 0 12 6 10 13 -2 6 2 13 7 14 6 2 10 -6 10 -17 0
-11 6 -25 13 -32 15 -15 -2 -38 -29 -38 -11 0 -19 -4 -19 -8 0 -5 27 -40 60
-78 64 -74 76 -108 38 -102 -16 2 -24 11 -26 29 -3 22 -8 26 -38 27 -36 1 -43
6 -99 60 -19 17 -40 32 -47 32 -8 0 -29 11 -48 24 -96 64 -101 31 -6 -38 33
-25 74 -56 90 -70 32 -28 42 -31 51 -16 10 16 25 1 25 -23 0 -30 -58 -129 -73
-124 -13 4 -13 13 -2 65 6 24 4 32 -6 32 -8 0 -20 9 -27 20 -15 24 -32 26 -32
4 0 -11 -6 -14 -22 -9 -22 7 -70 43 -76 58 -2 4 -9 7 -16 7 -7 0 -21 9 -31 20
-19 21 -45 27 -45 11 0 -5 27 -35 60 -67 65 -62 76 -81 33 -58 -16 7 -37 14
-48 14 -11 0 -32 11 -47 25 -32 30 -40 31 -62 6 -16 -18 -16 -19 16 -30 32
-11 108 -77 108 -93 0 -15 -75 30 -109 66 -19 20 -43 36 -53 36 -20 0 -96 96
-107 137 -7 26 -8 25 -15 -20 -6 -41 -4 -54 18 -94 15 -25 24 -48 22 -50 -2
-2 -21 17 -41 44 l-37 48 4 85 c3 62 10 98 26 132 43 88 130 167 186 168 10 0
37 -10 60 -21z"/>
</g>
</svg>
