<?xml version="1.0" standalone="no"?>
<!DOCTYPE svg PUBLIC "-//W3C//DTD SVG 20010904//EN"
 "http://www.w3.org/TR/2001/REC-SVG-20010904/DTD/svg10.dtd">
<svg version="1.0" xmlns="http://www.w3.org/2000/svg"
 width="330.000000pt" height="531.000000pt" viewBox="0 0 330.000000 531.000000"
 preserveAspectRatio="xMidYMid meet">
<metadata>
Created by potrace 1.16, written by Peter Selinger 2001-2019
</metadata>
<g transform="translate(0.000000,531.000000) scale(0.100000,-0.100000)"
fill="#000000" stroke="none">
<path d="M1609 5233 c-6 -42 32 -140 73 -190 6 -7 7 -13 3 -13 -4 0 -2 -6 4
-13 6 -8 8 -17 4 -20 -3 -4 2 -9 11 -13 9 -3 13 -10 11 -15 -3 -4 3 -17 14
-28 11 -11 17 -22 13 -25 -3 -3 0 -6 7 -6 7 0 10 -4 6 -9 -3 -5 0 -13 6 -17 7
-4 9 -3 6 3 -4 6 0 14 9 17 8 3 13 2 9 -3 -7 -12 45 -98 64 -106 11 -4 10 -1
-2 13 -9 10 -17 22 -17 25 0 14 16 5 34 -19 15 -22 16 -28 5 -35 -11 -7 -11
-9 -1 -9 7 0 10 -5 7 -10 -4 -6 -11 -8 -16 -5 -5 4 -9 1 -9 -4 0 -14 6 -14 29
1 25 15 58 -7 41 -27 -11 -14 5 -33 17 -21 4 3 1 6 -6 6 -7 0 -9 5 -6 10 5 8
12 7 23 -2 9 -7 -17 28 -57 77 -46 56 -80 89 -90 87 -13 -2 -13 -1 -2 6 11 8
9 15 -10 41 -27 36 -34 40 -18 9 9 -18 9 -21 -1 -11 -7 6 -13 22 -14 35 -1 13
-7 22 -15 20 -7 -1 -10 2 -6 8 4 6 -9 34 -27 63 -37 57 -78 146 -78 171 0 16
-19 23 -21 9z"/>
<path d="M1208 4728 c-16 -5 -28 -16 -28 -24 0 -8 -4 -14 -9 -14 -6 0 -10 -8
-10 -17 0 -10 -1 -39 -1 -64 -1 -54 30 -141 65 -184 l24 -29 -14 54 c-8 30
-16 67 -19 82 -2 15 -11 37 -19 48 -15 21 -11 74 4 64 5 -3 6 -10 3 -16 -5 -7
-1 -9 8 -5 12 4 18 -2 23 -21 7 -25 8 -25 15 -7 8 19 -6 39 -34 48 -7 3 -6 9
3 21 8 9 10 16 5 15 -39 -7 -44 22 -6 33 25 7 72 -9 72 -25 0 -5 -5 -5 -13 1
-8 7 -18 7 -27 2 -12 -8 -10 -10 7 -10 13 0 32 -12 44 -30 12 -16 41 -41 64
-55 38 -24 94 -99 96 -128 0 -7 4 -3 9 8 12 27 12 1 1 -47 -5 -22 -5 -38 0
-38 5 0 9 4 9 8 0 5 7 9 15 9 8 0 12 -4 9 -9 -3 -4 0 -8 5 -8 6 0 11 -9 11
-21 0 -13 4 -18 12 -13 8 5 9 2 5 -10 -4 -10 -2 -27 4 -39 7 -12 8 -22 3 -24
-11 -4 -10 -90 0 -100 3 -4 6 -16 6 -29 0 -24 35 -40 44 -20 3 6 3 0 0 -14 -4
-14 -7 -25 -8 -25 -42 -16 -55 -27 -50 -40 3 -8 2 -15 -4 -15 -6 0 -12 5 -14
10 -2 7 -11 5 -23 -4 -19 -14 -19 -15 -2 -22 10 -4 35 1 58 11 38 17 52 35 27
35 -6 0 -9 2 -6 5 9 9 58 -13 58 -26 0 -8 -4 -8 -15 1 -8 7 -15 8 -15 3 0 -6
-18 -18 -40 -28 -26 -12 -40 -25 -40 -37 0 -20 8 -22 30 -8 10 6 11 10 3 10
-7 0 -13 5 -13 10 0 6 7 10 15 10 8 0 15 -5 15 -10 0 -7 7 -7 21 1 16 8 18 13
9 19 -8 5 -3 8 14 7 l27 -2 -28 -22 c-15 -13 -24 -23 -19 -23 5 0 3 -7 -4 -15
-10 -12 -10 -15 3 -15 9 0 18 -4 21 -9 8 -12 -26 -9 -40 4 -8 7 -7 13 5 22 22
17 11 16 -32 -2 -31 -13 -36 -13 -41 1 -3 9 -4 20 0 25 3 5 0 9 -7 9 -6 0 -21
10 -32 23 -13 15 -21 18 -24 10 -6 -17 -20 -16 -26 1 -4 9 -1 13 6 10 8 -3 13
4 13 16 0 15 -5 19 -21 14 -20 -6 -20 -6 0 11 11 9 14 13 6 9 -9 -4 -20 0 -29
12 -14 19 -14 18 -9 -1 13 -47 35 -143 41 -177 4 -21 11 -38 16 -38 5 0 6 -8
3 -17 -4 -11 -8 -12 -11 -5 -2 7 -8 12 -14 12 -6 0 -6 -6 2 -15 10 -13 16 -13
46 0 19 8 35 14 37 15 1 0 12 3 24 6 13 4 20 11 17 16 -3 5 -15 1 -27 -9 l-22
-18 18 22 c11 12 16 26 13 31 -3 5 1 9 9 9 8 0 11 -5 8 -10 -10 -16 19 -26 45
-16 14 5 37 18 51 29 28 19 60 13 47 -9 -4 -6 -4 -11 1 -10 20 3 27 -2 13 -11
-13 -8 -12 -10 3 -10 9 0 17 -4 17 -10 0 -5 -4 -10 -10 -10 -5 0 -10 -5 -10
-12 0 -6 3 -8 6 -5 4 3 16 2 26 -4 15 -8 23 -8 32 1 8 9 8 11 -3 8 -8 -2 -43
53 -97 152 -45 85 -89 165 -95 178 -11 19 -10 25 1 32 8 5 18 6 24 3 5 -4 6
-1 1 6 -4 7 -15 11 -24 8 -13 -3 -16 5 -18 47 -1 27 -6 59 -12 71 -5 11 -22
48 -37 82 -15 36 -31 60 -37 56 -6 -3 -7 -1 -3 6 4 6 -7 25 -26 44 -18 18 -54
56 -80 86 -30 33 -48 47 -48 36 0 -9 -4 -14 -10 -10 -5 3 -7 11 -4 18 5 14
-20 40 -46 49 -8 3 -27 1 -42 -4z"/>
<path d="M1950 4689 c-13 -9 -12 -10 3 -5 17 5 22 -8 17 -44 -3 -24 -8 -24
-31 1 l-21 24 16 -25 c9 -14 28 -49 43 -77 14 -29 33 -53 40 -53 9 0 11 5 6
13 -15 24 -10 34 15 33 14 -1 28 -8 30 -16 5 -13 3 -13 -11 -2 -14 12 -16 11
-12 -7 2 -12 6 -25 10 -30 3 -5 1 -12 -5 -16 -5 -3 -10 -1 -10 4 0 6 -4 11 -9
11 -5 0 -8 -17 -7 -37 1 -33 -2 -38 -21 -37 -27 1 -29 -9 -8 -30 13 -13 13
-19 3 -36 -12 -19 -25 -24 -55 -23 -7 1 -13 -8 -13 -18 0 -10 -13 -40 -30 -66
-16 -26 -30 -50 -30 -54 0 -9 20 -6 39 5 10 7 11 10 0 16 -9 6 -7 16 10 42
l23 33 -7 -28 c-4 -21 -3 -27 6 -21 8 5 10 2 6 -9 -3 -9 0 -18 8 -21 9 -3 12
-12 9 -21 -6 -14 -8 -14 -19 2 -11 15 -15 15 -29 4 -15 -13 -15 -16 4 -36 11
-12 17 -25 13 -30 -5 -4 -3 -6 2 -3 69 30 91 42 98 54 4 7 13 11 20 8 8 -3 13
-39 15 -112 2 -68 7 -109 15 -114 9 -6 9 -8 0 -8 -7 0 -13 -5 -13 -11 0 -5 4
-8 9 -5 21 13 -7 -155 -28 -171 -9 -7 -11 -13 -6 -13 13 0 7 -81 -7 -95 -7 -7
-9 -7 -5 0 3 6 2 17 -4 25 -6 10 -9 0 -9 -32 0 -27 -4 -48 -10 -48 -5 0 -7 -7
-4 -15 10 -24 24 -17 24 13 1 22 2 24 10 10 13 -21 -5 -72 -21 -62 -8 5 -10
-4 -7 -29 2 -20 0 -33 -4 -31 -4 3 -8 1 -8 -5 0 -5 4 -12 9 -15 4 -3 7 -16 6
-28 -1 -13 -3 -29 -4 -36 0 -7 -5 -11 -11 -7 -5 3 -8 11 -6 18 1 7 1 9 -1 4
-3 -4 -9 -5 -14 -1 -13 8 -10 -8 5 -28 7 -10 16 -15 19 -12 3 4 9 -6 13 -21 5
-21 2 -31 -11 -41 -10 -7 -23 -11 -28 -7 -7 4 -8 -1 -3 -13 17 -42 25 -76 20
-89 -6 -13 48 -35 88 -35 16 0 37 -20 21 -20 -16 0 -189 52 -233 71 -25 11
-92 35 -150 54 -58 19 -98 34 -90 35 8 0 31 -5 50 -11 38 -12 75 -20 102 -22
9 -1 15 -4 12 -8 -5 -9 158 -59 169 -52 6 3 7 1 3 -5 -4 -7 -3 -12 3 -12 21 0
22 22 3 36 -12 8 -19 22 -17 33 3 14 -1 18 -16 14 -14 -4 -19 0 -19 13 0 16 2
17 11 4 9 -12 10 -12 5 3 -3 10 -6 23 -6 28 0 5 -7 9 -15 9 -8 0 -14 3 -14 8
4 21 -3 23 -23 6 l-23 -19 19 22 c14 17 16 26 8 36 -7 7 -7 18 -2 27 7 11 11
8 21 -13 7 -15 16 -27 21 -27 4 0 8 -5 8 -11 0 -6 7 -18 16 -26 13 -14 17 -14
25 -2 13 21 11 29 -8 23 -14 -5 -15 -4 -4 4 16 12 6 32 -16 32 -9 0 -14 3 -10
6 9 9 -25 44 -37 37 -6 -3 -8 -3 -4 1 4 5 -2 17 -13 29 -10 11 -19 27 -19 34
0 8 -5 11 -10 8 -7 -4 -4 -19 10 -42 21 -37 18 -67 -5 -36 -7 10 -11 21 -9 25
3 5 0 8 -7 8 -7 0 -9 3 -6 6 10 11 -21 47 -43 51 -24 3 -24 4 -4 -35 14 -28
14 -34 -1 -59 l-15 -28 6 40 c4 27 2 35 -4 26 -6 -8 -12 -9 -16 -3 -3 6 -2 13
4 17 16 10 12 28 -4 22 -10 -4 -13 -1 -9 10 5 13 2 13 -26 -1 -23 -12 -31 -13
-29 -4 2 7 -5 12 -14 12 -22 -2 -24 12 -3 20 8 3 15 0 15 -6 0 -6 10 -3 22 8
18 16 21 17 15 2 -4 -12 -1 -16 14 -15 22 2 23 6 5 30 -11 15 -18 16 -34 8
-16 -8 -23 -7 -33 7 -11 14 -11 15 0 5 16 -14 41 -6 41 13 0 8 5 14 11 14 5 0
7 -4 4 -10 -3 -5 -1 -10 4 -10 6 0 11 7 11 15 0 16 -9 19 -34 9 -9 -3 -13 -10
-10 -15 3 -5 0 -9 -5 -9 -6 0 -11 5 -11 11 0 5 -4 7 -10 4 -5 -3 -10 1 -10 10
0 9 4 14 9 10 6 -3 25 4 43 16 27 17 29 19 8 13 -14 -3 -28 -12 -32 -17 -4 -7
-15 -1 -28 16 -12 16 -31 27 -43 26 -20 -1 -20 -2 3 -8 19 -5 26 -14 27 -36 2
-25 1 -27 -7 -10 -5 11 -9 16 -9 10 -1 -5 -6 -3 -11 5 -7 11 -10 11 -10 2 0
-10 -4 -10 -21 1 -11 8 -29 13 -40 10 -21 -6 -24 -14 -9 -29 6 -6 3 -10 -9
-11 -11 -1 -22 5 -25 13 -3 9 -1 12 4 9 6 -3 10 1 10 11 0 11 -6 15 -20 11
-11 -3 -23 -1 -26 5 -4 6 -13 -4 -22 -21 -8 -17 -17 -29 -20 -26 -3 3 0 11 6
17 21 21 13 35 -20 36 -18 1 -44 4 -57 6 -19 4 -22 2 -18 -14 3 -11 1 -20 -4
-20 -5 0 -9 9 -9 20 0 25 -27 27 -33 3 -4 -16 -5 -16 -6 1 -1 12 -6 16 -16 12
-10 -3 -15 1 -16 12 0 14 -2 14 -7 2 -4 -8 -13 -16 -20 -18 -8 -1 -11 1 -9 5
3 5 -2 15 -11 23 -14 13 -15 12 -10 -2 4 -10 1 -19 -7 -22 -9 -3 -12 0 -9 8 3
8 1 17 -5 21 -6 3 -11 -2 -12 -12 0 -16 -1 -16 -9 2 -7 17 -9 17 -9 3 -1 -19
-21 -26 -21 -8 0 6 -6 10 -14 10 -8 0 -17 6 -19 13 -3 6 -6 2 -6 -10 -1 -21
-21 -34 -21 -15 0 7 -21 20 -64 40 -5 3 -6 0 -2 -7 4 -6 3 -11 -2 -11 -6 0
-12 6 -15 14 -6 16 -57 18 -57 2 0 -6 -5 -4 -10 4 -8 12 -10 10 -11 -10 0 -23
-1 -23 -9 -5 l-9 20 0 -20 c-1 -17 -3 -17 -11 -5 -5 8 -10 11 -11 5 0 -5 -5 1
-9 15 -8 24 -8 24 -9 3 l-1 -23 -34 20 c-32 17 -35 18 -39 2 -4 -15 -5 -15 -6
-1 -1 11 -10 17 -26 17 -19 0 -25 -6 -26 -22 -1 -19 -2 -18 -9 4 -6 18 -8 20
-9 7 -1 -10 -5 -16 -10 -13 -5 4 -12 0 -14 -6 -4 -9 -6 -8 -6 3 -1 9 -8 16
-16 16 -18 0 -20 -13 -2 -21 6 -3 3 -4 -8 -3 -11 1 -23 7 -27 12 -4 6 -8 1 -8
-10 0 -11 -5 -27 -11 -35 -8 -11 -9 -7 -5 18 5 27 3 30 -8 20 -7 -7 -11 -20
-8 -30 5 -20 -14 -25 -21 -5 -4 11 -35 -48 -51 -97 -5 -14 -9 -16 -20 -7 -11
9 -15 7 -21 -11 -5 -13 -9 -30 -10 -38 -5 -43 -18 -79 -38 -100 -21 -22 -22
-26 -8 -42 11 -13 17 -15 23 -5 13 20 9 30 -10 22 -9 -3 -3 9 16 28 19 19 29
36 23 38 -7 3 -6 13 4 32 8 15 10 25 5 22 -13 -8 -13 1 0 25 6 12 16 17 26 13
13 -5 13 -7 2 -14 -10 -7 -9 -9 5 -9 12 0 17 8 17 28 0 21 2 24 10 12 6 -9 10
-10 10 -3 0 6 -5 15 -10 18 -7 4 -7 13 0 26 6 11 15 17 21 13 6 -4 6 -11 -2
-20 -10 -12 -9 -13 6 -8 13 5 16 4 10 -5 -6 -10 -3 -11 16 -2 13 7 -7 -18 -45
-54 -38 -36 -67 -67 -65 -69 2 -2 47 36 99 86 80 76 104 105 52 65 -20 -16
-52 -16 -52 0 0 7 9 12 22 10 15 -1 24 5 29 23 4 14 8 18 8 10 1 -12 4 -11 12
3 10 18 12 18 30 1 10 -9 19 -24 18 -33 0 -10 -2 -12 -6 -3 -7 18 -42 -28 -36
-48 4 -11 3 -12 -4 -2 -7 10 -18 5 -44 -19 -19 -17 -27 -29 -18 -26 14 5 15 2
5 -19 -10 -22 -11 -22 -16 -4 -4 17 -14 11 -68 -42 -35 -34 -59 -64 -53 -66 6
-2 11 -10 11 -18 0 -9 -5 -12 -12 -8 -8 5 -9 2 -5 -9 3 -10 2 -17 -3 -17 -17
0 -11 -32 15 -89 26 -56 23 -70 -14 -71 -8 0 -12 -3 -8 -6 3 -4 20 -2 36 4 17
6 31 9 31 7 0 -5 -72 -37 -74 -33 -22 44 -31 58 -37 58 -5 0 -6 -7 -3 -15 4
-8 10 -15 15 -15 5 0 9 -4 9 -10 0 -5 -14 -10 -31 -10 -18 0 -28 -4 -24 -10 3
-6 18 -8 33 -5 15 3 20 2 12 -1 -8 -4 -21 -15 -30 -25 -8 -9 -40 -25 -70 -34
-30 -10 -61 -20 -69 -23 -9 -3 -12 -1 -7 6 4 7 2 12 -3 12 -6 0 -11 -9 -11
-21 0 -11 4 -17 10 -14 5 3 35 13 65 20 30 8 78 30 105 49 68 47 105 54 139
27 28 -23 143 -81 160 -81 6 0 11 -5 11 -11 0 -5 4 -8 9 -5 5 4 7 -3 4 -15 -5
-17 -2 -20 17 -17 29 4 37 25 13 31 -10 3 0 5 22 6 36 0 38 -1 22 -13 -10 -8
-19 -18 -20 -23 -1 -4 -5 -7 -9 -5 -5 1 -8 -1 -8 -5 0 -5 -18 -9 -39 -10 -33
-2 -46 4 -84 38 -29 25 -48 35 -52 28 -9 -14 54 -80 74 -76 11 1 16 -6 16 -23
1 -14 7 -35 13 -47 10 -19 10 -23 0 -23 -23 0 -39 -16 -33 -33 4 -9 13 -13 21
-10 8 3 14 0 14 -7 0 -6 5 -8 11 -4 8 4 4 13 -12 25 -27 21 -13 25 25 8 26
-12 41 -37 30 -48 -4 -3 -9 -1 -11 6 -3 9 -9 10 -23 1 -10 -6 -16 -17 -13 -25
3 -7 9 -10 14 -7 13 8 11 -20 -3 -34 -6 -6 -9 -14 -6 -17 3 -3 20 17 38 45 17
27 37 47 42 44 18 -11 -11 35 -30 46 -16 11 -16 11 0 6 11 -3 22 2 28 14 17
31 19 30 100 -58 16 -18 17 -21 2 -36 -11 -10 -12 -16 -4 -16 7 0 12 5 12 10
0 6 5 10 11 10 5 0 9 -10 7 -22 -2 -15 2 -23 12 -24 8 -1 22 -2 31 -3 12 -1
15 -9 12 -28 -3 -24 -2 -25 6 -8 l10 20 0 -20 c1 -17 3 -17 11 -5 8 13 10 12
10 -2 0 -10 5 -18 10 -18 6 0 10 -12 9 -27 0 -22 -2 -24 -8 -10 -4 10 -11 19
-16 20 -6 1 -9 5 -8 8 3 10 -31 5 -40 -6 -5 -6 -7 -3 -3 8 6 20 -3 49 -13 42
-13 -7 -52 26 -45 37 4 7 2 8 -4 4 -7 -4 -12 -3 -12 2 0 5 -12 14 -26 21 -24
11 -25 13 -11 35 16 23 12 39 -10 44 -7 1 -14 -6 -14 -15 -1 -10 -2 -29 -3
-43 -1 -14 -19 -48 -39 -74 -20 -27 -37 -53 -37 -58 0 -5 -11 -1 -25 8 -14 9
-23 19 -20 22 7 7 -15 32 -28 32 -6 0 -3 -6 6 -12 18 -14 11 -33 -13 -33 -8 0
-14 -6 -12 -13 1 -6 -3 -12 -9 -12 -6 0 -9 -9 -6 -20 3 -11 1 -18 -4 -14 -5 3
-9 0 -9 -6 0 -6 -5 -8 -12 -4 -7 4 -8 3 -4 -5 4 -6 12 -9 17 -6 9 6 13 -7 10
-31 -1 -6 6 -17 14 -24 18 -15 20 -40 3 -40 -9 0 -9 -3 0 -12 16 -16 15 -31 0
-22 -7 5 -20 9 -30 9 -13 1 -15 -2 -8 -16 7 -12 5 -19 -6 -23 -9 -3 -20 -4
-25 -1 -5 4 -6 0 -4 -8 3 -7 1 -24 -4 -38 -10 -24 -10 -24 -11 6 0 17 -4 37
-9 44 -8 12 -11 9 -16 -11 -6 -24 -10 -26 -44 -19 -2 1 1 7 7 14 6 6 10 16 10
20 0 5 4 12 8 15 4 4 4 2 0 -5 -3 -6 -2 -14 4 -18 5 -3 10 3 10 14 0 11 8 25
17 30 20 12 19 12 -20 15 -20 2 -26 -1 -23 -11 3 -7 2 -13 -2 -13 -4 0 -13 -9
-19 -20 -11 -17 -10 -18 5 -13 12 5 10 -1 -8 -19 -27 -29 -45 -27 -37 3 3 11
2 19 -2 19 -3 0 -23 15 -42 34 -33 33 -36 34 -51 17 -10 -12 -25 -16 -51 -13
-32 4 -35 6 -26 23 5 10 7 19 3 19 -3 0 1 11 10 25 18 28 21 45 5 45 -5 0 -8
-4 -5 -9 3 -5 -12 -11 -33 -15 -22 -3 -42 -12 -44 -18 -4 -10 -6 -9 -6 1 -1
11 -4 11 -16 1 -18 -15 -20 0 -2 19 10 12 9 13 -7 7 -16 -5 -17 -4 -6 9 9 11
17 12 30 5 26 -14 30 -13 30 9 0 22 40 36 52 18 5 -8 8 -4 8 10 0 12 9 27 20
33 14 7 20 7 20 0 0 -6 7 -6 20 2 11 7 19 20 17 28 -1 11 6 14 28 12 29 -3 29
-3 11 17 -10 11 -23 18 -30 15 -7 -3 -18 7 -26 21 -9 16 -16 21 -21 14 -4 -6
-12 -8 -19 -4 -9 6 -6 11 10 20 19 10 20 13 6 18 -10 4 -19 1 -23 -9 -3 -8
-11 -13 -18 -10 -18 6 -41 -25 -37 -52 2 -13 14 -28 28 -34 27 -13 32 -28 8
-28 -8 0 -13 -4 -10 -8 2 -4 -5 -14 -17 -22 -20 -12 -21 -12 -8 3 7 10 10 17
5 17 -5 0 -1 5 9 11 18 10 18 12 -2 26 -12 8 -21 22 -21 32 0 21 -34 64 -44
54 -3 -3 -6 -1 -6 6 0 8 8 11 20 8 11 -3 18 -2 15 3 -8 13 32 41 67 45 l33 4
-30 -14 c-25 -12 -27 -14 -9 -15 12 0 27 6 33 14 7 8 22 11 39 8 15 -2 24 -2
21 2 -6 6 -40 13 -75 15 -18 1 -23 48 -7 70 12 19 12 19 -17 11 -31 -9 -38 -2
-19 17 6 6 9 21 7 34 -4 20 -6 17 -16 -17 -8 -26 -20 -45 -36 -52 -22 -10 -23
-9 -19 11 5 22 5 22 -11 2 -17 -20 -17 -20 -6 3 13 26 30 29 30 5 1 -17 2 -17
15 1 11 14 11 22 2 36 -10 18 -13 17 -43 -8 -32 -27 -49 -62 -45 -94 1 -9 -2
-19 -8 -22 -23 -15 -7 61 21 97 31 39 23 47 -25 25 -15 -7 -25 -19 -22 -25 2
-7 0 -13 -5 -13 -5 0 -16 -12 -24 -27 -8 -16 -15 -22 -16 -14 0 8 8 23 17 33
14 16 14 18 1 13 -8 -3 -20 -16 -26 -28 -10 -21 -11 -20 -12 8 l-1 30 -14 -25
c-12 -21 -14 -202 -15 -1227 0 -816 4 -1204 11 -1208 7 -5 6 -11 -1 -20 -8 -9
-8 -15 0 -20 9 -6 14 1 11 18 0 4 11 7 27 6 24 0 25 -1 7 -9 -17 -7 -14 -9 15
-10 23 -2 28 -4 15 -7 -11 -3 -24 -12 -28 -19 -5 -8 -13 -12 -19 -8 -6 4 -5
10 3 15 10 6 10 9 2 9 -16 0 -26 -17 -13 -25 17 -11 11 -27 -8 -21 -12 4 -19
1 -19 -7 0 -9 7 -12 18 -10 19 5 39 -19 21 -25 -7 -2 -10 -8 -6 -13 3 -5 -2
-12 -10 -15 -29 -11 -16 -20 22 -16 30 4 33 6 17 13 -19 7 -19 8 3 8 12 1 40
12 62 26 22 14 45 25 52 26 7 0 4 5 -7 10 -19 8 -19 9 -1 6 24 -3 34 -27 12
-27 -21 0 -21 -16 0 -28 11 -6 13 -11 5 -16 -6 -4 -11 -4 -11 1 0 4 -17 9 -38
10 -28 1 -32 -1 -17 -7 11 -5 14 -9 8 -9 -7 -1 -13 -6 -13 -13 0 -9 3 -9 12 0
7 7 19 12 27 12 29 0 -53 -50 -108 -66 -31 -9 -50 -19 -43 -21 8 -3 24 -1 35
5 54 24 78 31 94 26 14 -4 15 -3 5 4 -11 7 -10 10 3 16 9 3 22 3 28 -1 7 -3 9
-3 6 1 -7 7 82 101 93 98 5 -1 7 3 5 10 -2 12 3 14 41 17 13 1 11 4 -8 14 -23
12 -27 10 -57 -22 -17 -20 -34 -33 -37 -30 -3 3 3 15 14 27 17 18 18 22 5 22
-8 0 -15 -4 -15 -10 0 -5 -4 -10 -9 -10 -4 0 -3 15 2 34 8 25 14 30 23 22 9
-8 9 -13 0 -18 -8 -6 -8 -8 2 -8 19 0 27 4 24 14 -2 5 6 6 18 3 11 -3 23 -1
26 4 3 5 10 6 16 3 7 -4 8 -2 4 5 -10 16 21 26 46 14 19 -8 19 -10 -16 -52
-20 -23 -36 -49 -36 -57 0 -7 -12 -17 -26 -20 -19 -5 -22 -9 -12 -15 10 -7 6
-15 -17 -34 -51 -43 -86 -59 -96 -43 -7 11 -9 11 -9 -1 0 -8 -6 -11 -16 -7
-14 5 -15 4 -4 -9 11 -13 9 -15 -11 -16 -13 -1 -27 -1 -31 0 -5 0 -8 -4 -8
-10 0 -6 -7 -9 -15 -5 -8 3 -15 1 -15 -4 0 -6 -11 -10 -24 -10 -14 0 -28 -4
-31 -10 -10 -15 67 -11 89 5 12 9 25 11 40 5 13 -5 29 -4 37 1 12 7 12 9 -1 9
-13 0 -13 1 0 10 20 13 63 13 55 0 -4 -6 -15 -8 -25 -5 -15 5 -17 2 -13 -15 3
-12 13 -20 27 -19 12 0 15 3 8 6 -10 4 -8 9 7 20 12 8 19 19 16 24 -4 5 8 9
24 9 21 0 31 -5 31 -15 0 -13 2 -13 14 -3 8 8 10 15 4 19 -6 4 -7 9 -1 12 6 4
19 -3 31 -13 27 -25 36 -25 23 -1 -6 10 -7 21 -4 25 3 3 1 6 -4 6 -6 0 -14 -6
-16 -12 -3 -7 -6 -3 -6 9 -1 12 -4 28 -7 36 -3 10 2 17 13 20 16 4 16 5 -1 6
-20 1 -20 1 0 16 10 8 24 14 29 15 6 0 4 -4 -4 -9 -20 -13 -4 -31 27 -32 24 0
25 -1 7 -8 -11 -5 -25 -6 -31 -4 -7 2 -15 0 -19 -6 -3 -6 1 -11 9 -11 9 0 16
-8 16 -17 0 -15 2 -16 9 -3 6 8 8 17 6 21 -3 3 16 12 40 19 25 7 45 17 45 22
0 5 -4 6 -10 3 -5 -3 -10 -2 -10 2 0 5 -14 14 -32 21 -17 6 -29 15 -25 18 4 4
2 13 -4 21 -7 8 -8 13 -1 13 5 0 17 -12 27 -26 19 -29 32 -26 16 3 -8 15 -7
20 4 20 8 0 12 -3 10 -7 -2 -3 7 -19 20 -34 14 -16 22 -33 18 -39 -4 -7 0 -8
11 -4 10 4 28 10 41 13 23 6 23 7 6 25 -10 11 -28 18 -42 17 -15 -2 -23 2 -22
10 2 6 -3 12 -10 12 -8 0 -7 3 3 10 10 6 17 5 23 -5 4 -8 13 -15 18 -15 6 0 7
5 4 10 -3 6 1 13 10 17 10 3 21 0 25 -8 7 -11 10 -10 15 3 6 15 10 15 42 1 39
-16 60 -6 50 21 -7 17 -37 22 -37 6 0 -5 8 -7 18 -3 13 4 14 3 6 -6 -7 -8 -18
-9 -35 -2 -14 6 -18 10 -9 11 10 1 9 4 -5 10 -15 7 -9 9 25 10 36 0 41 3 27
11 -9 5 -23 7 -30 3 -7 -5 -7 -1 2 10 11 13 16 14 22 4 8 -12 13 -4 10 15 -1
4 9 1 22 -8 13 -8 27 -12 32 -8 4 5 4 1 0 -7 -8 -13 -7 -13 8 -1 15 12 17 11
17 -3 0 -9 -3 -16 -7 -17 -5 0 -16 -2 -25 -4 -11 -2 -15 2 -11 11 3 8 1 14 -5
14 -14 0 -25 -34 -13 -38 6 -2 7 -12 1 -27 -5 -12 -6 -26 -3 -29 4 -3 -2 -6
-12 -6 -10 0 -26 -7 -35 -15 -10 -9 -25 -13 -34 -9 -18 7 -17 25 2 32 7 2 10
-2 6 -12 -5 -12 -2 -15 10 -10 20 8 20 18 2 33 -15 13 -46 5 -46 -13 0 -6 -4
-4 -10 4 -5 8 -11 12 -15 9 -3 -3 6 -18 19 -32 13 -14 27 -23 30 -20 3 4 6 -1
6 -10 0 -13 -10 -17 -42 -18 l-43 -2 35 -6 c19 -4 43 -3 53 1 9 5 22 6 27 3 6
-3 10 -1 10 4 0 6 9 11 20 11 11 0 20 -4 20 -10 0 -5 -8 -7 -18 -4 -9 4 -4 -3
11 -14 16 -11 29 -23 29 -28 0 -5 2 -11 5 -14 4 -3 3 1 -2 9 -6 11 -3 13 13 8
61 -19 67 -20 57 -9 -6 6 -28 18 -50 26 -22 8 -34 15 -27 15 7 1 11 5 7 10 -3
5 10 9 30 8 29 -2 32 -4 20 -13 -14 -10 -14 -12 1 -18 22 -8 26 -8 19 4 -3 5
-1 10 5 10 7 0 10 -6 7 -12 -2 -7 9 -25 24 -39 30 -28 29 -45 -1 -29 -10 5
-21 6 -25 2 -5 -4 -5 -1 -1 6 4 7 13 9 19 6 9 -5 9 -4 1 5 -13 14 -69 -3 -59
-19 4 -6 -5 -7 -23 -4 -16 3 -32 1 -36 -4 -4 -7 6 -10 25 -10 17 1 35 -5 40
-13 8 -13 13 -6 10 14 0 4 11 7 25 7 14 0 23 -4 19 -10 -4 -6 -11 -8 -16 -5
-5 4 -9 1 -9 -4 0 -14 34 -9 54 8 11 9 16 10 16 2 0 -8 6 -9 18 -3 9 5 24 7
32 5 13 -4 13 -3 0 7 -13 10 -12 11 3 6 10 -3 20 -6 23 -6 2 0 1 -7 -2 -15 -4
-8 -1 -15 5 -15 6 0 11 -9 11 -20 0 -14 -9 -20 -32 -24 -26 -4 -66 -3 -86 3
-1 1 2 10 8 21 9 18 8 18 -20 9 -23 -8 -37 -7 -61 5 -24 12 -35 13 -45 5 -11
-9 -23 -7 -51 6 -34 16 -36 19 -18 27 17 7 16 8 -5 4 -14 -3 -34 2 -44 10 -20
14 -20 14 0 14 15 0 16 2 4 10 -8 5 -17 6 -20 2 -3 -4 -18 -12 -35 -17 -31
-11 -46 -42 -25 -55 9 -6 9 -13 1 -28 -9 -16 -8 -26 1 -42 7 -11 17 -20 22
-20 4 0 6 -9 3 -20 -3 -11 3 -30 14 -44 18 -23 18 -24 -1 -29 -11 -3 -20 -1
-20 4 0 5 -4 9 -10 9 -5 0 -9 -3 -9 -7 4 -26 -4 -33 -41 -33 -22 0 -40 -4 -40
-9 0 -5 19 -7 43 -4 28 3 38 1 28 -5 -9 -7 -10 -12 -2 -16 17 -11 404 -4 419
7 8 6 12 6 12 -2 0 -15 37 -14 43 2 4 8 8 9 14 1 12 -15 639 -12 676 4 29 12
34 26 15 38 -6 4 -8 3 -5 -3 3 -5 -9 -17 -28 -26 -19 -9 -35 -15 -35 -12 0 19
46 92 55 88 7 -2 25 7 41 21 28 24 29 25 10 43 -18 17 -18 17 -12 -8 4 -20 1
-29 -11 -33 -27 -11 -26 0 1 57 23 46 31 54 53 53 25 -1 47 -26 23 -26 -6 0
-9 4 -6 9 8 13 -37 0 -46 -13 -13 -19 -9 -28 10 -22 15 5 17 1 14 -34 -3 -32
-9 -41 -28 -46 -34 -9 -27 -69 8 -69 7 0 12 -8 12 -16 -1 -13 11 -16 58 -18
63 -2 70 4 72 59 1 15 5 25 10 22 5 -3 7 2 3 11 -4 10 -2 17 4 17 6 0 8 7 5
16 -4 10 -2 13 6 8 8 -5 9 -2 5 10 -4 10 -3 15 3 11 6 -4 8 6 6 24 -2 23 0 28
13 23 13 -4 14 -3 5 9 -6 8 -11 22 -11 31 0 13 4 15 17 8 10 -5 21 -6 25 -2 4
4 -1 -10 -11 -30 -10 -21 -22 -38 -26 -38 -5 0 -7 -4 -4 -8 3 -5 -6 -35 -19
-68 -14 -32 -25 -69 -25 -82 l0 -23 181 3 182 3 16 31 c9 17 22 29 29 26 8 -2
3 -13 -15 -30 l-28 -27 72 -3 c40 -2 82 2 93 8 12 6 20 7 20 1 0 -11 99 -9
118 2 6 5 12 5 12 0 0 -10 76 -11 86 -1 10 11 26 10 20 0 -6 -11 36 -9 53 2
10 6 12 5 7 -2 -8 -13 42 -11 63 2 6 4 11 4 11 -1 0 -4 27 -8 59 -8 33 0 57 3
54 8 -2 4 5 7 17 7 14 0 19 -4 14 -12 -4 -7 1 -6 12 3 33 28 51 35 32 13 -16
-19 -16 -20 5 -20 12 0 24 2 27 5 3 3 15 15 28 25 18 16 22 16 17 4 -4 -9 0
-19 7 -24 7 -4 10 -4 6 1 -4 4 9 21 29 36 41 33 61 40 23 8 -21 -17 -22 -20
-5 -15 19 6 19 6 1 -9 -10 -8 -22 -12 -26 -10 -4 2 -7 -3 -7 -11 0 -10 4 -11
11 -4 12 12 29 14 22 2 -13 -21 52 -9 79 15 17 14 23 23 14 20 -38 -13 -7 102
38 138 7 6 10 20 7 32 -7 26 -23 22 -19 -5 1 -9 0 -12 -2 -5 -2 7 -12 9 -21 6
-9 -3 -5 4 11 16 15 13 25 26 22 30 -2 5 4 16 15 26 11 10 17 22 14 27 -3 5 2
19 13 31 l18 21 -29 -18 c-16 -10 -26 -13 -22 -8 3 6 2 13 -4 17 -5 3 -10 12
-10 18 0 7 5 4 11 -6 11 -18 11 -18 23 0 7 10 16 31 20 47 l7 29 -35 -26 c-19
-15 -39 -27 -45 -27 -14 0 -14 -12 -1 -28 7 -8 7 -9 -1 -3 -6 5 -18 7 -26 4
-11 -4 -9 -9 7 -20 11 -8 26 -11 33 -7 8 5 7 2 -2 -9 -13 -17 -15 -16 -33 2
-21 23 -46 18 -58 -13 -6 -14 -9 -16 -9 -6 -1 20 68 87 93 92 11 1 18 5 15 8
-2 3 11 21 30 39 38 37 37 51 -1 21 -22 -16 -27 -17 -32 -5 -3 8 0 17 6 21 7
5 8 2 3 -6 -5 -9 -4 -11 3 -6 9 5 9 13 1 27 -10 19 -12 19 -33 6 -17 -11 -23
-12 -23 -3 0 7 5 13 11 14 33 3 50 10 54 22 3 8 0 10 -9 5 -8 -4 1 6 19 23 35
34 45 79 15 68 -16 -6 -17 -5 -2 7 14 10 17 34 18 139 0 116 -1 127 -17 122
-16 -5 -16 -5 1 6 9 6 17 19 17 28 0 15 -2 15 -10 2 -8 -13 -10 -12 -10 3 0 9
5 17 11 17 8 0 8 35 0 69 -1 2 -9 -3 -18 -10 -16 -13 -17 -12 -4 3 7 10 17 15
22 12 13 -8 11 10 -3 25 -10 11 -10 13 0 7 7 -4 12 -2 12 6 0 8 -6 20 -12 27
-10 11 -10 13 0 7 8 -5 12 1 12 18 0 14 -6 26 -12 26 -10 0 -9 3 1 9 9 6 10
11 2 15 -6 4 -8 13 -4 19 14 22 14 57 1 57 -10 0 -10 2 -1 8 9 5 6 12 -10 21
-20 13 -21 13 -9 -2 8 -9 9 -18 4 -21 -12 -7 -26 22 -23 46 1 10 -4 15 -15 14
-20 -3 -32 -26 -14 -26 6 0 8 6 4 13 -4 7 -3 9 2 4 5 -5 9 -12 9 -15 0 -4 4
-13 8 -19 5 -7 5 -13 2 -13 -10 0 -40 32 -41 44 -1 6 -3 13 -4 16 -1 3 -3 15
-4 28 l-3 22 22 -20 c12 -11 27 -20 33 -20 7 0 12 -6 12 -13 0 -7 10 -14 22
-14 16 -2 19 0 9 6 -8 6 -9 11 -3 15 7 4 7 17 2 36 -5 17 -5 30 -1 30 15 0 6
48 -12 60 -12 7 -17 7 -12 1 3 -7 -3 -11 -17 -12 -17 -1 -18 -3 -5 -6 16 -4
25 -33 10 -33 -29 2 -53 52 -56 122 -1 9 -5 14 -9 12 -4 -3 -8 9 -8 26 0 29 2
30 22 19 22 -12 22 -12 5 15 -13 19 -15 31 -8 45 6 11 6 22 1 27 -5 5 -11 19
-13 31 -2 13 -6 26 -10 29 -13 14 -7 29 26 64 29 31 43 58 53 108 1 7 -2 27
-7 44 -10 37 14 76 36 58 16 -14 18 49 2 69 -9 12 -9 13 1 7 8 -5 12 0 12 14
0 13 -4 19 -12 14 -8 -5 -8 -3 -2 7 5 8 9 59 10 114 0 55 -1 92 -4 82 -2 -9
-8 -14 -14 -11 -6 4 -8 -1 -3 -15 7 -22 0 -25 -39 -21 -16 1 -18 -3 -13 -30 4
-19 3 -29 -3 -25 -6 3 -10 14 -11 23 0 14 -2 13 -8 -3 -5 -11 -6 -24 -3 -29 3
-5 0 -6 -7 -2 -6 4 -9 13 -5 19 3 7 -1 4 -9 -5 -10 -13 -16 -15 -25 -6 -7 7
-12 9 -12 4 0 -14 25 -33 40 -29 10 3 8 -1 -4 -11 -26 -21 -46 -20 -46 1 0 9
-3 14 -6 10 -4 -3 -14 2 -23 11 -9 10 -13 13 -10 7 6 -10 8 -45 3 -45 -10 0
-38 79 -35 98 2 16 -1 22 -8 18 -6 -4 -9 -21 -5 -39 4 -23 2 -29 -6 -21 -14
14 -21 54 -9 54 6 0 8 4 5 9 -3 5 2 12 11 16 10 3 19 1 21 -4 2 -7 9 -5 18 4
15 15 44 10 44 -7 0 -6 -7 -4 -17 3 -14 12 -16 12 -11 -1 5 -17 30 -20 35 -4
2 5 -14 30 -34 55 -21 24 -31 39 -23 32 22 -16 45 30 24 48 -8 6 -11 15 -8 20
3 5 0 9 -6 9 -6 0 -8 5 -5 11 4 6 13 8 21 5 7 -3 16 -1 19 4 7 11 -74 9 -92
-3 -6 -4 -14 -3 -18 3 -4 6 -10 8 -15 5 -16 -10 -120 33 -172 70 -36 26 -53
34 -61 26 -8 -8 -7 -11 4 -11 8 0 30 -11 49 -25 32 -23 87 -52 135 -70 25 -10
85 -10 107 -1 12 5 16 3 14 -8 -2 -18 -16 -34 -16 -20 0 11 -40 11 -58 0 -17
-10 -15 -26 3 -26 8 0 15 -5 15 -11 0 -6 -7 -8 -16 -5 -9 3 -20 4 -24 1 -14
-9 19 -61 46 -74 15 -6 24 -14 21 -18 -4 -3 -15 0 -24 8 -16 13 -17 12 -4 -3
10 -14 10 -18 1 -18 -8 0 -10 -8 -7 -21 4 -15 2 -19 -10 -15 -8 3 -21 6 -28 6
-7 0 -37 21 -66 47 -30 26 -48 41 -41 33 17 -20 15 -35 -3 -20 -13 11 -14 10
-9 -4 4 -10 13 -15 20 -12 8 3 14 -1 14 -10 0 -8 -7 -17 -15 -20 -8 -4 -15
-16 -14 -28 0 -13 3 -16 6 -7 3 7 14 22 24 32 18 18 21 18 44 3 14 -9 23 -20
20 -24 -2 -4 6 -5 18 -3 13 3 29 -2 36 -11 11 -13 10 -15 -9 -11 -13 2 -25 7
-28 10 -3 2 -12 -1 -20 -8 -13 -9 -14 -9 -8 1 4 6 2 12 -3 12 -6 0 -11 -7 -11
-16 0 -8 -4 -13 -9 -9 -15 9 -4 -34 13 -51 15 -14 16 -14 16 2 0 16 1 16 16
-2 15 -19 16 -19 9 1 -5 16 -4 18 6 8 10 -10 10 -16 1 -25 -17 -17 -15 -23 6
-25 44 -3 62 -8 62 -16 0 -5 7 -7 14 -4 10 4 13 1 10 -7 -7 -18 24 -42 37 -29
8 8 7 13 -2 18 -8 6 -10 4 -4 -5 6 -9 4 -11 -4 -5 -9 5 -10 10 -2 18 6 6 11
27 11 46 1 55 18 15 21 -47 2 -29 6 -52 11 -52 4 0 8 -4 8 -10 0 -19 -148 -3
-244 26 -11 4 -16 2 -12 -4 3 -5 -4 -9 -17 -8 -13 1 -21 -4 -19 -12 1 -8 -2
-11 -8 -7 -8 5 -7 12 2 22 11 14 10 15 -12 8 -24 -7 -24 -6 -8 11 17 17 18 17
33 -1 8 -11 15 -17 16 -12 5 24 4 33 -4 44 -5 7 -14 10 -21 6 -6 -3 -8 -2 -3
2 4 5 1 15 -7 24 -16 19 -42 92 -52 146 -6 37 -8 38 -14 15 l-8 -25 -1 28 c-1
15 3 27 9 27 6 0 6 9 1 23 -5 13 -6 30 -1 37 9 15 -33 109 -73 161 -27 36 -34
59 -18 59 5 0 15 10 23 22 11 17 13 39 8 88 -4 36 -3 70 2 76 4 6 5 25 2 41
-6 30 42 183 57 183 4 0 5 -9 2 -20 -4 -15 0 -20 16 -20 14 0 20 4 15 12 -4 7
-3 8 5 4 7 -4 20 2 31 16 11 13 19 17 20 11 0 -7 5 -13 11 -13 5 0 8 4 4 9 -3
5 1 16 9 24 8 8 12 18 8 22 -4 5 -2 5 5 1 6 -3 16 2 22 11 6 10 11 14 11 10 0
-4 -7 -20 -16 -35 l-16 -27 21 24 c12 13 21 28 21 35 0 6 11 12 25 12 13 1 23
-3 22 -10 -2 -12 35 -9 43 4 5 8 50 -5 50 -15 0 -4 -5 -3 -11 1 -7 4 -10 1 -7
-7 3 -8 10 -14 16 -14 5 0 14 -4 19 -9 5 -5 3 -6 -4 -2 -15 8 -18 -31 -4 -52
11 -18 36 12 25 30 -4 7 3 3 15 -10 22 -22 47 -21 38 2 -3 7 0 22 7 34 10 20
11 18 11 -17 0 -22 -4 -39 -9 -38 -16 3 -17 -20 -1 -36 8 -9 15 -21 15 -27 0
-6 5 -8 13 -4 9 6 9 5 0 -7 -6 -8 -13 -28 -16 -44 -6 -45 -17 -65 -37 -65 -13
0 -16 6 -13 25 5 21 2 24 -17 20 -19 -4 -21 -1 -15 18 18 61 18 62 5 50 -19
-17 -23 -72 -7 -79 14 -5 19 -34 7 -34 -3 0 -6 -11 -6 -25 0 -19 3 -22 13 -13
16 13 17 22 1 12 -7 -5 -8 -3 -4 5 5 7 10 10 13 7 3 -2 15 -1 28 4 25 9 52
-10 41 -29 -4 -5 0 -16 8 -24 18 -18 12 -27 -15 -20 -16 5 -19 11 -14 33 5 23
3 27 -17 25 -13 -1 -24 -9 -26 -18 -3 -15 -14 -21 -33 -19 -3 1 -4 -10 -1 -24
3 -18 7 -22 13 -13 4 7 5 17 2 23 -3 5 -1 6 6 2 9 -6 9 -13 -3 -30 -9 -14 -12
-36 -9 -59 4 -31 2 -37 -13 -37 -16 0 -16 -1 1 -14 21 -15 40 -12 29 5 -3 5 0
8 8 7 7 -2 12 3 10 11 -3 12 0 12 13 1 14 -11 14 -14 -2 -27 -10 -8 -12 -11
-4 -7 9 5 12 3 7 -4 -4 -7 -15 -12 -24 -13 -14 0 -13 -2 3 -9 14 -6 16 -9 5
-10 -8 -2 -19 -2 -23 -1 -5 1 -6 -3 -2 -9 3 -6 10 -8 14 -5 5 2 6 -7 3 -22 -5
-26 -4 -26 44 -21 27 3 40 4 30 1 -15 -4 -16 -7 -5 -13 7 -5 20 -5 29 0 9 5
22 5 30 0 18 -11 22 -40 5 -34 -17 7 -14 -18 4 -40 10 -11 10 -16 2 -16 -7 0
-9 -4 -6 -10 3 -5 10 -10 14 -10 12 0 9 34 -3 42 -7 5 -7 8 -1 8 6 0 12 12 13
28 1 21 -5 31 -29 45 -24 13 -29 20 -20 30 8 10 7 17 -2 27 -10 12 -9 12 4 2
9 -6 19 -9 23 -5 4 4 11 1 15 -6 6 -9 9 -5 9 13 0 22 -3 24 -19 15 -24 -12
-24 -6 -1 17 15 16 17 40 17 213 -1 108 -4 207 -9 220 -4 13 -4 21 0 18 7 -4
10 232 3 253 -1 3 -1 8 0 13 0 4 -3 7 -9 7 -5 0 -10 4 -10 10 0 5 8 7 18 3 15
-6 15 -4 -2 15 -17 20 -17 22 -2 28 21 8 21 34 -1 34 -15 0 -15 1 2 13 12 10
14 16 7 21 -7 4 -12 12 -12 17 0 6 4 8 8 5 11 -7 8 31 -3 41 -4 5 -5 2 -1 -4
4 -7 3 -13 -3 -13 -5 0 -8 -11 -6 -25 1 -17 -3 -25 -13 -25 -8 0 -20 -6 -26
-13 -6 -7 -10 -11 -9 -9 5 11 -39 41 -52 36 -11 -5 -15 1 -15 20 0 16 -6 26
-15 26 -11 0 -12 5 -6 23 5 13 5 30 1 37 -5 8 -6 18 -3 22 2 5 -1 15 -7 23 -7
8 -9 15 -4 15 5 0 9 11 9 24 0 13 -3 22 -6 20 -4 -2 -12 3 -19 11 -11 13 -10
14 4 9 16 -6 20 3 16 41 -3 34 -18 41 -40 19 -25 -24 -34 -64 -16 -64 13 0 46
-31 46 -43 0 -11 -28 -8 -32 4 -2 6 -4 -15 -4 -48 l-1 -58 13 40 c12 40 16 36
16 -17 1 -16 5 -28 10 -28 5 0 2 -10 -6 -22 -9 -12 -16 -33 -16 -45 0 -13 -4
-23 -8 -23 -5 0 -15 -12 -22 -27 l-13 -28 -18 40 c-15 34 -24 40 -20 13 0 -4
-6 -5 -14 -2 -8 4 -12 11 -8 17 3 6 1 7 -5 3 -6 -4 -21 -2 -33 5 -12 6 -19 7
-15 1 3 -5 19 -15 35 -22 20 -8 32 -21 36 -41 4 -16 11 -31 16 -34 5 -4 9 -26
9 -49 0 -39 -3 -45 -29 -56 -33 -13 -79 -56 -48 -44 20 7 23 -15 5 -35 -11
-11 -10 -13 3 -8 12 4 16 -2 17 -22 0 -20 -5 -27 -19 -28 -17 -2 -24 13 -20
39 1 10 -66 21 -79 13 -9 -6 -9 -10 1 -16 11 -7 11 -9 2 -10 -7 -1 -19 -2 -25
-3 -7 -1 -12 -10 -10 -20 2 -12 -1 -16 -10 -13 -7 2 -11 11 -8 18 3 8 5 50 6
94 1 120 1 120 39 165 55 65 69 158 30 190 -12 10 -16 8 -24 -11 -5 -13 -23
-44 -41 -68 l-32 -44 -31 48 c-36 55 -41 100 -19 185 13 52 20 394 10 460 -3
14 -8 48 -12 75 -19 123 -105 345 -133 345 -7 0 -13 6 -13 14 0 7 -8 20 -17
27 -15 11 -16 11 -5 -1 6 -8 12 -23 12 -33 0 -10 9 -21 19 -24 11 -3 26 -24
37 -51 9 -26 21 -49 25 -52 8 -5 17 -48 24 -107 1 -12 9 -29 19 -38 14 -14 22
-70 17 -112 -1 -7 2 -13 6 -13 4 0 7 -21 7 -47 -1 -27 3 -53 8 -59 6 -8 0 -14
-17 -18 -34 -9 -34 -51 1 -83 21 -20 24 -29 18 -56 -4 -17 -6 -51 -5 -74 2
-40 -21 -113 -35 -113 -3 0 -3 7 0 15 3 9 -1 18 -9 21 -8 4 -13 9 -10 13 10
17 16 76 6 66 -5 -5 -11 -23 -13 -40 -2 -19 -9 -31 -21 -33 -14 -3 -17 3 -14
37 2 29 0 38 -7 31 -6 -6 -11 -23 -12 -38 -1 -15 -3 -30 -3 -34 -1 -5 -10 -8
-21 -8 -18 0 -20 4 -14 35 4 23 2 35 -5 35 -11 0 -15 -20 -12 -49 2 -8 -2 -10
-11 -5 -10 6 -10 4 1 -9 12 -15 11 -17 -3 -17 -26 0 -56 19 -56 35 0 8 -6 15
-14 15 -16 0 -29 -27 -20 -41 3 -5 0 -9 -5 -9 -10 0 -16 22 -12 44 1 5 -5 4
-13 -4 -18 -14 -20 -38 -6 -60 8 -11 9 -7 4 14 l-7 29 23 -23 c13 -13 19 -25
13 -27 -5 -2 -19 -10 -29 -17 -17 -13 -20 -11 -31 12 -12 26 -12 26 -6 2 4
-14 8 -50 8 -82 0 -48 2 -55 15 -45 8 7 19 18 23 25 5 7 14 9 20 5 16 -10 69
-4 85 9 7 6 12 7 12 1 0 -5 7 -10 15 -10 8 0 15 5 15 11 0 7 3 7 8 1 4 -5 22
-18 40 -27 32 -17 32 -17 32 7 0 13 4 26 9 29 9 6 -2 -64 -14 -83 -4 -8 -2
-17 5 -21 8 -5 14 -31 15 -62 2 -39 6 -52 16 -50 8 1 6 -4 -5 -13 -18 -14 -21
-12 -37 24 -9 21 -22 42 -28 45 -6 4 -3 -8 8 -26 10 -19 17 -49 16 -70 -2 -40
11 -53 17 -16 2 11 10 22 19 24 12 1 15 -4 12 -17 -3 -10 -9 -16 -14 -13 -5 3
-6 -2 -3 -11 4 -9 3 -15 -2 -14 -20 3 -28 -2 -15 -10 10 -6 2 -13 -28 -27 -22
-10 -41 -24 -41 -32 0 -7 5 -10 10 -7 6 3 10 0 10 -8 0 -8 -6 -15 -12 -14 -7
0 -24 -1 -38 -2 l-25 -1 24 -13 c42 -21 37 -37 -11 -36 -23 0 -38 3 -31 5 16
7 -2 56 -28 80 -18 17 -20 16 -43 -5 -13 -12 -26 -19 -28 -14 -3 4 -4 3 -2 -3
1 -6 -2 -16 -7 -21 -6 -6 -4 -10 6 -10 8 0 15 6 15 12 0 7 9 20 21 31 21 19
21 18 39 -4 10 -12 16 -31 13 -42 -7 -25 -19 -26 -25 -2 -3 10 -12 19 -21 19
-9 0 -14 -4 -11 -9 3 -5 10 -6 15 -3 14 9 10 -7 -6 -29 -8 -11 -15 -25 -15
-30 1 -6 7 0 16 14 l15 25 -7 -25 c-15 -57 -25 -75 -33 -61 -16 25 -3 -83 19
-171 17 -68 20 -90 10 -105 -10 -16 -11 -16 -6 0 3 9 1 17 -4 17 -6 0 -11 -7
-11 -15 -1 -8 -2 -20 -3 -27 -1 -14 -26 -23 -26 -9 0 5 4 12 10 16 5 3 7 12 4
19 -3 7 2 16 10 19 9 4 16 11 16 17 0 6 -4 8 -10 5 -5 -3 -10 0 -11 7 0 7 -5
4 -10 -7 -8 -17 -9 -15 -5 10 2 18 -3 39 -13 55 -10 14 -21 41 -24 60 -7 43
-26 95 -33 88 -2 -3 2 -25 10 -49 21 -68 28 -101 18 -95 -6 3 -15 -1 -22 -9
-7 -8 -17 -15 -23 -15 -6 0 -2 6 9 14 17 13 17 15 2 21 -9 4 -14 12 -12 20 3
7 -7 17 -26 23 -18 7 -28 7 -25 2 4 -6 13 -10 21 -10 8 0 14 -8 14 -17 0 -15
-2 -16 -10 -3 -5 8 -10 12 -10 7 0 -15 -50 26 -50 42 0 14 -2 14 -10 1 -7 -11
-12 -12 -21 -3 -6 6 -18 9 -25 6 -8 -3 -14 0 -14 6 0 6 -3 10 -7 10 -21 -3
-32 3 -38 20 -4 12 -12 18 -21 14 -17 -6 -18 8 -1 26 10 11 9 13 -5 8 -23 -8
-23 5 2 82 23 74 84 193 111 217 18 16 18 18 1 30 -16 12 -15 13 5 9 20 -3 40
10 42 28 1 4 1 8 2 10 7 23 4 37 -8 41 -19 8 -33 -1 -33 -21 0 -10 -6 -13 -16
-9 -9 4 -13 2 -8 -5 8 -13 -16 -60 -27 -53 -5 3 -6 -1 -3 -9 4 -10 -3 -14 -23
-13 -19 0 -27 -4 -25 -14 3 -11 0 -11 -12 0 -18 14 -22 50 -6 50 7 0 8 6 1 17
-7 14 1 28 41 69 28 29 56 51 62 50 6 -2 7 -1 3 2 -12 6 34 52 52 52 14 0 14
-1 1 -10 -8 -5 -10 -10 -4 -10 7 0 30 19 53 43 41 41 42 41 37 14 -3 -16 -1
-25 5 -22 5 4 7 10 4 15 -3 5 -1 11 5 15 6 4 6 10 -1 18 -9 9 -19 5 -44 -20
-32 -32 -77 -47 -59 -20 5 7 2 5 -8 -5 -20 -23 -28 -23 -28 0 -1 16 -1 16 -11
-1 -6 -9 -16 -14 -22 -11 -7 4 -9 3 -4 -1 4 -5 -3 -20 -15 -34 l-23 -26 25 21
c14 12 32 25 40 29 18 10 -83 -100 -123 -133 l-27 -24 4 24 c3 13 5 23 6 23 1
0 3 8 5 18 2 11 -2 16 -8 14 -18 -6 -17 -117 1 -117 10 0 12 -8 7 -30 -6 -25
-4 -29 10 -23 15 5 16 3 6 -14 -8 -17 -7 -22 5 -27 10 -4 13 -2 8 6 -5 7 -3 8
6 3 10 -6 12 -4 6 11 -6 15 -5 17 5 7 18 -18 36 -16 36 2 0 9 -6 14 -14 11 -7
-3 -13 0 -13 5 0 6 9 9 20 6 13 -3 25 2 35 16 8 11 17 18 21 14 4 -3 -5 -20
-20 -37 -14 -17 -26 -35 -26 -40 0 -4 -9 -6 -20 -3 -11 3 -20 0 -20 -6 0 -6 6
-11 13 -11 8 0 7 -4 -3 -10 -12 -8 -12 -10 -1 -10 11 0 11 -3 0 -16 -8 -10
-15 -12 -17 -5 -2 7 -8 7 -17 -2 -8 -8 -10 -19 -4 -34 6 -15 5 -23 -2 -23 -7
0 -6 -6 2 -17 12 -15 12 -16 -4 -10 -10 4 -24 7 -30 7 -7 0 -4 5 6 11 9 5 17
15 17 21 0 9 -3 9 -12 0 -9 -9 -16 -8 -29 4 -16 15 -17 14 -13 -8 2 -12 2 -17
-2 -10 -3 6 -10 10 -14 7 -5 -3 -12 0 -16 6 -4 8 -3 9 4 5 14 -9 8 50 -7 68
-8 10 -6 18 9 31 11 10 17 22 14 26 -3 5 2 6 10 3 21 -8 20 -21 -1 -33 -17
-10 -17 -10 0 -11 9 0 18 -4 18 -10 3 -20 4 -25 12 -37 4 -6 1 -13 -5 -16 -7
-2 -10 -7 -7 -11 15 -16 36 6 31 31 -4 21 -2 25 11 20 8 -3 21 1 28 9 10 13 8
14 -13 10 -45 -8 -51 5 -57 123 -3 61 -2 126 2 143 5 18 7 54 5 80 -2 26 0 48
4 48 4 0 5 15 3 33 -5 26 -4 28 5 12 8 -16 9 -13 4 14 -5 26 -3 32 7 26 8 -6
11 -4 7 7 -3 8 0 38 7 66 8 28 16 79 19 114 4 35 9 80 12 100 6 39 -17 90 -30
69 -5 -7 -11 -7 -20 2 -8 6 -11 16 -9 21 3 5 7 18 8 30 7 64 7 62 14 36 4 -14
5 -27 2 -30 -3 -3 -7 -13 -9 -22 -2 -12 4 -18 17 -18 11 0 21 -6 24 -12 3 -7
5 10 6 37 1 51 3 68 14 95 26 65 33 158 12 166 -8 4 -15 13 -15 20 0 8 -11 19
-25 24 -16 6 -34 28 -50 62 -14 29 -44 74 -67 100 -34 38 -46 46 -58 37z
m-135 -1479 c12 -3 35 -12 99 -39 26 -12 53 -18 59 -14 6 3 7 1 3 -5 -4 -7 -5
-12 -2 -12 2 0 12 -3 22 -7 14 -5 16 -2 11 16 -4 17 -2 21 10 17 8 -3 20 -6
27 -6 7 0 13 -7 13 -15 0 -10 -4 -12 -12 -5 -7 5 -15 7 -18 3 -13 -12 -7 -23
11 -23 21 0 64 -29 44 -30 -7 0 -11 -4 -8 -9 4 -5 -3 -7 -14 -4 -11 3 -27 0
-35 -7 -8 -7 -15 -9 -15 -4 0 5 -15 -15 -33 -45 -38 -64 -62 -79 -55 -35 3 16
9 37 13 47 5 11 3 17 -6 17 -16 0 -69 39 -54 40 6 0 24 -9 42 -20 l32 -19 18
29 c20 35 28 37 42 13 6 -10 11 -13 11 -7 0 6 12 10 28 7 20 -3 15 2 -18 16
-52 23 -74 26 -64 9 4 -7 3 -8 -5 -4 -6 4 -9 11 -6 16 5 8 -97 54 -237 106
-43 16 -78 32 -78 35 0 4 37 -7 83 -25 45 -18 87 -34 92 -36z m-17 -43 c6 0 9
-3 6 -6 -3 -3 -24 -6 -47 -6 -23 0 -43 -4 -45 -10 -3 -13 50 -15 67 -1 12 9
13 8 8 -6 -3 -10 -4 -24 -1 -32 8 -21 55 -5 65 22 10 27 -6 29 -33 5 -10 -9
-18 -11 -18 -6 0 6 11 18 24 26 25 17 44 7 40 -20 -1 -7 -2 -20 -3 -28 0 -9
-11 -15 -25 -15 -43 0 -57 -9 -44 -30 6 -10 18 -16 25 -13 8 3 13 -2 13 -12 0
-13 -6 -16 -24 -11 -28 7 -58 -2 -50 -15 8 -14 -26 -23 -39 -10 -8 8 -8 11 2
11 7 0 9 5 6 10 -4 6 -11 7 -17 4 -8 -5 -9 -1 -5 9 4 10 10 24 14 34 4 11 3
14 -5 9 -17 -10 -49 10 -55 36 -6 21 -4 21 14 -4 12 -16 25 -28 31 -28 6 0 3
10 -8 23 -10 12 -4 9 14 -8 26 -24 32 -26 26 -10 -7 18 -6 19 10 6 9 -8 15
-20 12 -28 -3 -8 -2 -11 3 -8 6 3 9 17 8 32 -2 19 -9 27 -27 30 -46 7 -80 26
-69 40 6 6 17 9 25 6 8 -3 14 0 14 6 0 8 12 10 38 5 20 -4 43 -7 50 -7z m748
-51 c3 -14 3 -29 0 -34 -3 -6 7 -15 23 -20 35 -12 56 -53 56 -109 0 -23 3 -39
7 -36 5 2 6 8 3 13 -3 5 -1 11 5 15 14 9 12 -21 -2 -37 -16 -17 -23 -52 -9
-43 6 3 11 2 11 -2 0 -14 -113 -32 -127 -20 -15 11 -17 31 -3 22 6 -3 10 -1
10 4 0 6 -7 11 -15 11 -8 0 -15 5 -15 11 0 5 4 7 10 4 6 -4 8 10 6 35 -4 34
-1 40 15 40 16 0 18 -3 9 -19 -13 -25 -13 -41 1 -18 15 25 19 57 8 57 -5 0 -9
4 -9 10 0 5 6 7 13 4 19 -7 42 22 26 32 -8 5 -9 3 -4 -6 5 -9 4 -11 -4 -6 -6
4 -9 11 -6 16 3 4 -2 14 -11 21 -10 8 -13 21 -9 36 3 13 1 23 -5 23 -5 0 -10
-5 -10 -12 0 -6 -2 -9 -5 -6 -8 7 5 38 16 38 5 0 11 -11 15 -24z m-882 -61
c-7 -18 -44 -40 -59 -37 -5 1 1 -7 15 -19 24 -20 24 -20 3 -16 -25 5 -36 -13
-21 -34 8 -11 9 -10 4 4 -4 12 0 17 14 17 15 0 20 -7 20 -26 0 -20 -4 -25 -16
-20 -11 4 -18 -1 -21 -15 -3 -12 -11 -18 -19 -15 -8 3 -14 1 -14 -4 0 -6 -9
-6 -25 0 -14 5 -26 7 -26 5 -4 -15 -7 -26 -8 -33 -2 -16 -39 -8 -38 9 1 9 7
15 13 12 8 -3 12 3 11 16 -1 12 -6 21 -12 21 -5 0 -3 4 5 10 9 5 19 5 27 -2 8
-6 17 -8 20 -4 4 4 1 11 -6 15 -7 5 -11 13 -7 19 3 5 -6 10 -20 10 -14 0 -31
5 -37 11 -9 10 -6 10 16 2 36 -14 35 -5 -3 14 -18 9 -30 11 -30 5 0 -13 -55
14 -66 32 -5 7 5 5 20 -6 23 -14 33 -16 52 -7 18 8 27 7 38 -4 17 -18 50 -9
42 11 -6 17 8 18 35 4 15 -9 27 -5 56 15 44 29 44 29 37 10z m-413 -65 c22
-41 35 -57 43 -51 52 43 151 73 130 40 -4 -7 -3 -9 4 -5 12 7 62 -13 62 -26 0
-4 -5 -7 -11 -5 -16 3 -23 -91 -9 -109 7 -7 16 -12 20 -9 5 3 11 1 15 -5 7
-12 -35 -30 -50 -22 -5 3 -7 2 -3 -3 4 -4 0 -14 -10 -22 -16 -14 -16 -14 3 -7
11 4 28 7 37 8 9 0 14 4 11 9 -2 4 6 5 19 2 14 -4 31 0 43 10 11 8 16 15 10
14 -23 -3 -29 2 -15 12 13 9 13 10 0 6 -8 -2 -14 -9 -13 -15 1 -5 -3 -12 -10
-15 -7 -3 -13 5 -13 19 -1 16 7 27 29 38 17 8 35 12 39 10 4 -3 8 -1 8 3 0 5
10 9 23 10 20 2 20 1 -6 -15 -15 -9 -25 -22 -22 -29 2 -7 0 -13 -5 -13 -5 0
-7 -9 -5 -19 4 -23 -13 -40 -38 -36 -9 2 -15 -1 -11 -6 3 -5 9 -7 14 -4 5 3
12 0 16 -6 4 -6 -1 -16 -10 -21 -9 -5 -16 -17 -16 -27 0 -21 -23 -44 -33 -34
-4 3 -1 13 6 21 10 13 9 14 -1 8 -7 -4 -19 -2 -27 4 -8 7 -15 9 -15 5 0 -4 52
-63 116 -131 108 -116 117 -122 140 -112 13 6 24 15 24 20 0 5 13 14 30 19 16
6 28 14 26 18 -3 3 4 18 14 31 19 25 19 25 17 3 -1 -13 -5 -23 -9 -23 -19 0
-5 -19 22 -30 16 -7 27 -16 24 -21 -3 -5 -13 -2 -22 7 -11 12 -17 13 -20 5 -6
-17 30 -42 43 -30 5 5 13 9 19 9 5 0 1 -7 -10 -16 -18 -14 -18 -15 6 -9 20 5
22 4 9 -4 -12 -8 -25 -7 -45 4 -16 8 -41 15 -56 15 -29 0 -71 -33 -60 -46 4
-4 1 -4 -6 0 -7 4 -9 12 -6 18 5 7 2 8 -6 3 -9 -6 -11 -4 -5 5 5 8 4 11 -3 7
-11 -7 -292 278 -292 297 0 6 4 6 12 -2 8 -8 17 -8 30 -1 10 5 24 6 31 2 21
-13 36 -12 30 4 -5 12 -7 12 -14 2 -6 -11 -9 -10 -14 4 -6 13 -11 15 -28 6
-17 -9 -23 -8 -33 7 -7 11 -18 24 -24 31 -13 16 -2 22 38 19 19 -1 31 2 29 8
-2 6 -11 10 -21 8 -9 -2 -16 3 -16 9 0 7 -11 2 -25 -11 -14 -13 -25 -20 -25
-15 0 5 -3 5 -7 2 -3 -4 4 -18 17 -32 13 -14 21 -27 18 -31 -3 -3 -21 15 -39
41 -18 25 -35 42 -38 38 -3 -5 -15 -10 -26 -11 -11 -2 -32 -19 -48 -38 -16
-19 -35 -34 -41 -34 -6 0 -28 -21 -49 -46 -31 -39 -35 -49 -25 -62 11 -13 11
-14 -1 -7 -11 6 -13 1 -9 -24 2 -17 1 -31 -3 -31 -11 0 -17 48 -7 58 5 5 3 14
-6 21 -13 11 -15 9 -11 -18 3 -27 1 -30 -14 -22 -28 15 -44 38 -31 46 11 7 4
25 -10 25 -5 0 -7 -7 -4 -15 4 -8 1 -15 -5 -15 -7 0 -11 15 -9 40 2 34 9 46
48 79 101 85 181 142 192 135 13 -8 12 -7 -30 74 -18 34 -30 62 -28 62 3 0 19
-27 37 -60z m874 -17 c17 -1 23 2 19 10 -3 7 1 4 9 -5 8 -10 16 -15 19 -13 3
3 11 -3 19 -12 12 -16 12 -17 -2 -6 -9 7 -18 10 -22 7 -3 -3 -16 0 -29 6 -22
11 -22 11 2 -10 14 -11 37 -23 53 -26 15 -4 27 -13 28 -23 0 -9 3 -11 5 -5 6
14 94 -30 107 -52 4 -8 13 -14 18 -14 6 0 7 5 3 11 -4 8 0 8 15 0 24 -13 45
-6 35 12 -5 8 -2 8 7 -1 11 -10 9 -15 -9 -28 -12 -8 -20 -20 -17 -25 4 -5 2
-9 -4 -9 -5 0 -13 5 -16 10 -3 6 -13 10 -21 10 -11 0 -12 -4 -4 -19 5 -11 10
-22 10 -24 0 -2 -47 -7 -105 -11 l-106 -7 -50 42 c-50 42 -51 43 -44 86 3 24
13 55 21 71 7 15 14 34 14 42 0 13 1 13 10 0 5 -8 21 -16 35 -17z m-1221 -215
c5 -4 -4 -6 -20 -4 -31 3 -54 -9 -54 -27 0 -7 4 -7 12 1 17 17 49 15 78 -5 14
-10 30 -18 37 -19 30 -5 157 -119 148 -134 -3 -5 0 -7 7 -5 8 3 35 -16 61 -42
26 -25 47 -41 47 -34 0 7 5 9 10 6 13 -8 -5 -43 -34 -68 -11 -10 -15 -16 -8
-12 6 3 12 3 12 -1 0 -5 -31 -102 -36 -112 -1 -2 -20 9 -42 25 -40 28 -58 58
-41 69 5 3 9 10 9 15 0 6 -4 8 -9 4 -5 -3 -16 4 -24 15 -7 11 -16 18 -19 15
-3 -3 -27 14 -54 38 -27 23 -64 55 -83 71 -35 28 -35 28 -43 6 -10 -27 -30
-16 -26 14 2 15 -9 32 -32 53 -30 27 -33 33 -21 47 10 12 11 20 4 27 -13 13
-37 -23 -25 -37 4 -5 0 -3 -8 4 -22 19 -35 14 -17 -6 10 -10 14 -22 10 -25
-13 -14 -21 -6 -28 26 -5 21 -9 26 -12 15 -2 -9 1 -26 7 -37 7 -14 7 -21 1
-21 -6 0 -8 -8 -5 -17 5 -15 4 -15 -4 -3 -6 8 -8 18 -5 22 8 14 -17 37 -33 31
-7 -3 -11 -9 -8 -14 3 -5 8 -7 12 -5 4 2 8 -14 8 -36 2 -41 33 -83 56 -76 14
5 19 58 5 58 -5 0 -7 -7 -4 -15 4 -8 2 -17 -4 -20 -5 -4 -8 -1 -7 7 2 7 -3 12
-10 10 -9 -2 -9 4 3 21 8 13 12 27 8 30 -3 4 -2 7 3 7 6 0 23 -13 39 -30 31
-33 45 -38 45 -16 0 8 -8 13 -17 12 -12 -1 -17 6 -16 17 0 12 -4 16 -13 13 -7
-3 -16 -1 -19 3 -10 18 25 19 37 2 7 -10 18 -20 23 -22 6 -2 10 -15 10 -28 1
-13 10 -31 21 -40 17 -14 19 -22 11 -64 -7 -45 11 -159 29 -176 3 -4 14 4 24
17 19 23 40 29 40 12 0 -5 -7 -10 -15 -10 -8 0 -15 -7 -15 -15 0 -8 -7 -15
-15 -15 -19 0 -19 -1 7 -55 15 -30 25 -41 30 -32 11 18 10 29 -4 21 -7 -4 -8
-3 -4 5 6 9 11 9 22 0 16 -13 19 -33 4 -24 -5 3 -10 4 -10 1 0 -2 -3 -12 -7
-21 -5 -15 -3 -16 18 -6 22 11 22 11 6 -2 -16 -14 -14 -20 33 -96 28 -44 45
-81 40 -81 -6 0 -8 -5 -4 -12 4 -7 3 -8 -5 -4 -6 4 -9 12 -5 17 3 6 -2 20 -12
32 -20 23 -29 39 -75 121 -25 46 -28 47 -38 27 -7 -11 -9 -21 -6 -21 4 0 3 -5
-1 -11 -4 -8 -9 -7 -15 2 -11 18 -11 32 0 25 12 -8 18 11 13 45 -2 15 -14 32
-25 38 -13 7 -15 10 -4 7 16 -5 16 -3 2 22 -30 55 -53 78 -66 65 -10 -10 -17
-6 -32 20 -24 39 -29 94 -10 101 7 3 13 16 13 29 0 13 5 28 12 35 8 8 8 12 1
12 -6 0 -16 -7 -23 -15 -7 -8 -19 -15 -27 -15 -18 0 -58 48 -58 70 -1 8 -9 30
-19 49 -10 18 -13 30 -7 27 6 -4 11 0 11 11 0 10 4 14 8 8 4 -5 13 -11 21 -13
12 -3 12 0 1 12 -9 12 -9 16 -1 16 7 0 9 5 6 10 -3 6 -11 10 -16 10 -6 0 -7
-4 -4 -10 3 -5 0 -10 -7 -10 -8 0 -14 9 -14 20 0 22 16 22 65 -3 32 -16 35
-16 46 0 10 14 16 15 27 5 8 -6 18 -9 21 -5 9 8 8 -7 -2 -32 -9 -21 4 -38 54
-72 42 -28 65 -35 59 -18 -3 8 -11 13 -17 11 -7 -1 -9 -1 -4 1 4 3 7 13 7 23
0 10 5 22 10 25 6 3 9 16 9 28 -1 17 -2 18 -6 5 -2 -10 -9 -18 -14 -18 -6 0
-7 -4 -4 -10 3 -6 -4 -10 -17 -10 l-22 0 22 16 c24 17 29 39 10 48 -7 3 -2 3
12 -1 22 -5 23 -4 11 11 -15 18 -59 15 -73 -6 -4 -7 -8 -26 -8 -43 -1 -29 -2
-29 -11 -6 -6 16 -6 28 2 38 9 11 8 17 -7 28 -10 8 -26 12 -34 9 -8 -3 -5 5 8
19 12 13 19 27 15 32 -5 4 -2 5 5 0 10 -5 11 -10 3 -18 -16 -16 -13 -26 7 -23
17 3 28 46 11 46 -5 0 -6 7 -2 16 5 13 11 10 37 -13 17 -15 35 -31 40 -35z
m1699 16 c-3 -8 -15 -14 -27 -15 -20 0 -20 -1 -1 -9 28 -12 88 -12 80 0 -3 6
2 10 12 10 11 0 24 5 30 11 9 9 11 7 6 -9 -3 -14 -11 -19 -21 -15 -16 4 -16 4
0 -9 14 -12 7 -13 -50 -10 -45 2 -62 0 -53 -6 8 -6 24 -9 37 -7 20 2 22 -2 19
-37 -1 -25 1 -35 6 -26 6 9 9 2 9 -19 0 -25 -4 -31 -15 -27 -9 4 -15 0 -15
-10 0 -9 8 -16 20 -16 11 0 20 -4 20 -9 0 -7 -25 -8 -51 -2 -3 0 -4 14 -1 31
5 34 -5 80 -17 80 -4 0 -6 -11 -3 -25 2 -15 0 -25 -7 -25 -6 0 -10 -3 -10 -7
4 -25 -4 -24 -15 3 -16 35 -66 54 -66 25 0 -14 -2 -14 -10 -1 -5 8 -10 23 -10
34 0 14 3 16 13 7 14 -11 27 -5 27 13 0 6 -4 5 -9 -3 -6 -10 -9 -2 -8 22 1 25
4 34 11 27 5 -5 17 -10 26 -9 10 0 11 2 3 6 -22 8 -14 29 15 39 34 13 62 7 55
-12z m-163 -17 c0 -2 -38 -32 -85 -67 -60 -44 -82 -66 -73 -72 10 -6 10 -8 1
-8 -7 0 -13 -5 -13 -12 0 -9 3 -9 13 1 6 6 12 16 12 20 0 8 66 61 117 95 32
21 56 12 51 -17 -5 -24 24 -103 34 -93 3 3 12 1 20 -5 8 -8 13 -8 13 -1 0 6
-6 12 -12 15 -10 3 -10 7 -1 17 9 10 16 3 31 -31 23 -49 21 -60 -5 -37 -32 27
-49 33 -29 10 20 -23 83 -45 99 -35 6 4 7 1 2 -6 -4 -7 -17 -10 -30 -7 -13 3
-27 2 -30 -4 -4 -7 -13 -7 -26 0 -11 6 -16 16 -13 22 5 8 1 9 -10 5 -10 -4
-23 -7 -29 -7 -6 0 0 -12 14 -26 l24 -26 -70 6 c-38 4 -90 8 -115 11 l-45 4
40 -10 c22 -6 75 -13 118 -16 60 -4 77 -8 77 -20 0 -13 -3 -13 -17 -2 -10 7
-5 -1 12 -19 25 -28 27 -34 15 -42 -20 -13 -27 -12 -35 1 -4 6 -13 8 -21 5 -8
-3 -14 -1 -14 4 0 6 6 10 13 10 8 0 7 4 -3 10 -13 9 -13 10 0 10 13 0 13 2 0
9 -20 14 -29 5 -26 -27 2 -21 9 -28 30 -30 14 -2 26 -9 26 -16 0 -7 6 -20 13
-30 12 -16 13 -15 11 13 -2 27 0 30 17 20 10 -5 19 -15 18 -22 0 -9 -2 -9 -6
1 -9 23 -25 12 -19 -13 4 -15 2 -25 -4 -25 -6 0 -8 -4 -5 -10 10 -16 -11 -12
-25 5 -7 8 -9 15 -5 15 4 0 -3 9 -16 19 -29 23 -35 20 -19 -9 9 -17 9 -25 0
-34 -8 -8 -10 -7 -5 4 3 9 -4 26 -16 39 -17 18 -19 25 -8 31 10 7 6 12 -14 19
-21 8 -27 17 -25 33 2 11 -2 23 -8 25 -7 2 -10 -6 -7 -22 4 -18 1 -25 -10 -25
-12 0 -13 7 -7 35 7 31 6 35 -12 35 -14 0 -18 -5 -15 -15 4 -8 2 -17 -4 -20
-5 -4 -7 -11 -4 -16 4 -5 -3 -9 -14 -9 -17 0 -21 6 -21 29 0 17 -4 32 -9 36
-6 3 -7 -9 -4 -31 5 -28 3 -35 -6 -29 -7 4 -36 9 -65 11 -28 2 -45 1 -38 -2
19 -9 14 -24 -5 -18 -11 4 -14 2 -8 -3 13 -10 17 -53 6 -53 -5 0 -11 -9 -14
-21 -4 -13 -10 -18 -17 -14 -8 5 -9 10 -2 14 6 3 14 19 18 35 5 21 4 27 -5 22
-6 -4 -11 -14 -11 -22 0 -8 -5 -14 -11 -14 -5 0 -7 -4 -4 -10 10 -16 -21 -11
-35 6 -11 12 -10 18 4 32 17 16 18 16 11 -7 -5 -17 -4 -22 6 -19 8 3 13 12 13
21 -1 9 2 14 7 11 12 -7 11 3 -1 27 -15 26 -23 24 -39 -12 -11 -26 -17 -30
-40 -24 -21 5 -19 1 16 -24 24 -17 47 -31 53 -31 5 0 10 -4 10 -9 0 -5 8 -12
17 -15 10 -4 14 -4 10 0 -3 4 2 19 13 34 11 16 20 38 20 49 0 12 5 21 11 21 5
0 7 5 4 10 -3 6 -1 10 5 10 7 0 9 -8 5 -20 -7 -23 10 -28 19 -5 6 16 41 21 50
7 3 -5 19 -8 36 -7 33 2 49 -9 25 -19 -8 -3 -17 -1 -20 4 -10 17 -25 11 -36
-12 l-10 -23 5 23 c3 17 1 22 -10 18 -8 -3 -14 -1 -14 4 0 21 -18 8 -25 -17
-4 -18 -9 -23 -14 -15 -6 10 -10 10 -18 0 -15 -19 -24 -78 -13 -78 6 0 10 9
10 20 0 11 4 20 10 20 6 0 6 -9 0 -26 -13 -34 -13 -47 3 -38 6 4 9 3 4 -1 -4
-5 0 -17 10 -27 17 -19 16 -20 -32 -22 -11 -1 -32 9 -48 21 -27 21 -64 22 -50
0 4 -6 1 -7 -7 -2 -10 6 -10 10 3 20 15 10 13 14 -14 34 -16 12 -27 25 -25 29
3 5 -4 8 -15 9 -10 1 -34 14 -54 29 -19 14 -35 22 -35 16 0 -6 12 -19 26 -29
25 -19 26 -21 11 -49 -12 -24 -38 -106 -53 -164 -2 -8 -8 -32 -13 -52 -7 -29
-5 -40 5 -49 8 -6 14 -16 14 -22 0 -6 -7 -2 -15 9 -13 18 -14 16 -16 -26 -13
-302 57 -466 207 -483 46 -5 126 19 174 53 23 16 30 18 30 7 0 -8 -7 -20 -15
-27 -8 -7 -15 -10 -15 -6 0 4 -15 -1 -32 -11 -18 -10 -40 -19 -48 -20 -8 -1
-34 -6 -57 -11 -26 -6 -43 -6 -43 0 0 5 -4 7 -8 4 -24 -15 -152 82 -152 114 0
6 -5 9 -11 7 -6 -1 -14 4 -17 12 -3 8 0 11 7 7 7 -5 9 -1 4 9 -4 12 -8 13 -13
4 -12 -18 -40 42 -34 72 4 20 3 21 -4 4 -7 -15 -14 -1 -32 65 -19 72 -23 114
-26 265 -1 99 0 170 3 158 6 -31 18 -29 19 2 1 14 -2 25 -7 25 -20 0 -7 45 17
65 23 18 25 24 16 42 -10 18 -8 23 11 36 15 10 29 12 39 6 8 -4 24 -7 36 -4
12 2 23 -3 26 -12 6 -14 10 -13 29 6 13 11 29 21 35 21 7 0 22 11 34 25 13 15
31 24 42 23 12 -2 21 2 21 9 0 6 4 15 9 20 5 5 6 3 2 -4 -4 -7 -2 -13 3 -13 6
0 11 6 11 13 0 9 3 8 9 -2 7 -11 11 -10 20 5 9 17 10 17 12 -6 l1 -25 7 25 c5
19 14 26 39 28 29 3 37 12 33 36 -1 5 8 5 21 1 51 -15 68 -17 68 -6 0 6 7 11
15 11 11 0 12 5 5 25 -10 27 -2 32 20 13 12 -11 12 -10 1 5 -8 10 -21 15 -32
12 -9 -3 -20 -1 -24 5 -3 5 -11 10 -17 10 -5 0 0 -9 13 -19 l24 -19 -29 -8
c-27 -6 -28 -8 -11 -20 25 -18 15 -18 -23 2 -35 17 -43 29 -13 19 16 -5 18 -2
14 15 -7 27 -18 25 -40 -6 -41 -59 -65 -84 -75 -78 -7 4 -7 9 0 13 5 3 24 30
41 60 36 60 30 61 -52 8 -127 -82 -354 -200 -367 -192 -17 11 -11 23 9 18 10
-3 22 0 25 6 4 6 1 9 -7 5 -8 -3 -18 -1 -22 5 -4 8 -13 8 -28 0 -20 -12 -20
-13 18 -45 30 -25 35 -34 21 -34 -13 0 -16 -5 -12 -17 5 -13 0 -11 -21 7 -46
41 -53 54 -50 85 2 24 7 31 29 33 15 2 40 -4 57 -13 30 -15 33 -14 103 21 85
42 277 155 362 213 58 39 58 39 25 37 -19 -2 -46 -4 -61 -5 -16 0 -28 -5 -28
-10 0 -6 16 -7 35 -4 43 7 45 -1 5 -22 -16 -9 -30 -11 -30 -6 0 6 -7 7 -17 4
-11 -4 -14 -3 -9 6 5 7 0 18 -10 26 -20 15 -21 15 123 20 18 1 40 8 50 17 15
13 29 21 51 27 1 1 2 0 2 -2z m-983 -88 c53 -57 64 -76 39 -66 -10 4 -31 0
-48 -9 -25 -13 -32 -14 -39 -2 -5 7 -9 17 -9 22 0 5 -3 7 -6 4 -3 -4 -1 -15 4
-25 9 -16 4 -23 -31 -44 -23 -14 -57 -31 -75 -38 -24 -10 -31 -18 -27 -30 5
-12 3 -13 -6 -4 -15 15 -4 47 13 37 10 -5 10 -4 1 6 -14 15 -6 39 22 63 11 10
14 16 8 12 -9 -4 -11 3 -6 27 7 40 22 61 39 54 7 -3 15 0 18 7 2 7 5 4 5 -5 1
-10 6 -18 12 -18 6 0 9 9 6 20 -4 16 12 37 30 40 1 0 24 -23 50 -51z m642 0
c1 -4 -10 -6 -24 -6 -14 0 -25 3 -25 8 0 5 -4 9 -9 9 -4 0 -6 -11 -3 -25 2
-15 0 -25 -7 -25 -6 0 -11 -15 -11 -32 0 -26 -3 -30 -11 -18 -9 13 -10 13 -6
-1 3 -9 1 -22 -4 -30 -7 -12 -9 -12 -9 1 -1 9 -5 6 -10 -7 -6 -16 -14 -21 -26
-16 -9 3 -20 0 -25 -8 -7 -11 -9 -11 -9 4 0 9 -4 17 -9 17 -5 0 -13 9 -16 20
-4 11 -10 18 -15 15 -5 -3 -11 3 -13 12 -3 10 -5 4 -6 -13 -1 -35 22 -74 33
-56 4 7 2 12 -3 12 -6 0 -11 8 -11 17 0 15 2 15 14 -2 8 -11 12 -24 10 -30 -3
-6 6 -11 20 -11 14 0 22 5 20 11 -3 5 1 2 9 -8 30 -36 77 23 77 96 0 10 4 16
9 13 5 -3 5 -25 0 -48 -4 -24 -8 -46 -9 -50 0 -4 -27 -21 -60 -38 -57 -29 -80
-37 -67 -24 3 3 -6 17 -21 31 -15 14 -26 29 -25 34 2 5 -1 9 -5 9 -12 0 -14
58 -1 65 5 4 14 18 19 31 11 28 29 32 31 7 1 -10 2 -24 3 -32 0 -8 14 -18 29
-22 33 -9 47 12 29 42 -17 26 -15 56 4 63 27 10 34 7 45 -20 5 -15 12 -24 15
-21 3 3 1 15 -5 26 -10 18 -8 21 16 27 16 3 33 7 38 8 9 3 22 -17 24 -35z
m-1691 -203 c-7 -8 -16 -12 -20 -9 -5 2 -8 -1 -8 -6 0 -6 -9 -11 -20 -11 -23
0 -85 -29 -77 -36 2 -2 20 3 40 11 20 8 45 15 55 15 11 0 25 7 32 15 16 19 30
10 30 -20 0 -18 -4 -23 -15 -19 -11 5 -13 2 -9 -10 4 -12 0 -16 -16 -16 -16 0
-20 -4 -16 -16 3 -9 3 -21 -1 -27 -4 -7 -9 -3 -14 9 -7 17 -8 17 -8 -3 -1 -26
-11 -29 -29 -11 -9 9 -12 8 -12 -4 0 -9 -5 -20 -12 -24 -8 -5 -9 -2 -4 11 6
16 4 16 -11 4 -15 -13 -16 -12 -11 9 4 12 2 20 -3 16 -5 -3 -9 -13 -9 -22 0
-14 -2 -14 -9 -3 -5 8 -7 21 -3 29 3 9 1 13 -5 9 -5 -3 -10 0 -10 8 0 8 4 12
9 9 12 -7 10 3 -4 26 -16 24 -10 30 38 34 21 1 40 8 42 14 2 7 13 12 25 12 12
0 29 5 37 10 22 14 33 12 18 -4z m1301 -53 c17 -15 31 -33 31 -40 0 -7 4 -13
9 -13 5 0 12 -7 15 -15 6 -16 -49 -74 -71 -75 -6 0 -14 -4 -17 -9 -8 -13 4
-42 15 -35 5 3 9 1 9 -5 0 -5 -6 -12 -12 -14 -8 -3 -6 -6 5 -6 13 -1 17 7 17
35 0 24 4 34 13 31 7 -2 11 -18 10 -35 -1 -18 3 -32 8 -32 5 0 1 -9 -8 -20
-17 -20 -39 -28 -28 -11 3 5 1 12 -5 16 -6 4 -10 -10 -11 -37 -1 -44 -3 -43
-13 5 -4 16 -11 25 -17 21 -8 -4 -7 -9 2 -15 11 -7 11 -9 1 -9 -7 0 -17 -12
-22 -26 -8 -21 -7 -29 6 -39 10 -7 15 -19 11 -29 -7 -18 -28 -22 -24 -4 1 7
-5 12 -13 13 -9 0 -14 8 -12 18 2 10 -7 22 -23 29 -14 6 -25 17 -25 25 0 18 7
16 38 -8 l27 -21 3 21 c2 12 8 21 13 21 6 0 6 7 -1 19 -15 28 -13 39 10 46 25
8 26 21 3 29 -10 4 -14 4 -10 0 9 -9 -22 -44 -40 -44 -7 0 -13 11 -13 24 0 52
-10 57 -43 20 -35 -40 -47 -90 -19 -75 9 5 21 9 26 10 6 0 11 8 12 16 2 13 0
14 -12 4 -27 -22 -37 5 -10 30 l24 22 11 -32 c6 -18 11 -33 11 -35 0 -13 -75
-43 -115 -46 -27 -1 -52 -5 -55 -8 -3 -3 -23 -13 -44 -23 -22 -10 -36 -22 -30
-25 5 -4 14 -22 21 -40 10 -30 9 -34 -13 -48 -13 -9 -21 -20 -18 -25 3 -5 0
-8 -8 -7 -7 2 -12 -2 -11 -9 1 -6 -13 -23 -32 -37 -47 -36 -56 -14 -11 29 30
28 32 33 16 32 -11 -1 -20 -4 -20 -8 0 -4 -13 -12 -30 -18 -16 -5 -30 -15 -30
-21 0 -6 5 -8 11 -4 23 14 -6 -23 -44 -56 -24 -21 -35 -26 -30 -15 5 14 3 16
-8 10 -8 -5 -11 -4 -6 1 5 5 16 9 25 9 9 0 16 6 14 13 -1 8 2 11 7 8 5 -3 14
1 21 9 15 19 3 19 -31 1 -21 -11 -26 -11 -26 0 0 7 3 11 7 9 10 -6 45 34 37
42 -4 3 -7 1 -7 -5 0 -7 -7 -12 -15 -12 -19 0 -20 -2 12 71 22 51 28 58 35 43
7 -15 7 -14 4 6 -3 16 2 34 15 50 12 14 17 18 13 10 -6 -12 -5 -13 7 -4 22 17
51 14 44 -5 -4 -10 2 -7 14 6 21 22 30 46 10 26 -7 -7 -56 -7 -60 1 0 0 -3 21
-5 46 -6 51 -11 60 -23 41 -7 -10 -11 -8 -16 9 -4 13 -2 27 5 34 10 8 12 7 7
-6 -4 -10 -2 -18 3 -18 6 0 10 10 10 21 0 16 -5 20 -20 16 -11 -3 -20 -1 -20
4 0 5 7 9 15 9 20 0 19 24 -2 41 -9 8 -14 9 -11 4 8 -12 -8 -42 -17 -34 -9 10
12 56 28 62 11 4 13 0 9 -15 -3 -14 -1 -19 6 -14 6 4 12 -4 14 -21 2 -16 8
-27 16 -26 16 4 16 -14 0 -19 -10 -4 -10 -10 -1 -29 l12 -24 1 25 2 25 8 -25
c4 -14 8 -32 9 -40 1 -13 -1 -13 -10 0 -9 13 -10 12 -5 -2 3 -10 1 -20 -4 -23
-18 -11 -11 -23 10 -18 10 3 18 8 17 12 -3 13 99 110 127 121 14 5 26 14 26
20 0 6 -4 8 -10 5 -5 -3 -10 2 -10 11 0 16 2 15 21 -2 16 -14 23 -15 26 -6 3
6 14 12 24 12 11 0 18 4 15 9 -4 5 4 7 16 4 17 -3 19 -2 9 5 -11 8 -10 12 6
20 18 10 19 8 17 -39 -3 -36 0 -49 10 -49 9 0 12 7 9 20 -3 12 0 20 8 20 8 0
5 5 -6 14 -18 13 -18 14 0 42 l20 29 6 -35 6 -35 2 36 c1 27 7 39 24 47 31 15
32 15 66 -15z m-969 -98 c0 -8 5 -15 10 -15 6 0 10 -10 10 -21 0 -18 2 -19 15
-9 14 11 19 7 16 -12 -2 -14 16 -8 30 9 12 15 12 16 -3 10 -12 -4 -18 -1 -18
9 0 8 5 12 10 9 6 -3 10 0 10 7 0 9 3 9 10 -2 14 -21 13 -27 -12 -49 -16 -16
-25 -18 -35 -10 -7 6 -13 8 -13 4 0 -15 -40 28 -41 44 0 11 -2 12 -6 3 -2 -7
11 -36 30 -65 49 -74 59 -96 51 -109 -4 -7 -3 -8 4 -4 7 4 18 -7 29 -28 9 -20
24 -36 32 -37 10 0 12 -2 4 -6 -9 -3 -8 -11 4 -30 14 -21 14 -25 3 -20 -8 3
-32 11 -53 18 -26 8 -36 17 -32 27 3 7 5 19 5 25 0 6 6 3 13 -7 12 -16 13 -16
13 2 0 24 -24 22 -42 -3 -13 -17 -14 -17 -14 11 0 17 5 35 10 40 6 6 8 19 4
29 -6 16 -8 15 -20 -6 -13 -23 -13 -23 -14 16 -1 40 -18 95 -20 65 0 -12 -4
-10 -16 5 -15 19 -16 18 -10 -20 4 -28 3 -34 -4 -20 -5 12 -9 14 -9 6 -1 -8
-3 -12 -6 -9 -6 6 10 93 24 131 11 29 31 37 31 12z m1498 -197 c7 -10 18 -15
24 -12 12 8 -10 -35 -27 -53 -10 -9 -15 -9 -24 0 -9 9 -11 8 -6 -3 4 -11 -9
-27 -40 -50 -25 -18 -45 -41 -45 -49 0 -13 -2 -13 -9 -2 -7 11 -10 9 -16 -8
-3 -11 -11 -21 -17 -21 -6 0 -8 -3 -5 -7 5 -5 -19 -55 -39 -82 -2 -2 -15 4
-30 13 -14 10 -28 16 -30 13 -2 -2 7 -10 21 -17 33 -18 32 -32 -1 -20 -16 7
-23 7 -19 0 3 -6 13 -10 21 -10 18 0 18 -24 -1 -40 -10 -9 -15 -9 -15 -1 0 6
-5 11 -11 11 -5 0 -7 -6 -3 -12 6 -10 5 -10 -7 -1 -20 16 -23 131 -4 149 7 7
10 24 8 38 -5 27 2 32 25 18 10 -7 7 -19 -13 -53 -26 -47 -34 -75 -12 -44 10
12 16 14 21 7 4 -7 12 -12 17 -12 6 0 3 7 -5 16 -9 8 -16 21 -16 27 0 8 4 7
12 -1 7 -7 17 -12 22 -12 6 0 3 7 -8 15 -18 13 -17 15 5 47 12 18 24 35 26 37
2 3 10 -5 19 -17 8 -12 21 -22 27 -21 8 0 7 3 -2 6 -11 5 -11 7 0 15 11 8 10
9 -4 4 -14 -5 -16 -1 -11 22 10 39 11 39 57 13 l42 -23 -29 26 c-16 14 -34 26
-39 26 -6 0 1 12 15 28 14 15 23 34 21 42 -3 9 -1 11 4 4 4 -5 17 -10 28 -11
11 0 28 -3 38 -8 10 -4 17 -3 17 4 0 6 -7 11 -15 11 -8 0 -15 7 -15 15 0 19
30 8 48 -17z m-1328 -208 c19 -10 51 -34 71 -54 l37 -37 45 31 c25 16 49 30
53 30 5 0 -8 -12 -29 -26 -22 -14 -37 -33 -36 -42 1 -9 -1 -25 -6 -35 -4 -9
-5 -26 -2 -37 3 -14 -1 -24 -15 -31 -11 -6 -22 -8 -25 -5 -4 3 -13 0 -22 -7
-14 -11 -14 -10 -2 5 7 10 18 15 24 11 6 -4 7 7 3 32 -5 25 -4 35 4 30 5 -3 8
-10 5 -15 -3 -5 0 -12 6 -16 9 -5 10 1 5 20 -4 17 -3 25 3 22 5 -4 12 -2 15 3
12 19 -15 22 -42 5 -27 -17 -27 -17 -10 2 16 19 16 21 -19 49 -62 51 -85 64
-125 70 -45 8 -152 -20 -142 -37 4 -6 3 -8 -3 -5 -6 4 -19 0 -29 -8 -10 -8
-14 -15 -8 -15 6 0 11 -7 11 -16 0 -15 -1 -15 -12 -1 -11 15 -14 14 -31 -6
-50 -57 -67 -97 -43 -97 5 0 7 5 4 10 -3 6 -1 10 5 10 7 0 10 -7 7 -15 -4 -8
-1 -17 5 -21 6 -4 8 -3 5 3 -3 5 0 10 7 10 8 0 12 -6 9 -14 -6 -15 -34 -14
-45 2 -5 6 -12 4 -18 -5 -16 -25 -13 11 5 53 30 73 122 150 198 167 42 9 94 1
137 -20z m1404 19 c-2 -4 3 -12 10 -19 11 -9 20 -9 37 0 14 8 19 8 15 1 -4 -6
-2 -11 4 -11 6 0 8 -5 4 -12 -6 -9 -9 -9 -12 0 -2 7 -8 12 -13 12 -6 0 -7 -6
-1 -16 4 -8 6 -28 4 -44 -4 -28 -5 -29 -28 -13 -23 14 -24 14 -24 -5 0 -24 25
-48 35 -32 3 5 14 9 23 9 15 -1 15 -2 0 -6 -10 -2 -18 -11 -18 -19 0 -8 -4
-12 -10 -9 -6 3 -7 -1 -4 -9 3 -9 11 -13 17 -9 5 3 7 2 4 -4 -5 -8 -39 -10
-57 -3 -3 1 -9 2 -14 1 -4 -1 -18 5 -30 12 -18 12 -25 12 -39 2 -9 -7 -17 -16
-17 -20 0 -5 -7 -17 -17 -27 -9 -10 -11 -18 -5 -18 6 0 17 9 25 20 14 21 14
21 20 1 3 -12 0 -19 -6 -18 -6 1 -16 -8 -22 -20 -7 -13 -15 -20 -19 -15 -4 4
-6 2 -4 -4 4 -14 -52 -77 -90 -99 -27 -16 -35 -17 -56 -6 -19 11 -22 16 -13
26 7 7 16 10 21 8 5 -3 7 8 4 26 -5 36 -1 40 11 9 9 -23 9 -23 16 5 4 15 12
27 17 27 6 0 5 6 -2 15 -14 17 -40 20 -40 5 0 -5 -7 -10 -15 -10 -26 0 -17 64
20 143 36 79 50 96 67 79 6 -6 6 -12 -3 -17 -8 -5 -10 -4 -5 3 4 7 2 12 -3 12
-6 0 -11 -3 -12 -7 0 -5 -2 -16 -4 -25 -3 -15 2 -14 28 6 36 27 112 68 140 76
26 7 66 6 61 -1z m541 -28 c-3 -5 -1 -12 5 -16 5 -3 10 0 11 7 0 7 7 0 14 -17
10 -20 14 -24 15 -12 0 11 7 18 18 16 31 -3 43 1 37 12 -4 6 11 1 34 -10 23
-12 41 -28 41 -36 0 -20 -16 -19 -24 1 -3 8 -11 12 -17 8 -8 -5 -8 -8 0 -13 7
-4 -3 -14 -24 -24 -22 -11 -36 -13 -41 -6 -3 6 -11 3 -19 -8 -7 -10 -17 -15
-21 -11 -4 4 -14 2 -22 -5 -13 -10 -14 -9 -7 3 8 13 7 13 -11 0 -10 -8 -22
-19 -26 -24 -4 -6 -12 -5 -20 1 -9 8 -16 7 -25 -2 -6 -7 -9 -16 -5 -19 3 -4
-1 -4 -10 -1 -9 4 -19 2 -23 -4 -10 -17 -25 -13 -25 8 0 17 -21 44 -31 38 -2
-1 -1 2 4 8 5 6 11 4 17 -5 8 -13 10 -13 10 1 0 9 7 19 15 23 8 3 15 2 15 -3
0 -5 15 -1 34 8 18 9 32 19 29 24 -2 4 1 7 6 7 6 0 11 8 12 18 0 14 2 14 7 2
4 -8 13 -16 20 -17 14 -3 16 23 2 32 -13 8 -13 25 1 25 5 0 8 -4 4 -9z m-1225
-55 c-1 -6 -13 -34 -28 -63 -21 -41 -30 -50 -42 -43 -22 14 -33 12 -27 -4 4
-10 1 -13 -7 -10 -8 3 -16 -4 -19 -15 -3 -14 0 -21 9 -21 8 0 14 5 14 10 0 6
6 5 14 -2 8 -7 12 -17 9 -22 -3 -4 -10 -2 -15 5 -7 10 -8 8 -3 -6 4 -11 8 -27
10 -35 2 -8 4 -16 4 -17 1 -2 0 -5 -1 -6 -2 -2 4 -12 12 -23 14 -18 14 -18
-10 -2 -14 9 -24 22 -22 30 2 7 0 10 -4 5 -4 -4 -17 1 -28 10 -21 18 -21 18
-3 -3 20 -24 22 -38 5 -28 -8 4 -9 3 -5 -2 5 -5 15 -9 23 -9 7 0 13 -4 11 -10
-1 -5 -5 -9 -9 -8 -5 2 -7 -2 -5 -8 1 -6 -4 -14 -12 -17 -8 -2 -11 0 -8 5 4 6
-2 18 -13 28 -11 10 -20 15 -20 11 0 -4 -5 -4 -11 0 -8 4 -7 9 2 16 11 8 10 9
-2 5 -9 -3 -25 0 -35 7 -11 8 -30 17 -44 20 -18 5 -14 0 14 -17 21 -13 35 -26
30 -29 -5 -3 -4 -3 3 -2 7 2 19 -4 28 -12 9 -9 15 -11 15 -4 0 6 4 9 9 6 5 -4
8 -17 6 -31 -1 -14 2 -28 8 -32 6 -4 7 -1 2 6 -5 9 -2 12 10 9 10 -1 23 -12
29 -23 6 -11 16 -24 21 -30 6 -5 18 -19 25 -29 12 -16 13 -18 1 -11 -10 5 -12
4 -7 -3 4 -7 14 -12 22 -12 9 0 12 -5 8 -12 -4 -6 -3 -8 3 -5 6 4 16 0 23 -8
10 -12 10 -19 -1 -32 -12 -16 -12 -17 1 -7 16 12 50 5 53 -11 1 -6 12 -10 24
-10 38 -1 38 -13 0 -50 -20 -19 -30 -35 -23 -35 8 0 16 7 20 15 3 8 10 15 17
15 6 0 2 -15 -10 -34 -22 -35 -28 -61 -11 -51 6 3 10 1 10 -5 0 -7 5 -6 14 2
8 8 10 15 4 19 -6 4 0 14 13 23 13 9 18 16 11 16 -7 0 -10 5 -6 11 4 8 9 7 15
-2 4 -8 3 -19 -3 -26 -6 -8 -8 -16 -5 -20 4 -3 -7 -16 -23 -28 -16 -12 -27
-24 -24 -27 3 -4 0 -9 -7 -14 -8 -4 -10 -3 -5 4 14 24 -13 11 -44 -19 -17 -17
-33 -29 -35 -27 -3 2 9 17 25 33 l30 29 -22 13 c-23 12 -23 13 -3 18 12 4 26
15 32 25 10 15 8 19 -15 23 -25 5 -25 4 -8 -9 16 -11 17 -14 4 -19 -8 -3 -19
-5 -24 -4 -37 7 -44 -13 -16 -45 14 -17 14 -19 0 -8 -14 11 -18 9 -31 -18 -9
-17 -11 -28 -6 -25 5 4 9 3 9 -2 -1 -11 -26 -43 -34 -43 -15 0 -1 66 18 88 20
23 20 23 1 16 -18 -7 -18 -6 -6 9 7 9 10 17 6 17 -4 0 -1 8 6 18 12 15 12 16
-2 5 -21 -16 -33 -5 -16 16 10 13 7 12 -15 -2 -16 -10 -28 -15 -28 -12 0 11
41 45 49 41 4 -3 8 2 8 10 0 8 -6 13 -13 10 -8 -3 -20 4 -27 14 -8 11 -16 17
-20 14 -8 -9 4 -35 13 -29 15 10 20 -13 6 -25 -12 -9 -17 -7 -24 7 -6 10 -10
22 -10 28 0 5 -5 11 -10 13 -6 2 -9 -5 -8 -14 0 -9 -6 -19 -14 -21 -10 -3 -11
-2 -4 4 14 10 14 43 0 43 -6 0 0 9 13 19 18 14 21 20 11 26 -8 5 -11 4 -7 -2
4 -6 -6 -10 -24 -11 -26 -1 -28 2 -18 14 6 8 9 18 5 22 -4 4 -16 -4 -26 -18
-11 -14 -20 -20 -20 -13 0 6 5 15 10 18 6 3 10 11 10 17 0 6 -9 3 -19 -6 -15
-13 -20 -14 -24 -4 -4 9 -6 8 -6 -4 -1 -9 5 -18 12 -21 8 -3 6 -11 -8 -27 -11
-13 -15 -20 -9 -17 7 4 15 0 18 -8 4 -12 2 -13 -13 -6 -12 7 -22 6 -31 -2 -10
-10 -10 -8 -2 9 7 13 8 33 3 50 -6 24 -3 33 16 52 13 12 27 22 32 22 4 0 7 11
7 24 0 14 -4 22 -8 20 -4 -3 -8 2 -8 10 0 9 3 15 8 15 22 -4 30 3 25 21 -7 27
14 26 46 -2 20 -18 19 -15 -4 10 -40 45 -64 57 -79 42 -8 -9 -7 -11 4 -10 26
4 44 0 36 -7 -10 -10 -46 -11 -46 -1 0 5 -5 6 -11 2 -8 -4 -9 0 -4 15 3 11 3
21 -2 21 -5 0 -10 -10 -10 -22 -2 -23 -30 -51 -43 -43 -5 3 -10 -2 -14 -10 -4
-12 3 -11 34 5 48 24 46 24 53 0 3 -11 1 -20 -4 -20 -5 0 -9 5 -9 10 0 12 -57
-15 -80 -38 -14 -14 -13 -15 3 -9 15 5 16 2 11 -21 -5 -20 -4 -24 5 -17 6 6
12 23 13 37 1 15 5 25 9 22 4 -2 9 1 11 8 3 8 9 8 22 1 17 -9 16 -11 -8 -17
-14 -3 -26 -13 -26 -21 0 -9 6 -12 18 -8 23 7 -9 -17 -59 -45 -42 -23 -73 -15
-46 12 11 12 17 13 20 3 4 -9 6 -9 6 0 2 23 -17 22 -44 -1 -15 -13 -24 -29
-21 -35 4 -6 12 -9 17 -6 5 3 6 -1 3 -10 -6 -14 -9 -14 -23 -2 -25 22 -41 29
-41 19 0 -5 8 -12 18 -14 10 -3 18 -15 19 -29 l2 -24 -15 25 c-9 14 -13 17
-10 8 9 -30 -9 -20 -27 15 l-16 32 0 -32 c-1 -17 -6 -35 -11 -38 -6 -4 -8 -10
-5 -15 3 -4 -2 -13 -10 -20 -11 -9 -15 -9 -15 -1 0 7 -5 9 -12 5 -7 -5 -1 7
15 25 15 18 27 44 27 57 l0 25 -25 -28 c-13 -15 -25 -22 -25 -15 0 7 -4 10
-10 7 -5 -3 -8 0 -5 7 6 14 65 53 77 50 3 -1 11 5 18 13 15 18 3 38 -19 30
-10 -4 -12 -3 -6 3 6 6 19 12 30 14 12 2 20 11 20 23 -1 11 4 24 10 28 5 5 -5
7 -22 4 -18 -2 -33 0 -33 5 0 5 -4 6 -10 3 -5 -3 -18 -1 -27 4 -10 6 -13 11
-7 11 6 0 11 6 11 14 0 8 -6 12 -12 10 -7 -3 -11 -15 -10 -27 1 -12 3 -30 4
-40 1 -14 6 -17 24 -12 20 5 20 5 3 -6 -15 -9 -16 -13 -5 -20 8 -5 9 -9 3 -9
-6 0 -10 -12 -8 -26 2 -20 -5 -30 -32 -46 -19 -11 -33 -26 -31 -32 3 -7 -4
-12 -14 -12 -14 0 -16 3 -6 16 6 8 17 20 24 26 11 10 11 13 -2 18 -9 3 -14 2
-11 -3 3 -5 -2 -15 -11 -22 -14 -12 -16 -12 -8 0 6 11 4 13 -11 8 -18 -7 -18
-6 -1 7 19 15 24 41 5 30 -7 -4 -5 1 4 12 12 13 14 24 8 34 -5 8 -10 12 -10 7
0 -4 -14 0 -31 9 l-32 16 29 19 c16 10 34 17 41 14 7 -2 10 2 6 10 -4 13 -8
13 -26 0 -28 -19 -48 -19 -23 0 22 17 30 45 13 45 -7 0 -4 5 6 11 9 5 23 7 30
3 6 -4 9 -3 4 1 -4 5 5 17 20 27 34 22 14 24 -27 3 -17 -9 -30 -13 -30 -9 0 4
-14 -11 -31 -32 -17 -22 -40 -42 -50 -46 -11 -4 -18 -11 -16 -15 5 -9 -11 -27
-28 -32 -5 -2 -9 -7 -7 -12 2 -8 -13 -13 -31 -10 -5 1 -5 -3 -2 -9 10 -17 -36
-64 -47 -48 -5 8 -7 4 -6 -12 2 -16 -2 -24 -9 -23 -7 2 -12 0 -11 -5 1 -4 -3
-17 -10 -29 -7 -13 -10 -23 -7 -23 3 0 1 -9 -5 -20 -6 -11 -15 -18 -21 -15 -5
4 -9 -1 -9 -10 0 -9 5 -13 11 -9 8 5 8 1 0 -13 -6 -11 -7 -23 -4 -27 3 -3 1
-6 -6 -6 -7 0 -10 -4 -7 -9 3 -5 -1 -11 -9 -15 -8 -3 -17 0 -21 6 -5 7 -2 8 6
3 9 -6 10 -1 5 16 -4 16 -3 20 3 11 7 -11 10 -11 15 2 4 9 2 16 -3 16 -6 0
-10 9 -10 20 0 11 4 20 9 20 4 0 16 21 26 46 9 25 24 48 31 51 8 3 13 11 12
18 -3 14 72 124 85 125 5 0 5 -5 1 -12 -4 -7 -3 -8 4 -4 6 4 9 13 6 20 -7 19
133 113 181 121 22 4 44 10 50 13 5 4 23 5 38 3 16 -1 45 5 65 15 40 20 187
30 177 13 -4 -5 2 -8 12 -7 34 3 54 -2 48 -12 -3 -5 -13 -6 -23 -3 -13 4 -13
2 3 -10 18 -14 21 -14 32 -1 7 10 13 12 18 4 3 -5 9 -9 13 -6 4 2 16 0 27 -5
17 -6 17 -8 3 -8 -20 -1 -24 -16 -8 -26 6 -3 10 -1 10 5 0 6 5 8 10 5 6 -3 10
4 10 15 0 19 66 140 76 140 2 0 -1 -12 -6 -26 -12 -31 -12 -37 -1 -30 5 3 12
23 16 43 4 21 11 43 17 50 11 14 38 6 38 -11z m66 -26 c-5 8 3 2 18 -14 14
-16 26 -30 26 -32 0 -1 -16 0 -36 2 -23 3 -33 1 -29 -6 4 -6 11 -8 16 -5 14
10 11 -11 -5 -24 -11 -9 -17 -8 -29 3 -21 22 -27 9 -13 -25 11 -27 55 -60 74
-58 4 1 15 1 25 0 15 -1 16 -4 7 -22 -11 -20 -12 -20 -25 -2 -11 14 -14 15
-15 3 0 -13 -1 -13 -10 0 -8 13 -10 13 -10 -2 0 -16 -15 -19 -36 -5 -7 4 -11
0 -10 -11 1 -11 -5 -16 -16 -14 -10 2 -16 -3 -14 -10 1 -7 1 -10 -1 -5 -3 4
-10 4 -16 0 -7 -3 -9 -2 -4 2 4 5 -3 19 -15 33 l-23 24 24 19 c14 11 18 19 10
19 -9 0 -7 5 5 12 15 9 22 7 33 -7 22 -31 23 -12 1 38 -17 39 -18 50 -8 60 10
10 11 7 5 -13 -5 -20 -1 -17 20 13 23 33 29 36 43 25 13 -11 15 -11 8 2z
m-1521 -40 c5 0 3 5 -5 10 -12 7 -8 10 15 10 35 0 127 -50 148 -81 9 -12 19
-19 24 -16 4 3 9 -20 9 -51 1 -32 0 -46 -3 -32 -8 48 -14 57 -23 35 -8 -18 -9
-18 -10 5 l-2 25 -10 -28 c-7 -20 -13 -25 -22 -18 -8 7 -12 3 -14 -15 -1 -13
3 -24 8 -24 6 0 10 -5 10 -11 0 -5 -5 -7 -12 -3 -7 4 -8 3 -4 -4 4 -7 16 -12
27 -12 11 0 18 4 15 9 -3 5 7 8 24 7 24 -2 30 2 33 23 3 23 4 24 11 8 5 -11 4
-29 -3 -44 -11 -25 -12 -25 -32 -7 -15 14 -18 14 -14 3 3 -9 -2 -22 -11 -30
-16 -12 -17 -12 -9 1 8 13 6 13 -8 1 -16 -12 -57 -8 -44 6 10 10 -38 42 -59
39 -10 -2 -25 4 -31 13 -12 15 -14 15 -26 -1 -12 -15 -14 -15 -26 4 -10 16
-10 22 -1 28 8 5 7 9 -5 14 -10 4 -15 12 -11 22 3 8 2 12 -3 9 -14 -8 -24 14
-13 28 5 7 8 22 6 34 -5 27 35 68 50 53 5 -5 15 -10 21 -10z m2854 -52 c-13
-18 -26 -35 -29 -38 -26 -24 -30 -38 -13 -51 15 -12 16 -12 10 4 -4 11 -3 16
4 12 6 -4 8 -13 5 -21 -3 -7 -1 -16 5 -19 5 -4 7 -11 3 -16 -3 -5 -10 -7 -15
-4 -5 4 -9 -1 -9 -10 0 -9 -5 -13 -10 -10 -6 4 -8 10 -5 15 3 5 1 11 -4 14 -5
4 -12 2 -16 -4 -4 -6 -11 -8 -16 -5 -5 4 -9 1 -9 -5 0 -6 -4 -9 -10 -5 -17 10
-2 -67 16 -84 16 -15 17 -15 6 0 -7 9 -10 24 -6 33 3 9 1 16 -5 16 -6 0 -8 7
-5 15 5 12 10 12 27 3 12 -6 24 -10 27 -9 2 1 6 -3 9 -10 2 -8 -1 -9 -10 -3
-11 6 -12 5 -2 -7 10 -13 8 -21 -17 -44 -22 -21 -33 -25 -42 -17 -7 5 -17 10
-23 10 -5 0 -17 15 -27 33 -10 19 -18 27 -18 18 0 -8 7 -24 15 -35 19 -25 19
-34 -1 -34 -14 0 -14 -3 -4 -15 14 -17 30 -20 30 -4 0 5 -5 7 -12 3 -6 -4 -8
-3 -5 4 4 5 15 9 25 8 21 -3 29 -36 9 -36 -8 0 -17 -6 -20 -12 -8 -22 -65 -50
-73 -37 -4 7 -3 9 4 5 13 -8 23 6 14 19 -4 6 -16 17 -26 25 -16 12 -18 12 -11
1 6 -11 4 -13 -8 -8 -19 7 -23 -8 -6 -18 6 -4 8 -13 5 -20 -2 -7 1 -18 7 -25
10 -10 8 -12 -6 -6 -10 3 -22 6 -27 6 -14 0 -20 29 -11 53 9 23 -10 53 -24 39
-4 -4 -4 4 0 18 4 14 11 26 16 28 4 2 5 10 2 19 -4 11 -2 14 5 9 8 -4 10 -2 6
8 -6 17 30 40 51 33 7 -3 28 4 46 16 19 12 41 23 49 25 17 3 102 93 127 134 9
15 19 26 21 23 2 -2 -6 -19 -19 -37z m-2314 -19 c-4 -5 13 -9 37 -9 24 0 49
-5 56 -12 9 -9 12 -9 12 0 0 6 -8 16 -17 21 -10 6 -13 11 -6 11 6 0 15 -4 18
-10 3 -5 11 -10 16 -10 6 0 7 5 3 11 -3 6 5 3 20 -6 30 -20 30 -21 14 -31 -7
-4 -8 -3 -4 4 5 8 0 12 -13 12 -12 0 -21 -3 -21 -7 0 -5 -37 -9 -83 -9 -45 -1
-89 -4 -97 -7 -65 -23 -80 -25 -80 -14 0 8 -4 7 -9 -2 -9 -14 -132 -64 -139
-56 -9 8 10 25 21 19 7 -4 8 -3 4 2 -5 5 -19 9 -30 9 -15 0 -23 7 -25 22 -2
16 7 28 37 47 49 31 50 31 111 5 45 -19 51 -20 79 -6 17 9 33 12 36 7 6 -9 45
-2 43 9 -2 16 3 22 12 16 6 -4 8 -11 5 -16z m1612 -80 c-4 -15 -2 -19 9 -15
12 4 12 2 4 -14 -9 -17 -7 -20 12 -21 13 -1 29 -1 35 0 7 1 10 -5 7 -13 -3 -9
3 -28 13 -43 10 -15 24 -40 31 -55 10 -24 8 -29 -13 -47 -30 -23 -31 -26 -4
-28 14 -1 19 3 15 12 -2 7 1 16 8 18 10 4 13 -5 13 -32 0 -20 2 -42 6 -48 4
-6 0 -13 -7 -16 -8 -3 -17 -1 -19 6 -2 7 -7 9 -11 6 -3 -3 4 -14 16 -25 12
-10 18 -13 14 -6 -5 7 -1 12 10 12 10 0 14 -3 11 -7 -4 -3 2 -12 13 -20 19
-14 30 -50 11 -39 -5 3 -11 -1 -15 -9 -3 -8 -1 -17 4 -20 6 -4 10 -13 10 -21
0 -8 -4 -12 -10 -9 -6 4 -7 -1 -3 -12 6 -16 5 -17 -13 -3 -17 14 -18 14 -6 -2
10 -13 11 -22 2 -37 -9 -17 -7 -23 10 -33 11 -7 20 -17 20 -22 0 -6 -16 5 -35
24 -33 32 -50 65 -21 41 11 -9 16 -9 22 0 5 8 3 9 -6 4 -8 -5 -11 -4 -7 2 9
15 -30 72 -58 85 -26 12 -31 23 -16 33 14 8 10 47 -7 67 -15 18 -7 43 10 32 7
-4 8 -2 4 4 -5 9 -13 9 -27 2 -17 -9 -19 -7 -20 17 -4 140 -8 172 -34 236 -5
12 -2 17 10 17 13 0 16 -6 12 -21z m-2213 -216 c-16 -5 -9 -92 10 -111 15 -15
19 -15 44 -2 28 16 45 63 20 57 -7 -2 -10 -2 -6 0 4 2 4 11 1 19 -3 7 -10 11
-16 7 -5 -3 -7 -1 -4 5 4 5 16 8 28 5 15 -4 17 -8 8 -14 -11 -6 -10 -9 3 -14
17 -7 13 -38 -11 -98 -6 -16 -11 -46 -11 -68 0 -21 -4 -39 -10 -39 -10 0 -14
21 -11 49 2 7 -2 10 -8 6 -6 -3 -11 -15 -11 -26 0 -10 -4 -19 -9 -19 -4 0 -6
12 -3 28 5 25 4 26 -12 13 -15 -13 -18 -12 -23 8 -4 17 -8 19 -14 9 -7 -9 -9
-8 -7 7 0 11 0 38 -1 60 l-2 40 -19 -24 -20 -23 0 26 c0 15 4 25 8 22 5 -3 8
5 8 17 -1 13 4 21 12 20 6 -2 12 2 12 8 0 5 5 7 10 4 9 -5 15 15 11 37 0 4 7
4 16 1 9 -4 13 -8 7 -10z m1742 -71 c-3 -5 27 -9 67 -9 87 0 146 -11 126 -24
-8 -5 -9 -9 -4 -9 6 0 16 5 22 11 15 15 146 2 137 -13 -4 -6 1 -8 14 -4 24 8
98 -9 107 -24 8 -13 -23 -8 -53 9 -13 7 -31 10 -40 8 -14 -4 -13 -5 3 -6 11
-1 33 -15 49 -31 30 -31 29 -38 -5 -20 -11 7 -40 8 -71 3 -47 -6 -50 -8 -23
-13 17 -4 35 -2 42 3 16 11 52 0 83 -26 14 -12 19 -15 13 -7 -24 26 -13 34 14
9 14 -13 23 -17 19 -9 -4 8 0 6 8 -4 12 -14 16 -16 16 -5 0 21 -16 42 -28 36
-5 -4 -18 3 -28 16 -19 22 -19 22 2 4 11 -9 24 -14 27 -11 11 12 37 -18 37
-42 0 -23 -4 -26 -45 -28 -11 -1 -21 -10 -23 -21 -3 -11 -12 -25 -21 -32 -12
-9 -13 -14 -4 -23 9 -10 15 -6 26 16 8 16 12 35 9 43 -2 7 1 12 8 10 6 -3 12
-9 12 -14 0 -16 20 -36 32 -32 10 4 50 -62 42 -70 -9 -9 -37 31 -31 46 4 10
-2 8 -15 -7 -12 -12 -18 -27 -15 -32 3 -6 1 -10 -5 -10 -7 0 -7 -7 1 -22 11
-21 11 -22 -4 -9 -11 8 -15 21 -11 36 5 19 2 22 -18 21 -13 -1 -30 3 -38 10
-8 6 -34 14 -57 17 -33 4 -40 2 -36 -9 6 -16 -13 -19 -20 -4 -3 6 -4 5 -3 -2
2 -7 12 -13 23 -13 12 0 25 -3 29 -7 10 -11 26 -10 20 1 -3 5 1 11 9 15 8 3
14 2 13 -2 -1 -4 3 -17 10 -29 9 -16 9 -24 0 -29 -6 -4 -8 -3 -5 3 4 6 -1 17
-10 24 -15 12 -16 12 -10 -3 3 -10 3 -17 -1 -16 -15 3 -61 -26 -55 -35 3 -6 1
-7 -5 -3 -6 4 -9 13 -6 21 4 8 9 13 14 10 4 -2 16 3 26 11 18 15 18 15 -3 11
-13 -3 -26 -1 -29 4 -3 5 -14 9 -25 9 -15 0 -18 5 -15 26 4 21 3 24 -9 14 -8
-7 -24 -10 -35 -7 -16 4 -20 1 -18 -11 1 -9 -1 -23 -5 -29 -5 -7 -4 -13 2 -13
6 0 15 9 21 20 6 11 15 20 21 20 21 0 -37 -59 -58 -59 -12 -1 -35 -12 -51 -26
-17 -14 -33 -25 -38 -25 -4 0 0 6 11 13 10 8 15 19 12 24 -4 6 1 17 11 24 15
13 16 12 3 -3 -21 -28 3 -21 33 8 28 29 32 39 16 49 -5 3 -7 0 -4 -9 4 -11 -4
-17 -27 -24 -24 -6 -39 -19 -53 -45 -10 -20 -22 -34 -26 -32 -4 3 -15 -4 -25
-15 -10 -11 -23 -20 -28 -20 -6 0 0 11 14 26 17 18 19 23 6 18 -13 -5 -16 -2
-10 12 4 11 3 15 -5 10 -13 -8 -23 6 -14 19 4 6 16 17 27 25 19 14 19 14 3 -6
-23 -26 -6 -49 25 -32 16 8 17 12 6 19 -11 7 -11 9 2 9 9 0 23 7 30 16 12 15
11 16 -11 10 l-25 -8 22 16 c12 9 30 15 40 14 10 -2 19 1 21 6 4 17 -50 12
-74 -7 -19 -14 -24 -15 -24 -4 0 7 11 19 25 25 35 16 95 15 95 0 0 -10 3 -9 9
1 5 8 17 11 32 6 19 -5 21 -4 9 4 -8 6 -23 11 -33 11 -10 0 -15 5 -12 10 8 12
3 12 -27 1 -13 -4 -36 -11 -51 -15 -26 -6 -27 -5 -17 14 6 11 15 20 21 20 6 0
7 -5 3 -12 -5 -7 -3 -8 6 -3 10 6 9 11 -5 22 -17 12 -17 13 10 13 15 0 26 3
22 6 -3 4 -23 3 -44 -1 -30 -6 -34 -9 -19 -14 17 -6 17 -8 4 -14 -31 -11 -29
22 2 38 32 17 41 38 13 29 -17 -5 -17 -5 0 6 9 6 15 15 12 20 -3 5 -1 12 5 15
6 4 9 1 8 -6 -2 -7 6 -14 17 -16 18 -3 18 -2 2 5 -21 9 -21 22 2 39 10 8 11
12 4 13 -7 0 -29 -17 -50 -37 -35 -35 -112 -75 -96 -50 4 7 -1 8 -13 3 -31
-12 -3 11 41 34 36 18 37 19 10 14 -16 -4 -39 -11 -50 -17 -20 -10 -20 -10 -1
11 10 12 21 21 25 20 18 -5 90 15 85 23 -3 5 5 13 18 18 18 8 19 10 5 10 -10
1 -30 -8 -45 -19 -15 -11 -42 -22 -59 -24 -18 -2 -40 -10 -50 -17 -15 -12 -16
-12 -10 4 5 15 4 16 -13 7 -25 -13 -33 -13 -23 3 10 16 11 30 2 42 -4 6 0 16
8 24 13 12 14 11 8 -8 -4 -15 -2 -21 9 -21 19 0 30 17 16 25 -10 6 -5 25 6 25
3 0 3 -4 0 -8z m785 -551 c3 -1 6 -8 6 -16 0 -8 -5 -11 -10 -8 -5 3 -12 1 -16
-4 -3 -5 -19 -19 -35 -31 -16 -12 -24 -22 -17 -22 16 0 14 -36 -5 -71 -19 -37
-30 -33 -13 5 16 34 2 47 -21 19 -9 -12 -20 -20 -23 -17 -2 3 -9 -8 -15 -25
-6 -16 -8 -32 -5 -35 4 -3 1 -6 -7 -6 -10 0 -10 -3 1 -16 12 -15 15 -14 26 12
9 21 12 24 13 10 0 -20 -27 -56 -42 -56 -5 0 -16 -7 -25 -15 -17 -18 -35 -11
-26 11 4 11 8 12 13 4 5 -8 9 -7 13 5 4 9 3 13 -3 10 -6 -3 -10 0 -10 7 0 7
-7 2 -16 -10 -8 -12 -21 -21 -27 -20 -7 1 -21 -3 -33 -9 -17 -10 -20 -9 -19 6
1 23 35 71 35 50 0 -8 -3 -19 -7 -25 -5 -5 4 4 19 21 31 34 36 28 12 -13 l-16
-27 21 25 c11 14 18 31 16 38 -3 7 0 23 6 35 10 21 10 21 -5 3 -9 -11 -16 -23
-16 -26 0 -4 -6 -7 -14 -7 -12 0 -11 6 4 25 11 13 17 29 13 35 -4 6 4 8 21 5
22 -4 26 -2 26 17 0 28 10 38 25 25 8 -7 12 -5 12 5 0 8 -4 12 -9 9 -13 -8 -9
6 6 21 7 8 16 12 19 9 3 -3 15 -1 26 6 16 8 21 8 21 -1 0 -7 11 -2 25 11 13
12 22 26 20 31 -3 4 3 6 12 4 10 -2 21 -4 24 -4z m-1137 -39 c33 10 39 10 47
-5 6 -9 15 -17 22 -17 7 0 6 4 -3 10 -13 8 -12 10 3 10 26 0 59 -19 52 -31 -4
-5 -11 -9 -16 -9 -6 0 -8 4 -4 9 3 5 0 13 -6 17 -8 4 -9 3 -5 -4 4 -7 4 -12
-1 -13 -43 -4 -54 -7 -60 -14 -5 -4 -1 -5 7 -3 8 3 23 1 33 -4 27 -14 -2 -37
-38 -31 -34 7 -31 -16 4 -28 12 -5 20 -5 17 0 -12 19 24 19 46 1 13 -11 18
-19 13 -20 -6 0 -17 6 -24 13 -11 9 -10 7 0 -10 15 -25 29 -30 29 -10 1 6 10
1 21 -12 27 -33 66 -53 66 -35 0 7 -4 11 -9 8 -4 -3 -8 -1 -8 5 0 6 -7 8 -15
5 -16 -7 -21 11 -5 21 5 3 7 12 3 20 -11 31 28 14 52 -22 13 -21 37 -53 51
-70 15 -19 21 -33 14 -33 -10 0 -10 -3 0 -15 9 -10 9 -15 1 -15 -6 0 -12 -12
-12 -27 -1 -17 -3 -21 -6 -10 -2 9 -9 17 -14 17 -6 0 -8 4 -4 10 7 12 -25 50
-43 50 -9 0 -7 -8 7 -26 12 -15 21 -36 21 -47 0 -20 -1 -20 -20 -2 -11 10 -19
23 -17 29 3 9 -28 46 -39 46 -7 0 4 -30 20 -54 21 -34 30 -76 16 -76 -6 0 -8
5 -5 10 3 6 1 10 -5 10 -6 0 -9 4 -6 8 3 5 -2 19 -11 31 -12 18 -17 20 -24 10
-5 -9 -7 -3 -5 16 3 24 -3 33 -32 52 -33 23 -35 23 -53 7 -16 -14 -22 -15 -32
-5 -9 10 -8 11 7 5 13 -5 17 -4 12 4 -4 7 -1 12 6 13 7 0 4 4 -7 9 -27 12 -43
12 -25 0 9 -6 10 -10 3 -10 -19 0 -24 17 -9 30 11 9 20 9 36 0 12 -6 24 -9 28
-6 3 3 0 6 -7 6 -7 0 -9 4 -6 10 4 6 -1 7 -11 3 -14 -5 -16 -3 -11 11 4 10 3
15 -3 11 -6 -3 -15 -3 -22 1 -8 5 -6 10 8 15 17 6 16 8 -8 14 -29 7 -36 19
-18 30 6 4 8 11 4 16 -3 6 5 7 23 3 15 -4 25 -3 21 1 -4 4 -22 8 -40 9 -19 2
-32 7 -30 14 3 15 -14 16 -23 2 -4 -6 -11 -7 -17 -4 -7 5 -4 12 7 21 18 12 18
13 -3 13 -12 0 -22 -5 -22 -12 0 -6 -3 -8 -6 -5 -4 4 -1 13 6 22 8 10 17 12
30 5 11 -6 30 -5 54 2z m1340 -253 c-3 -5 2 -6 10 -3 13 5 16 -5 15 -62 -1
-38 -4 -63 -6 -56 -7 19 -25 14 -19 -6 4 -10 -1 -27 -9 -38 -10 -14 -14 -15
-15 -5 0 11 -4 10 -16 -5 -14 -18 -15 -18 -4 4 7 13 9 26 6 30 -4 3 -12 -8
-18 -25 -11 -29 -13 -30 -26 -15 -10 12 -15 14 -18 5 -4 -9 -11 -10 -25 -3
-10 6 -19 8 -19 4 0 -3 -8 0 -17 7 -15 11 -16 11 -5 -1 6 -8 12 -23 11 -34 0
-19 -2 -19 -11 -5 -10 15 -13 15 -29 0 -20 -16 -72 -24 -63 -9 3 4 11 5 17 2
7 -4 8 -3 4 2 -5 5 -12 9 -15 9 -4 0 -12 4 -19 8 -8 5 -9 0 -5 -15 4 -16 2
-19 -9 -13 -8 5 -11 4 -6 -1 5 -5 14 -9 20 -9 7 0 11 -8 11 -18 -2 -15 1 -16
14 -5 13 11 14 10 4 -9 -15 -27 -32 -39 -32 -22 0 7 -6 4 -14 -6 -8 -11 -11
-26 -8 -35 4 -11 1 -10 -13 3 -10 10 -26 16 -36 14 -13 -3 -19 0 -19 10 0 13
-3 13 -15 3 -11 -9 -18 -10 -28 -1 -8 6 -17 8 -20 4 -4 -3 -17 2 -29 13 l-22
19 17 -25 c19 -27 22 -44 7 -35 -5 3 -10 -3 -10 -14 0 -12 -5 -21 -11 -21 -6
0 -9 -6 -6 -14 3 -9 -9 -31 -29 -53 -27 -29 -35 -33 -32 -18 2 11 9 25 17 31
16 13 24 44 11 44 -15 0 -21 -18 -8 -22 7 -3 -3 -12 -21 -21 -27 -13 -32 -14
-27 -2 3 8 0 17 -7 21 -7 4 -9 4 -5 -1 9 -9 -14 -56 -36 -74 -13 -11 -14 -9
-10 12 3 17 -1 27 -13 32 -10 3 -19 2 -21 -3 -2 -6 -12 -8 -23 -5 -24 7 -21
39 4 37 9 -1 15 2 12 6 -10 17 162 130 199 130 9 0 43 14 76 31 33 17 65 27
71 23 7 -4 9 -3 6 3 -3 5 36 31 88 58 96 49 101 55 97 108 -2 23 61 51 95 42
16 -4 22 -2 18 4 -3 7 0 8 9 5 9 -3 13 -10 10 -15z"/>
<path d="M1355 2960 c-16 -10 -36 -24 -42 -30 -7 -6 -13 -7 -13 -3 0 4 -5 0
-11 -10 -5 -9 -7 -22 -3 -28 5 -9 -65 -85 -74 -80 -1 1 -10 -3 -20 -8 -9 -6
-13 -11 -9 -11 4 0 -9 -15 -30 -32 -21 -18 -45 -41 -55 -51 -9 -10 -19 -14
-22 -9 -7 12 83 100 139 138 58 38 65 45 59 55 -6 10 -58 -23 -109 -68 -7 -7
-18 -13 -24 -13 -6 0 -11 -3 -11 -8 0 -12 -78 -91 -84 -84 -3 3 -6 1 -6 -4 0
-5 9 -15 21 -22 11 -7 18 -19 15 -27 -3 -8 -1 -17 3 -20 5 -2 11 6 15 18 3 13
29 43 58 67 29 25 76 67 105 93 46 44 51 52 41 71 -6 11 -7 18 -4 14 4 -3 16
2 27 13 20 20 65 27 54 9 -4 -6 -11 -8 -16 -5 -5 4 -9 2 -9 -3 0 -5 -8 -12
-19 -15 -19 -5 -27 -52 -10 -63 5 -3 6 3 2 12 -5 12 -3 15 6 9 10 -6 11 -3 3
12 -9 15 -7 19 9 19 22 0 22 -1 8 -28 -9 -16 -7 -24 6 -37 17 -15 17 -15 12 2
-4 10 2 41 13 70 31 82 28 90 -25 57z"/>
<path d="M1080 1666 c19 -8 29 -15 23 -15 -7 -1 -13 -6 -13 -12 0 -8 5 -7 16
2 21 17 44 20 63 9 10 -6 11 -10 4 -10 -39 -1 -60 -15 -79 -53 l-17 -32 22 19
c21 19 21 19 21 0 0 -15 2 -16 9 -5 7 11 9 11 13 0 4 -13 14 -11 65 21 30 18
32 18 30 1 0 -11 -6 -17 -13 -14 -7 2 -15 -1 -20 -8 -5 -9 -2 -10 9 -6 10 3
17 3 17 -2 0 -13 33 -10 67 5 22 10 30 19 26 29 -4 12 -10 10 -29 -10 -31 -34
-49 -32 -28 3 14 24 14 25 0 8 -9 -11 -18 -17 -21 -14 -10 10 25 37 40 32 8
-4 15 -2 15 3 0 5 15 8 33 7 29 -3 30 -3 7 5 -14 5 -38 9 -54 10 -16 1 -26 4
-23 8 13 12 -32 34 -50 25 -19 -9 -86 -8 -138 2 -28 6 -27 5 5 -8z"/>
<path d="M2919 4657 c-31 -26 -52 -70 -22 -46 12 10 15 10 9 1 -4 -7 -2 -20 6
-30 12 -15 11 -16 -5 -3 -21 16 -23 15 -32 -22 -8 -30 8 -38 23 -11 6 11 11
13 16 5 4 -6 2 -11 -3 -11 -6 0 -11 -5 -11 -11 0 -6 -7 -25 -14 -42 -8 -18
-19 -48 -25 -67 -6 -24 -9 -28 -10 -13 -1 12 4 34 10 50 15 36 18 63 7 63 -4
0 -9 10 -9 23 -1 12 -8 -27 -15 -88 -12 -96 -12 -114 1 -142 8 -17 15 -41 15
-53 0 -13 5 -20 13 -17 16 5 12 94 -6 115 -10 13 -9 15 7 9 14 -6 17 -4 12 8
-16 41 -15 47 3 15 20 -35 30 -35 11 0 -7 13 -6 21 4 29 11 9 14 6 14 -14 0
-38 9 -41 36 -12 20 21 25 23 30 11 3 -9 1 -23 -4 -32 -9 -14 -10 -12 -4 8 10
37 -4 20 -20 -26 -8 -21 -15 -31 -15 -22 -1 26 -19 31 -31 8 -7 -13 -7 -26 -1
-38 7 -14 6 -25 -5 -40 -11 -16 -12 -27 -5 -39 10 -17 10 -17 11 0 0 9 7 17
16 17 9 0 18 9 21 20 3 11 10 20 16 20 6 0 2 7 -9 16 -10 8 -13 13 -6 9 7 -4
12 1 12 14 0 11 5 23 11 27 7 4 10 1 7 -7 -3 -8 1 -19 7 -26 7 -7 12 -35 10
-67 -1 -30 2 -53 7 -50 4 3 8 -2 8 -10 0 -9 4 -16 10 -16 5 0 7 14 4 33 -7 45
-23 112 -30 130 -5 14 10 17 36 7 3 -1 8 -2 13 -1 4 0 7 -13 7 -29 0 -17 -5
-30 -12 -30 -9 0 -8 -4 2 -10 12 -8 13 -13 3 -30 -16 -25 -17 -43 -2 -34 7 4
10 1 7 -7 -7 -19 10 -51 23 -44 5 4 6 11 3 17 -4 7 -2 8 4 4 8 -5 8 -15 2 -32
-13 -32 -12 -37 0 -29 6 3 10 -1 10 -10 0 -11 -5 -15 -14 -12 -16 6 -14 -8 7
-50 12 -26 22 -29 30 -9 4 10 1 13 -9 9 -7 -3 -14 -1 -14 5 0 5 7 12 15 16 8
3 15 11 15 18 0 9 -3 8 -10 -2 -12 -18 -11 -19 -14 53 -2 36 -8 62 -16 67 -7
5 -10 15 -6 25 6 16 4 16 -10 4 -15 -12 -16 -11 -9 11 10 33 14 37 24 22 6
-10 11 -9 22 4 12 16 12 17 -3 11 -12 -4 -18 -1 -18 9 0 8 4 12 10 9 6 -4 7 1
3 11 -5 14 -8 13 -19 -7 -10 -18 -13 -20 -14 -7 0 9 6 23 14 30 8 8 16 23 19
34 3 10 5 3 6 -18 1 -38 15 -58 24 -34 3 7 0 20 -6 27 -10 11 -9 11 5 0 15
-11 15 -16 2 -48 -8 -19 -13 -38 -10 -41 3 -3 6 -1 6 4 0 6 7 19 16 30 14 18
15 18 9 -6 -5 -25 -5 -25 6 -2 14 26 31 30 22 5 -9 -27 -24 -43 -33 -38 -5 3
-11 1 -15 -5 -4 -6 -10 -8 -14 -6 -4 3 -7 -13 -7 -35 1 -21 4 -39 9 -39 4 0 7
3 8 8 0 4 2 18 3 30 2 13 9 28 17 32 20 13 27 0 7 -14 -10 -7 -15 -16 -12 -19
3 -3 -1 -20 -10 -38 -19 -39 -20 -49 -3 -49 7 0 13 8 14 19 1 10 15 58 32 106
32 91 37 110 21 85 -8 -12 -10 -11 -10 7 0 12 -4 25 -10 28 -10 6 23 77 35 75
4 -1 12 4 16 12 7 10 9 10 9 0 0 -7 4 -11 9 -8 5 3 7 15 4 27 -5 16 -8 18 -15
7 -6 -9 -8 -3 -6 19 4 25 0 34 -19 44 -18 10 -26 10 -35 1 -17 -17 -24 -15
-24 8 0 11 5 20 11 20 5 0 2 5 -8 11 -27 16 -55 2 -53 -26 1 -31 14 -32 26 -2
6 14 9 17 9 6 1 -9 -10 -28 -24 -43 -14 -15 -25 -32 -25 -39 0 -7 6 -4 14 6
19 24 26 21 25 -10 0 -16 -3 -22 -6 -15 -2 6 -9 10 -13 7 -5 -3 -7 -12 -3 -20
3 -8 0 -15 -7 -15 -7 0 -10 -7 -6 -17 5 -14 3 -14 -9 2 -8 11 -19 25 -25 32
-5 7 -10 19 -10 26 0 17 24 39 34 32 3 -3 2 1 -4 7 -16 19 -12 38 8 39 10 0
12 3 5 6 -7 2 -13 12 -13 21 0 29 -40 -61 -41 -93 -1 -32 -27 -110 -28 -85 -1
8 -4 26 -6 40 -5 22 -4 23 5 5 l10 -20 -3 20 c-2 12 -9 19 -19 17 -19 -3 -34
44 -19 62 5 6 15 25 21 41 l10 30 -20 -25 c-11 -14 -20 -28 -20 -32 0 -5 -4
-8 -9 -8 -20 0 -4 46 27 79 36 37 42 57 13 41 -28 -15 -34 -13 -28 10 3 11 1
18 -3 15 -5 -3 -10 2 -12 10 -2 12 -8 11 -29 -8z"/>
<path d="M2490 4505 c0 -20 7 -47 16 -61 9 -13 14 -28 10 -32 -4 -3 -11 0 -16
8 -8 12 -10 12 -10 1 0 -11 -3 -11 -15 -1 -8 7 -22 10 -30 6 -8 -3 -15 -1 -15
5 0 6 -5 7 -12 3 -8 -5 -5 -13 10 -25 12 -9 22 -24 22 -32 0 -7 9 -22 20 -32
11 -10 20 -22 20 -27 0 -14 -38 -9 -44 7 -3 8 -15 15 -27 15 -15 0 -19 -4 -15
-16 3 -9 6 -23 6 -32 0 -12 3 -13 8 -5 6 10 17 10 42 3 42 -12 49 -12 31 -1
-9 6 -10 11 -2 15 6 4 14 0 17 -8 3 -9 10 -16 16 -16 5 0 1 14 -9 30 -16 27
-16 32 -3 40 13 8 13 13 2 31 -11 16 -11 20 -1 17 7 -2 17 -13 23 -24 6 -10
21 -31 33 -46 26 -34 40 -88 24 -98 -7 -4 -13 -25 -14 -48 0 -22 -4 -39 -8
-36 -17 10 -17 -16 0 -37 10 -13 21 -31 24 -39 3 -8 4 18 2 59 -2 41 -2 78 1
83 10 16 45 -14 84 -74 43 -66 48 -67 26 -4 -7 21 -15 33 -18 26 -2 -8 -12 3
-22 23 -9 20 -21 37 -26 37 -8 0 -21 26 -71 140 -13 30 -34 70 -47 87 -16 22
-23 42 -20 58 3 14 1 28 -3 31 -5 3 -9 -11 -9 -31z"/>
<path d="M1403 4506 c4 -11 1 -13 -10 -9 -11 4 -14 2 -9 -5 4 -7 3 -12 -2 -12
-5 0 -12 -9 -15 -19 -3 -14 0 -19 14 -18 13 1 15 4 7 14 -15 18 17 29 37 13
20 -17 19 -48 -2 -53 -17 -4 -17 -5 0 -6 10 0 16 -5 13 -10 -3 -5 -16 -7 -29
-4 -19 4 -20 3 -7 -9 9 -7 14 -22 12 -33 -3 -16 -1 -18 9 -7 15 14 29 16 29 3
0 -5 -9 -11 -20 -14 -23 -6 -54 19 -44 35 4 6 -2 6 -14 -1 -12 -6 -24 -16 -27
-21 -4 -6 -11 -7 -17 -4 -6 4 -21 -6 -33 -22 -13 -16 -27 -25 -31 -21 -9 9 7
41 17 35 4 -2 16 5 27 15 12 11 25 16 30 13 5 -3 16 1 23 10 7 8 8 14 3 13
-23 -4 -26 2 -8 17 18 14 18 15 -4 4 -12 -6 -20 -15 -17 -21 4 -5 -1 -9 -9 -9
-9 0 -16 4 -16 8 0 4 -9 8 -20 8 -11 0 -20 -4 -20 -9 0 -5 -6 -7 -14 -4 -7 3
-19 0 -26 -6 -9 -8 -11 -9 -7 -1 7 12 -42 109 -50 100 -6 -6 52 -131 78 -167
11 -16 15 -30 10 -34 -11 -6 -4 -32 14 -55 15 -18 27 -62 15 -55 -11 7 -18
-15 -12 -38 4 -16 7 -14 23 10 20 30 26 15 8 -18 -11 -22 5 -54 23 -43 11 7 5
111 -7 122 -5 4 -5 1 -1 -5 4 -7 2 -13 -3 -13 -6 0 -11 10 -11 23 0 26 -17 51
-40 61 -8 3 -1 4 15 1 27 -5 28 -4 13 8 -25 19 -22 30 4 24 12 -4 28 -1 35 5
9 7 13 7 13 -1 0 -6 -4 -11 -9 -11 -16 0 -20 -29 -10 -60 6 -16 18 -30 26 -30
8 0 11 -4 8 -10 -3 -5 -3 -16 2 -22 4 -7 8 -17 8 -22 0 -5 13 -10 29 -12 33
-3 48 -14 20 -14 -16 0 -16 -2 4 -16 14 -10 32 -14 48 -10 14 4 24 2 24 -4 0
-5 -3 -9 -7 -8 -5 2 -18 -5 -31 -14 -35 -24 -5 -28 39 -5 27 14 36 25 34 39
-3 15 0 18 18 13 22 -6 22 -6 -1 8 -12 7 -19 16 -16 20 4 4 2 7 -5 7 -6 0 -11
-6 -10 -12 4 -33 -1 -41 -16 -28 -8 7 -12 17 -8 23 3 5 1 7 -5 3 -6 -3 -14 -1
-17 5 -4 5 -14 8 -23 4 -9 -3 -13 -3 -9 1 4 4 -1 13 -11 20 -15 12 -13 13 16
8 19 -4 32 -2 32 4 0 5 9 12 20 15 11 3 20 13 21 24 0 10 1 38 2 61 2 24 -1
46 -5 48 -5 3 -8 16 -8 29 0 12 -6 25 -12 27 -18 7 -39 -2 -33 -13 4 -5 -1 -6
-9 -3 -18 7 -21 20 -6 29 15 10 6 69 -16 98 -21 28 -40 36 -31 13z"/>
<path d="M1020 4241 c0 -6 5 -13 10 -16 19 -11 10 -23 -12 -17 -19 4 -21 3
-12 -9 7 -9 8 -21 3 -34 -8 -18 -8 -17 -6 5 1 16 -3 24 -11 22 -8 -1 -11 2 -7
8 9 14 -14 12 -28 -2 -19 -20 -49 -92 -45 -109 2 -8 -3 -13 -10 -11 -9 2 -7
-5 5 -22 10 -13 23 -22 29 -19 7 2 15 -1 20 -8 4 -7 3 -10 -3 -6 -6 4 -22 -2
-36 -13 -13 -11 -37 -24 -52 -30 -15 -6 -25 -13 -22 -16 3 -4 26 5 50 19 l43
26 11 -30 c7 -17 7 -31 2 -35 -5 -3 -12 1 -15 9 -2 7 -11 14 -18 14 -10 0 -12
-6 -6 -21 4 -12 14 -20 21 -18 10 2 9 -1 -1 -13 -9 -11 -15 -12 -20 -5 -4 6
-14 8 -23 4 -15 -5 -14 -8 6 -24 35 -27 87 -52 87 -40 0 5 -6 10 -14 10 -19 0
-40 26 -26 35 5 3 10 -1 10 -9 0 -9 7 -16 16 -16 14 0 14 3 4 15 -7 9 -10 18
-6 22 3 3 6 1 6 -7 0 -10 3 -10 14 -1 11 10 14 9 12 -1 -1 -7 -5 -19 -9 -25
-5 -8 -3 -13 4 -13 9 0 9 -3 0 -14 -13 -16 -48 -10 -69 11 -15 15 -36 18 -27
4 3 -5 -2 -17 -11 -25 -8 -9 -11 -16 -5 -16 6 0 11 -7 11 -15 0 -8 4 -15 9
-15 5 0 8 14 6 30 -3 18 0 28 5 25 6 -4 10 -17 10 -31 0 -18 6 -24 23 -26 12
0 0 -4 -28 -8 l-50 -7 57 0 c43 0 55 4 51 14 -3 8 0 12 8 9 8 -2 28 -8 44 -12
l30 -8 -35 -6 -35 -7 42 -2 c23 0 45 4 49 11 4 6 3 8 -3 5 -11 -7 -28 22 -18
31 3 3 5 0 5 -6 0 -7 4 -12 10 -12 5 0 7 6 4 14 -4 11 1 14 20 12 14 -2 23 1
20 5 -3 5 5 22 17 38 15 20 20 39 17 60 -3 18 0 31 6 31 6 0 3 7 -6 14 -22 16
-23 30 -2 50 8 9 12 16 7 16 -24 -1 -50 -45 -32 -56 6 -3 8 -12 5 -20 -3 -8
-1 -14 4 -14 20 0 3 -65 -19 -76 -12 -6 -22 -15 -21 -19 0 -5 -15 -10 -35 -12
-42 -4 -47 13 -6 22 36 8 61 32 34 32 -44 0 -49 3 -29 18 11 8 16 15 11 15 -4
0 0 9 10 20 10 11 13 20 7 20 -6 0 -14 -4 -17 -10 -12 -19 -30 -10 -31 15 -2
20 1 23 11 15 9 -7 17 -4 31 12 16 19 16 20 2 9 -12 -9 -18 -10 -18 -2 0 7
-19 11 -47 11 l-48 0 25 -23 c29 -26 36 -47 15 -47 -8 0 -15 6 -15 13 0 7 -9
23 -19 34 -12 13 -16 24 -10 30 10 10 1 46 -10 39 -4 -3 -13 -1 -21 5 -11 6
-12 9 -2 9 8 0 10 5 6 13 -6 9 -5 9 8 0 12 -11 20 -9 42 10 29 25 26 37 -11
37 -16 0 -22 -4 -17 -12 4 -6 3 -8 -4 -4 -5 3 -13 0 -15 -6 -3 -8 -6 -6 -6 4
-1 11 9 20 26 24 24 6 25 8 9 20 -9 6 -13 15 -8 18 4 2 15 -4 22 -15 18 -25
42 -24 58 1 7 11 18 20 25 20 8 0 7 -3 -3 -10 -8 -5 -11 -12 -7 -16 4 -4 2
-13 -5 -21 -8 -11 -7 -12 6 -7 10 4 15 13 12 21 -3 8 -2 12 3 8 5 -3 11 1 14
7 2 7 8 10 12 6 4 -4 2 -14 -4 -22 -8 -9 -8 -16 -2 -20 6 -4 15 2 20 13 9 16
6 23 -20 41 -16 12 -28 24 -25 27 5 6 -25 43 -36 43 -5 0 -8 -4 -8 -9z"/>
<path d="M1845 4168 c-10 -16 -11 -27 -4 -42 9 -19 9 -19 -4 -4 -13 17 -15 17
-33 -3 -10 -12 -32 -28 -48 -36 -28 -15 -29 -14 -23 9 5 20 4 21 -7 6 -11 -15
-13 -15 -24 2 -9 14 -8 20 1 23 7 2 9 8 4 12 -4 5 -12 4 -19 -3 -8 -8 -4 -20
16 -47 15 -19 31 -33 37 -30 5 3 6 0 3 -8 -3 -8 0 -18 5 -22 6 -3 8 -12 5 -18
-4 -7 -3 -9 1 -4 5 4 18 -1 29 -10 17 -15 17 -13 -2 8 l-23 27 28 0 c15 0 29
5 31 11 2 6 7 9 12 6 5 -3 11 4 15 15 3 11 13 20 21 20 8 0 14 5 14 10 0 24
20 7 21 -17 2 -27 2 -27 6 -3 2 14 7 32 10 40 12 30 11 39 -8 56 -28 25 -47
26 -64 2z"/>
<path d="M2854 4088 c14 -203 33 -315 53 -311 6 1 14 -22 18 -55 4 -31 12 -60
18 -64 7 -4 2 -11 -13 -17 -14 -5 -18 -10 -10 -10 16 0 60 32 60 44 0 4 -7 2
-15 -5 -22 -18 -18 1 6 29 12 15 23 21 27 15 4 -6 15 -13 25 -17 13 -5 16 -13
12 -27 -3 -11 -2 -20 3 -20 18 0 20 38 4 61 -8 12 -10 19 -4 15 7 -4 12 -3 12
3 0 5 -6 11 -12 13 -9 3 -8 9 4 22 10 9 20 33 23 54 3 20 10 57 15 82 11 53
19 110 13 93 -3 -7 -9 -13 -14 -13 -6 0 -7 -4 -4 -10 3 -5 1 -18 -4 -27 -11
-19 -13 -16 -15 38 -1 18 2 25 11 22 15 -6 13 31 -2 44 -4 5 -5 2 0 -6 5 -9 4
-12 -3 -7 -7 4 -12 22 -12 39 0 22 -3 28 -9 18 -7 -11 -10 -10 -15 5 -3 10 -4
7 -2 -9 2 -15 -1 -30 -5 -33 -5 -3 -9 7 -10 23 0 27 -17 78 -18 57 -1 -17 -31
-12 -31 5 0 14 -2 14 -10 1 -7 -12 -10 -8 -10 14 0 28 -1 29 -15 10 -16 -22
-20 -58 -5 -49 6 3 10 -1 10 -10 0 -9 5 -13 11 -10 6 4 9 0 7 -11 -5 -29 25
-23 33 6 l7 25 3 -27 c1 -16 3 -36 3 -45 1 -10 7 -22 14 -26 6 -4 13 -16 13
-25 1 -9 5 -1 10 18 6 27 7 23 3 -20 -3 -30 -5 -66 -4 -79 0 -30 -4 -26 -18
17 -6 19 -7 30 -2 27 6 -4 10 -2 10 3 0 5 -9 12 -20 15 -11 3 -20 1 -20 -4 0
-5 -5 -9 -10 -9 -6 0 -8 17 -5 43 4 30 2 38 -5 27 -12 -18 -11 -110 2 -127 6
-7 6 -18 2 -25 -6 -10 -4 -10 7 -2 20 14 42 12 46 -6 4 -13 3 -13 -6 0 -9 13
-11 13 -11 -2 0 -24 11 -48 22 -48 5 0 7 4 4 9 -4 5 -2 20 2 32 l9 23 12 -22
c7 -13 10 -28 7 -35 -2 -7 -5 -4 -5 6 -1 9 -6 17 -11 17 -7 0 -7 -7 0 -20 13
-24 4 -64 -12 -54 -7 4 -6 9 3 14 8 6 -8 18 -48 36 -60 27 -61 29 -65 71 -4
55 6 55 20 1 9 -33 10 -35 7 -9 -3 18 -5 53 -5 78 0 29 -4 42 -11 38 -6 -4 -8
-13 -6 -19 3 -7 -1 -13 -9 -13 -8 0 -13 5 -11 11 2 6 -5 28 -16 50 -22 42 -32
112 -17 121 15 9 12 22 -6 29 -15 6 -16 -4 -10 -96z"/>
<path d="M1508 3843 c-26 -7 -22 -16 14 -33 35 -16 49 -40 24 -40 -9 0 -16 8
-16 18 0 14 -2 15 -10 2 -6 -9 -13 -11 -17 -5 -11 14 -40 17 -48 5 -4 -6 -3
-9 2 -8 16 4 53 -14 53 -26 0 -28 -27 -38 -64 -25 -28 10 -38 10 -50 0 -10 -9
-16 -9 -16 -3 0 6 8 16 18 21 9 6 12 11 5 11 -6 0 -19 -7 -28 -16 -12 -13 -29
-15 -78 -10 -45 4 -53 3 -28 -3 64 -17 144 -23 137 -12 -4 6 0 11 8 11 9 0 15
-6 14 -12 -2 -9 13 -14 43 -16 52 -3 100 12 95 30 -1 7 -1 10 1 6 6 -9 33 2
33 14 0 5 -4 6 -10 3 -5 -3 -10 -1 -10 4 0 6 5 11 11 11 8 0 9 4 0 13 -6 8 -7
18 -3 22 4 5 -2 5 -12 1 -16 -5 -17 -4 -6 9 7 8 9 15 4 15 -5 0 -2 5 6 10 11
7 6 9 -20 9 -19 -1 -43 -3 -52 -6z"/>
<path d="M3190 3669 c0 -5 -4 -8 -9 -5 -5 3 -12 -1 -15 -10 -3 -8 -2 -12 4 -9
12 8 12 -23 -1 -50 -8 -16 -8 -15 -4 8 4 18 2 26 -4 22 -13 -7 -3 -126 12
-140 7 -7 8 -6 3 3 -4 6 -3 12 2 12 16 0 22 -13 12 -25 -12 -14 14 -29 33 -19
7 3 5 0 -4 -8 -19 -15 -14 -38 8 -38 9 0 13 6 10 13 -3 8 -1 20 5 28 8 11 9
11 4 -3 -3 -10 -1 -20 3 -23 5 -2 12 12 16 33 4 20 10 41 13 47 9 14 9 84 0
79 -5 -3 -8 4 -8 14 0 17 -6 20 -39 18 -38 -1 -39 0 -36 32 2 17 1 32 -1 32
-2 0 -4 -5 -4 -11z"/>
<path d="M2571 3530 c-28 -24 -24 -25 18 -4 40 20 51 11 24 -19 -22 -23 -63
-92 -63 -105 0 -4 4 -1 9 6 6 10 11 9 22 -4 8 -10 9 -15 3 -11 -7 4 -20 -5
-30 -21 -15 -24 -15 -25 -1 -13 12 9 17 10 17 2 0 -7 4 -10 9 -7 5 3 11 -1 15
-9 12 -31 -66 -59 -92 -33 -9 9 -12 9 -12 -2 0 -13 -2 -13 -10 0 -5 8 -10 10
-10 4 0 -19 33 -42 78 -54 45 -12 60 -6 97 36 11 12 7 114 -4 114 -4 0 -6 -12
-5 -27 3 -62 -58 -121 -111 -107 -40 10 -39 23 2 17 29 -4 45 0 66 17 15 12
25 26 22 31 -3 5 -1 18 5 29 6 12 7 20 1 20 -5 0 -12 -6 -14 -12 -3 -7 -6 0
-6 15 -1 16 3 26 7 23 5 -3 7 8 4 23 -2 16 3 43 12 60 27 51 -5 70 -53 31z"/>
<path d="M3261 1986 c-9 -10 -9 -21 -3 -33 13 -23 14 -105 1 -98 -5 4 -9 -2
-9 -12 0 -11 -5 -24 -12 -31 -12 -12 -18 -92 -6 -92 3 0 5 -14 3 -30 -3 -21
-1 -28 7 -24 7 4 8 3 4 -5 -4 -6 -2 -18 4 -26 6 -8 9 -19 6 -24 -4 -5 -2 -12
3 -15 5 -3 8 -25 6 -48 -1 -24 2 -49 8 -55 6 -9 5 -13 -4 -13 -11 0 -11 -2 1
-10 8 -5 18 -10 21 -10 4 0 6 38 5 85 0 47 -4 85 -8 85 -5 0 -8 5 -8 11 0 5 4
8 8 5 13 -8 13 55 0 72 -7 9 -8 13 -2 9 7 -4 10 26 10 93 0 55 -4 94 -8 87 -4
-7 -8 -7 -8 -1 0 5 5 15 11 21 9 9 8 16 -4 28 -9 8 -14 22 -11 30 8 19 0 19
-15 1z"/>
</g>
</svg>
