<?xml version="1.0" standalone="no"?>
<!DOCTYPE svg PUBLIC "-//W3C//DTD SVG 20010904//EN"
 "http://www.w3.org/TR/2001/REC-SVG-20010904/DTD/svg10.dtd">
<svg version="1.0" xmlns="http://www.w3.org/2000/svg"
 width="300.000000pt" height="168.000000pt" viewBox="0 0 300.000000 168.000000"
 preserveAspectRatio="xMidYMid meet">
<metadata>
Created by potrace 1.16, written by Peter Selinger 2001-2019
</metadata>
<g transform="translate(0.000000,168.000000) scale(0.100000,-0.100000)"
fill="#000000" stroke="none">
<path d="M2560 1168 c-5 -13 -14 -65 -19 -116 -5 -51 -11 -95 -14 -98 -3 -3
-19 -4 -35 -2 l-30 3 31 65 c20 43 31 81 31 112 1 27 0 48 -1 48 0 0 -27 -53
-59 -117 -31 -65 -60 -122 -63 -128 -2 -5 2 -4 11 3 18 14 94 7 117 -12 11 -8
15 -8 18 2 7 20 23 14 23 -9 0 -16 -4 -19 -19 -14 -18 5 -19 3 -11 -27 11 -35
7 -42 -27 -53 -19 -5 -23 -3 -23 18 0 30 -6 36 -31 30 -25 -7 -25 -30 1 -38
11 -3 20 -11 20 -16 0 -5 16 -9 36 -9 24 0 34 -4 32 -12 -3 -9 -47 -17 -129
-25 l-124 -11 160 5 c88 2 164 5 170 6 15 3 18 -55 3 -64 -11 -7 -10 -11 2
-19 8 -5 11 -10 5 -11 -5 0 1 -4 15 -8 15 -5 23 -13 21 -22 -3 -8 -4 -29 -3
-46 2 -31 0 -32 -26 -27 l-29 6 5 -56 c3 -38 1 -56 -7 -56 -6 0 -12 14 -11 33
0 56 -4 77 -15 77 -6 0 -6 3 1 8 6 4 16 17 23 30 10 18 9 23 -4 28 -8 3 -15
10 -15 15 0 4 8 5 17 2 13 -5 15 -2 10 11 -4 10 -7 20 -7 22 0 3 -6 2 -12 -2
-7 -4 -5 2 5 14 20 22 16 42 -9 42 -9 0 -14 -11 -14 -31 0 -17 -4 -28 -10 -24
-6 3 -7 -1 -4 -9 8 -21 -10 -20 -44 0 -25 15 -25 14 5 -13 25 -23 32 -40 38
-86 4 -31 4 -57 0 -57 -16 0 -45 22 -40 31 4 5 1 9 -5 9 -8 0 -10 13 -5 40 4
25 3 40 -3 40 -6 0 -13 13 -17 30 -4 16 -10 30 -15 30 -5 0 -10 10 -12 23 -4
30 -31 28 -34 -3 -1 -14 -7 -43 -13 -65 -13 -50 -14 -88 -2 -80 12 7 25 -31
16 -45 -9 -14 -72 -12 -79 3 -5 9 -7 9 -12 -1 -3 -6 -10 -9 -16 -6 -6 4 -9
-15 -6 -55 1 -34 -1 -60 -6 -58 -5 2 -9 36 -9 77 0 66 2 74 22 81 26 10 28 23
2 14 -12 -4 -21 0 -25 12 -7 17 -8 17 -17 0 -6 -9 -8 -21 -4 -26 3 -5 1 -12
-5 -16 -6 -4 -10 6 -10 22 -1 26 -2 26 -14 -9 -7 -21 -14 -52 -14 -70 0 -62
-1 -65 -12 -48 -12 19 -13 97 -1 102 10 3 14 22 12 53 -1 18 -3 18 -12 3 -5
-9 -15 -15 -22 -12 -20 7 -18 50 3 69 15 14 17 21 9 32 -18 21 -30 15 -23 -12
5 -21 3 -24 -10 -19 -10 4 -15 12 -12 19 6 17 -10 39 -23 31 -8 -5 -8 -13 0
-28 9 -18 8 -19 -10 -13 -15 5 -21 2 -21 -9 0 -9 -10 -26 -21 -37 l-22 -22
-17 23 c-12 16 -23 21 -35 16 -15 -5 -15 -9 -4 -24 11 -15 11 -15 -1 -4 -8 7
-15 20 -15 29 0 9 -6 18 -13 21 -12 4 -13 0 -12 -91 0 -20 -4 -37 -10 -37 -9
0 -15 28 -11 58 1 6 -3 12 -9 12 -6 0 -8 -4 -5 -10 3 -5 2 -10 -4 -10 -5 0
-13 5 -17 11 -10 17 -24 -10 -24 -48 0 -18 -4 -33 -9 -33 -5 0 -16 -3 -25 -6
-11 -4 -16 0 -16 14 0 12 -5 24 -10 27 -6 4 -8 10 -5 15 3 4 -2 13 -9 19 -11
9 -19 9 -35 -1 -22 -13 -29 -38 -11 -38 6 0 10 -10 9 -22 0 -13 -3 -17 -6 -10
-2 6 -10 12 -17 12 -7 0 -18 11 -24 25 -6 14 -16 25 -21 25 -5 0 -3 -13 5 -30
9 -16 20 -30 25 -30 5 0 9 -18 9 -40 0 -26 5 -43 15 -46 11 -5 12 -9 2 -19
-10 -10 -14 -7 -23 19 -6 17 -23 37 -38 44 -26 13 -27 15 -10 33 13 14 14 23
7 30 -14 14 -53 2 -53 -16 0 -8 -9 -13 -19 -12 -11 0 -17 6 -14 14 3 7 9 10
14 7 5 -3 9 0 9 5 0 15 -17 14 -27 -1 -5 -8 -10 6 -15 37 -11 89 -10 113 10
118 9 3 0 5 -20 6 -27 1 -38 6 -38 16 0 8 6 15 14 15 15 0 14 24 -5 135 -5 33
-14 96 -18 140 l-8 80 0 -105 c0 -111 -9 -144 -43 -155 -11 -3 -20 -10 -20
-14 0 -3 -14 -15 -31 -25 -18 -11 -29 -14 -25 -8 3 6 2 13 -3 16 -11 7 -20
-27 -22 -84 -1 -38 -2 -41 -9 -20 -4 14 -8 48 -9 77 -1 50 -2 52 -33 61 -18 6
-42 13 -53 16 -11 4 1 -4 28 -19 32 -17 47 -32 47 -46 0 -11 -4 -18 -9 -15 -4
3 -6 -6 -3 -19 3 -19 -2 -27 -20 -35 -21 -10 -24 -18 -24 -60 1 -27 -1 -50 -4
-53 -3 -3 -33 -8 -68 -11 -54 -6 -63 -4 -69 11 -13 34 -52 46 -54 16 0 -11 -3
-13 -6 -5 -8 20 -18 14 -19 -13 -1 -16 3 -25 13 -25 8 0 11 -5 7 -12 -5 -8
-13 -5 -25 10 -21 27 -79 31 -79 6 0 -8 4 -12 10 -9 5 3 19 8 30 10 15 3 20
-2 20 -19 0 -19 5 -23 27 -20 15 1 38 -4 52 -11 25 -14 25 -14 4 -15 -19 0
-23 -6 -23 -32 0 -58 10 -78 39 -79 25 -1 25 -2 -4 -8 l-30 -7 33 -7 c36 -7
35 -27 -1 -27 -18 0 -19 2 -7 11 11 8 8 9 -13 4 -18 -3 -26 -2 -23 4 9 14 -4
61 -16 61 -6 0 -8 -9 -5 -20 3 -11 2 -22 -2 -24 -4 -3 -8 12 -9 32 -3 41 -32
83 -32 46 0 -28 21 -87 34 -97 6 -5 -4 -6 -23 -3 -19 4 -36 7 -37 9 -1 1 -4
27 -6 57 -3 36 -8 54 -16 53 -17 -4 -15 12 3 27 13 10 19 10 35 -5 19 -18 20
-17 20 3 0 12 -4 22 -10 22 -5 0 -7 7 -4 15 9 22 -12 18 -34 -6 -18 -19 -20
-19 -27 -2 -9 21 -12 29 -14 43 0 6 -8 10 -16 10 -16 0 -21 -25 -6 -34 4 -3
11 -37 15 -76 6 -60 10 -70 27 -70 12 0 19 -7 19 -19 0 -15 -7 -19 -37 -18
-21 0 -48 -3 -60 -7 -23 -7 -33 7 -13 19 6 3 10 15 10 26 0 10 4 19 9 19 10 0
24 92 16 112 -3 7 -15 14 -25 15 -11 1 -18 -2 -15 -8 4 -5 -1 -9 -9 -9 -8 0
-20 -8 -26 -17 -9 -15 -10 -12 -6 15 3 18 13 40 21 48 8 9 15 22 15 31 0 13
10 15 58 11 31 -2 71 -1 87 3 17 4 -28 7 -100 7 -121 0 -127 0 -90 -13 36 -12
38 -14 18 -20 -13 -4 -23 -14 -23 -21 0 -8 -4 -14 -9 -14 -11 0 -9 -29 3 -72
5 -16 12 -25 17 -22 5 3 9 0 9 -5 0 -6 -4 -11 -8 -11 -14 0 -42 35 -42 53 0 9
-5 17 -11 17 -11 0 -44 29 -38 34 2 1 15 7 29 12 l25 11 -23 12 c-18 10 -22 9
-22 -4 0 -8 -9 -15 -20 -15 -11 0 -20 6 -20 13 0 8 -3 7 -10 -3 -8 -13 -10
-13 -14 0 -3 8 -4 24 -3 35 1 11 -3 19 -10 18 -6 -1 -14 4 -17 13 -3 8 -2 13
3 10 4 -3 13 6 19 20 9 18 18 23 34 21 13 -3 32 -1 43 4 17 7 16 8 -7 8 -23 1
-28 6 -28 27 0 14 -4 23 -9 20 -5 -3 -7 -15 -4 -26 3 -11 0 -20 -6 -20 -12 0
-10 62 4 93 10 24 28 22 20 -3 -4 -11 -2 -20 4 -20 6 0 8 -8 4 -17 -3 -10 -4
-16 -2 -13 43 51 44 53 27 47 -13 -5 -18 -1 -18 12 0 11 -5 21 -11 23 -6 2 -2
22 12 53 26 59 27 61 35 100 l6 30 -17 -23 c-9 -13 -15 -31 -13 -40 5 -19 -16
-45 -26 -34 -4 3 -4 -1 0 -11 4 -10 1 -17 -6 -17 -6 0 -10 -6 -7 -12 10 -28
-12 -47 -50 -43 -21 2 -62 5 -90 6 -29 1 -53 4 -53 6 0 4 66 33 76 33 4 0 1
-7 -6 -15 -21 -25 1 -17 25 9 13 14 20 27 17 30 -3 3 0 6 6 6 7 0 12 -5 12
-12 0 -7 5 -5 13 4 6 9 21 18 32 21 15 3 13 5 -8 6 -28 1 -28 1 -10 25 10 13
21 22 24 20 4 -2 14 5 24 16 10 11 14 20 9 20 -5 0 -2 5 6 11 13 9 13 10 0 6
-8 -2 -21 -14 -27 -28 -7 -13 -13 -19 -13 -14 0 6 -7 1 -15 -9 -13 -17 -15
-17 -21 -3 -3 9 -2 22 2 29 4 7 -2 5 -13 -5 -11 -9 -24 -14 -29 -10 -5 5 -6 4
-2 -1 8 -9 -15 -36 -31 -36 -5 0 -11 -12 -13 -27 -2 -21 -9 -29 -27 -31 -18
-3 -21 -6 -10 -12 10 -7 9 -9 -6 -8 -11 0 -29 -3 -40 -7 -16 -5 -17 -5 -5 4 9
6 10 11 3 11 -6 0 -19 -14 -27 -32 -19 -38 -19 -38 -4 -34 7 1 10 1 6 -1 -5
-3 -8 -19 -8 -36 0 -18 -4 -27 -8 -22 -10 14 -52 19 -52 6 0 -6 8 -8 18 -4 16
6 16 5 -1 -14 -11 -13 -17 -36 -17 -66 l0 -47 53 -1 c28 -1 42 -4 29 -6 -46
-9 -8 -23 64 -23 l74 0 0 85 c0 78 -2 85 -20 85 -15 0 -20 -7 -20 -24 0 -14
-5 -28 -11 -32 -8 -4 -9 1 -4 17 6 19 -1 15 -32 -18 -38 -42 -65 -53 -78 -33
-3 6 1 10 9 10 9 0 16 7 16 15 0 8 9 23 21 34 19 18 26 35 28 71 1 13 3 13 11
0 8 -12 11 -12 28 3 10 9 27 17 38 17 20 -1 54 -22 54 -35 0 -4 -7 -2 -15 5
-12 10 -15 9 -15 -7 0 -11 9 -24 20 -29 19 -8 19 -11 4 -39 -21 -41 -31 -125
-14 -125 8 0 10 -6 5 -17 -4 -10 -8 -24 -8 -30 0 -7 -7 -13 -15 -13 -9 0 -13
7 -9 20 6 24 -7 34 -29 22 -16 -9 -15 -11 4 -28 31 -26 28 -51 -6 -56 -51 -7
-70 15 -37 42 8 7 15 19 15 28 0 11 -9 13 -40 9 -22 -3 -40 -1 -40 4 0 4 -7 6
-15 3 -25 -10 -17 -24 14 -24 34 0 40 -12 42 -86 2 -42 5 -51 18 -47 12 3 16
-4 17 -27 1 -23 -3 -30 -17 -30 -10 0 -19 9 -22 23 l-4 22 -2 -22 c0 -13 -5
-23 -11 -23 -5 0 -7 7 -4 15 4 9 -1 18 -11 21 -12 5 -16 18 -15 48 3 70 2 72
-26 45 -18 -17 -23 -19 -18 -6 3 10 1 17 -5 17 -6 0 -17 11 -23 25 -7 17 -14
21 -19 14 -10 -16 -29 -2 -29 22 0 21 -8 23 -30 9 -13 -8 -12 -10 3 -10 12 0
17 -8 17 -30 0 -25 -4 -30 -24 -30 -13 0 -26 -6 -29 -12 -2 -7 -8 -9 -13 -5
-5 4 -2 12 5 16 8 6 12 19 9 35 -3 14 0 27 6 30 7 3 6 8 -4 15 -13 9 -12 11 3
11 11 0 17 6 14 13 -2 7 -22 12 -50 12 -25 0 -49 3 -53 7 -4 5 1 8 10 8 10 0
16 6 13 13 -2 6 -10 11 -16 9 -6 -1 -11 2 -11 8 0 6 -3 9 -8 9 -27 -4 -32 4
-32 51 0 30 -4 50 -11 50 -7 0 -9 10 -5 25 4 14 3 31 -1 38 -5 8 -10 1 -14
-18 l-6 -30 -8 33 c-4 17 -13 32 -20 32 -7 0 -27 17 -44 38 -24 29 -30 33 -31
18 0 -18 -1 -19 -20 -1 -25 23 -36 14 -18 -14 11 -18 11 -23 -2 -31 -12 -8
-11 -10 7 -10 19 0 73 -54 73 -73 0 -4 -20 -7 -45 -7 l-45 0 0 -400 1 -400 39
0 c28 0 40 5 43 18 4 16 5 16 6 0 1 -14 10 -18 41 -18 23 0 43 5 45 12 11 29
12 64 3 75 -12 15 32 77 45 64 6 -6 20 -5 36 0 22 8 45 3 117 -25 50 -19 131
-45 180 -57 98 -24 142 -49 86 -49 -18 0 -32 -4 -32 -8 0 -12 152 -14 183 -3
17 7 28 7 32 1 7 -12 90 -11 125 0 19 7 13 8 -25 6 -53 -3 -81 13 -72 39 5 12
15 11 67 -4 34 -9 66 -25 71 -34 9 -16 79 -17 1009 -17 l1000 0 0 60 c0 52 -3
60 -18 60 -31 0 -33 11 -7 32 22 17 25 27 25 90 l0 70 -32 -7 c-23 -5 -30 -4
-23 3 6 6 21 12 35 15 14 2 4 5 -23 6 -30 0 -46 -3 -42 -9 7 -11 -35 -11 -80
0 -21 5 -24 8 -9 9 11 0 25 6 32 13 14 14 112 28 112 16 0 -4 7 -8 15 -8 19 0
22 80 3 81 -24 1 -62 9 -67 14 -2 3 14 4 37 2 40 -3 56 6 30 16 -10 4 -10 6 0
6 8 1 12 21 12 67 0 41 -4 63 -10 59 -5 -3 -10 -2 -10 4 0 5 5 13 10 16 15 9
12 42 -5 49 -18 7 -20 26 -2 26 8 0 14 15 15 36 l3 37 -53 -7 c-29 -4 -71 -7
-93 -7 -33 0 -36 -2 -15 -8 22 -6 23 -8 7 -14 -11 -4 -23 -5 -28 -1 -5 3 -9 0
-9 -5 0 -6 -7 -11 -16 -11 -8 0 -12 5 -9 10 8 13 7 13 -60 -10 -67 -23 -75
-19 -75 43 l0 37 -45 0 c-25 0 -45 5 -45 10 0 10 10 12 63 12 21 1 26 5 23 17
-3 9 -8 54 -11 101 -8 115 -22 230 -24 203 -2 -37 -21 -26 -21 11 0 42 -16 55
-30 24z m188 -898 c37 -9 52 -17 52 -28 0 -15 2 -15 11 -2 8 12 10 12 7 -5 -4
-23 -37 -33 -49 -14 -6 11 -11 11 -21 1 -6 -6 -27 -12 -45 -12 -18 0 -33 -4
-33 -9 0 -14 52 -20 105 -11 77 13 83 12 56 -10 l-23 -20 22 0 c13 0 20 -5 17
-12 -2 -7 -15 -13 -28 -12 -45 2 -327 80 -343 95 -6 5 -21 9 -35 9 -15 0 -33
5 -41 10 -25 16 52 12 107 -6 48 -16 51 -15 94 7 24 13 50 22 58 20 8 -1 10 2
6 9 -5 8 -1 10 11 7 11 -3 43 -11 72 -17z m-2436 -68 c-3 -30 -2 -32 30 -32
144 0 208 -7 272 -29 54 -18 65 -26 52 -33 -9 -5 -16 -18 -16 -30 0 -18 -4
-19 -35 -14 -40 8 -254 77 -307 100 -32 14 -38 21 -38 47 0 26 3 30 23 27 18
-2 21 -8 19 -36z"/>
<path d="M2332 1103 c-12 -41 -5 -163 9 -163 5 0 9 10 10 23 0 21 1 21 8 2 13
-31 3 -43 -40 -47 -45 -4 -49 -1 -16 12 21 8 21 9 -6 9 -17 1 -37 11 -49 24
-14 16 -18 17 -14 5 3 -11 -3 -23 -16 -32 -20 -14 -19 -15 18 -10 29 4 35 3
24 -5 -20 -14 -46 -14 -73 2 -14 9 -34 11 -57 7 l-35 -7 45 -3 45 -3 -45 -8
c-63 -11 -132 -10 -105 1 19 8 19 9 -2 9 -14 1 -23 -5 -23 -14 0 -11 -14 -15
-57 -16 -32 -1 -71 -5 -88 -10 -23 -6 -19 -7 20 -4 168 14 237 16 232 8 -3 -5
3 -10 15 -10 13 -1 18 3 14 12 -4 11 0 12 19 5 14 -5 25 -6 25 -1 0 4 38 9 85
9 l85 1 0 -27 c0 -30 -16 -57 -40 -65 -8 -3 22 -6 68 -6 45 -1 82 2 82 7 0 4
-19 7 -42 7 -37 0 -42 3 -49 28 -11 41 -1 60 27 53 17 -5 24 -2 24 9 0 10 -10
15 -30 15 -31 0 -37 9 -21 26 6 5 6 26 0 54 -6 25 -8 56 -6 69 5 25 -10 71
-23 71 -4 0 -12 -17 -18 -37z"/>
</g>
</svg>
