<?xml version="1.0" standalone="no"?>
<!DOCTYPE svg PUBLIC "-//W3C//DTD SVG 20010904//EN"
 "http://www.w3.org/TR/2001/REC-SVG-20010904/DTD/svg10.dtd">
<svg version="1.0" xmlns="http://www.w3.org/2000/svg"
 width="515.000000pt" height="484.000000pt" viewBox="0 0 515.000000 484.000000"
 preserveAspectRatio="xMidYMid meet">
<metadata>
Created by potrace 1.16, written by Peter Selinger 2001-2019
</metadata>
<g transform="translate(0.000000,484.000000) scale(0.100000,-0.100000)"
fill="#000000" stroke="none">
<path d="M2529 2983 c-1 -5 -1 -11 -1 -15 1 -3 -5 -12 -13 -18 -8 -7 -15 -19
-15 -27 0 -7 -9 -23 -20 -35 l-20 -22 0 24 c0 12 8 29 17 36 10 7 15 15 11 19
-3 4 -16 -3 -27 -14 -12 -12 -25 -21 -31 -21 -5 0 -10 -7 -10 -15 0 -14 -29
-35 -49 -35 -6 0 -11 7 -11 15 0 7 -8 18 -17 24 -17 9 -16 11 1 30 21 23 18
25 -17 12 -20 -8 -27 -6 -31 5 -5 14 -8 14 -21 0 -8 -8 -15 -19 -15 -25 0 -6
-15 -15 -32 -20 -30 -9 -31 -10 -11 -16 11 -4 23 -15 26 -26 4 -15 2 -17 -10
-10 -23 13 -53 1 -53 -20 0 -11 5 -19 10 -19 6 0 10 5 10 12 0 6 3 9 6 5 4 -3
4 -14 0 -23 -6 -16 -8 -16 -25 0 -19 17 -61 18 -73 1 -4 -5 -10 -6 -14 -2 -4
4 0 15 8 24 8 10 18 23 21 29 8 13 -24 15 -40 1 -8 -6 -13 -6 -13 0 0 5 -13 8
-30 5 -34 -5 -37 3 -12 31 16 19 16 19 -5 13 -14 -5 -23 -3 -23 3 0 6 5 11 10
11 16 0 11 27 -6 34 -15 6 -64 -17 -64 -30 0 -3 7 -13 16 -22 12 -11 13 -17 5
-20 -7 -2 -18 4 -25 13 -12 17 -13 17 -19 1 -4 -10 -11 -14 -17 -11 -5 3 -10
1 -10 -4 0 -6 -9 -11 -20 -11 -11 0 -20 6 -20 13 0 6 -11 12 -25 12 -28 0 -40
-23 -30 -54 7 -22 -14 -40 -25 -21 -11 18 -32 2 -22 -17 6 -9 5 -25 -2 -39
-12 -25 -36 -41 -36 -23 0 6 -9 8 -22 4 -17 -6 -20 -4 -15 9 4 9 2 16 -3 16
-6 0 -10 7 -10 15 0 18 -12 19 -28 3 -9 -9 -12 -9 -12 1 0 7 9 15 20 18 11 3
20 9 20 14 0 5 10 8 21 6 16 -1 22 4 25 23 1 14 0 19 -2 13 -8 -18 -24 -16
-24 2 0 9 -6 12 -15 9 -8 -4 -15 -1 -15 5 0 6 7 11 15 11 16 0 40 38 30 48 -4
4 -15 -3 -25 -15 -21 -26 -45 -31 -36 -8 12 32 -21 13 -36 -20 -12 -28 -13
-33 -2 -24 11 9 14 8 14 -5 0 -9 -7 -19 -15 -22 -8 -4 -15 -15 -15 -26 0 -13
4 -17 13 -12 6 4 3 -3 -8 -15 -11 -13 -19 -32 -17 -42 2 -14 -3 -19 -20 -19
-18 0 -20 2 -8 10 13 8 13 10 -1 10 -9 0 -22 -7 -29 -15 -7 -8 -9 -15 -6 -15
11 0 -17 -26 -34 -33 -13 -5 -13 -6 0 -6 9 -1 21 4 27 10 7 7 13 7 17 1 3 -6
0 -16 -7 -24 -8 -7 -12 -18 -10 -25 2 -6 -5 -17 -16 -23 -19 -10 -21 -8 -21
20 0 35 -20 40 -53 12 -29 -23 -32 -41 -7 -35 21 6 25 -3 11 -26 -5 -8 -16
-11 -25 -8 -8 3 -22 0 -30 -8 -8 -8 -19 -15 -24 -15 -5 0 -15 -7 -22 -15 -9
-11 -22 -14 -42 -10 -21 5 -28 3 -28 -9 0 -10 9 -16 25 -16 27 0 34 -15 10
-24 -8 -3 -15 -14 -15 -24 0 -27 -9 -32 -37 -21 -15 5 -22 5 -18 0 3 -6 -2
-14 -11 -19 -15 -8 -15 -10 1 -15 9 -4 25 -2 35 3 26 14 40 12 40 -5 0 -11 9
-13 37 -9 20 2 40 9 44 15 4 7 9 7 12 2 4 -5 -1 -20 -10 -32 -10 -15 -18 -19
-23 -12 -4 7 -11 2 -18 -14 -7 -15 -8 -25 -2 -25 6 0 10 5 10 12 0 6 3 8 7 5
3 -4 15 1 25 10 13 12 22 13 29 6 8 -8 5 -13 -9 -17 -11 -4 -22 -17 -25 -29
-2 -12 -8 -29 -11 -38 -9 -20 31 -34 50 -18 9 7 13 4 16 -13 2 -18 -4 -25 -27
-33 -24 -8 -29 -15 -27 -35 2 -18 0 -21 -6 -11 -7 10 -14 11 -31 2 -12 -7 -19
-16 -17 -20 8 -13 -20 -45 -32 -37 -6 4 -10 20 -9 35 1 16 5 27 10 24 4 -2 7
3 7 12 0 13 -4 14 -20 5 -11 -6 -25 -8 -30 -5 -6 3 -10 -3 -10 -14 0 -12 -4
-21 -10 -21 -5 0 -10 -8 -10 -17 1 -17 1 -17 11 0 5 9 17 17 24 17 18 0 20
-31 3 -48 -10 -10 -10 -15 1 -21 10 -6 11 -13 3 -27 -8 -15 -6 -22 16 -36 15
-10 21 -18 13 -18 -7 0 -11 -6 -8 -14 3 -8 -3 -23 -14 -35 -11 -12 -16 -21
-12 -21 4 0 1 -5 -7 -10 -13 -9 -12 -12 4 -25 10 -8 24 -12 29 -8 6 4 8 0 4
-10 -4 -11 -1 -17 7 -17 8 0 24 -9 37 -20 19 -16 20 -19 5 -13 -13 4 -17 3
-12 -5 4 -7 4 -12 1 -12 -13 0 -50 23 -58 36 -9 15 -37 19 -37 6 0 -5 9 -18
20 -30 20 -21 27 -22 268 -23 136 -1 371 -4 522 -7 151 -3 349 -5 440 -5 228
0 1185 13 1295 17 50 2 107 5 127 5 29 1 41 7 59 32 41 57 41 67 35 809 -1
168 -6 313 -10 323 -11 23 -26 21 -59 -9 -20 -17 -30 -36 -32 -62 -4 -49 -26
-104 -32 -79 -3 9 -8 17 -13 17 -11 0 -35 -41 -32 -52 1 -5 -3 -8 -8 -8 -6 0
-10 4 -10 10 0 5 -6 7 -14 4 -8 -3 -17 -1 -20 5 -3 5 6 12 21 15 21 5 28 12
28 30 0 22 -2 22 -20 10 -28 -20 -33 -18 -37 13 -2 22 -8 28 -28 28 -18 0 -25
6 -26 20 -1 11 -2 24 -3 29 -1 5 -8 3 -16 -4 -17 -14 -45 -7 -45 12 0 7 -11
13 -24 13 -13 0 -22 -4 -19 -9 3 -4 -4 -5 -15 -2 -22 7 -62 -26 -62 -51 0 -7
-5 -13 -11 -13 -5 0 -7 5 -4 10 12 19 -10 9 -34 -15 -13 -14 -27 -25 -32 -25
-14 0 -10 22 8 42 9 10 14 21 10 24 -11 11 -133 17 -175 9 -12 -2 -20 0 -17 5
3 5 1 11 -4 14 -5 4 -12 -2 -16 -11 -7 -22 -65 -69 -65 -54 0 6 -9 11 -20 11
-11 0 -20 -4 -20 -10 0 -5 -7 -10 -15 -10 -7 0 -19 -8 -24 -17 -6 -10 -11 -14
-11 -10 0 4 -9 3 -20 -3 -17 -9 -20 -8 -20 9 0 13 5 18 13 15 22 -8 19 44 -3
56 -12 6 -17 16 -14 22 5 8 1 9 -12 4 -10 -5 -32 -13 -49 -19 -16 -6 -35 -18
-42 -26 -6 -9 -15 -12 -19 -8 -5 4 -2 12 5 16 9 6 4 9 -14 9 -15 0 -31 -9 -38
-19 -15 -24 -28 -25 -20 -1 6 16 5 16 -14 -1 -19 -16 -22 -17 -36 -2 -12 12
-14 22 -7 40 5 13 6 27 1 29 -12 8 -20 -4 -14 -20 4 -10 0 -12 -11 -8 -9 3
-15 13 -14 22 2 9 -5 18 -14 20 -11 2 -16 -3 -16 -15 2 -30 -12 -73 -23 -73
-7 0 -6 6 2 18 13 15 12 16 -3 3 -19 -15 -24 -41 -8 -41 13 0 13 -12 -1 -47
-10 -26 -12 -27 -23 -10 -12 15 -15 15 -26 2 -10 -12 -10 -15 1 -15 10 0 10
-3 1 -12 -16 -16 -15 -28 3 -28 8 0 15 -5 15 -11 0 -6 -6 -9 -13 -6 -7 3 -21
-1 -32 -9 -25 -19 -32 -18 -38 5 -3 13 0 18 8 15 15 -6 39 22 30 36 -5 8 -13
6 -27 -6 -16 -16 -21 -16 -28 -4 -14 22 -12 29 17 58 15 15 28 31 28 35 0 4 5
11 10 15 6 4 16 15 24 24 12 16 11 18 -13 16 -14 -1 -26 -7 -26 -13 -1 -5 -10
7 -21 28 -19 36 -28 45 -30 30z"/>
</g>
</svg>
