<?xml version="1.0" standalone="no"?>
<!DOCTYPE svg PUBLIC "-//W3C//DTD SVG 20010904//EN"
 "http://www.w3.org/TR/2001/REC-SVG-20010904/DTD/svg10.dtd">
<svg version="1.0" xmlns="http://www.w3.org/2000/svg"
 width="408.000000pt" height="612.000000pt" viewBox="0 0 408.000000 612.000000"
 preserveAspectRatio="xMidYMid meet">
<metadata>
Created by potrace 1.16, written by Peter Selinger 2001-2019
</metadata>
<g transform="translate(0.000000,612.000000) scale(0.100000,-0.100000)"
fill="#000000" stroke="none">
<path d="M1895 5941 c-97 -22 -175 -51 -227 -86 -46 -31 -69 -78 -134 -279
-25 -78 -50 -152 -56 -166 -19 -46 -66 -196 -123 -392 -18 -62 -15 -76 29
-117 34 -32 33 -37 -7 -50 -19 -7 -44 -23 -55 -36 -12 -14 -26 -25 -31 -25
-19 0 -101 -61 -122 -91 -68 -96 -93 -185 -90 -324 1 -85 -13 -188 -30 -210
-17 -23 -30 -103 -34 -199 -4 -99 -24 -187 -56 -248 -16 -29 -25 -75 -44 -218
-18 -136 -19 -263 -4 -435 6 -70 7 -134 4 -143 -10 -23 -9 -182 0 -205 4 -10
2 -55 -4 -100 -21 -150 -22 -158 -8 -190 31 -70 37 -89 37 -107 0 -19 86 -100
106 -100 7 0 35 -16 63 -35 28 -19 60 -35 72 -35 17 0 20 -4 15 -22 -7 -24 -9
-44 -26 -263 -7 -77 -13 -152 -15 -166 -4 -36 3 -45 57 -68 25 -10 49 -24 52
-30 4 -6 25 -15 46 -21 35 -9 40 -14 40 -40 0 -16 -10 -66 -22 -112 -29 -110
-35 -309 -14 -428 8 -47 24 -137 36 -200 31 -172 31 -178 34 -270 4 -119 -6
-192 -29 -216 -11 -10 -38 -47 -59 -81 -28 -45 -50 -66 -79 -79 -43 -20 -81
-71 -91 -121 l-5 -33 104 0 c87 0 105 3 105 15 0 19 24 19 44 0 19 -19 36 -19
36 0 0 8 5 15 10 15 6 0 10 9 10 20 0 11 -7 20 -15 20 -8 0 -15 5 -15 10 0 14
23 12 45 -4 17 -12 18 -16 5 -32 -9 -11 -10 -15 -2 -10 8 5 12 0 12 -13 0 -18
6 -21 45 -21 31 0 47 5 51 14 3 8 31 34 61 56 62 47 59 27 29 200 -8 48 -12
110 -9 142 3 31 1 70 -5 88 -19 52 32 370 72 448 24 50 39 147 32 224 -3 40
-9 128 -12 195 l-6 123 33 1 c19 0 27 3 19 6 -23 9 -30 24 -30 66 0 36 1 37
38 38 l37 1 -35 10 c-31 9 -33 11 -15 19 17 6 17 8 3 8 -10 1 -18 8 -18 16 0
8 8 15 18 15 16 1 16 1 0 10 -22 13 -12 50 14 50 11 0 22 9 25 20 3 11 14 20
24 20 11 0 19 5 19 10 0 17 22 11 41 -11 16 -18 42 -26 92 -28 10 -1 15 -5 12
-11 -3 -5 6 -12 20 -16 13 -3 23 -10 20 -14 -3 -4 2 -10 10 -14 11 -4 15 2 15
23 0 35 9 61 20 61 5 0 8 -14 8 -30 -1 -17 2 -33 5 -37 4 -3 8 11 8 33 1 21 4
53 8 69 6 27 8 24 13 -25 4 -30 6 -75 4 -100 -2 -25 0 -71 4 -103 7 -64 4 -73
-25 -80 -11 -2 -1 -2 22 0 41 4 42 4 54 -36 9 -30 9 -54 1 -98 -6 -32 -17
-106 -23 -165 -12 -112 -4 -187 28 -265 35 -85 66 -398 44 -441 -5 -9 -11 -57
-15 -107 -7 -97 -19 -186 -35 -250 -10 -40 -10 -41 39 -87 l49 -48 105 0 c58
0 108 4 111 10 9 14 -13 50 -30 50 -8 0 -15 5 -15 10 0 22 30 8 64 -31 21 -22
44 -39 53 -37 15 3 15 5 -2 21 -12 13 -15 21 -7 29 13 13 46 3 37 -11 -3 -5
-1 -12 5 -16 5 -3 10 0 11 7 0 7 4 4 8 -7 8 -19 8 -19 15 3 8 23 32 30 38 10
3 -7 7 -5 11 6 4 9 3 15 -2 12 -10 -6 -25 24 -16 32 3 3 5 -1 5 -8 0 -7 3 -10
7 -7 3 4 12 2 20 -4 10 -9 13 -8 13 3 0 20 -38 53 -82 71 -28 12 -43 27 -61
64 -13 26 -36 68 -51 92 -37 58 -47 176 -23 278 18 82 37 170 78 363 36 173
38 319 8 453 -10 45 -19 96 -19 113 l0 31 -44 -8 c-24 -4 -106 -9 -182 -11
-115 -3 -138 -1 -141 12 -3 9 -1 11 4 5 13 -17 69 -17 83 0 11 13 8 16 -20 21
-22 5 -28 9 -18 15 10 7 8 9 -7 10 -20 0 -20 0 0 8 11 4 20 16 20 27 0 13 10
21 30 25 27 6 26 7 -12 8 -23 0 -44 5 -47 10 -11 18 6 41 30 41 15 0 24 6 24
16 0 10 -6 14 -14 11 -13 -5 -46 21 -46 36 0 4 11 7 25 7 14 0 25 4 25 9 0 5
12 12 26 15 l26 7 -25 22 c-24 20 -25 23 -10 42 11 15 14 16 10 3 -7 -20 23
-34 34 -16 5 7 6 26 3 41 -3 18 -1 26 6 22 5 -3 18 -1 27 5 17 11 17 11 0 6
-32 -10 -37 3 -10 30 18 19 28 22 33 14 4 -7 13 -9 19 -6 21 13 11 26 -21 26
-45 0 -68 15 -38 25 l22 7 -23 12 c-12 6 -24 17 -27 25 -3 9 0 11 8 6 10 -6
11 -4 4 6 -12 20 -14 31 -23 149 -6 69 -6 107 1 111 6 4 5 8 -3 11 -11 4 -12
8 -2 20 7 8 10 18 6 21 -3 4 -2 7 3 7 5 0 10 9 11 20 2 17 -2 20 -20 14 -17
-5 -19 -4 -10 6 7 8 8 21 4 34 -5 11 -11 51 -15 88 -7 70 5 111 29 101 9 -3
11 9 10 37 -1 24 3 47 11 55 8 7 13 22 11 32 -9 43 -21 81 -42 128 -12 28 -26
77 -30 109 -4 33 -11 70 -16 83 -6 18 -4 25 11 33 26 14 30 13 30 -12 0 -12 6
-29 14 -37 8 -9 21 -36 29 -61 8 -24 19 -46 25 -48 13 -4 10 12 -13 63 -10 22
-18 46 -18 53 0 6 -4 12 -8 12 -12 0 -18 41 -6 45 37 13 51 9 58 -15 l7 -25 1
26 c1 24 6 27 54 34 28 4 69 8 90 9 23 1 37 6 37 14 0 7 4 10 10 7 9 -5 27
-60 36 -110 2 -11 8 -40 13 -65 6 -25 12 -74 15 -110 3 -36 10 -99 16 -140 11
-87 3 -479 -13 -583 -2 -15 -1 -27 2 -27 3 0 6 -40 6 -89 0 -56 5 -94 13 -103
7 -9 9 -23 6 -33 -6 -14 -3 -16 12 -11 31 9 50 -54 53 -174 1 -26 4 -31 11
-20 8 14 12 86 10 198 0 26 6 49 15 58 10 11 15 36 16 82 l0 67 109 52 c117
56 149 87 165 163 4 19 14 48 22 64 13 24 13 39 5 80 -18 85 -25 193 -13 200
6 4 8 24 4 51 -3 25 0 64 7 90 10 36 10 48 0 60 -10 12 -10 28 -1 74 17 88 26
202 25 331 0 148 -14 331 -26 350 -6 11 -7 8 -3 -8 8 -29 -15 -354 -26 -366
-4 -5 -1 -15 7 -23 8 -8 12 -24 9 -36 -3 -12 -7 -39 -8 -59 -1 -20 -5 -40 -9
-43 -4 -4 -4 -13 -1 -21 3 -8 2 -22 -3 -31 -4 -10 -8 -30 -9 -45 -2 -15 -6
-35 -10 -45 -4 -10 -7 -31 -6 -47 2 -23 0 -28 -14 -22 -9 3 -25 6 -35 6 -13 0
-20 11 -25 38 -10 48 -18 291 -13 377 1 11 -2 30 -6 43 -5 16 -4 22 5 20 15
-3 19 22 6 39 -5 7 -6 22 -2 34 5 13 2 25 -6 30 -11 6 -10 14 4 43 9 20 13 36
9 36 -5 0 -6 27 -4 61 3 37 0 65 -7 72 -6 6 -11 20 -11 31 -1 26 -36 70 -50
61 -17 -10 -53 22 -57 52 -5 45 -8 57 -16 70 -15 24 43 48 133 56 44 4 45 4
47 -24 4 -65 6 -79 12 -79 3 0 7 -10 8 -23 1 -28 42 -122 49 -114 3 3 -2 19
-11 36 -8 17 -18 66 -21 109 -3 42 -8 83 -10 91 -2 7 1 20 8 28 9 11 8 29 -2
81 -7 37 -16 72 -21 77 -17 23 -39 152 -39 235 0 49 -4 91 -8 94 -5 3 -8 -10
-7 -30 1 -19 -6 -69 -16 -112 -22 -91 -25 -182 -6 -182 16 -1 -60 -36 -97 -44
-26 -7 -28 -6 -16 9 7 9 9 15 4 14 -29 -5 -44 4 -54 36 -6 19 -16 35 -21 35
-11 0 1 63 14 71 5 4 27 10 48 13 24 4 42 14 49 26 20 37 -60 90 -114 76 -18
-4 -25 -15 -31 -43 -4 -21 -11 -44 -17 -50 -6 -7 -7 -13 -3 -13 4 0 2 -7 -5
-15 -6 -8 -9 -19 -6 -24 4 -5 1 -13 -5 -16 -5 -4 -8 -14 -5 -22 3 -8 2 -12 -3
-8 -5 3 -9 -28 -9 -72 0 -78 -2 -92 -17 -127 -5 -11 -3 -21 4 -26 9 -5 8 -9
-6 -15 -10 -5 -21 -8 -24 -7 -3 0 -3 -13 -1 -30 3 -20 1 -29 -6 -24 -6 3 -14
1 -18 -5 -4 -7 -3 -9 4 -5 6 3 13 2 17 -4 4 -6 11 -8 16 -5 5 4 9 -10 9 -30 0
-28 -4 -36 -14 -32 -21 8 -57 -35 -45 -53 8 -12 9 -11 7 5 -2 14 2 20 15 19 9
-1 17 2 17 7 0 5 7 9 15 9 14 0 19 -12 16 -32 0 -5 4 -8 9 -8 6 0 10 -6 9 -12
-1 -7 0 -20 4 -28 10 -25 14 -80 6 -80 -4 0 -5 -9 -2 -20 5 -17 0 -20 -30 -20
-47 0 -115 -31 -110 -50 4 -12 3 -12 -5 -2 -5 7 -26 15 -47 18 -37 4 -86 15
-134 30 -17 5 -22 4 -17 -4 5 -8 0 -12 -13 -12 -12 0 -21 6 -21 13 0 9 -3 8
-9 -2 -6 -10 -19 -12 -44 -7 -20 4 -38 2 -41 -3 -4 -5 -15 -8 -26 -6 -11 2
-20 0 -20 -5 0 -4 -15 -6 -32 -4 -18 3 -55 6 -83 7 -74 5 -75 5 -76 30 0 21
-1 21 -8 2 -5 -13 -3 -28 6 -42 23 -35 11 -43 -32 -22 -22 11 -41 20 -42 20
-2 0 -18 6 -37 14 -20 8 -51 16 -71 17 -19 2 -35 8 -35 13 0 6 -4 4 -9 -4 -5
-8 -16 -11 -26 -7 -10 3 -24 1 -31 -5 -11 -9 -14 -9 -14 0 0 7 -5 9 -11 6 -6
-4 -5 2 3 14 7 12 22 21 33 21 11 0 28 7 39 15 20 15 14 35 -10 35 -9 0 -12 5
-8 13 4 6 4 9 -1 5 -7 -7 -59 27 -61 40 0 4 -3 14 -7 22 -13 35 -13 46 2 57
10 8 11 12 4 13 -7 0 -15 17 -19 38 -4 20 -13 50 -21 66 -8 16 -12 39 -8 53 3
14 1 31 -6 39 -9 11 -9 14 0 14 9 0 9 5 0 21 -6 12 -7 19 -1 15 5 -3 12 3 15
14 3 11 2 20 -2 20 -4 0 -8 18 -9 40 -2 22 1 40 7 40 5 0 7 10 4 21 -6 20 -7
20 -19 -7 l-12 -29 -1 27 c-1 15 -5 29 -10 33 -5 3 -8 17 -5 30 2 14 0 25 -6
25 -5 0 -10 -13 -10 -30 0 -20 -5 -30 -15 -30 -9 0 -15 10 -15 26 0 14 4 22
10 19 6 -3 7 1 4 10 -9 23 6 106 18 99 5 -3 8 -17 5 -30 -2 -13 0 -24 4 -24 5
0 9 9 9 20 0 17 3 18 25 8 14 -6 25 -15 25 -20 0 -4 9 -8 19 -8 11 0 32 -5 48
-12 15 -6 36 -10 46 -9 10 1 24 -2 30 -7 7 -5 28 -13 47 -17 19 -4 50 -16 70
-25 66 -34 136 -45 183 -31 23 7 50 13 60 14 9 1 17 5 17 9 0 4 16 10 36 14
54 10 180 60 249 99 87 49 295 266 231 242 -9 -4 -16 -2 -16 3 0 6 9 10 20 10
11 0 26 12 35 30 19 36 19 40 0 40 -8 0 -15 7 -15 15 0 18 17 20 22 3 2 -6 10
-8 17 -4 9 6 9 11 1 21 -15 18 -9 61 8 58 14 -4 15 7 2 27 -9 13 -11 13 -21 0
-9 -13 -10 -12 -5 3 5 14 -3 22 -34 35 -22 9 -40 21 -40 25 0 4 16 17 35 28
57 34 57 44 -5 249 -35 118 -132 404 -152 452 -12 27 -25 45 -31 41 -6 -3 -7
-1 -3 6 9 13 -39 147 -62 173 -8 10 -18 15 -22 13 -5 -3 -10 -1 -12 4 -1 6
-29 21 -60 35 l-57 25 6 -31 c5 -25 3 -30 -8 -23 -11 6 -11 5 -2 -5 7 -7 10
-25 8 -39 -17 -108 -14 -101 -40 -91 -23 9 -23 7 -22 -33 l2 -42 -67 -3 c-62
-3 -68 -1 -68 17 0 11 5 23 10 26 6 3 10 18 10 33 0 18 -3 23 -11 15 -19 -19
-59 8 -59 40 0 29 9 34 28 15 9 -9 12 -5 12 22 0 18 3 30 7 27 3 -4 12 -2 20
4 7 6 13 8 14 3 0 -5 1 -25 2 -44 2 -28 6 -35 22 -35 18 0 21 9 26 70 3 39 6
64 7 58 1 -7 7 -13 13 -13 5 0 7 5 4 10 -3 6 -1 10 4 10 18 0 13 -88 -5 -98
-15 -8 -15 -10 0 -15 9 -4 13 -13 10 -21 -5 -13 32 -44 41 -34 2 2 5 45 7 97
l3 93 -50 14 c-88 24 -182 26 -270 5z m312 -338 c21 -11 43 -31 50 -44 15 -31
17 -131 3 -189 -22 -89 -23 -102 -9 -111 8 -5 9 -9 3 -9 -7 0 -15 -11 -18 -25
-4 -14 -12 -25 -19 -25 -8 0 -8 -3 2 -9 18 -12 6 -45 -14 -38 -8 4 -16 -2 -20
-14 -4 -11 -9 -18 -12 -15 -4 3 -12 1 -19 -5 -10 -8 -21 -3 -46 20 -20 19 -44
31 -60 31 -15 0 -30 5 -33 10 -10 16 76 12 109 -5 35 -18 36 -18 36 -1 0 25
-31 40 -93 43 -34 2 -66 8 -71 13 -10 10 4 14 32 11 6 -1 12 3 12 8 0 6 9 19
21 30 24 22 17 45 -12 36 -46 -15 -55 31 -32 175 l5 35 15 -37 c8 -21 19 -35
24 -32 5 3 9 1 9 -5 0 -6 13 -17 30 -26 32 -17 54 -20 46 -6 -3 5 12 16 34 25
62 25 73 74 25 108 -14 10 -179 -3 -186 -15 -9 -13 -29 1 -29 21 0 14 -2 15
-9 3 -8 -12 -18 -13 -48 -5 -30 7 -37 13 -35 29 5 28 5 28 80 36 100 11 186 4
229 -18z m29 -573 c-5 -44 -3 -70 3 -75 6 -3 11 2 11 12 1 13 5 11 16 -10 21
-39 10 -82 -34 -124 -50 -49 -95 -62 -217 -65 -76 -2 -85 1 -85 26 0 41 50 44
71 4 14 -26 61 -21 66 7 10 57 10 85 0 85 -7 1 -1 10 12 20 14 13 18 20 10 21
-11 0 -11 2 -1 6 6 2 12 10 12 17 0 7 15 29 33 49 17 20 45 52 60 71 40 49 51
38 43 -44z m-883 -1356 c-17 -64 -5 -101 38 -117 l30 -12 -2 -105 c-3 -116
-17 -184 -46 -227 -49 -70 -96 -280 -123 -553 -6 -58 -14 -118 -19 -135 l-9
-30 -1 34 c-1 44 -9 36 -14 -14 -2 -21 -10 -41 -17 -43 -8 -3 -10 0 -5 7 4 7
0 20 -8 29 -9 9 -18 29 -22 44 -5 18 -13 26 -26 25 -10 -1 -19 -6 -19 -13 0
-6 -7 -17 -15 -24 -10 -8 -12 -17 -6 -28 6 -10 5 -24 0 -34 -6 -10 -7 -23 -4
-28 3 -6 2 -10 -4 -10 -6 0 -8 -7 -5 -15 10 -26 -22 -17 -36 11 -11 20 -12 31
-2 57 6 17 8 33 4 36 -14 11 -11 99 4 112 11 9 12 15 3 26 -7 7 -9 16 -6 20 4
3 2 12 -4 20 -15 18 16 67 38 59 8 -3 18 -6 23 -6 9 0 25 -39 22 -52 -1 -5 5
-8 13 -8 12 0 13 5 7 18 -5 9 -8 33 -7 52 2 19 6 69 9 110 9 112 20 164 59
276 34 96 48 175 77 439 4 39 17 97 28 130 11 33 26 83 34 110 l13 50 6 -80
c4 -53 1 -97 -8 -131z m1357 58 c11 -45 35 -216 45 -317 9 -87 25 -185 35
-220 4 -16 17 -59 28 -95 32 -101 34 -117 33 -249 -1 -120 -2 -126 -31 -169
-16 -24 -37 -67 -47 -96 -14 -41 -18 -46 -20 -26 -26 236 -33 280 -44 280 -5
0 -9 -25 -9 -57 0 -60 -8 -68 -14 -12 -2 19 -6 41 -9 49 -10 26 -29 142 -24
147 3 2 1 19 -4 36 -6 18 -12 43 -14 57 -2 14 -13 50 -24 80 -18 46 -19 57 -7
68 11 11 11 24 0 75 -7 34 -13 106 -14 160 0 90 2 99 20 104 11 3 30 22 42 42
21 33 23 47 21 151 -2 112 -2 114 12 75 9 -22 20 -59 25 -83z m-1609 -72 c6
-30 20 -66 30 -79 11 -13 19 -31 19 -40 1 -13 3 -12 16 4 14 19 15 18 9 -20
-33 -215 -48 -342 -41 -354 4 -5 2 -12 -3 -15 -5 -4 -13 -35 -16 -71 -4 -36
-12 -65 -17 -65 -6 0 -8 -9 -5 -20 3 -11 1 -23 -4 -26 -5 -3 -7 -10 -4 -15 4
-5 -10 -9 -29 -9 -20 0 -36 5 -36 11 0 5 5 7 11 4 7 -5 9 4 5 29 -4 22 -2 36
4 36 7 0 7 7 -1 21 -6 12 -7 19 -1 15 10 -6 22 47 22 97 0 16 4 26 10 22 6 -3
7 1 4 9 -3 9 -10 13 -15 10 -5 -3 -9 -2 -10 3 0 4 -3 28 -7 53 -3 25 -7 74 -7
110 0 36 -4 68 -9 72 -15 10 -13 205 2 219 6 7 12 23 12 36 0 26 31 48 42 30
4 -7 13 -37 19 -67z m514 -702 c4 -46 7 -96 6 -111 -1 -15 3 -36 8 -46 7 -12
6 -22 -1 -29 -8 -8 -5 -14 13 -22 22 -10 23 -10 2 -6 -15 3 -23 -1 -23 -9 0
-7 -3 -15 -7 -18 -5 -2 -2 -2 5 -1 6 2 12 -1 12 -6 0 -6 -4 -10 -10 -10 -5 0
-10 -5 -10 -11 0 -5 6 -7 13 -4 6 4 2 -2 -11 -12 -21 -17 -22 -21 -8 -32 9 -8
16 -19 16 -26 0 -8 6 -16 13 -19 6 -3 1 -3 -12 0 -16 4 -21 3 -17 -5 4 -6 2
-11 -4 -11 -6 0 -9 -4 -5 -10 3 -5 12 -7 20 -3 11 4 15 -2 15 -22 0 -27 0 -28
-20 -10 -18 16 -20 16 -20 2 0 -10 6 -17 13 -18 6 0 3 -4 -8 -8 -11 -5 -25 -5
-31 0 -6 5 -18 7 -25 4 -8 -3 -21 0 -29 5 -13 8 -13 11 2 26 16 16 18 16 37
-7 11 -13 20 -19 21 -13 0 5 -5 15 -12 22 -9 9 -8 12 5 12 9 0 17 5 17 10 0 6
-12 9 -27 8 -26 -3 -28 0 -30 35 0 25 4 40 13 44 8 3 11 9 8 14 -3 5 -10 7
-15 4 -5 -3 -6 1 -3 9 4 11 0 16 -12 16 -15 0 -16 2 -5 9 8 5 10 14 6 21 -6 9
-4 11 5 5 10 -6 12 -3 8 13 -4 12 -2 25 3 28 12 7 11 42 -1 46 -7 2 -5 17 4
43 8 22 15 36 15 32 1 -5 6 -5 12 -1 8 4 3 12 -12 21 -13 8 -17 12 -9 10 8 -2
21 1 27 9 10 10 10 16 -1 27 -12 11 -10 16 9 33 12 10 20 25 18 32 -3 6 -1 12
4 12 6 0 14 -37 18 -82z m1382 -233 c12 -9 20 -22 17 -30 -3 -7 1 -29 9 -47
16 -34 29 -170 16 -162 -11 7 -21 -14 -13 -27 4 -8 9 -7 15 2 6 9 9 10 9 2 0
-6 3 -20 6 -30 4 -13 3 -14 -3 -5 -8 10 -12 10 -23 -3 -15 -18 -37 -21 -23 -2
5 6 6 26 2 42 -4 20 -7 23 -8 10 -2 -27 -35 -65 -56 -65 -12 0 -16 6 -12 20 3
11 1 23 -4 26 -5 3 -9 14 -9 25 0 10 -4 19 -9 19 -14 0 -33 57 -34 98 0 46 13
94 27 105 8 6 7 10 -3 14 -11 5 -11 7 0 14 22 14 73 10 96 -6z"/>
</g>
</svg>
